<?xml version="1.0" encoding="utf-8"?>
<!-- Generator: Adobe Illustrator 18.1.1, SVG Export Plug-In . SVG Version: 6.00 Build 0)  -->
<svg version="1.1" id="Layer_1" xmlns="http://www.w3.org/2000/svg" xmlns:xlink="http://www.w3.org/1999/xlink" x="0px" y="0px"
	 viewBox="0 0 166.5 158.9" enable-background="new 0 0 166.5 158.9" xml:space="preserve">
<g>
	<path fill="#FFFFFF" stroke="#003366" stroke-width="5.0721" stroke-miterlimit="10" d="M164,149.7c0,3.7-3.1,6.7-7,6.7H9.6
		c-3.9,0-7-3-7-6.7V9.2c0-3.7,3.1-6.7,7-6.7H157c3.9,0,7,3,7,6.7V149.7z"/>
	<g>
		<path fill="#003366" d="M73.8,38.1c0,1-0.7,1.8-1.9,1.8c-1.1,0-1.8-0.8-1.8-1.8c0-1,0.7-1.8,1.8-1.8
			C73.1,36.3,73.8,37.1,73.8,38.1z M70.6,58.6v-16h2.9v16H70.6z"/>
		<path fill="#003366" d="M78.9,47c0-1.7-0.1-3-0.1-4.3h2.5l0.1,2.6h0.1c0.9-1.5,2.4-2.9,5.1-2.9c2.2,0,3.8,1.3,4.5,3.2h0.1
			c0.5-0.9,1.2-1.6,1.8-2.1c1-0.7,2-1.1,3.5-1.1c2.1,0,5.3,1.4,5.3,6.9v9.4H99v-9c0-3.1-1.2-4.9-3.5-4.9c-1.7,0-2.9,1.2-3.5,2.6
			c-0.1,0.4-0.2,0.9-0.2,1.5v9.9H89v-9.6c0-2.5-1.1-4.4-3.3-4.4c-1.8,0-3.1,1.5-3.6,2.9c-0.2,0.4-0.2,0.9-0.2,1.4v9.6h-2.8V47z"/>
		<path fill="#003366" d="M118.4,54.8c0,1.4,0.1,2.7,0.2,3.8H116l-0.2-2h-0.1c-0.9,1.3-2.6,2.4-4.9,2.4c-3.2,0-4.9-2.3-4.9-4.6
			c0-3.9,3.4-6,9.6-6v-0.3c0-1.3-0.4-3.7-3.6-3.7c-1.5,0-3.1,0.4-4.2,1.2l-0.7-2c1.3-0.8,3.3-1.4,5.3-1.4c4.9,0,6.1,3.3,6.1,6.5
			V54.8z M115.6,50.5c-3.2-0.1-6.8,0.5-6.8,3.6c0,1.9,1.3,2.8,2.7,2.8c2.1,0,3.5-1.3,3.9-2.7c0.1-0.3,0.1-0.7,0.1-0.9V50.5z"/>
		<path fill="#003366" d="M127.1,38.8v3.8h4.2v2.2h-4.2v8.6c0,2,0.6,3.1,2.2,3.1c0.8,0,1.3-0.1,1.7-0.2l0.1,2.2
			c-0.6,0.2-1.5,0.4-2.6,0.4c-1.4,0-2.4-0.5-3.1-1.2c-0.8-0.9-1.1-2.3-1.1-4.2v-8.7h-2.5v-2.2h2.5v-3L127.1,38.8z"/>
		<path fill="#003366" d="M136.6,51.2c0.1,3.9,2.5,5.6,5.5,5.6c2.1,0,3.4-0.4,4.4-0.8L147,58c-1,0.5-2.8,1-5.4,1
			c-4.9,0-7.9-3.3-7.9-8.1c0-4.8,2.8-8.6,7.5-8.6c5.3,0,6.6,4.6,6.6,7.5c0,0.6,0,1-0.1,1.4H136.6z M145.1,49.1c0-1.8-0.8-4.7-4-4.7
			c-3,0-4.2,2.7-4.5,4.7H145.1z"/>
	</g>
	<g>
		<path fill="#003366" d="M75.9,79.2v9.6h-3v-9.3c0-2.6-1-4.8-3.7-4.8c-1.9,0-3.4,1.3-4,2.9c-0.2,0.4-0.2,0.9-0.2,1.4v9.8h-2.9V35.2
			h3v39.1h0v1h0.1c0.5-0.8,1.2-1.6,2.1-2.1c0.9-0.5,1.9-0.8,3-0.8C72.4,72.3,75.9,73.7,75.9,79.2z"/>
		<path fill="#003366" d="M92.4,85c0,1.4,0.1,2.8,0.2,3.9H90l-0.2-2h-0.1c-0.9,1.3-2.6,2.4-5,2.4c-3.3,0-5-2.3-5-4.7
			c0-3.9,3.5-6.1,9.7-6v-0.3c0-1.3-0.4-3.8-3.7-3.7c-1.5,0-3.1,0.4-4.3,1.2l-0.7-2c1.3-0.8,3.3-1.4,5.4-1.4c5,0,6.2,3.4,6.2,6.6V85z
			 M89.5,80.6c-3.2-0.1-6.9,0.5-6.9,3.7c0,1.9,1.3,2.8,2.7,2.8c2.1,0,3.5-1.3,4-2.7c0.1-0.3,0.1-0.7,0.1-0.9V80.6z"/>
		<path fill="#003366" d="M97.4,77.1c0-1.7,0-3-0.1-4.4h2.6l0.2,2.7h0.1c0.8-1.5,2.7-3,5.4-3c2.2,0,5.7,1.3,5.7,6.9v9.6h-2.9v-9.3
			c0-2.6-1-4.8-3.8-4.8c-1.9,0-3.4,1.4-4,3c-0.1,0.4-0.2,0.9-0.2,1.4v9.7h-2.9V77.1z"/>
		<path fill="#003366" d="M130.1,86.5c0,3.8-0.8,6-2.3,7.4c-1.6,1.4-3.9,1.9-5.9,1.9c-1.9,0-4.1-0.5-5.4-1.3l0.7-2.3
			c1.1,0.7,2.7,1.3,4.8,1.3c3,0,5.2-1.6,5.2-5.7v-1.8h-0.1c-0.9,1.5-2.6,2.7-5.2,2.7c-4,0-6.9-3.4-6.9-7.9c0-5.5,3.6-8.6,7.3-8.6
			c2.8,0,4.3,1.4,5.1,2.8h0.1l0.1-2.4h2.6c-0.1,1.1-0.1,2.5-0.1,4.4V86.5z M127.2,79.1c0-0.5,0-0.9-0.2-1.3
			c-0.5-1.7-1.9-3.1-4.1-3.1c-2.8,0-4.8,2.4-4.8,6.1c0,3.2,1.6,5.8,4.8,5.8c1.8,0,3.5-1.1,4.1-3c0.2-0.5,0.2-1.1,0.2-1.6V79.1z"/>
		<path fill="#003366" d="M136.9,81.3c0.1,4,2.6,5.6,5.6,5.6c2.1,0,3.4-0.4,4.5-0.8l0.5,2.1c-1,0.5-2.8,1-5.4,1c-5,0-8-3.3-8-8.2
			c0-4.9,2.9-8.7,7.6-8.7c5.3,0,6.7,4.6,6.7,7.6c0,0.6,0,1-0.1,1.4H136.9z M145.5,79.2c0-1.8-0.8-4.8-4.1-4.8c-3,0-4.3,2.7-4.5,4.8
			H145.5z"/>
	</g>
	<g>
		<path fill="#003366" d="M57.9,86.1c-2.5,1.2-7.9,3-14.8,3c-15.6,0-25.7-10.6-25.7-26.4c0-15.9,10.9-27.5,27.8-27.5
			c5.6,0,10.5,1.4,13,2.8l-2.1,7.2c-2.2-1.2-5.8-2.5-10.9-2.5c-11.8,0-18.3,8.9-18.3,19.5c0,12,7.7,19.3,17.9,19.3
			c5.3,0,8.9-1.3,11.5-2.5L57.9,86.1z"/>
	</g>
	<text transform="matrix(1 0 0 1 16.1962 116.5776)" fill="#003366" font-family="'MyriadPro-Regular'" font-size="28.7927">Adaptation</text>
</g>
</svg>
