<?xml version="1.0" encoding="utf-8"?>
<!-- Generator: Adobe Illustrator 18.1.1, SVG Export Plug-In . SVG Version: 6.00 Build 0)  -->
<svg version="1.1" id="Layer_1" xmlns="http://www.w3.org/2000/svg" xmlns:xlink="http://www.w3.org/1999/xlink" x="0px" y="0px"
	 viewBox="0 0 65.6 166" enable-background="new 0 0 65.6 166" xml:space="preserve">
<g>
	<rect x="0.5" y="0" fill="#003399" stroke="#020202" stroke-width="9.263800e-02" width="64.7" height="64.7"/>
	<g id="WzcW1U_6_">
		<g id="XMLID_6_">
			<path fill="#FFFFFF" d="M60.3,32.6c0,0.3,0,0.6,0,1c-0.3,6-5,7.7-8.7,10.4c0.8-1.5,1.2-3.6,1.4-5.9c0.2-2.3,0.4-4.6,1.2-6.3
				c-0.2,2,0.9,4.3,0.7,6.4c-0.1,1.2-0.5,2-1.1,3c0.6-0.5,1.1-1.3,1.6-2c0.5-0.7,1.1-1.3,1.7-1.9c1.3-1.3,2.9-2.8,3.1-5.2
				C60.4,32.1,60.1,32.6,60.3,32.6z"/>
			<path fill="#FFFFFF" d="M59.6,24.3c1.2,2.8,0.7,7-0.8,9.3c-0.9,1.5-2.3,2.5-3,4c0.3-4.6-2.2-7-1.9-11.9c1.1,2.8,3.6,5,2.7,9.1
				c0.5-1.6,0.8-3,1.4-4.5C58.8,28.5,59.7,26.8,59.6,24.3z"/>
			<path fill="#FFFFFF" d="M59.1,22.9c0.1,3.1-1.8,4.9-1.9,7.7c-0.5-2.1-1.5-3.6-2.6-5.1c-1.1-1.5-2.1-3-2.3-5.3
				c1.4,2.4,4.2,3.3,4.7,6.6c-0.2-3.3,1.2-7.2-0.3-9.6C58,18.4,59,20.7,59.1,22.9z"/>
			<path fill="#FFFFFF" d="M58.4,39.7c-0.2,2-1.4,3.6-2.5,4.7c-1.1,1.1-2.4,2.1-4,2.7c-1.6,0.6-3.5,0.5-5.5,1.1
				c-0.2,0.1,0.1-0.3,0.3-0.4c0.5-0.5,1-1.1,1.4-1.9c0.5-0.9,0.9-2,1.2-3.1c0.7-2.2,1.9-4,3.1-5.5c-0.2,0.8-0.5,1.6-0.6,2.4
				c-0.3,1.8-0.4,3.5-1.2,5c-0.3,0.6-1.1,1.4-1.6,1.9c-0.1,0-0.1,0.1-0.1,0.1c0,0.1-0.1,0.1-0.1,0.1c1.6-1.1,3.3-2.3,5.2-3.2
				C55.8,42.8,57.6,41.7,58.4,39.7z"/>
			<path fill="#FFFFFF" d="M56.4,18.5c0.1,1.6-0.2,3.4-0.1,5.3c-1.6-3.3-6.1-3.8-6.3-8.5c1.2,2.6,4.4,3.1,5.4,5.8
				c-0.3-1.2-0.6-2.7-1-4.1c-0.3-1.5-0.8-2.8-1.9-3.4C54.7,14.1,56.2,15.9,56.4,18.5z"/>
			<path fill="#FFFFFF" d="M54,18.1c0,0.3-0.3-0.1-0.4-0.2c-1-0.9-2.3-1.9-3.2-3c-1-1.4-1.9-2.9-3.2-3.9c0-0.1,0.1,0,0.1,0
				c2.6,0.9,4.8,2,5.8,4.5C53.5,16.3,53.6,17.2,54,18.1z"/>
			<path fill="#FFFFFF" d="M52.3,27.1c0.4,6.2-1.8,11.1-4.9,14.4c-2.9,3.2-7.2,6.1-12.9,6.5c-6.2,0.5-11.3-1.9-14.5-4.8
				c-3.5-3.1-6.1-7.1-6.5-12.9c-0.5-6.4,1.8-11.2,4.7-14.6c2.9-3.3,7.2-6.1,13.1-6.5c6.3-0.5,11.4,1.9,14.6,4.9
				c1.8,1.7,3.1,3.2,4.3,5.5C51.2,21.8,52.1,24.1,52.3,27.1z M48.5,28.3c1.1,0,2.1,0,3.2,0c-0.2-5.8-2.4-9.6-5.3-12.7
				c-0.8,0.7-1.6,1.4-2.2,2.3C46.5,20.4,48.3,23.5,48.5,28.3z M51.7,29c-1.1,0-2.1,0-3.2,0c-0.1,4.8-2.1,7.9-4.3,10.6
				c0.8,0.7,1.4,1.5,2.3,2.1C49.2,38.5,51.5,34.8,51.7,29z M44.9,28.3c1,0,2,0,3,0c-0.2-3.4-1.1-6-2.6-8c-0.2,0.1,0,0.7-0.3,0.8
				c-0.9-0.5-1.4-1.4-2.5-1.6c-0.3,0.2-0.6,0.5-0.8,0.8C43.4,22.3,44.8,24.6,44.9,28.3z M47.9,29c-1,0-2,0-3,0
				c-0.1,2.8-0.9,4.8-2.1,6.5c0,0.9-0.5,1.6-0.5,2.2c0.2,0.2,0.8,0,0.9,0.3c-0.1,0.6,0.2,0.8,0.6,1c0.2-0.4,0.6-0.5,0.7-1
				c-0.2,0.1-0.1-0.2-0.1-0.3c-0.1-0.1-0.3-0.1-0.3-0.3c0-0.3,0.2-0.4,0.3-0.6c0.1-0.4,0-0.8,0.1-0.9c0.7-0.1,0.6,0.9,0.7,1.2
				C46.7,34.9,47.7,32.4,47.9,29z M43.6,17.3c0.8-0.7,1.6-1.4,2.3-2.3c-3.2-2.8-6.9-5-12.7-5.2c0,1.1,0,2.1,0,3.2
				c0.3,0,0.6,0,0.8,0.1c0.2-0.1,0.2-0.4,0.5-0.4c0.2,0,0.6-0.2,1-0.2c0.5,0,1.1-0.1,1.3,0.2c-0.3,0.1-0.7,0-0.8,0.3
				c-0.2,0-0.8-0.1-0.8,0.2C38.8,13.6,41.4,15.2,43.6,17.3z M45.9,42.2c-0.7-0.8-1.4-1.6-2.3-2.3c-0.3,0.5-0.9,0.6-1.2,1.1
				c-0.2,0.2-0.2,0.6-0.3,0.8c-0.3,0.4-0.9,0.8-1.4,1.1c-0.3,0.2-1.3,0.8-1.7,0.8c-0.3,0-0.6-0.3-0.8-0.3c-0.3,0-0.7,0.2-1.1,0.3
				c-1.2,0.3-2.4,0.5-3.9,0.5c0,1.1,0,2.1,0,3.2C39,47.3,42.7,45.1,45.9,42.2z M42.3,28.3c0.7,0,1.3,0,2,0c0-0.8-0.2-1.5-0.3-2.2
				c-0.5,0-0.1,0.8-0.3,1.1c-0.5-0.1,0-0.6-0.1-1c0-0.1-0.1-0.1-0.1-0.1c-0.2,0.3-0.3,0.7-0.8,0.8C43,27.6,42.3,27.6,42.3,28.3z
				 M44.3,29c-0.6,0-1.3-0.1-1.7,0.1c0.2,0.1,0.2,0.4,0.3,0.6c1.1,0.2,0.6,1.5-0.6,1.4c0,0.1,0,0.3,0,0.4c-0.7,0.1-0.6,0.8-0.8,1.2
				c-0.2,0.3-0.6,0.4-0.6,0.8c-0.3,0.2-0.6,0.3-0.7,0.6c0.3,0,0.5,0,0.7-0.1c0.2-0.4,0.4-1.1,0.8-1c0.2,1.1-0.2,2.1-0.8,2.7
				c-0.2,0-0.4,0-0.6,0c-0.1,0.1,0.3,0.4,0.5,0.6c0.2-0.2,0.5-0.4,0.8-0.4c0.3-0.4,0.5-0.9,0.8-1.4c0.2,0,0.1,0.1,0.3,0
				C43.6,32.9,44.2,31.2,44.3,29z M43.6,25.6c0.1-0.9-0.3-1.7-0.7-2.3c0,0.5,0.6,1,0.2,1.4c-0.4-0.5-1-0.8-1.2-1.5
				c0.4-0.2,0.7,0.2,1,0c-0.1-0.1-0.1-0.3-0.3-0.3c0,0.2-0.5,0.2-0.6,0c-0.1-0.2,0.2-0.1,0.1-0.3c-0.2-0.2-0.2,0.1-0.3,0.2
				c-0.1-0.2-0.5-0.4-0.4-0.5c0.2,0,0.4,0.1,0.6,0.1c0-0.1,0.1-0.1,0.1-0.2c-0.4-0.4-0.6-1-1.2-1.2c-0.6,0.7-1.3,1.2-1.9,2
				c0.3,0.4,0.7,0.8,1,1.2c0.7,0.1,1,0.5,1.2,1c0.2,0,0.3,0,0.5,0c-0.2,0.2-0.3,0.6,0.1,0.6c0.1-0.1,0-0.5,0.2-0.6
				c0.7,0,0.5,0.9,0.6,1.4c0.4,0,0.3-0.4,0.3-0.8C43.4,25.7,43.5,25.7,43.6,25.6z M43.2,39.6c-0.1-0.2-0.2-0.4-0.5-0.4
				c-0.1,0.2-0.2,0.3-0.1,0.6C42.9,39.8,43,39.7,43.2,39.6z M42.9,18c0.8-0.2-1-1.4-1.1-1.3C42.1,17.3,42.5,17.6,42.9,18z
				 M42.2,22.2c0,0.1,0.2,0.5,0.3,0.3C42.4,22.4,42.4,22.2,42.2,22.2z M41.2,19.8c0.2,0,0.7-0.8,0.7-0.8c-0.6-0.1-0.7-0.6-1.1-0.8
				c0.3-0.2-0.1-0.6-0.3-0.8c-0.3,0-0.3,0.2-0.7,0.1c-0.5-0.5-0.7-1.2-1.2-1.7c-0.2-0.2-0.6-0.3-0.6-0.7c0.2-0.3,0.7-0.1,1-0.3
				c-1.5-0.6-3.1-1.1-5-1.3c-0.2,0.1,0.4,0.2,0.1,0.3c-0.4-0.1-0.6-0.4-1-0.4c0,1,0,2,0,3c2.6,0,4.8,0.9,6.5,2.1
				C39.9,18.8,41.1,19.8,41.2,19.8z M40.7,20.4c-0.1-0.3-0.3-0.5-0.5-0.6C40.2,20.1,40.3,20.3,40.7,20.4z M40.4,20.5
				c-0.4-0.1-0.7-0.4-1-0.7c-0.1-0.3,0.2-0.4,0.1-0.5c-1.7-1.1-3.6-2-6.3-2.1c0,0.9,0,1.9,0,2.8c2.4,0.1,4.1,1,5.5,2.3
				C39.4,21.8,39.9,21.1,40.4,20.5z M39,36.1c0.2,0.1,0.5,0.1,0.8,0.1C39.8,35.8,38.9,35.3,39,36.1z M39.3,24.4
				c0.2-0.1,0.3,0.2,0.3,0c-0.2-0.1-0.2-0.5-0.5-0.6c-0.3,0.4,0,0.6,0.1,1c0.1,0,0.2,0,0.3,0C39.6,24.6,39.3,24.6,39.3,24.4z
				 M39,23.6c0-0.2-0.2-0.3-0.3-0.4c-0.1,0.2-0.4,0.4-0.5,0.6c0.2,0.1,0.3,0.2,0.5,0.1C38.6,23.6,38.7,23.4,39,23.6z M38.7,34.1
				c0-0.1,0.2-0.1,0.1-0.3c-0.1-0.1-0.3-0.1-0.5-0.1C38.4,33.9,38.6,33.9,38.7,34.1z M36.6,36.7c0.9-0.3,2.3-0.4,2.1-1.6
				c-0.1,0-0.1,0-0.2,0c-0.6,0.7-1.8,1.3-2.7,1.7c-0.3,0.1-0.8,0.1-1,0.4c0.5,0.2,1,0,1.7,0C36.5,37,36.5,36.8,36.6,36.7z
				 M38.2,34.5c-0.1-0.2-0.3-0.2-0.5-0.3c0,0.2,0,0.3-0.1,0.3c-0.1,0-0.1-0.2-0.3-0.1c-0.1,0.2-0.3,0.6-0.1,0.9
				C37.6,35.1,38,34.9,38.2,34.5z M38,22.9c-0.2,0.1-0.3-0.1-0.5-0.1c-0.2,0.1-0.3,0.4-0.6,0.4c0-0.1-0.4-0.3-0.3-0.4
				c0.2,0,0.4,0,0.6,0c0.1-0.3,0.4-0.4,0.7-0.5c-1.3-0.8-2.6-1.7-4.7-1.7c0,1.1,0,2.3,0,3.4c0.3,0,0.7,0,1,0c0.1-0.6,0.4-0.9,1-1
				c0,0.6-0.3,0.8-0.6,1.2c0.6,0.2,1.7,0.9,1.9-0.1c-0.2-0.1-0.4-0.2-0.3-0.5c0.1-0.1,0.4-0.4,0.6-0.2c0,0.3-0.3,0.3-0.3,0.5
				c0.3-0.1,0.4-0.3,0.5-0.4C37.6,23.7,37.7,23.3,38,22.9z M37.3,42.9c-0.4-0.2-1-0.1-1-0.6c0-0.3,0.3-0.4,0.4-0.5
				c-0.2-0.5-0.7-0.7-1.4-0.7c0-0.3,0.2-0.3,0.2-0.6c-0.8,0.1-1.4,0.2-2.3,0.2c0,1,0,2,0,3C34.7,43.6,36.2,43.4,37.3,42.9z
				 M36.6,29.5c-0.1,0-0.2-0.1-0.3-0.1c-0.1,0.2-0.1,0.4,0.1,0.5C36.5,29.8,36.6,29.7,36.6,29.5z M36.1,30.1
				c-0.3-0.1-0.6-0.3-0.8-0.5c0.1-0.1,0.3-0.2,0.3-0.4c-0.7,0.1-0.9-0.3-1.4-0.4c-0.1,0-0.3,0.3-0.3,0.1c0.3-0.2,0.6-0.8,1.1-0.6
				c0-0.1,0-0.3,0-0.4c-0.1,0-0.3,0-0.3-0.1c-0.1-0.5,0.4-0.3,0.5-0.6c-0.1,0-0.3,0.1-0.3-0.1c-0.3,0-0.3,0.1-0.5,0.1
				c-0.2-0.1-0.1-0.4-0.1-0.7c-0.1,0-0.2,0-0.3,0c-0.1-0.3,0-0.3-0.1-0.5c-0.3-0.1-0.3,0.1-0.5,0.1c-0.5-0.1-0.4-0.9-0.3-1.4
				c-0.2-0.2-0.3,0.1-0.5,0.2c-0.1,0.2,0.1,0.2,0.1,0.3c-0.2,0.2-0.2,0.5-0.3,0.8c-0.4,0.5-1.2,0.5-1.5,1.1c0.2,0.1,0.4-0.2,0.5,0
				c-0.1,0.3-0.5,0.4-0.8,0.3c0,0.3,0.5,0.2,0.5,0.5c0.2-0.1,0.2-0.7,0.6-0.5c-0.1,0.2-0.4,0.2-0.4,0.6c0,0.2,0.3,0,0.3,0.1
				c0,0.9-0.5,1.3-0.9,1.8c-0.3-0.3-0.8-0.1-1-0.1c0.1-0.9,1.4-0.7,1.5-1.6c-0.4-0.1-0.8,0.9-1.4,0.4c0.1-0.1,0.1-0.4,0.3-0.4
				c0.1,0,0.1,0.2,0.3,0.1c0.2-0.1-0.1-0.3,0.1-0.4c0.2,0,0.4,0.2,0.5-0.1c-0.4-0.3-0.6,0.1-1,0.1c0-0.2,0.2-0.2,0.2-0.4
				c-0.1-0.1-0.1-0.2-0.2-0.3c-0.6-0.1-0.7,0.4-0.7,0.8c0.2,0,0.5-0.1,0.5,0.1c-0.1,0.3-0.2,0.6-0.3,0.8c-0.2,0-0.2-0.2-0.2,0.1
				c0.1,2.3,3,4.2,5.2,3.1c0.3,0,0.7-0.2,0.5-0.3c-0.2,0.1-0.4,0.2-0.7,0.2c-0.1-0.4-0.1-1.2,0.2-1.4c0.5,0,1,0,1.2,0.4
				c0.1,0.3-0.2,0.2-0.2,0.3c0.2,0.1,0.4-0.1,0.5-0.3c-0.2-0.2-0.4-0.4-0.7-0.6C35.4,30.6,35.8,30.4,36.1,30.1z M35.7,32.8
				c-0.4-0.1-0.6,0.5-1.1,0.1c-0.1,0.3,0.4,0.9,0.1,1.2c-0.1,0-0.1,0.1-0.1,0.1c-0.2-0.1-0.4-0.2-0.4-0.5c-0.2,0-0.3,0.1-0.6,0.1
				c-0.1-0.1,0-0.5-0.1-0.7c-0.2-0.1-0.2,0.1-0.4,0.1c0,0.6-0.1,1.4,0.1,1.9c0.4,0,0.4-0.4,0.8-0.5c0-0.2-0.1-0.3-0.2-0.4
				c0.1-0.1,0.1-0.3,0.3-0.3c0.1,0.1,0.1,0.3,0.1,0.5c0.7,0,1.2-0.3,1-0.9c0.2,0,0.3,0,0.3-0.1c-0.1-0.1-0.3,0-0.2-0.2
				C35.3,32.9,35.7,33,35.7,32.8z M34.8,35.6c0,0.5,0.9,0.4,1.3,0.3C35.9,35.6,35.2,35.8,34.8,35.6z M35.2,36.3
				c-0.3-0.1-0.5-0.3-0.8-0.3c-0.2,0.3-1.3,0.2-1,0.8C33.9,36.5,34.7,36.6,35.2,36.3z M33.7,37.3c0,0.4,0.6,0.3,0.7,0.1
				C34.3,37.2,33.9,37.2,33.7,37.3z M32.3,34c0.2-0.1,0.2-0.4,0.2-0.8c-1.2-0.1-1.9-0.6-2.7-1.1c-0.7,0.9-1.7,1.5-2.3,2.5
				c1.1,1,2.4,1.8,4.2,2c0-0.2-0.2-0.4,0.1-0.4c0.3,0,0.5,0,0.8,0c0-0.9-0.2-1,0-1.7C32.5,34.1,32.3,34.2,32.3,34z M32.5,16.5
				c0-0.7,0-1.6,0-2.3c0-0.2,0.1-0.6-0.1-0.7c0,0-0.1,0-0.1,0c-1.8,0.2-3.6,0.4-5.6,1.4c-0.8,0.4-1.4,0.7-2.2,1.3
				c-0.3,0.2-1.9,1.2-1.9,1.6c0,0,0.4,0.4,0.5,0.5c0.6,0.6,1.1,1.1,1.6,1.5C26.4,18,28.8,16.7,32.5,16.5z M32.5,47.5
				c0-1.1,0-2.1,0-3.2c-4.8-0.2-7.9-2-10.5-4.3c-0.8,0.7-1.6,1.4-2.2,2.3C22.9,45.1,26.7,47.3,32.5,47.5z M32.5,43.7c0-1,0-2,0-3
				c-3.2-0.1-5.4-1.2-7.2-2.7c-0.5,0-0.7-0.2-1-0.3c-0.6,0.6-1.3,1.1-1.8,1.9C25,41.7,27.9,43.5,32.5,43.7z M32.5,24.1
				c0-1.1,0-2.3,0-3.4c-2.3,0.1-3.8,1-5.1,2.1c0.3,0.5,1.1,0.5,1.6,0.8c0.2,0,0.3,0,0.5,0c0.4,0.2,0.7,0.6,0.6,1.1
				C30.9,24.8,31.5,24.1,32.5,24.1z M32.5,20c0-0.9,0-1.9,0-2.8c-3.4,0.2-5.6,1.4-7.5,3.1c0.6,0.8,1.2,1.4,2,2
				C28.3,21,30,20.1,32.5,20z M32.5,12.9c0-1.1,0-2.1,0-3.2c-5.8,0.2-9.5,2.4-12.7,5.2c0.7,0.8,1.4,1.6,2.3,2.3
				C24.6,14.9,27.7,13.1,32.5,12.9z M32.4,24.8c-0.7,0-1.2,0.3-1.6,0.6C31.4,25.8,32.1,25.2,32.4,24.8z M31,37.8
				c0.2-0.3,0.6-0.3,0.8-0.5c-2.2-0.2-3.6-1.2-5-2.2c-0.5,0.7-1.3,1.2-1.8,1.9c1.3,1.4,3.2,2.5,5.3,2.8c-0.5-0.1-0.8-0.5-1-0.8
				c0.1-0.3,0.3-0.5,0.3-0.9C30.1,38,30.4,37.5,31,37.8z M29.4,31.6c-0.5-0.7-1-1.5-1.1-2.7c-0.2,0-0.1,0.4-0.5,0.3
				c-0.2,0-0.1-0.3-0.3-0.3c-0.9,0-1.9-0.1-2.7,0.1c0.2,2.2,1,3.8,2.2,5C27.7,33.2,28.5,32.4,29.4,31.6z M28.5,23.7
				c0-0.2-0.1-0.2-0.3-0.2C28.2,23.6,28.3,23.7,28.5,23.7z M26.8,23.7c0.2,0.1,0.3-0.1,0.5-0.1c-0.1-0.2-0.3-0.3-0.5-0.4
				C26.7,23.4,26.7,23.6,26.8,23.7z M24.8,28.3c0.7,0,1.4,0,2.1,0c0-0.3-0.5-0.1-0.5-0.4c-0.1-0.1,0-0.3-0.1-0.4
				c-0.3-0.1-0.8,0.3-0.8-0.1c0.1-0.2,0.4-0.2,0.7-0.3c0.2-0.6,0.4-1.1,0.6-1.7c-0.4-1.2-1.5-0.5-1.2,0.6c-0.4,0.3-0.5,0.7-0.6,1.3
				c0.4,0,0.1-0.6,0.4-0.6C25.4,27.5,25,27.7,24.8,28.3z M26.4,22.8c-0.6-0.8-1.2-1.4-2-2c-1.3,1.4-2.5,3.3-2.8,5.4
				c0.6-0.2,0.8,0.6,1,1.2c0.3,0,0.4,0,0.6,0.1c0.1-0.2,0-0.3-0.1-0.5c0.3-0.4,0.5-0.9,1.1-1C25,24.9,25.6,23.7,26.4,22.8z
				 M24.6,36.4c0.5-0.7,1.3-1.2,1.8-1.9c-1.2-1.4-2.1-3.1-2.3-5.5c-0.2,0-0.6-0.1-0.7,0.1c0.1,0.3-0.1,0.5-0.1,0.8
				c0,0.2,0.1,0.5,0.1,0.8c0,0.5-0.1,1.2-0.1,1.7c0.1,0.8,0.8,1.5,0.1,1.9C23.9,34.9,24.1,35.8,24.6,36.4z M24.1,28.3
				c0-0.6,0.1-1.1,0.2-1.6c-0.5-0.4-1.1,0.1-0.8,0.8c-0.1,0.1-0.1,0.2-0.3,0.2c0,0.2,0.2,0.3,0.1,0.6C23.6,28.3,23.9,28.3,24.1,28.3
				z M22.6,38.4c0.2-0.2,0.6-0.5,0.6-0.8c-1,0-1.4-1.1-2.1-1.6c-1,0.3-1.3-0.9-1.9-1c0.8,1.4,1.7,2.7,2.7,3.9
				C22.1,38.9,22.4,38.6,22.6,38.4z M24,20.2c-0.7-0.6-1.3-1.4-2.1-2c-2.3,2.5-4,5.5-4.2,10c0.8,0,1.7,0,2.5,0
				c-0.1-0.6,0.4-0.9,0.5-1.3c0.2-0.7,0.3-1.4,0.5-2C21.9,23,22.8,21.6,24,20.2z M21.5,17.8c-0.7-0.8-1.4-1.6-2.3-2.3
				c-2.8,3.2-5,6.9-5.2,12.7c0.3,0,0.6,0,0.8,0c0-0.7,0.6-0.8,1.1-1c0.4,0.3,0.4,0.9,0.9,1c0.1-0.2-0.3-0.4-0.1-0.6
				c0.2-0.3,0.3,0.5,0.4,0.1C17.5,23.4,19.1,20.3,21.5,17.8z M19.2,41.7c0.9-0.6,1.5-1.5,2.3-2.1c-1.6-2-3.2-4.1-3.8-7.2
				c-0.4-0.2-0.3-1-0.5-1.4c-0.1,0.1,0,0.6-0.1,0.7c-0.3-0.4-0.4-0.9-0.8-1.3c0,0.3,0.1,0.7-0.1,0.8c-0.2-0.5-0.5-1-0.7-1.5
				c-0.5,0.3-0.5,1.1-0.5,1.8c-0.3-0.6-0.4-1.8-0.1-2.5c-0.3,0-0.5,0-0.8,0C14.2,34.8,16.4,38.5,19.2,41.7z M20.2,29
				c-0.4,0-0.7,0-1.1,0c-0.2,0.1,0.1,0.1,0.2,0.1C19.5,29.1,20.1,29.2,20.2,29z"/>
			<path fill="#FFFFFF" d="M54.2,46.6c-1.1,2.1-3.5,4.1-6.8,4.3c-3,0.2-5.5-1.1-8.2-1.4c0.5-0.3,1-0.3,1.5-0.5
				c3.3-1.1,5-4.4,7.8-6.1c-1.4,2.2-2.1,5.6-5.4,6.2c1,0,2-0.2,3-0.3C49.5,48.7,52.7,48.5,54.2,46.6z"/>
			<path fill="#FFFFFF" d="M49.6,51.2c0,0.4-0.5,0.7-0.9,1c-1.3,1-3.3,1.9-5.7,1.7c-1.9-0.1-3.2-1-4.5-1.9c-1.2-0.9-2.5-2.1-4.5-1.8
				c2.3,1.1,4.4,2.6,6.2,4.3c-0.2,0.5-0.8,0.7-1.1,1.2c-1.4-1.4-2.6-2.9-4.4-4.1c-0.5-0.3-1.4-0.9-1.9-1c-0.5,0-1.4,0.6-1.9,1
				c-1.7,1.1-3.1,2.6-4.4,4.1c-0.4-0.4-0.9-0.6-1.2-1.2c1.8-1.6,3.8-3.2,6.2-4.2c-2.2-0.4-3.5,1.1-5,2.1c-1.1,0.7-2.3,1.4-3.9,1.5
				c-3,0.3-5.2-1-6.7-2.7c0-0.1,0.1,0,0.1,0c1.4,0.6,2.8,1.1,4.3,1c1.8-0.1,3.3-1,4.8-1.7c1.8-0.8,4-1.5,6.5-1
				c0.3,0.1,0.6,0.3,1,0.3c0.7,0,1.5-0.4,2.3-0.4c2.1-0.1,3.8,0.5,5.4,1.2c1.9,0.8,3.5,1.8,6,1.7C47.7,52.1,48.6,51.7,49.6,51.2z"/>
			<path fill="#FFFFFF" d="M43.7,29.6c0.1,0.1,0.1,0.2,0.1,0.3c-0.1-0.1-0.3-0.1-0.3-0.3C43.5,29.6,43.6,29.6,43.7,29.6z"/>
			<path fill="#FFFFFF" d="M40.3,23.7c0.2-0.1,0.2,0.1,0.3,0.1C40.6,24,40.3,23.9,40.3,23.7z"/>
			<path fill="#FFFFFF" d="M32.3,31.6c0.2,0,0.2,0.2,0.2,0.5C32.3,32.2,32.3,31.9,32.3,31.6z"/>
			<path fill="#FFFFFF" d="M32.3,34.5c0.1,0.4-0.4,0.5-0.6,0.3C31.4,34.5,32,34.3,32.3,34.5z"/>
			<path fill="#FFFFFF" d="M25.7,49.3c0.2,0.1,0.5,0.1,0.7,0.3c-2.7,0.3-5.1,1.6-8.1,1.4c-3.4-0.2-5.4-2.1-6.9-4.3
				c1.1,0.9,2.7,1.7,4.7,2c2,0.3,4.3,0.2,6.3,0.5c-1-0.4-1.9-0.8-2.5-1.4c-1.3-1.3-1.7-3.4-2.9-4.7c2.9,1.5,4.5,4.9,7.9,6.1
				C25.2,49.2,25.4,49.2,25.7,49.3z"/>
			<path fill="#FFFFFF" d="M16.4,42.8c0.7,2.1,1.5,4.3,3,5.4c-1.5-0.5-3.1-0.5-4.5-0.8c-1.3-0.3-2.5-0.9-3.5-1.6
				c-1.9-1.5-3.6-3.3-4.2-6.1c0.9,1.9,2.5,3.1,4.5,3.9c1.9,0.8,3.7,1.9,5.2,3.2c-0.9-1-2-2.2-2.5-4C13.9,41,14,39,13.2,37.4
				C14.5,38.7,15.7,40.6,16.4,42.8z"/>
			<path fill="#FFFFFF" d="M18.3,10.9c-1,1.1-2.1,2.4-3,3.8c-1,1.4-2.2,2.4-3.5,3.4c0,0.1-0.2,0.2-0.1,0c0.6-1.9,1-3.5,2.2-4.7
				C15,12.1,16.6,11.6,18.3,10.9z"/>
			<path fill="#FFFFFF" d="M15.6,32.9c0.3,0.3,0.6,1,0.5,1.4C15.7,34,15.7,33.4,15.6,32.9z"/>
			<path fill="#FFFFFF" d="M15.6,15.4c0,4.6-4.7,5.2-6.2,8.5c0-1.8-0.2-3.6-0.1-5.2c0.2-2.8,1.6-4.3,3.8-5.1c0.1,0,0,0.1,0,0.1
				c-2,1.4-1.9,5-2.9,7.5C11.2,18.5,14.4,17.9,15.6,15.4z"/>
			<path fill="#FFFFFF" d="M11.4,31.7C13.1,35,12,41,14,44c-3.8-2.6-8.5-4.4-8.7-10.6c0-0.2,0-0.4,0-0.6c0.2-0.1,0-0.4,0.1-0.6
				C5.7,34.3,7,35.7,8.3,37c0.7,0.7,1.3,1.3,1.9,2.1c0.6,0.7,1.1,1.5,1.7,2.2c-0.5-1-1-1.9-1.1-3.1C10.5,36,11.7,33.9,11.4,31.7z"/>
			<path fill="#FFFFFF" d="M11.6,25.7c0.6,4.8-2.2,7.2-1.7,11.9c-0.9-1.4-2.1-2.6-3-4.1c-1-1.5-1.5-3.3-1.5-5.5
				c0-1.3,0.2-2.5,0.6-3.6c0.1,4.3,2.4,6.3,2.8,10.2c0,0,0.1,0,0.1,0c0,0,0,0.1,0,0.1c0,0,0,0,0-0.1c0,0,0,0,0,0
				c0-0.7-0.1-1.6-0.1-2.3C9,29.6,11,28,11.6,25.7z"/>
			<path fill="#FFFFFF" d="M13.3,20.3c-0.3,4.5-4,6.1-4.8,10.2c-0.2-2.5-1.9-4.5-1.9-7.4c0-2.5,1.1-4.5,2.3-6
				c-1.3,2.4,0.1,6.2-0.3,9.7C9.1,23.6,11.9,22.7,13.3,20.3z"/>
		</g>
	</g>
	<rect x="0" y="67.3" fill="#003399" stroke="#020202" stroke-width="9.507600e-02" width="31.6" height="31.6"/>
	<rect x="34" y="67.3" fill="#003399" stroke="#020202" stroke-width="9.507600e-02" width="31.6" height="31.6"/>
	<rect x="0" y="101.3" fill="#003399" stroke="#020202" stroke-width="9.507600e-02" width="31.6" height="31.6"/>
	<rect x="34" y="101.3" fill="#003399" stroke="#020202" stroke-width="9.507600e-02" width="31.6" height="31.6"/>
	<g>
		<path fill="#FFFFFF" d="M11,72.8v12c0,4.5,2,6.4,4.7,6.4c3,0,4.9-2,4.9-6.4v-12h2.6v11.8c0,6.2-3.3,8.7-7.7,8.7
			c-4.1,0-7.3-2.3-7.3-8.6V72.8H11z"/>
	</g>
	<g>
		<path fill="#FFFFFF" d="M42.2,93.2V72.9h2.9l6.5,10.2c1.5,2.4,2.7,4.5,3.6,6.6l0.1,0c-0.2-2.7-0.3-5.2-0.3-8.3v-8.5h2.5v20.2h-2.6
			l-6.4-10.3c-1.4-2.3-2.8-4.6-3.8-6.8l-0.1,0c0.1,2.6,0.2,5,0.2,8.3v8.7H42.2z"/>
	</g>
	<g>
		<path fill="#FFFFFF" d="M7.5,107.2c1.6-0.3,3.5-0.5,5.6-0.5c3.8,0,6.4,0.9,8.2,2.5c1.8,1.7,2.9,4,2.9,7.3c0,3.3-1.1,6-2.9,7.9
			c-1.9,1.9-5,2.9-9,2.9c-1.9,0-3.4-0.1-4.7-0.2V107.2z M10.1,125.1c0.7,0.1,1.6,0.1,2.6,0.1c5.6,0,8.6-3.1,8.6-8.6
			c0-4.8-2.7-7.8-8.2-7.8c-1.4,0-2.4,0.1-3.1,0.3V125.1z"/>
	</g>
	<g>
		<path fill="#FFFFFF" d="M43.6,107.2c1.3-0.2,2.9-0.4,5-0.4c2.6,0,4.5,0.6,5.7,1.7c1.1,1,1.8,2.4,1.8,4.2c0,1.8-0.5,3.3-1.6,4.3
			c-1.4,1.5-3.6,2.2-6.2,2.2c-0.8,0-1.5,0-2.1-0.2v8.1h-2.6V107.2z M46.2,117c0.6,0.2,1.3,0.2,2.2,0.2c3.2,0,5.1-1.6,5.1-4.3
			c0-2.7-1.9-4-4.8-4c-1.1,0-2,0.1-2.5,0.2V117z"/>
	</g>
</g>
<text transform="matrix(1 0 0 1 2.013818e-04 147.776)"><tspan x="0" y="0" fill="#666666" font-family="'MyriadPro-CondIt'" font-size="12.5568">Empowered Lives</tspan><tspan x="0" y="15.1" fill="#666666" font-family="'MyriadPro-CondIt'" font-size="12.5568">Resilient Nations</tspan></text>
</svg>
