<?xml version="1.0" encoding="utf-8"?>
<!-- Generator: Adobe Illustrator 18.1.1, SVG Export Plug-In . SVG Version: 6.00 Build 0)  -->
<svg version="1.1" id="Layer_1" xmlns="http://www.w3.org/2000/svg" xmlns:xlink="http://www.w3.org/1999/xlink" x="0px" y="0px"
	 viewBox="0 0 65.1 161.8" enable-background="new 0 0 65.1 161.8" xml:space="preserve">
<rect x="0" y="0" fill="#003399" width="65" height="65"/>
<g id="WzcW1U_6_">
	<g id="XMLID_6_">
		<path fill="#FFFFFF" d="M60.1,32.7c0,0.3,0,0.6,0,1c-0.3,6-5,7.7-8.7,10.4c0.8-1.5,1.2-3.6,1.4-5.9c0.2-2.3,0.4-4.6,1.2-6.3
			c-0.2,2,0.9,4.3,0.7,6.4c-0.1,1.2-0.5,2-1.1,3c0.6-0.5,1.1-1.3,1.6-2c0.5-0.7,1.1-1.3,1.7-1.9c1.3-1.3,2.9-2.8,3.1-5.2
			C60.1,32.2,59.9,32.7,60.1,32.7z"/>
		<path fill="#FFFFFF" d="M59.3,24.4c1.2,2.8,0.7,7-0.8,9.3c-0.9,1.5-2.3,2.5-3,4c0.3-4.6-2.2-7-1.9-11.9c1.1,2.8,3.6,5,2.7,9.1
			c0.5-1.6,0.8-3,1.4-4.5C58.6,28.5,59.5,26.9,59.3,24.4z"/>
		<path fill="#FFFFFF" d="M58.8,23c0.1,3.1-1.8,4.9-1.9,7.7c-0.5-2.1-1.5-3.6-2.6-5.1c-1.1-1.5-2.1-3-2.3-5.3
			c1.4,2.4,4.2,3.3,4.7,6.6c-0.2-3.3,1.2-7.2-0.3-9.6C57.7,18.5,58.7,20.7,58.8,23z"/>
		<path fill="#FFFFFF" d="M58.1,39.8c-0.2,2-1.4,3.6-2.5,4.7c-1.1,1.1-2.4,2.1-4,2.7c-1.6,0.6-3.5,0.5-5.5,1.1
			c-0.2,0.1,0.1-0.3,0.3-0.4c0.5-0.5,1-1.1,1.4-1.9c0.5-0.9,0.9-2,1.2-3.1c0.7-2.2,1.9-4,3.1-5.5c-0.2,0.8-0.5,1.6-0.6,2.4
			c-0.3,1.8-0.4,3.5-1.2,5c-0.3,0.6-1.1,1.4-1.6,1.9c-0.1,0-0.1,0.1-0.1,0.1c0,0.1-0.1,0.1-0.1,0.1c1.6-1.1,3.3-2.3,5.2-3.2
			C55.6,42.8,57.3,41.7,58.1,39.8z"/>
		<path fill="#FFFFFF" d="M56.1,18.6c0.1,1.6-0.2,3.4-0.1,5.3c-1.6-3.3-6.1-3.8-6.3-8.5c1.2,2.6,4.4,3.1,5.4,5.8
			c-0.3-1.2-0.6-2.7-1-4.1c-0.3-1.5-0.8-2.8-1.9-3.4C54.4,14.2,55.9,16,56.1,18.6z"/>
		<path fill="#FFFFFF" d="M53.7,18.2c0,0.3-0.3-0.1-0.4-0.2c-1-0.9-2.3-1.9-3.2-3c-1-1.4-1.9-2.9-3.2-3.9c0-0.1,0.1,0,0.1,0
			c2.6,0.9,4.8,2,5.8,4.5C53.2,16.3,53.3,17.3,53.7,18.2z"/>
		<path fill="#FFFFFF" d="M52,27.2c0.4,6.2-1.8,11.1-4.9,14.4c-2.9,3.2-7.2,6.1-12.9,6.5c-6.2,0.5-11.3-1.9-14.5-4.8
			c-3.5-3.1-6.1-7.1-6.5-12.9C12.6,24,15,19.2,17.9,15.8c2.9-3.3,7.2-6.1,13.1-6.5c6.3-0.5,11.4,1.9,14.6,4.9
			c1.8,1.7,3.1,3.2,4.3,5.5C51,21.9,51.8,24.2,52,27.2z M48.2,28.3c1.1,0,2.1,0,3.2,0c-0.2-5.8-2.4-9.6-5.3-12.7
			c-0.8,0.7-1.6,1.4-2.2,2.3C46.3,20.4,48.1,23.6,48.2,28.3z M51.4,29c-1.1,0-2.1,0-3.2,0c-0.1,4.8-2.1,7.9-4.3,10.6
			c0.8,0.7,1.4,1.5,2.3,2.1C49,38.6,51.2,34.8,51.4,29z M44.7,28.3c1,0,2,0,3,0c-0.2-3.4-1.1-6-2.6-8c-0.2,0.1,0,0.7-0.3,0.8
			c-0.9-0.5-1.4-1.4-2.5-1.6c-0.3,0.2-0.6,0.5-0.8,0.8C43.2,22.3,44.5,24.7,44.7,28.3z M47.6,29c-1,0-2,0-3,0
			c-0.1,2.8-0.9,4.8-2.1,6.5c0,0.9-0.5,1.6-0.5,2.2c0.2,0.2,0.8,0,0.9,0.3c-0.1,0.6,0.2,0.8,0.6,1c0.2-0.4,0.6-0.5,0.7-1
			c-0.2,0.1-0.1-0.2-0.1-0.3c-0.1-0.1-0.3-0.1-0.3-0.3c0-0.3,0.2-0.4,0.3-0.6c0.1-0.4,0-0.8,0.1-0.9c0.7-0.1,0.6,0.9,0.7,1.2
			C46.4,35,47.5,32.5,47.6,29z M43.3,17.3c0.8-0.7,1.6-1.4,2.3-2.3c-3.2-2.8-6.9-5-12.7-5.2c0,1.1,0,2.1,0,3.2c0.3,0,0.6,0,0.8,0.1
			c0.2-0.1,0.2-0.4,0.5-0.4c0.2,0,0.6-0.2,1-0.2c0.5,0,1.1-0.1,1.3,0.2c-0.3,0.1-0.7,0-0.8,0.3c-0.2,0-0.8-0.1-0.8,0.2
			C38.5,13.7,41.2,15.3,43.3,17.3z M45.6,42.3c-0.7-0.8-1.4-1.6-2.3-2.3c-0.3,0.5-0.9,0.6-1.2,1.1c-0.2,0.2-0.2,0.6-0.3,0.8
			c-0.3,0.4-0.9,0.8-1.4,1.1c-0.3,0.2-1.3,0.8-1.7,0.8c-0.3,0-0.6-0.3-0.8-0.3c-0.3,0-0.7,0.2-1.1,0.3c-1.2,0.3-2.4,0.5-3.9,0.5
			c0,1.1,0,2.1,0,3.2C38.7,47.4,42.5,45.1,45.6,42.3z M42,28.3c0.7,0,1.3,0,2,0c0-0.8-0.2-1.5-0.3-2.2c-0.5,0-0.1,0.8-0.3,1.1
			c-0.5-0.1,0-0.6-0.1-1c0-0.1-0.1-0.1-0.1-0.1c-0.2,0.3-0.3,0.7-0.8,0.8C42.8,27.6,42.1,27.7,42,28.3z M44,29
			c-0.6,0-1.3-0.1-1.7,0.1c0.2,0.1,0.2,0.4,0.3,0.6c1.1,0.2,0.6,1.5-0.6,1.4c0,0.1,0,0.3,0,0.4c-0.7,0.1-0.6,0.8-0.8,1.2
			c-0.2,0.3-0.6,0.4-0.6,0.8c-0.3,0.2-0.6,0.3-0.7,0.6c0.3,0,0.5,0,0.7-0.1c0.2-0.4,0.4-1.1,0.8-1c0.2,1.1-0.2,2.1-0.8,2.7
			c-0.2,0-0.4,0-0.6,0c-0.1,0.1,0.3,0.4,0.5,0.6c0.2-0.2,0.5-0.4,0.8-0.4c0.3-0.4,0.5-0.9,0.8-1.4c0.2,0,0.1,0.1,0.3,0
			C43.3,32.9,44,31.3,44,29z M43.3,25.7c0.1-0.9-0.3-1.7-0.7-2.3c0,0.5,0.6,1,0.2,1.4c-0.4-0.5-1-0.8-1.2-1.5c0.4-0.2,0.7,0.2,1,0
			c-0.1-0.1-0.1-0.3-0.3-0.3c0,0.2-0.5,0.2-0.6,0c-0.1-0.2,0.2-0.1,0.1-0.3c-0.2-0.2-0.2,0.1-0.3,0.2c-0.1-0.2-0.5-0.4-0.4-0.5
			c0.2,0,0.4,0.1,0.6,0.1c0-0.1,0.1-0.1,0.1-0.2c-0.4-0.4-0.6-1-1.2-1.2c-0.6,0.7-1.3,1.2-1.9,2c0.3,0.4,0.7,0.8,1,1.2
			c0.7,0.1,1,0.5,1.2,1c0.2,0,0.3,0,0.5,0c-0.2,0.2-0.3,0.6,0.1,0.6c0.1-0.1,0-0.5,0.2-0.6c0.7,0,0.5,0.9,0.6,1.4
			c0.4,0,0.3-0.4,0.3-0.8C43.1,25.7,43.3,25.7,43.3,25.7z M42.9,39.6c-0.1-0.2-0.2-0.4-0.5-0.4c-0.1,0.2-0.2,0.3-0.1,0.6
			C42.7,39.9,42.8,39.7,42.9,39.6z M42.7,18.1c0.8-0.2-1-1.4-1.1-1.3C41.8,17.4,42.2,17.7,42.7,18.1z M42,22.2
			c0,0.1,0.2,0.5,0.3,0.3C42.1,22.4,42.1,22.2,42,22.2z M40.9,19.9c0.2,0,0.7-0.8,0.7-0.8c-0.6-0.1-0.7-0.6-1.1-0.8
			c0.3-0.2-0.1-0.6-0.3-0.8c-0.3,0-0.3,0.2-0.7,0.1c-0.5-0.5-0.7-1.2-1.2-1.7c-0.2-0.2-0.6-0.3-0.6-0.7c0.2-0.3,0.7-0.1,1-0.3
			c-1.5-0.6-3.1-1.1-5-1.3c-0.2,0.1,0.4,0.2,0.1,0.3c-0.4-0.1-0.6-0.4-1-0.4c0,1,0,2,0,3c2.6,0,4.8,0.9,6.5,2.1
			C39.6,18.9,40.8,19.9,40.9,19.9z M40.4,20.4c-0.1-0.3-0.3-0.5-0.5-0.6C39.9,20.2,40.1,20.4,40.4,20.4z M40.2,20.6
			c-0.4-0.1-0.7-0.4-1-0.7c-0.1-0.3,0.2-0.4,0.1-0.5c-1.7-1.1-3.6-2-6.3-2.1c0,0.9,0,1.9,0,2.8c2.4,0.1,4.1,1,5.5,2.3
			C39.1,21.8,39.6,21.2,40.2,20.6z M38.7,36.1c0.2,0.1,0.5,0.1,0.8,0.1C39.5,35.9,38.7,35.3,38.7,36.1z M39,24.4
			c0.2-0.1,0.3,0.2,0.3,0c-0.2-0.1-0.2-0.5-0.5-0.6c-0.3,0.4,0,0.6,0.1,1c0.1,0,0.2,0,0.3,0C39.3,24.6,39,24.7,39,24.4z M38.7,23.7
			c0-0.2-0.2-0.3-0.3-0.4c-0.1,0.2-0.4,0.4-0.5,0.6c0.2,0.1,0.3,0.2,0.5,0.1C38.3,23.7,38.5,23.5,38.7,23.7z M38.5,34.1
			c0-0.1,0.2-0.1,0.1-0.3c-0.1-0.1-0.3-0.1-0.5-0.1C38.1,33.9,38.3,34,38.5,34.1z M36.3,36.8c0.9-0.3,2.3-0.4,2.1-1.6
			c-0.1,0-0.1,0-0.2,0c-0.6,0.7-1.8,1.3-2.7,1.7c-0.3,0.1-0.8,0.1-1,0.4c0.5,0.2,1,0,1.7,0C36.3,37.1,36.2,36.9,36.3,36.8z
			 M37.9,34.5c-0.1-0.2-0.3-0.2-0.5-0.3c0,0.2,0,0.3-0.1,0.3c-0.1,0-0.1-0.2-0.3-0.1c-0.1,0.2-0.3,0.6-0.1,0.9
			C37.3,35.2,37.7,34.9,37.9,34.5z M37.7,23c-0.2,0.1-0.3-0.1-0.5-0.1C37,23,37,23.3,36.6,23.3c0-0.1-0.4-0.3-0.3-0.4
			c0.2,0,0.4,0,0.6,0c0.1-0.3,0.4-0.4,0.7-0.5c-1.3-0.8-2.6-1.7-4.7-1.7c0,1.1,0,2.3,0,3.4c0.3,0,0.7,0,1,0c0.1-0.6,0.4-0.9,1-1
			c0,0.6-0.3,0.8-0.6,1.2c0.6,0.2,1.7,0.9,1.9-0.1c-0.2-0.1-0.4-0.2-0.3-0.5c0.1-0.1,0.4-0.4,0.6-0.2c0,0.3-0.3,0.3-0.3,0.5
			c0.3-0.1,0.4-0.3,0.5-0.4C37.3,23.7,37.5,23.3,37.7,23z M37,43c-0.4-0.2-1-0.1-1-0.6c0-0.3,0.3-0.4,0.4-0.5
			c-0.2-0.5-0.7-0.7-1.4-0.7c0-0.3,0.2-0.3,0.2-0.6c-0.8,0.1-1.4,0.2-2.3,0.2c0,1,0,2,0,3C34.4,43.6,35.9,43.5,37,43z M36.3,29.6
			c-0.1,0-0.2-0.1-0.3-0.1C36,29.7,36,29.9,36.2,30C36.2,29.9,36.3,29.7,36.3,29.6z M35.8,30.2c-0.3-0.1-0.6-0.3-0.8-0.5
			c0.1-0.1,0.3-0.2,0.3-0.4c-0.7,0.1-0.9-0.3-1.4-0.4c-0.1,0-0.3,0.3-0.3,0.1c0.3-0.2,0.6-0.8,1.1-0.6c0-0.1,0-0.3,0-0.4
			c-0.1,0-0.3,0-0.3-0.1c-0.1-0.5,0.4-0.3,0.5-0.6c-0.1,0-0.3,0.1-0.3-0.1c-0.3,0-0.3,0.1-0.5,0.1c-0.2-0.1-0.1-0.4-0.1-0.7
			c-0.1,0-0.2,0-0.3,0c-0.1-0.3,0-0.3-0.1-0.5c-0.3-0.1-0.3,0.1-0.5,0.1c-0.5-0.1-0.4-0.9-0.3-1.4c-0.2-0.2-0.3,0.1-0.5,0.2
			c-0.1,0.2,0.1,0.2,0.1,0.3c-0.2,0.2-0.2,0.5-0.3,0.8c-0.4,0.5-1.2,0.5-1.5,1.1c0.2,0.1,0.4-0.2,0.5,0c-0.1,0.3-0.5,0.4-0.8,0.3
			c0,0.3,0.5,0.2,0.5,0.5c0.2-0.1,0.2-0.7,0.6-0.5c-0.1,0.2-0.4,0.2-0.4,0.6c0,0.2,0.3,0,0.3,0.1c0,0.9-0.5,1.3-0.9,1.8
			c-0.3-0.3-0.8-0.1-1-0.1c0.1-0.9,1.4-0.7,1.5-1.6c-0.4-0.1-0.8,0.9-1.4,0.4c0.1-0.1,0.1-0.4,0.3-0.4c0.1,0,0.1,0.2,0.3,0.1
			c0.2-0.1-0.1-0.3,0.1-0.4c0.2,0,0.4,0.2,0.5-0.1c-0.4-0.3-0.6,0.1-1,0.1c0-0.2,0.2-0.2,0.2-0.4c-0.1-0.1-0.1-0.2-0.2-0.3
			c-0.6-0.1-0.7,0.4-0.7,0.8c0.2,0,0.5-0.1,0.5,0.1c-0.1,0.3-0.2,0.6-0.3,0.8c-0.2,0-0.2-0.2-0.2,0.1c0.1,2.3,3,4.2,5.2,3.1
			c0.3,0,0.7-0.2,0.5-0.3c-0.2,0.1-0.4,0.2-0.7,0.2c-0.1-0.4-0.1-1.2,0.2-1.4c0.5,0,1,0,1.2,0.4c0.1,0.3-0.2,0.2-0.2,0.3
			c0.2,0.1,0.4-0.1,0.5-0.3c-0.2-0.2-0.4-0.4-0.7-0.6C35.2,30.7,35.5,30.5,35.8,30.2z M35.4,32.8c-0.4-0.1-0.6,0.5-1.1,0.1
			c-0.1,0.3,0.4,0.9,0.1,1.2c-0.1,0-0.1,0.1-0.1,0.1c-0.2-0.1-0.4-0.2-0.4-0.5c-0.2,0-0.3,0.1-0.6,0.1c-0.1-0.1,0-0.5-0.1-0.7
			c-0.2-0.1-0.2,0.1-0.4,0.1c0,0.6-0.1,1.4,0.1,1.9c0.4,0,0.4-0.4,0.8-0.5c0-0.2-0.1-0.3-0.2-0.4c0.1-0.1,0.1-0.3,0.3-0.3
			c0.1,0.1,0.1,0.3,0.1,0.5c0.7,0,1.2-0.3,1-0.9c0.2,0,0.3,0,0.3-0.1c-0.1-0.1-0.3,0-0.2-0.2C35.1,33,35.4,33.1,35.4,32.8z
			 M34.5,35.7c0,0.5,0.9,0.4,1.3,0.3C35.7,35.7,34.9,35.9,34.5,35.7z M34.9,36.3c-0.3-0.1-0.5-0.3-0.8-0.3c-0.2,0.3-1.3,0.2-1,0.8
			C33.6,36.6,34.4,36.6,34.9,36.3z M33.4,37.4c0,0.4,0.6,0.3,0.7,0.1C34,37.3,33.6,37.2,33.4,37.4z M32,34.1
			c0.2-0.1,0.2-0.4,0.2-0.8c-1.2-0.1-1.9-0.6-2.7-1.1c-0.7,0.9-1.7,1.5-2.3,2.5c1.1,1,2.4,1.8,4.2,2c0-0.2-0.2-0.4,0.1-0.4
			c0.3,0,0.5,0,0.8,0c0-0.9-0.2-1,0-1.7C32.3,34.2,32,34.2,32,34.1z M32.2,16.6c0-0.7,0-1.6,0-2.3c0-0.2,0.1-0.6-0.1-0.7
			c0,0-0.1,0-0.1,0c-1.8,0.2-3.6,0.4-5.6,1.4c-0.8,0.4-1.4,0.7-2.2,1.3c-0.3,0.2-1.9,1.2-1.9,1.6c0,0,0.4,0.4,0.5,0.5
			c0.6,0.6,1.1,1.1,1.6,1.5C26.2,18.1,28.6,16.7,32.2,16.6z M32.2,47.5c0-1.1,0-2.1,0-3.2c-4.8-0.2-7.9-2-10.5-4.3
			c-0.8,0.7-1.6,1.4-2.2,2.3C22.6,45.1,26.4,47.4,32.2,47.5z M32.2,43.8c0-1,0-2,0-3c-3.2-0.1-5.4-1.2-7.2-2.7c-0.5,0-0.7-0.2-1-0.3
			c-0.6,0.6-1.3,1.1-1.8,1.9C24.7,41.8,27.7,43.6,32.2,43.8z M32.2,24.2c0-1.1,0-2.3,0-3.4c-2.3,0.1-3.8,1-5.1,2.1
			c0.3,0.5,1.1,0.5,1.6,0.8c0.2,0,0.3,0,0.5,0c0.4,0.2,0.7,0.6,0.6,1.1C30.6,24.8,31.2,24.2,32.2,24.2z M32.2,20c0-0.9,0-1.9,0-2.8
			c-3.4,0.2-5.6,1.4-7.5,3.1c0.6,0.8,1.2,1.4,2,2C28.1,21.1,29.8,20.2,32.2,20z M32.2,13c0-1.1,0-2.1,0-3.2
			c-5.8,0.2-9.5,2.4-12.7,5.2c0.7,0.8,1.4,1.6,2.3,2.3C24.3,15,27.5,13.2,32.2,13z M32.1,24.8c-0.7,0-1.2,0.3-1.6,0.6
			C31.1,25.9,31.8,25.2,32.1,24.8z M30.7,37.8c0.2-0.3,0.6-0.3,0.8-0.5c-2.2-0.2-3.6-1.2-5-2.2c-0.5,0.7-1.3,1.2-1.8,1.9
			c1.3,1.4,3.2,2.5,5.3,2.8c-0.5-0.1-0.8-0.5-1-0.8c0.1-0.3,0.3-0.5,0.3-0.9C29.9,38.1,30.1,37.6,30.7,37.8z M29.1,31.7
			c-0.5-0.7-1-1.5-1.1-2.7c-0.2,0-0.1,0.4-0.5,0.3c-0.2,0-0.1-0.3-0.3-0.3c-0.9,0-1.9-0.1-2.7,0.1c0.2,2.2,1,3.8,2.2,5
			C27.5,33.3,28.3,32.5,29.1,31.7z M28.2,23.7c0-0.2-0.1-0.2-0.3-0.2C27.9,23.7,28,23.8,28.2,23.7z M26.6,23.8
			c0.2,0.1,0.3-0.1,0.5-0.1c-0.1-0.2-0.3-0.3-0.5-0.4C26.4,23.5,26.4,23.7,26.6,23.8z M24.6,28.3c0.7,0,1.4,0,2.1,0
			c0-0.3-0.5-0.1-0.5-0.4c-0.1-0.1,0-0.3-0.1-0.4c-0.3-0.1-0.8,0.3-0.8-0.1c0.1-0.2,0.4-0.2,0.7-0.3c0.2-0.6,0.4-1.1,0.6-1.7
			C26,24.3,25,25,25.3,26.1c-0.4,0.3-0.5,0.7-0.6,1.3c0.4,0,0.1-0.6,0.4-0.6C25.1,27.5,24.7,27.8,24.6,28.3z M26.2,22.8
			c-0.6-0.8-1.2-1.4-2-2c-1.3,1.4-2.5,3.3-2.8,5.4c0.6-0.2,0.8,0.6,1,1.2c0.3,0,0.4,0,0.6,0.1c0.1-0.2,0-0.3-0.1-0.5
			c0.3-0.4,0.5-0.9,1.1-1C24.8,24.9,25.3,23.7,26.2,22.8z M24.4,36.5c0.5-0.7,1.3-1.2,1.8-1.9c-1.2-1.4-2.1-3.1-2.3-5.5
			c-0.2,0-0.6-0.1-0.7,0.1c0.1,0.3-0.1,0.5-0.1,0.8c0,0.2,0.1,0.5,0.1,0.8c0,0.5-0.1,1.2-0.1,1.7c0.1,0.8,0.8,1.5,0.1,1.9
			C23.6,34.9,23.8,35.9,24.4,36.5z M23.9,28.3c0-0.6,0.1-1.1,0.2-1.6c-0.5-0.4-1.1,0.1-0.8,0.8c-0.1,0.1-0.1,0.2-0.3,0.2
			c0,0.2,0.2,0.3,0.1,0.6C23.4,28.3,23.6,28.3,23.9,28.3z M22.4,38.5c0.2-0.2,0.6-0.5,0.6-0.8c-1,0-1.4-1.1-2.1-1.6
			c-1,0.3-1.3-0.9-1.9-1c0.8,1.4,1.7,2.7,2.7,3.9C21.9,39,22.1,38.7,22.4,38.5z M23.7,20.3c-0.7-0.6-1.3-1.4-2.1-2
			c-2.3,2.5-4,5.5-4.2,10c0.8,0,1.7,0,2.5,0c-0.1-0.6,0.4-0.9,0.5-1.3c0.2-0.7,0.3-1.4,0.5-2C21.6,23.1,22.6,21.6,23.7,20.3z
			 M21.2,17.9c-0.7-0.8-1.4-1.6-2.3-2.3c-2.8,3.2-5,6.9-5.2,12.7c0.3,0,0.6,0,0.8,0c0-0.7,0.6-0.8,1.1-1c0.4,0.3,0.4,0.9,0.9,1
			c0.1-0.2-0.3-0.4-0.1-0.6c0.2-0.3,0.3,0.5,0.4,0.1C17.2,23.4,18.9,20.3,21.2,17.9z M18.9,41.8c0.9-0.6,1.5-1.5,2.3-2.1
			c-1.6-2-3.2-4.1-3.8-7.2c-0.4-0.2-0.3-1-0.5-1.4c-0.1,0.1,0,0.6-0.1,0.7c-0.3-0.4-0.4-0.9-0.8-1.3c0,0.3,0.1,0.7-0.1,0.8
			c-0.2-0.5-0.5-1-0.7-1.5c-0.5,0.3-0.5,1.1-0.5,1.8c-0.3-0.6-0.4-1.8-0.1-2.5c-0.3,0-0.5,0-0.8,0C13.9,34.8,16.1,38.6,18.9,41.8z
			 M19.9,29c-0.4,0-0.7,0-1.1,0c-0.2,0.1,0.1,0.1,0.2,0.1C19.2,29.2,19.8,29.3,19.9,29z"/>
		<path fill="#FFFFFF" d="M53.9,46.7c-1.1,2.1-3.5,4.1-6.8,4.3c-3,0.2-5.5-1.1-8.2-1.4c0.5-0.3,1-0.3,1.5-0.5c3.3-1.1,5-4.4,7.8-6.1
			c-1.4,2.2-2.1,5.6-5.4,6.2c1,0,2-0.2,3-0.3C49.2,48.8,52.4,48.6,53.9,46.7z"/>
		<path fill="#FFFFFF" d="M49.3,51.2c0,0.4-0.5,0.7-0.9,1c-1.3,1-3.3,1.9-5.7,1.7c-1.9-0.1-3.2-1-4.5-1.9c-1.2-0.9-2.5-2.1-4.5-1.8
			c2.3,1.1,4.4,2.6,6.2,4.3c-0.2,0.5-0.8,0.7-1.1,1.2c-1.4-1.4-2.6-2.9-4.4-4.1c-0.5-0.3-1.4-0.9-1.9-1c-0.5,0-1.4,0.6-1.9,1
			c-1.7,1.1-3.1,2.6-4.4,4.1c-0.4-0.4-0.9-0.6-1.2-1.2c1.8-1.6,3.8-3.2,6.2-4.2c-2.2-0.4-3.5,1.1-5,2.1c-1.1,0.7-2.3,1.4-3.9,1.5
			c-3,0.3-5.2-1-6.7-2.7c0-0.1,0.1,0,0.1,0c1.4,0.6,2.8,1.1,4.3,1c1.8-0.1,3.3-1,4.8-1.7c1.8-0.8,4-1.5,6.5-1c0.3,0.1,0.6,0.3,1,0.3
			c0.7,0,1.5-0.4,2.3-0.4c2.1-0.1,3.8,0.5,5.4,1.2c1.9,0.8,3.5,1.8,6,1.7C47.4,52.2,48.3,51.8,49.3,51.2z"/>
		<path fill="#FFFFFF" d="M43.4,29.7c0.1,0.1,0.1,0.2,0.1,0.3c-0.1-0.1-0.3-0.1-0.3-0.3C43.3,29.7,43.3,29.7,43.4,29.7z"/>
		<path fill="#FFFFFF" d="M40,23.7c0.2-0.1,0.2,0.1,0.3,0.1C40.4,24,40,24,40,23.7z"/>
		<path fill="#FFFFFF" d="M32.1,31.7c0.2,0,0.2,0.2,0.2,0.5C32,32.2,32.1,31.9,32.1,31.7z"/>
		<path fill="#FFFFFF" d="M32,34.5c0.1,0.4-0.4,0.5-0.6,0.3C31.2,34.6,31.7,34.3,32,34.5z"/>
		<path fill="#FFFFFF" d="M25.5,49.4c0.2,0.1,0.5,0.1,0.7,0.3C23.5,50,21,51.3,18,51c-3.4-0.2-5.4-2.1-6.9-4.3
			c1.1,0.9,2.7,1.7,4.7,2c2,0.3,4.3,0.2,6.3,0.5c-1-0.4-1.9-0.8-2.5-1.4c-1.3-1.3-1.7-3.4-2.9-4.7c2.9,1.5,4.5,4.9,7.9,6.1
			C24.9,49.3,25.2,49.3,25.5,49.4z"/>
		<path fill="#FFFFFF" d="M16.1,42.9c0.7,2.1,1.5,4.3,3,5.4c-1.5-0.5-3.1-0.5-4.5-0.8c-1.3-0.3-2.5-0.9-3.5-1.6
			c-1.9-1.5-3.6-3.3-4.2-6.1c0.9,1.9,2.5,3.1,4.5,3.9c1.9,0.8,3.7,1.9,5.2,3.2c-0.9-1-2-2.2-2.5-4c-0.4-1.8-0.4-3.8-1.2-5.4
			C14.2,38.8,15.4,40.7,16.1,42.9z"/>
		<path fill="#FFFFFF" d="M18,10.9c-1,1.1-2.1,2.4-3,3.8c-1,1.4-2.2,2.4-3.5,3.4c0,0.1-0.2,0.2-0.1,0c0.6-1.9,1-3.5,2.2-4.7
			C14.7,12.2,16.4,11.7,18,10.9z"/>
		<path fill="#FFFFFF" d="M15.3,33c0.3,0.3,0.6,1,0.5,1.4C15.5,34.1,15.4,33.5,15.3,33z"/>
		<path fill="#FFFFFF" d="M15.3,15.4c0,4.6-4.7,5.2-6.2,8.5c0-1.8-0.2-3.6-0.1-5.2c0.2-2.8,1.6-4.3,3.8-5.1c0.1,0,0,0.1,0,0.1
			c-2,1.4-1.9,5-2.9,7.5C11,18.6,14.1,18,15.3,15.4z"/>
		<path fill="#FFFFFF" d="M11.1,31.8C12.8,35,11.8,41,13.8,44C10,41.4,5.3,39.6,5,33.4c0-0.2,0-0.4,0-0.6c0.2-0.1,0-0.4,0.1-0.6
			c0.3,2.2,1.6,3.6,2.9,4.9c0.7,0.7,1.3,1.3,1.9,2.1c0.6,0.7,1.1,1.5,1.7,2.2c-0.5-1-1-1.9-1.1-3.1C10.3,36.1,11.4,34,11.1,31.8z"/>
		<path fill="#FFFFFF" d="M11.4,25.7c0.6,4.8-2.2,7.2-1.7,11.9c-0.9-1.4-2.1-2.6-3-4.1c-1-1.5-1.5-3.3-1.5-5.5
			c0-1.3,0.2-2.5,0.6-3.6c0.1,4.3,2.4,6.3,2.8,10.2c0,0,0.1,0,0.1,0c0,0,0,0.1,0,0.1c0,0,0,0,0-0.1c0,0,0,0,0,0
			c0-0.7-0.1-1.6-0.1-2.3C8.8,29.7,10.7,28,11.4,25.7z"/>
		<path fill="#FFFFFF" d="M13,20.4c-0.3,4.5-4,6.1-4.8,10.2c-0.2-2.5-1.9-4.5-1.9-7.4c0-2.5,1.1-4.5,2.3-6c-1.3,2.4,0.1,6.2-0.3,9.7
			C8.8,23.7,11.6,22.7,13,20.4z"/>
	</g>
</g>
<rect x="0" y="67.5" fill="#003399" stroke="#020202" stroke-width="9.507600e-02" width="31.3" height="31.3"/>
<rect x="33.8" y="67.5" fill="#003399" stroke="#020202" stroke-width="9.507600e-02" width="31.3" height="31.3"/>
<rect x="0" y="101.5" fill="#003399" stroke="#020202" stroke-width="9.507600e-02" width="31.3" height="31.3"/>
<rect x="33.8" y="101.5" fill="#003399" stroke="#020202" stroke-width="9.507600e-02" width="31.3" height="31.3"/>
<g>
	<path fill="#FFFFFF" d="M10.7,72.8v12c0,4.5,2,6.4,4.7,6.4c3,0,4.9-2,4.9-6.4v-12H23v11.8c0,6.2-3.3,8.7-7.7,8.7
		c-4.1,0-7.3-2.3-7.3-8.6V72.8H10.7z"/>
</g>
<g>
	<path fill="#FFFFFF" d="M41.9,93.2V73h2.9l6.5,10.2c1.5,2.4,2.7,4.5,3.6,6.6l0.1,0c-0.2-2.7-0.3-5.2-0.3-8.3V73h2.5v20.2h-2.6
		L48.1,83c-1.4-2.3-2.8-4.6-3.8-6.8l-0.1,0c0.1,2.6,0.2,5,0.2,8.3v8.7H41.9z"/>
</g>
<g>
	<path fill="#FFFFFF" d="M7.2,107.3c1.6-0.3,3.5-0.5,5.6-0.5c3.8,0,6.4,0.9,8.2,2.5c1.8,1.7,2.9,4,2.9,7.3c0,3.3-1.1,6-2.9,7.9
		c-1.9,1.9-5,2.9-9,2.9c-1.9,0-3.4-0.1-4.7-0.2V107.3z M9.9,125.2c0.7,0.1,1.6,0.1,2.6,0.1c5.6,0,8.6-3.1,8.6-8.6
		c0-4.8-2.7-7.8-8.2-7.8c-1.4,0-2.4,0.1-3.1,0.3V125.2z"/>
</g>
<g>
	<path fill="#FFFFFF" d="M43.3,107.3c1.3-0.2,2.9-0.4,5-0.4c2.6,0,4.5,0.6,5.7,1.7c1.1,1,1.8,2.4,1.8,4.2c0,1.8-0.5,3.3-1.6,4.3
		c-1.4,1.5-3.6,2.2-6.2,2.2c-0.8,0-1.5,0-2.1-0.2v8.1h-2.6V107.3z M45.9,117.1c0.6,0.2,1.3,0.2,2.2,0.2c3.2,0,5.1-1.6,5.1-4.3
		c0-2.7-1.9-4-4.8-4c-1.1,0-2,0.1-2.5,0.2V117.1z"/>
</g>
<text transform="matrix(1 0 0 1 4.753901e-02 143.786)"><tspan x="0" y="0" fill="#FFFFFF" font-family="'MyriadPro-CondIt'" font-size="12.4499">Empowered Lives</tspan><tspan x="0" y="14.9" fill="#FFFFFF" font-family="'MyriadPro-CondIt'" font-size="12.4499">Resilient Nations</tspan></text>
</svg>
