<?xml version="1.0" encoding="utf-8"?>
<!-- Generator: Adobe Illustrator 18.1.1, SVG Export Plug-In . SVG Version: 6.00 Build 0)  -->
<svg version="1.1" id="Layer_1" xmlns="http://www.w3.org/2000/svg" xmlns:xlink="http://www.w3.org/1999/xlink" x="0px" y="0px"
	 viewBox="0 0 110.1 120" enable-background="new 0 0 110.1 120" xml:space="preserve">
<g>
	<g>
		<path fill="#FFFFFF" d="M58.6,34.5v11.3h10.8v2.9H58.6V60h-3.1V48.6H44.7v-2.9h10.8V34.5H58.6z"/>
		<path fill="#FFFFFF" d="M73.5,60v-2.6l3.3-3.2c8-7.6,11.6-11.6,11.6-16.3c0-3.2-1.5-6.1-6.1-6.1c-2.8,0-5.2,1.4-6.6,2.6l-1.3-3
			c2.1-1.8,5.2-3.2,8.8-3.2c6.7,0,9.6,4.6,9.6,9.1c0,5.8-4.2,10.4-10.8,16.8l-2.4,2.3v0.1h14V60H73.5z"/>
		<path fill="#FFFFFF" d="M110.1,33.3c0,3.9-3.1,6.4-6.4,6.4c-3.7,0-6.3-2.8-6.3-6.2c0-3.7,2.8-6.5,6.4-6.5
			C107.7,27.1,110.1,30,110.1,33.3z M100,33.5c0,2.2,1.6,3.9,3.7,3.9c2.2,0,3.8-1.8,3.8-4.1c0-1.8-1.1-4-3.8-4
			C101.2,29.3,100,31.5,100,33.5z"/>
	</g>
	<path fill="#FFFFFF" d="M36,81.1V14c0-7.7-6.3-14-14-14S8,6.3,8,14v67.1C2.9,85.3,0,91.4,0,98c0,12.1,9.9,22,22,22s22-9.9,22-22
		C44,91.4,41.1,85.3,36,81.1z M22,106c-4.4,0-8-3.6-8-8c0-3.7,2.6-6.8,6-7.7V36c0-1.1,0.9-2,2-2s2,0.9,2,2v54.3c3.4,0.9,6,4,6,7.7
		C30,102.4,26.4,106,22,106z"/>
</g>
</svg>
