<?xml version="1.0" encoding="utf-8"?>
<!-- Generator: Adobe Illustrator 18.1.1, SVG Export Plug-In . SVG Version: 6.00 Build 0)  -->
<svg version="1.1" id="Layer_1" xmlns="http://www.w3.org/2000/svg" xmlns:xlink="http://www.w3.org/1999/xlink" x="0px" y="0px"
	 viewBox="0 0 129 120" enable-background="new 0 0 129 120" xml:space="preserve">
<g>
	<path fill="#FCFDFE" d="M94.3,84.9c-4.1,4.2-11.4-0.3-13.8-5.7c-2.3-5.4-2.5-11.9-6.4-16.2c-9.4-10.5-31.4-0.3-38.9-12.3
		c4.3-12.2-8.5-22.8-18.3-31.1C11.3,15,6.2,10,1.6,4H0v116h116v-5.5c-2-2.6-5.4-5.1-8.2-7.5C100.9,101.2,92.7,93.9,94.3,84.9z"/>
	<path fill="#FCFDFE" d="M14.2,0c4.6,6,9.7,11,15.2,15.7c9.9,8.3,22.6,19,18.3,31.2c7.5,12,29.5,1.7,38.9,12.3
		c3.9,4.4,4.1,10.8,6.4,16.2c2.3,5.4,9.6,9.8,13.8,5.7c-1.6,8.9,6.8,16.2,13.7,22.1c2.8,2.4,5.4,4.9,8.4,7.5V0H14.2z"/>
</g>
</svg>
