<?xml version="1.0" encoding="utf-8"?>
<!-- Generator: Adobe Illustrator 18.1.1, SVG Export Plug-In . SVG Version: 6.00 Build 0)  -->
<svg version="1.1" id="Layer_1" xmlns="http://www.w3.org/2000/svg" xmlns:xlink="http://www.w3.org/1999/xlink" x="0px" y="0px"
	 viewBox="0 0 120 120" enable-background="new 0 0 120 120" xml:space="preserve">
<g>
	<path fill="#FFFFFF" d="M117.9,57.9h-8.3c-1.1,0-2.1,0.9-2.1,2.1s0.9,2.1,2.1,2.1h8.3c1.1,0,2.1-0.9,2.1-2.1S119.1,57.9,117.9,57.9
		z"/>
	<path fill="#FFFFFF" d="M60,12.4c1.1,0,2.1-0.9,2.1-2.1V2.1C62.1,0.9,61.1,0,60,0s-2.1,0.9-2.1,2.1v8.3
		C57.9,11.5,58.9,12.4,60,12.4z"/>
	<path fill="#FFFFFF" d="M10.3,57.9H2.1C0.9,57.9,0,58.9,0,60s0.9,2.1,2.1,2.1h8.3c1.1,0,2.1-0.9,2.1-2.1S11.5,57.9,10.3,57.9z"/>
	<path fill="#FFFFFF" d="M60,107.6c-1.1,0-2.1,0.9-2.1,2.1v8.3c0,1.1,0.9,2.1,2.1,2.1s2.1-0.9,2.1-2.1v-8.3
		C62.1,108.5,61.1,107.6,60,107.6z"/>
	<path fill="#FFFFFF" d="M99.5,17.6l-5.9,5.9c-0.8,0.8-0.8,2.1,0,2.9c0.4,0.4,0.9,0.6,1.5,0.6s1.1-0.2,1.5-0.6l5.9-5.9
		c0.8-0.8,0.8-2.1,0-2.9C101.6,16.8,100.3,16.8,99.5,17.6z"/>
	<path fill="#FFFFFF" d="M23.4,26.4c0.4,0.4,0.9,0.6,1.5,0.6c0.5,0,1.1-0.2,1.5-0.6c0.8-0.8,0.8-2.1,0-2.9l-5.9-5.9
		c-0.8-0.8-2.1-0.8-2.9,0c-0.8,0.8-0.8,2.1,0,2.9L23.4,26.4z"/>
	<path fill="#FFFFFF" d="M23.4,93.6l-5.9,5.9c-0.8,0.8-0.8,2.1,0,2.9c0.4,0.4,0.9,0.6,1.5,0.6c0.5,0,1.1-0.2,1.5-0.6l5.9-5.9
		c0.8-0.8,0.8-2.1,0-2.9C25.5,92.8,24.2,92.8,23.4,93.6z"/>
	<path fill="#FFFFFF" d="M96.6,93.6c-0.8-0.8-2.1-0.8-2.9,0c-0.8,0.8-0.8,2.1,0,2.9l5.9,5.9c0.4,0.4,0.9,0.6,1.5,0.6
		c0.5,0,1.1-0.2,1.5-0.6c0.8-0.8,0.8-2.1,0-2.9L96.6,93.6z"/>
	<path fill="#FFFFFF" d="M61.7,18.6c-22.8,0-41.4,18.6-41.4,41.4s18.6,41.4,41.4,41.4s41.4-18.6,41.4-41.4S84.5,18.6,61.7,18.6z"/>
</g>
</svg>
