<?xml version="1.0" encoding="utf-8"?>
<!-- Generator: Adobe Illustrator 19.1.0, SVG Export Plug-In . SVG Version: 6.00 Build 0)  -->
<svg version="1.1" id="Layer_1" xmlns="http://www.w3.org/2000/svg" xmlns:xlink="http://www.w3.org/1999/xlink" x="0px" y="0px"
	 viewBox="0 0 60 60" style="enable-background:new 0 0 60 60;" xml:space="preserve">
<style type="text/css">
	.st0{fill:#59595C;}
</style>
<g>
	<path class="st0" d="M27.5,25.5c0-1.9-1.3-3.7-3-4.2l-6-1.5v-2c2.4-1.6,4.1-4.4,4.2-7.7c-0.6,0.2-1.3,0.2-2,0.2
		c-0.5,0-1.1,0-1.5-0.1c-1.7-0.2-3.1-0.9-4-1.7C12.4,10.2,8,9.9,5.6,8.7c0,0.3-0.1,0.7-0.1,1c0,3.3,1.6,6.1,4,7.8v2.2l-5.9,1.6
		c-1.8,0.5-3.1,2.3-3.1,4.2v2h27V25.5z"/>
	<path class="st0" d="M14.7,6.3C14.9,6,15.2,5.9,15.5,6c0.3,0,0.6,0.2,0.7,0.5c0.4,0.8,1.6,1.4,3.2,1.6c1.4,0.2,2.5,0,3-0.2
		c-0.8-4.2-4.2-7.5-8.4-7.5c-3.8,0-7,2.6-8.1,6.3l0.1-0.1C7.7,7.8,12.5,8.5,14.7,6.3z"/>
	<path class="st0" d="M56.5,21.3l-6-1.5v-2c2.4-1.6,4.1-4.4,4.2-7.7c-0.6,0.2-1.3,0.2-2,0.2c-0.5,0-1.1,0-1.5-0.1
		c-1.7-0.2-3.1-0.9-4-1.7c-2.8,1.8-7.2,1.6-9.6,0.3c0,0.3-0.1,0.7-0.1,1c0,3.3,1.6,6.1,4,7.8v2.2l-5.9,1.6c-1.8,0.5-3.1,2.3-3.1,4.2
		v2h27v-2C59.5,23.6,58.2,21.8,56.5,21.3z"/>
	<path class="st0" d="M46.7,6.3C46.9,6,47.2,5.9,47.5,6c0.3,0,0.6,0.2,0.7,0.5c0.4,0.8,1.6,1.4,3.2,1.6c1.4,0.2,2.5,0,3-0.2
		c-0.8-4.2-4.2-7.5-8.4-7.5c-3.8,0-7,2.6-8.1,6.3l0.1-0.1C39.7,7.8,44.5,8.5,46.7,6.3z"/>
	<path class="st0" d="M21,38.8l0.1-0.1c1.6,1.2,6.4,1.8,8.6-0.4c0.2-0.2,0.5-0.3,0.9-0.3c0.3,0,0.6,0.2,0.7,0.5
		c0.4,0.8,1.6,1.4,3.2,1.6c1.4,0.2,2.5,0,3-0.2c-0.8-4.2-4.2-7.5-8.4-7.5C25.3,32.5,22.1,35.1,21,38.8z"/>
	<path class="st0" d="M39.5,53.3l-6-1.5v-2c2.4-1.6,4.1-4.4,4.2-7.7c-0.6,0.2-1.3,0.2-2,0.2c-0.5,0-1.1,0-1.5-0.1
		c-1.7-0.2-3.1-0.9-4-1.7c-2.8,1.8-7.2,1.6-9.6,0.3c0,0.3-0.1,0.7-0.1,1c0,3.3,1.6,6.1,4,7.8v2.2l-5.9,1.6c-1.8,0.5-3.1,2.3-3.1,4.2
		v2h27v-2C42.5,55.6,41.2,53.8,39.5,53.3z"/>
	<path class="st0" d="M16.3,37.8c0.4-0.4,0.4-1,0-1.4L10,30.1c-0.4-0.4-1-0.4-1.4,0c-0.4,0.4-0.4,1,0,1.4l6.3,6.3
		c0.2,0.2,0.5,0.3,0.7,0.3C15.9,38.1,16.1,38,16.3,37.8z"/>
	<path class="st0" d="M49,30.1l-6.3,6.3c-0.4,0.4-0.4,1,0,1.4c0.2,0.2,0.5,0.3,0.7,0.3c0.3,0,0.5-0.1,0.7-0.3l6.3-6.3
		c0.4-0.4,0.4-1,0-1.4C50,29.7,49.4,29.7,49,30.1z"/>
</g>
</svg>
