<?xml version="1.0" encoding="utf-8"?>
<!-- Generator: Adobe Illustrator 19.1.0, SVG Export Plug-In . SVG Version: 6.00 Build 0)  -->
<svg version="1.1" id="Layer_1" xmlns="http://www.w3.org/2000/svg" xmlns:xlink="http://www.w3.org/1999/xlink" x="0px" y="0px"
	 viewBox="0 0 60 60" style="enable-background:new 0 0 60 60;" xml:space="preserve">
<style type="text/css">
	.st0{fill:#59595C;}
</style>
<path class="st0" d="M59,40c0.6,0,1-0.4,1-1v-8c0-0.6-0.4-1-1-1H44v-5c0-2.6-2.4-5-5-5H21c-1.5,0-3-1.5-3-3v-7h17c0.6,0,1-0.4,1-1V1
	c0-0.6-0.4-1-1-1H1C0.4,0,0,0.4,0,1v8c0,0.6,0.4,1,1,1h15v7c0,2.6,2.4,5,5,5h18c1.5,0,3,1.5,3,3v5H25c-0.6,0-1,0.4-1,1v8
	c0,0.6,0.4,1,1,1h17v10H25c-0.6,0-1,0.4-1,1v8c0,0.6,0.4,1,1,1h34c0.6,0,1-0.4,1-1v-8c0-0.6-0.4-1-1-1H44V40H59z"/>
</svg>
