<?xml version="1.0" encoding="utf-8"?>
<!-- Generator: Adobe Illustrator 18.1.1, SVG Export Plug-In . SVG Version: 6.00 Build 0)  -->
<svg version="1.1" id="Layer_1" xmlns="http://www.w3.org/2000/svg" xmlns:xlink="http://www.w3.org/1999/xlink" x="0px" y="0px"
	 viewBox="0 0 132.3 131.6" enable-background="new 0 0 132.3 131.6" xml:space="preserve">
<g>
	<g>
		<g>
			<path fill="#FFFFFF" d="M11.4,128.9c4.9-7,10.5-13.6,16.7-19.7c4-3.9,8.6-8.5,13.9-10.5c4-1.5,7.3,0.4,10.7,3
				c10.5,8.1,17.6,20.5,29.3,27.2c11.4,6.6,21.9,0.1,30.2-8.3c7.4-7.5,13.8-16.4,19.2-25.6c3.9-6.7-6.4-12.7-10.4-6.1
				c-4.4,7.5-9.6,14.7-15.5,21.1c-3.3,3.6-7.4,8.3-12.3,9.5c-3.6,0.9-7.8-2.8-10.8-5.4c-9.6-8.7-17.5-21-29.6-26.4
				C41.1,82.6,30,90.9,21.7,98.8C14,106,7.1,114.3,1.1,122.9C-3.4,129.2,7,135.2,11.4,128.9L11.4,128.9z"/>
		</g>
	</g>
	<g>
		<g>
			<path fill="#FFFFFF" d="M11.4,86.6c4.9-7,10.5-13.6,16.7-19.7c4-3.9,8.6-8.5,13.9-10.5c4-1.5,7.3,0.4,10.7,3
				C63.2,67.5,70.4,79.8,82,86.5c11.4,6.6,21.9,0.1,30.2-8.3c7.4-7.5,13.8-16.4,19.2-25.6c3.9-6.7-6.4-12.7-10.4-6.1
				c-4.4,7.5-9.6,14.7-15.5,21.1c-3.3,3.6-7.4,8.3-12.3,9.5c-3.6,0.9-7.8-2.8-10.8-5.4c-9.6-8.7-17.5-21-29.6-26.4
				C41.1,40.3,30,48.6,21.7,56.4C14,63.6,7.1,71.9,1.1,80.5C-3.4,86.9,7,92.9,11.4,86.6L11.4,86.6z"/>
		</g>
	</g>
	<g>
		<g>
			<path fill="#FFFFFF" d="M11.4,42.8c4.9-7,10.5-13.6,16.7-19.7c4-3.9,8.6-8.5,13.9-10.5c4-1.5,7.3,0.4,10.7,3
				C63.2,23.7,70.4,36.1,82,42.8c11.4,6.6,21.9,0.1,30.2-8.3c7.4-7.5,13.8-16.4,19.2-25.6c3.9-6.7-6.4-12.7-10.4-6.1
				c-4.4,7.5-9.6,14.7-15.5,21.1c-3.3,3.6-7.4,8.3-12.3,9.5c-3.6,0.9-7.8-2.8-10.8-5.4C72.9,19.5,65,7.1,52.9,1.7
				C41.1-3.5,30,4.8,21.7,12.7C14,19.9,7.1,28.2,1.1,36.8C-3.4,43.1,7,49.1,11.4,42.8L11.4,42.8z"/>
		</g>
	</g>
</g>
</svg>
