<?xml version="1.0" encoding="utf-8"?>
<!-- Generator: Adobe Illustrator 19.1.0, SVG Export Plug-In . SVG Version: 6.00 Build 0)  -->
<svg version="1.1" id="Layer_1" xmlns="http://www.w3.org/2000/svg" xmlns:xlink="http://www.w3.org/1999/xlink" x="0px" y="0px"
	 viewBox="0 0 60 60" style="enable-background:new 0 0 60 60;" xml:space="preserve">
<style type="text/css">
	.st0{fill:#59595C;}
</style>
<path class="st0" d="M30.8,0.4c-0.4-0.6-1.3-0.6-1.7,0C28.4,1.6,10,29.3,10,40c0,11,9,20,20,20s20-9,20-20
	C50,29.3,31.6,1.6,30.8,0.4z M25.6,25.4C21,34.3,20,38.3,20,40c0,2.7,1,5.3,2.8,7.3c0.4,0.4,0.3,1-0.1,1.4c-0.2,0.2-0.4,0.3-0.7,0.3
	c-0.3,0-0.5-0.1-0.7-0.3C19.2,46.3,18,43.2,18,40c0-2.8,2-8.1,5.9-15.5c0.3-0.5,0.9-0.7,1.4-0.4C25.7,24.4,25.9,25,25.6,25.4z"/>
</svg>
