<?xml version="1.0" encoding="utf-8"?>
<!-- Generator: Adobe Illustrator 19.1.0, SVG Export Plug-In . SVG Version: 6.00 Build 0)  -->
<svg version="1.1" id="Layer_1" xmlns="http://www.w3.org/2000/svg" xmlns:xlink="http://www.w3.org/1999/xlink" x="0px" y="0px"
	 viewBox="0 0 60 60" style="enable-background:new 0 0 60 60;" xml:space="preserve">
<style type="text/css">
	.st0{fill:#59595C;}
</style>
<g>
	<path class="st0" d="M0,30.2c0,1.7,0,3.9,1.1,5c0.2,0.2,0.5,0.4,0.9,0.6V46h10V35.8c0.7-0.3,1.4-0.9,1.7-2.2
		c0.3-1.1,0.3-2.3,0.3-3.4V22H0V30.2z"/>
	<path class="st0" d="M46,22v8c0,2.3,0.8,4.1,2,4.7V46h10V34.7c1.3-0.7,2-2.8,2-4.7v-8H46z"/>
	<path class="st0" d="M20,36c0,3.3,1.5,5.5,4,5.9V56h12V41.9c2.5-0.5,4-2.6,4-5.9V22H20V36z"/>
	<path class="st0" d="M53,20c2.8,0,5-2.2,5-5s-2.2-5-5-5c-2.8,0-5,2.2-5,5S50.2,20,53,20z"/>
	<path class="st0" d="M7,20c2.8,0,5-2.2,5-5s-2.2-5-5-5s-5,2.2-5,5S4.2,20,7,20z"/>
	<path class="st0" d="M30,20c4.4,0,8-3.6,8-8s-3.6-8-8-8s-8,3.6-8,8S25.6,20,30,20z"/>
</g>
</svg>
