<?xml version="1.0" encoding="utf-8"?>
<!-- Generator: Adobe Illustrator 19.1.0, SVG Export Plug-In . SVG Version: 6.00 Build 0)  -->
<svg version="1.1" id="Layer_1" xmlns="http://www.w3.org/2000/svg" xmlns:xlink="http://www.w3.org/1999/xlink" x="0px" y="0px"
	 viewBox="0 0 60 60" style="enable-background:new 0 0 60 60;" xml:space="preserve">
<style type="text/css">
	.st0{fill:#59595C;}
</style>
<path class="st0" d="M32,28.2V12.3c3.4,0.9,6,4,6,7.7c0,1.1,0.9,2,2,2s2-0.9,2-2c0-5.9-4.3-10.9-10-11.8V2c0-1.1-0.9-2-2-2
	s-2,0.9-2,2v6.2c-5.7,1-10,5.9-10,11.8s4.3,10.9,10,11.8v15.9c-3.4-0.9-6-4-6-7.7c0-1.1-0.9-2-2-2s-2,0.9-2,2
	c0,5.9,4.3,10.9,10,11.8V58c0,1.1,0.9,2,2,2s2-0.9,2-2v-6.2c5.7-1,10-5.9,10-11.8S37.7,29.1,32,28.2z M28,27.7c-3.4-0.9-6-4-6-7.7
	s2.6-6.8,6-7.7V27.7z M32,47.7V32.3c3.4,0.9,6,4,6,7.7S35.4,46.8,32,47.7z"/>
</svg>
