<?xml version="1.0" encoding="utf-8"?>
<!-- Generator: Adobe Illustrator 19.1.0, SVG Export Plug-In . SVG Version: 6.00 Build 0)  -->
<svg version="1.1" id="Layer_1" xmlns="http://www.w3.org/2000/svg" xmlns:xlink="http://www.w3.org/1999/xlink" x="0px" y="0px"
	 viewBox="0 0 60 60" style="enable-background:new 0 0 60 60;" xml:space="preserve">
<style type="text/css">
	.st0{fill:#59595C;}
</style>
<g>
	<path class="st0" d="M22,28.1c1.5,0,3.4-0.5,5.2-2.7c2.9,4.6,4,7.8,4,7.9l1.4,4.6c0.1,0.4,0.5,0.7,0.9,0.7c0,0,0.1,0,0.1,0
		c0.4,0,0.7-0.2,0.9-0.5l2.2-4.3c0,0,0.9-1.7,2.8-3.8c1.5,2,3.3,2.5,4.6,2.5c0,0,0,0,0,0c1.9,0,4-1,5.6-2.8
		c3.2-3.3,4.3-12.4,2.2-17.1c-0.1-0.3-0.4-0.5-0.7-0.6c-0.3-0.1-0.6,0-0.8,0.2C48.1,13.9,46,14.5,44,15c-1.8,0.5-3.7,1-5.5,2.2
		c-2.1,1.4-3.3,3.4-3.3,5.4c0,0.7,0.2,1.6,0.7,2.5c-0.4,0.4-0.8,0.8-1.1,1.2c-0.8-1.5-1.8-3.2-3.1-5.2c1.6-1.2,2.5-2.7,2.9-4.3
		c0.8-3.6-1.4-6.8-2.7-8.4c-2.3-2.7-5.6-3.5-9.1-4.3c-3.1-0.7-6.4-1.5-9.1-3.8C13.4,0.1,13.1,0,12.8,0c-0.3,0.1-0.6,0.2-0.7,0.5
		C8.7,7,10.5,19.2,14.2,23.7C16.6,26.5,19.5,28.1,22,28.1z M19.4,9.9c0.2,0.2,0.4,0.4,0.6,0.5c0.2,0.2,0.5,0.4,0.7,0.7
		c0.3,0.3,0.5,0.5,0.8,0.8c0.3,0.3,0.5,0.5,0.8,0.8c0.1,0.1,0.3,0.3,0.4,0.4c6.1,6.4,9.4,12.2,10.9,15.5c0,0,0,0,0,0
		c0.2,0.3,0.4,0.5,0.8,0.5c0.4,0,0.7-0.1,0.9-0.4c0.1-0.1,0.1-0.1,0.2-0.2c0.2-0.2,0.3-0.4,0.5-0.6c0.1-0.1,0.2-0.2,0.2-0.3
		c0.3-0.4,0.7-0.8,1.1-1.2c0.2-0.2,0.3-0.3,0.5-0.5c0.2-0.2,0.4-0.4,0.6-0.6c0.2-0.2,0.4-0.4,0.6-0.5c0.2-0.2,0.4-0.4,0.6-0.5
		c0.3-0.3,0.7-0.5,1-0.8c0.2-0.1,0.4-0.3,0.6-0.4c0.4-0.3,0.9-0.6,1.3-0.9c0.2-0.1,0.4-0.2,0.6-0.3c0.2-0.1,0.5-0.3,0.7-0.4l0.9,1.8
		c-0.1,0-0.1,0.1-0.2,0.1c-0.2,0.1-0.4,0.2-0.6,0.3c-0.2,0.1-0.4,0.3-0.6,0.4c-0.2,0.1-0.4,0.2-0.5,0.4c-0.2,0.1-0.4,0.3-0.6,0.4
		c-0.2,0.1-0.3,0.2-0.5,0.4c-0.2,0.1-0.4,0.3-0.5,0.4c-0.2,0.1-0.3,0.3-0.5,0.4c-0.2,0.1-0.3,0.3-0.5,0.4c-0.1,0.1-0.3,0.3-0.4,0.4
		c-0.1,0.1-0.3,0.3-0.4,0.4c-0.1,0.1-0.3,0.3-0.4,0.4c-0.1,0.1-0.3,0.3-0.4,0.4c-0.1,0.1-0.3,0.3-0.4,0.4c-0.1,0.1-0.2,0.2-0.3,0.4
		c-0.1,0.1-0.2,0.3-0.3,0.4c-0.1,0.1-0.2,0.2-0.3,0.3c-0.1,0.1-0.2,0.3-0.3,0.4c-0.1,0.1-0.2,0.2-0.2,0.3c-0.1,0.1-0.2,0.2-0.3,0.3
		c-0.1,0.1-0.1,0.2-0.2,0.3c-0.1,0.1-0.2,0.2-0.2,0.3c-0.1,0.1-0.1,0.2-0.2,0.2c-0.1,0.1-0.1,0.2-0.2,0.3c0,0.1-0.1,0.1-0.1,0.2
		c-0.1,0.1-0.1,0.2-0.2,0.2c0,0,0,0.1-0.1,0.1c-0.2,0.3-0.3,0.5-0.3,0.5L33.8,35L33,32.6c0-0.1-2.3-7.2-9.7-15.8c0,0,0,0,0,0
		c-0.3-0.3-0.5-0.6-0.8-0.9c0,0-0.1-0.1-0.1-0.1c-0.2-0.3-0.5-0.5-0.7-0.8c-0.1-0.1-0.2-0.2-0.2-0.2c-0.2-0.2-0.4-0.5-0.7-0.7
		c-0.1-0.1-0.2-0.2-0.3-0.3c-0.2-0.2-0.4-0.4-0.6-0.6c-0.1-0.1-0.3-0.3-0.4-0.4c-0.2-0.2-0.4-0.4-0.6-0.6c-0.2-0.2-0.3-0.3-0.5-0.5
		c-0.1-0.1-0.1-0.1-0.2-0.2L19.4,9.9z"/>
	<path class="st0" d="M11,36H1c-0.6,0-1,0.4-1,1v18c0,0.6,0.4,1,1,1h10c0.6,0,1-0.4,1-1V37C12,36.5,11.6,36,11,36z"/>
	<path class="st0" d="M59.7,46.3c-3-3-5-3.1-8.1-2.2l-5,1.6c-0.1,1-0.5,2-1.1,2.7C44.7,49.5,43.5,50,42,50h-1H28c-0.6,0-1-0.4-1-1
		s0.4-1,1-1h13h1c0.9,0,1.6-0.3,2-0.9c0.4-0.5,0.7-1.3,0.7-2.1c0-0.1,0-0.3,0-0.5C44.2,43.1,43,42,41,42c-1.2,0-2,0-2.7,0
		c-0.9,0-1.5,0-2.4,0c-0.7,0-1.5,0-2.6,0c-3.4-2.6-7.3-4-11.3-4h-8c-0.6,0-1,0.4-1,1v13.8c0,0.4,0.3,0.8,0.7,0.9
		c3.9,1.3,7,2.4,9.5,3.3C28.2,59,31.1,60,33.7,60c3.2,0,6-1.5,12.1-4.9c3.2-1.8,7.7-4.2,13.7-7.2c0.3-0.1,0.5-0.4,0.5-0.7
		C60,46.9,59.9,46.5,59.7,46.3z"/>
</g>
</svg>
