<?xml version="1.0" encoding="utf-8"?>
<!-- Generator: Adobe Illustrator 19.1.0, SVG Export Plug-In . SVG Version: 6.00 Build 0)  -->
<svg version="1.1" id="Layer_1" xmlns="http://www.w3.org/2000/svg" xmlns:xlink="http://www.w3.org/1999/xlink" x="0px" y="0px"
	 viewBox="0 0 60 60" style="enable-background:new 0 0 60 60;" xml:space="preserve">
<style type="text/css">
	.st0{fill:#59595C;}
</style>
<g>
	<path class="st0" d="M33,28h26c0.6,0,1-0.4,1-1C60,12.1,47.9,0,33,0c-0.6,0-1,0.4-1,1v26C32,27.6,32.4,28,33,28z"/>
	<path class="st0" d="M28,32.6V7c0-0.6-0.4-1-1-1C12.1,6,0,18.1,0,33s12.1,27,27,27c7.2,0,14-2.8,19.1-7.9c0.2-0.2,0.3-0.4,0.3-0.7
		c0-0.3-0.1-0.5-0.3-0.7L28,32.6z"/>
	<path class="st0" d="M59,30H33c-0.4,0-0.8,0.2-0.9,0.6c-0.2,0.4-0.1,0.8,0.2,1.1l18.4,18.4c0.2,0.2,0.4,0.3,0.7,0.3
		c0.3,0,0.5-0.1,0.7-0.3C57.2,45,60,38.2,60,31C60,30.4,59.6,30,59,30z"/>
</g>
</svg>
