<?xml version="1.0" encoding="utf-8"?>
<!-- Generator: Adobe Illustrator 18.1.1, SVG Export Plug-In . SVG Version: 6.00 Build 0)  -->
<svg version="1.1" id="Layer_1" xmlns="http://www.w3.org/2000/svg" xmlns:xlink="http://www.w3.org/1999/xlink" x="0px" y="0px"
	 viewBox="0 0 108 120" enable-background="new 0 0 108 120" xml:space="preserve">
<g>
	<path fill="#FFFFFF" d="M100.4,39.3c1.5-4.4,1-8.7-1.4-12.4c-3.1-4.8-9.1-7.5-15.8-7.1C79,10.1,68.9,0,56,0
		C38.2,0,26.2,12,24.2,24.2C10.9,26.3,0,38.7,0,52c0,14.9,13.1,28,28,28h57.8c12.2,0,22.2-9.9,22.2-22C108,51.9,106,44,100.4,39.3z"
		/>
	<path fill="#FFFFFF" d="M35.8,100h-9.2l6.6-6.6c0.8-0.8,0.8-2,0-2.8c-0.8-0.8-2-0.8-2.8,0l-10,10c-0.6,0.6-0.7,1.4-0.4,2.2
		c0.3,0.7,1,1.2,1.8,1.2H31l-12.6,12.6c-0.8,0.8-0.8,2,0,2.8c0.4,0.4,0.9,0.6,1.4,0.6c0.5,0,1-0.2,1.4-0.6l16-16
		c0.6-0.6,0.7-1.4,0.4-2.2C37.4,100.5,36.6,100,35.8,100z"/>
	<path fill="#FFFFFF" d="M61.8,100h-7.2l4.6-4.6c0.8-0.8,0.8-2,0-2.8c-0.8-0.8-2-0.8-2.8,0l-8,8c-0.6,0.6-0.7,1.4-0.4,2.2
		c0.3,0.7,1,1.2,1.8,1.2H57l-12.6,12.6c-0.8,0.8-0.8,2,0,2.8c0.4,0.4,0.9,0.6,1.4,0.6c0.5,0,1-0.2,1.4-0.6l16-16
		c0.6-0.6,0.7-1.4,0.4-2.2C63.4,100.5,62.6,100,61.8,100z"/>
	<path fill="#FFFFFF" d="M85.8,100h-7.2l4.6-4.6c0.8-0.8,0.8-2,0-2.8c-0.8-0.8-2-0.8-2.8,0l-8,8c-0.6,0.6-0.7,1.4-0.4,2.2
		c0.3,0.7,1,1.2,1.8,1.2H81l-12.6,12.6c-0.8,0.8-0.8,2,0,2.8c0.4,0.4,0.9,0.6,1.4,0.6c0.5,0,1-0.2,1.4-0.6l16-16
		c0.6-0.6,0.7-1.4,0.4-2.2C87.4,100.5,86.6,100,85.8,100z"/>
</g>
</svg>
