<?xml version="1.0" encoding="utf-8"?>
<!-- Generator: Adobe Illustrator 19.1.0, SVG Export Plug-In . SVG Version: 6.00 Build 0)  -->
<svg version="1.1" id="Layer_1" xmlns="http://www.w3.org/2000/svg" xmlns:xlink="http://www.w3.org/1999/xlink" x="0px" y="0px"
	 viewBox="0 0 60 60" style="enable-background:new 0 0 60 60;" xml:space="preserve">
<style type="text/css">
	.st0{fill:#59595C;}
</style>
<g>
	<path class="st0" d="M7.7,33.8c0.2,0,0.4-0.1,0.5-0.2L51.8,5L51,11.9c-0.1,0.5,0.3,1,0.9,1.1c0,0,0.1,0,0.1,0c0.5,0,0.9-0.4,1-0.9
		l1-9c0,0,0-0.1,0-0.1c0-0.1,0-0.1,0-0.2c0-0.1,0-0.1-0.1-0.2c0,0,0-0.1,0-0.1c0,0,0,0,0,0c0-0.1-0.1-0.1-0.1-0.1
		c0,0-0.1-0.1-0.1-0.1c-0.1,0-0.1,0-0.2-0.1c-0.1,0-0.1-0.1-0.2-0.1c0,0,0,0,0,0l-9-1c-0.5-0.1-1,0.3-1.1,0.9
		c-0.1,0.5,0.3,1,0.9,1.1l6.2,0.7L7.1,32c-0.5,0.3-0.6,0.9-0.3,1.4C7,33.7,7.3,33.8,7.7,33.8z"/>
	<path class="st0" d="M59,57h-3V20c0-0.6-0.4-1-1-1h-8c-0.6,0-1,0.4-1,1v37h-4V30c0-0.6-0.4-1-1-1h-8c-0.6,0-1,0.4-1,1v27h-4V40
		c0-0.6-0.4-1-1-1h-8c-0.6,0-1,0.4-1,1v17h-4v-7c0-0.6-0.4-1-1-1H5c-0.6,0-1,0.4-1,1v7H1c-0.6,0-1,0.4-1,1c0,0.6,0.4,1,1,1h4h8h6h8
		h6h8h6h8h4c0.6,0,1-0.4,1-1C60,57.4,59.6,57,59,57z"/>
</g>
</svg>
