<?xml version="1.0" encoding="utf-8"?>
<!-- Generator: Adobe Illustrator 19.2.0, SVG Export Plug-In . SVG Version: 6.00 Build 0)  -->
<svg version="1.1" id="Layer_1" xmlns="http://www.w3.org/2000/svg" xmlns:xlink="http://www.w3.org/1999/xlink" x="0px" y="0px"
	 viewBox="0 0 68.6 80" style="enable-background:new 0 0 68.6 80;" xml:space="preserve">
<style type="text/css">
	.st0{fill:none;}
	.st1{fill:#00703C;}
</style>
<g>
	<g>
		<g>
			<g>
				<path class="st0" d="M61.5,14.5c1.3-0.6,2.3-1.3,2.8-1.9c0.5-0.5,0.6-0.8,0.7-1.1c0,0,0,0,0,0c0-0.1,0-0.1,0-0.2
					c0,0,0-0.1,0-0.1c0-0.3-0.4-0.9-1.4-1.4c-2.3-1.3-7.1-2-11.8-2.2c2.3,2.5,4.1,5.5,5.1,8.8C58.6,15.8,60.2,15.1,61.5,14.5z"/>
				<path class="st1" d="M37.8,25.1l-7.3,1.4c-4.1,0.8-5.7,1-12.8,2.4c-1.9,0.5-3.8,1-5.5,1.6c0,0-0.1,0-0.1,0c1,3,2.5,5.8,4.5,8.2
					c-0.3,0-0.7,0-1.1,0c-4.7-0.3-9-1-10.9-2.2c-0.2-0.1-0.4-0.2-0.5-0.4c0.2,0.8,1.5,2,3.8,2.9c2.5,1,6.2,1.8,10.7,2
					c0,0,0.4,0,0.4,0c0,0,0.3,0.3,0.3,0.3c0.6,0.6,1.5,1.3,1.5,1.3l0.1,0.1c3.8,2.7,8.5,4.4,13.6,4.4C47.5,47,58,36.5,58,23.5
					c0-1-0.1-2-0.2-3c-2.5,0.8-5.1,1.5-7.7,2.1C42.5,24.2,41.3,24.6,37.8,25.1z"/>
				<path class="st1" d="M0.1,35.6C0.1,35.6,0.1,35.6,0.1,35.6c0-0.4,0.1-0.7,0.1-0.7c1.2-3.7,6.3-5.7,14-7.5
					c7.7-1.7,17.9-3.2,29.5-5.4C54.5,20,62.3,17.5,66,15.1c1.5-0.9,2.1-2,2.4-2.8c0.1-0.3,0.1-0.7,0.1-1c0-0.2,0-0.5-0.1-0.7
					c-0.3-1.9-1.7-3.1-3.2-3.9c-1.6-0.8-3.5-1.4-5.6-1.8c-3.7-0.7-8.2-0.9-12.2-1C43.8,1.5,39.3,0,34.5,0C21.5,0,11,10.5,11,23.5
					c0,1,0.1,1.9,0.2,2.9c-0.1,0-0.1,0-0.2,0.1c-3.8,1.2-7.1,2.8-9.2,4.8c-1,1-1.8,2.3-1.8,3.9c0,0.2,0,0.3,0,0.5
					c0,0.4,0.1,0.7,0.3,1.1c-0.1-0.2-0.1-0.4-0.1-0.6C0.2,35.9,0.1,35.8,0.1,35.6z M63.6,9.8c1.1,0.6,1.4,1.1,1.4,1.4
					c0,0,0,0.1,0,0.1c0,0,0,0.1,0,0.2c0,0,0,0,0,0c0,0.2-0.2,0.6-0.7,1.1c-0.6,0.6-1.6,1.2-2.8,1.9c-1.3,0.7-2.9,1.3-4.6,1.9
					c-1.1-3.3-2.8-6.3-5.1-8.8C56.6,7.8,61.3,8.5,63.6,9.8z"/>
			</g>
		</g>
		<g>
			<path class="st1" d="M18.3,80c-2,0-3.9-0.3-5.4-0.7l0.3-3.7c1.6,0.6,3.6,1.1,5.4,1.1c3.6,0,5.6-1.3,5.6-5.1v-1.2
				c0-1.1,0-2,0.2-2.9l-0.1,0c-1,2.3-3.1,3.7-5.6,3.7c-4.3,0-6.7-2.9-6.7-8.5c0-6.2,3.6-10.2,9.7-10.2c2.3,0,4.4,0.2,6.3,0.5v18.9
				C28,75.6,26.2,80,18.3,80z M24.1,55.9c-0.9-0.2-1.9-0.3-2.9-0.3c-3.1,0-5.2,1.9-5.2,6.8c0,3.6,1.1,5.6,3.6,5.6
				c2.9,0,4.5-3.4,4.5-6.6V55.9z"/>
			<path class="st1" d="M46.9,62H35.3c-0.1,4.2,1.7,6.1,5.4,6.1c1.9,0,3.8-0.4,5.3-1.2l0.4,3.1c-1.8,0.8-4,1.2-6.3,1.2
				c-5.6,0-8.7-2.9-8.7-9.3c0-5.5,3-9.5,8.3-9.5c5.2,0,7.4,3.5,7.4,7.8C47,60.7,46.9,61.3,46.9,62z M39.4,55.2c-2.2,0-3.7,1.6-4,4
				h7.7C43.1,56.8,41.7,55.2,39.4,55.2z"/>
			<path class="st1" d="M62,47.5c-0.8-0.3-1.7-0.4-2.5-0.4c-2.3,0-3.4,1.3-3.4,4.1v1.5h4.7v3h-4.7v15.1h-3.9V55.7h-3.5v-3h3.5v-1.4
				c0-5,2.4-7.4,7.1-7.4c1,0,2,0.1,3,0.3L62,47.5z"/>
		</g>
	</g>
</g>
</svg>
