<?xml version="1.0" encoding="utf-8"?>
<!-- Generator: Adobe Illustrator 19.2.0, SVG Export Plug-In . SVG Version: 6.00 Build 0)  -->
<svg version="1.1" id="Layer_1" xmlns="http://www.w3.org/2000/svg" xmlns:xlink="http://www.w3.org/1999/xlink" x="0px" y="0px"
	 viewBox="0 0 32.2 80" style="enable-background:new 0 0 32.2 80;" xml:space="preserve">
<style type="text/css">
	.st0{fill:#243E8E;}
	.st1{fill:#FFFFFF;}
	.st2{fill:#020202;}
	.st3{fill:#676767;}
	.st4{font-family:'MyriadPro-CondIt';}
	.st5{font-size:6.1542px;}
</style>
<g>
	<rect x="0" class="st0" width="32.1" height="32.1"/>
	<g id="WzcW1U_1_">
		<g id="XMLID_1_">
			<path class="st1" d="M29.7,16.2c0,0.2,0,0.3,0,0.5c-0.2,3-2.5,3.8-4.3,5.1c0.4-0.7,0.6-1.8,0.7-2.9c0.1-1.1,0.2-2.3,0.6-3.1
				c-0.1,1,0.4,2.1,0.3,3.2c0,0.6-0.3,1-0.5,1.5c0.3-0.3,0.5-0.6,0.8-1c0.3-0.3,0.5-0.6,0.8-1c0.7-0.7,1.4-1.4,1.5-2.5
				C29.7,15.9,29.6,16.1,29.7,16.2z"/>
			<path class="st1" d="M29.3,12c0.6,1.4,0.3,3.5-0.4,4.6c-0.5,0.7-1.1,1.2-1.5,2c0.1-2.3-1.1-3.5-0.9-5.9c0.5,1.4,1.8,2.5,1.4,4.5
				c0.2-0.8,0.4-1.5,0.7-2.2C29,14.1,29.4,13.3,29.3,12z"/>
			<path class="st1" d="M29.1,11.4c0,1.5-0.9,2.4-0.9,3.8c-0.3-1-0.7-1.8-1.3-2.5c-0.5-0.7-1.1-1.5-1.2-2.6c0.7,1.2,2.1,1.6,2.3,3.3
				c-0.1-1.6,0.6-3.5-0.1-4.7C28.5,9.1,29.1,10.2,29.1,11.4z"/>
			<path class="st1" d="M28.8,19.7c-0.1,1-0.7,1.8-1.3,2.3c-0.5,0.5-1.2,1-2,1.3c-0.8,0.3-1.8,0.2-2.7,0.5c-0.1,0,0.1-0.1,0.1-0.2
				c0.3-0.3,0.5-0.5,0.7-0.9c0.2-0.5,0.4-1,0.6-1.5c0.4-1.1,0.9-2,1.5-2.7c-0.1,0.4-0.2,0.8-0.3,1.2c-0.2,0.9-0.2,1.8-0.6,2.4
				c-0.2,0.3-0.5,0.7-0.8,0.9c0,0,0,0-0.1,0c0,0,0,0,0,0.1c0.8-0.6,1.6-1.1,2.6-1.6C27.5,21.2,28.3,20.6,28.8,19.7z"/>
			<path class="st1" d="M27.8,9.2c0.1,0.8-0.1,1.7,0,2.6c-0.8-1.6-3-1.9-3.1-4.2c0.6,1.3,2.2,1.5,2.7,2.9c-0.2-0.6-0.3-1.3-0.5-2
				c-0.2-0.7-0.4-1.4-1-1.7C26.9,7,27.7,7.9,27.8,9.2z"/>
			<path class="st1" d="M26.6,9c0,0.1-0.1-0.1-0.2-0.1c-0.5-0.4-1.1-0.9-1.6-1.5c-0.5-0.7-0.9-1.4-1.6-1.9c0,0,0,0,0,0
				c1.3,0.4,2.4,1,2.9,2.2C26.3,8.1,26.4,8.5,26.6,9z"/>
			<path class="st1" d="M25.7,13.4c0.2,3-0.9,5.5-2.4,7.1c-1.4,1.6-3.5,3-6.4,3.2c-3.1,0.2-5.6-1-7.2-2.4c-1.7-1.5-3-3.5-3.2-6.4
				c-0.3-3.2,0.9-5.6,2.3-7.2c1.4-1.6,3.6-3,6.5-3.2c3.1-0.2,5.6,1,7.2,2.4c0.9,0.8,1.5,1.6,2.1,2.7C25.2,10.8,25.6,11.9,25.7,13.4z
				 M23.9,14c0.5,0,1,0,1.6,0c-0.1-2.9-1.2-4.8-2.6-6.3c-0.4,0.4-0.8,0.7-1.1,1.1C22.9,10.1,23.8,11.7,23.9,14z M25.4,14.4
				c-0.5,0-1,0-1.6,0c-0.1,2.4-1,3.9-2.1,5.2c0.4,0.3,0.7,0.8,1.1,1.1C24.2,19.1,25.3,17.2,25.4,14.4z M22.1,14c0.5,0,1,0,1.5,0
				c-0.1-1.7-0.5-2.9-1.3-3.9c-0.1,0.1,0,0.3-0.1,0.4c-0.4-0.2-0.7-0.7-1.3-0.8c-0.2,0.1-0.3,0.3-0.4,0.4C21.4,11,22,12.2,22.1,14z
				 M23.6,14.4c-0.5,0-1,0-1.5,0c0,1.4-0.5,2.4-1.1,3.2c0,0.4-0.2,0.8-0.2,1.1c0.1,0.1,0.4,0,0.4,0.2c0,0.3,0.1,0.4,0.3,0.5
				c0.1-0.2,0.3-0.3,0.3-0.5c-0.1,0-0.1-0.1,0-0.1c-0.1,0-0.2,0-0.1-0.2c0-0.2,0.1-0.2,0.2-0.3c0-0.2,0-0.4,0.1-0.4
				c0.3,0,0.3,0.4,0.3,0.6C23,17.3,23.5,16.1,23.6,14.4z M21.4,8.6c0.4-0.3,0.8-0.7,1.1-1.1C21,6.1,19.1,5,16.3,4.9c0,0.5,0,1,0,1.6
				c0.1,0,0.3,0,0.4,0c0.1,0,0.1-0.2,0.2-0.2c0.1,0,0.3-0.1,0.5-0.1c0.2,0,0.6-0.1,0.6,0.1c-0.1,0.1-0.3,0-0.4,0.2
				c-0.1,0-0.4-0.1-0.4,0.1C19.1,6.8,20.4,7.6,21.4,8.6z M22.6,20.9c-0.3-0.4-0.7-0.8-1.1-1.1c-0.2,0.3-0.4,0.3-0.6,0.5
				c-0.1,0.1-0.1,0.3-0.2,0.4c-0.1,0.2-0.4,0.4-0.7,0.5c-0.2,0.1-0.7,0.4-0.8,0.4c-0.1,0-0.3-0.2-0.4-0.2c-0.1,0-0.4,0.1-0.5,0.2
				c-0.6,0.2-1.2,0.3-1.9,0.3c0,0.5,0,1,0,1.6C19.1,23.4,21,22.3,22.6,20.9z M20.8,14c0.3,0,0.7,0,1,0c0-0.4-0.1-0.7-0.1-1.1
				c-0.2,0-0.1,0.4-0.2,0.5c-0.2-0.1,0-0.3,0-0.5c0,0,0,0-0.1,0c-0.1,0.2-0.2,0.4-0.4,0.4C21.2,13.7,20.8,13.7,20.8,14z M21.8,14.4
				c-0.3,0-0.6,0-0.9,0c0.1,0,0.1,0.2,0.1,0.3c0.6,0.1,0.3,0.7-0.3,0.7c0,0.1,0,0.1,0,0.2c-0.3,0-0.3,0.4-0.4,0.6
				c-0.1,0.2-0.3,0.2-0.3,0.4c-0.1,0.1-0.3,0.1-0.3,0.3c0.1,0,0.3,0,0.3,0c0.1-0.2,0.2-0.5,0.4-0.5c0.1,0.5-0.1,1-0.4,1.3
				c-0.1,0-0.2,0-0.3,0c0,0.1,0.2,0.2,0.2,0.3c0.1-0.1,0.2-0.2,0.4-0.2c0.2-0.2,0.3-0.5,0.4-0.7c0.1,0,0.1,0.1,0.1,0
				C21.4,16.3,21.8,15.5,21.8,14.4z M21.4,12.7c0.1-0.4-0.1-0.9-0.3-1.2c0,0.2,0.3,0.5,0.1,0.7c-0.2-0.3-0.5-0.4-0.6-0.7
				c0.2-0.1,0.3,0.1,0.5,0c-0.1,0-0.1-0.1-0.1-0.2c0,0.1-0.2,0.1-0.3,0c0-0.1,0.1-0.1,0.1-0.2c-0.1-0.1-0.1,0.1-0.2,0.1
				c0-0.1-0.2-0.2-0.2-0.3c0.1,0,0.2,0.1,0.3,0.1c0-0.1,0-0.1,0.1-0.1c-0.2-0.2-0.3-0.5-0.6-0.6c-0.3,0.4-0.7,0.6-0.9,1
				c0.2,0.2,0.3,0.4,0.5,0.6c0.3,0,0.5,0.2,0.6,0.5c0.1,0,0.2,0,0.2,0c-0.1,0.1-0.1,0.3,0.1,0.3c0.1-0.1,0-0.2,0.1-0.3
				c0.3,0,0.2,0.4,0.3,0.7c0.2,0,0.2-0.2,0.2-0.4C21.3,12.7,21.4,12.7,21.4,12.7z M21.2,19.6c0-0.1-0.1-0.2-0.2-0.2
				c0,0.1-0.1,0.2-0.1,0.3C21.1,19.7,21.2,19.6,21.2,19.6z M21.1,8.9c0.4-0.1-0.5-0.7-0.5-0.6C20.7,8.6,20.9,8.8,21.1,8.9z M20.8,11
				c0,0.1,0.1,0.2,0.1,0.1C20.8,11.1,20.9,11,20.8,11z M20.3,9.8c0.1,0,0.3-0.4,0.3-0.4c-0.3,0-0.3-0.3-0.5-0.4
				c0.1-0.1,0-0.3-0.1-0.4c-0.1,0-0.2,0.1-0.3,0.1c-0.2-0.2-0.4-0.6-0.6-0.8c-0.1-0.1-0.3-0.1-0.3-0.3c0.1-0.1,0.4-0.1,0.5-0.1
				c-0.7-0.3-1.5-0.6-2.5-0.6c-0.1,0,0.2,0.1,0.1,0.2c-0.2,0-0.3-0.2-0.5-0.2c0,0.5,0,1,0,1.5c1.3,0,2.4,0.5,3.2,1.1
				C19.6,9.3,20.2,9.8,20.3,9.8z M20,10.1c0-0.1-0.1-0.2-0.3-0.3C19.7,10,19.8,10.1,20,10.1z M19.9,10.2c-0.2-0.1-0.4-0.2-0.5-0.3
				c0-0.1,0.1-0.2,0-0.3c-0.8-0.6-1.8-1-3.1-1.1c0,0.5,0,0.9,0,1.4c1.2,0.1,2,0.5,2.7,1.1C19.3,10.8,19.6,10.5,19.9,10.2z
				 M19.2,17.9c0.1,0,0.2,0.1,0.4,0.1C19.6,17.7,19.1,17.5,19.2,17.9z M19.3,12.1c0.1,0,0.2,0.1,0.2,0c-0.1-0.1-0.1-0.2-0.2-0.3
				c-0.1,0.2,0,0.3,0,0.5c0.1,0,0.1,0,0.2,0C19.5,12.2,19.3,12.2,19.3,12.1z M19.2,11.7c0-0.1-0.1-0.1-0.2-0.2
				c-0.1,0.1-0.2,0.2-0.3,0.3c0.1,0,0.1,0.1,0.3,0.1C19,11.7,19,11.6,19.2,11.7z M19,16.9c0-0.1,0.1-0.1,0.1-0.2c0,0-0.1,0-0.2,0
				C18.9,16.8,19,16.8,19,16.9z M18,18.2c0.5-0.1,1.1-0.2,1-0.8c0,0-0.1,0-0.1,0c-0.3,0.3-0.9,0.7-1.3,0.8c-0.2,0.1-0.4,0-0.5,0.2
				c0.2,0.1,0.5,0,0.9,0C17.9,18.3,17.9,18.2,18,18.2z M18.8,17.1c0-0.1-0.1-0.1-0.2-0.1c0,0.1,0,0.1-0.1,0.2
				c-0.1,0-0.1-0.1-0.2-0.1c-0.1,0.1-0.2,0.3,0,0.4C18.5,17.4,18.7,17.3,18.8,17.1z M18.7,11.4c-0.1,0-0.1-0.1-0.2,0
				c-0.1,0.1-0.1,0.2-0.3,0.2c0-0.1-0.2-0.2-0.1-0.2c0.1,0,0.2,0,0.3,0c0-0.2,0.2-0.2,0.3-0.2c-0.6-0.4-1.3-0.8-2.3-0.8
				c0,0.6,0,1.1,0,1.7c0.2,0,0.3,0,0.5,0c0-0.3,0.2-0.4,0.5-0.5c0,0.3-0.2,0.4-0.3,0.6c0.3,0.1,0.8,0.4,0.9-0.1
				c-0.1,0-0.2-0.1-0.2-0.2c0.1-0.1,0.2-0.2,0.3-0.1c0,0.1-0.2,0.1-0.2,0.3c0.1,0,0.2-0.1,0.3-0.2C18.5,11.7,18.6,11.5,18.7,11.4z
				 M18.3,21.3c-0.2-0.1-0.5,0-0.5-0.3c0-0.1,0.1-0.2,0.2-0.3c-0.1-0.2-0.3-0.4-0.7-0.3c0-0.1,0.1-0.2,0.1-0.3
				c-0.4,0-0.7,0.1-1.1,0.1c0,0.5,0,1,0,1.5C17,21.6,17.8,21.5,18.3,21.3z M18,14.6c-0.1,0-0.1,0-0.1,0c0,0.1,0,0.2,0.1,0.2
				C17.9,14.8,18,14.7,18,14.6z M17.7,14.9c-0.2-0.1-0.3-0.1-0.4-0.2c0-0.1,0.1-0.1,0.1-0.2c-0.3,0-0.4-0.2-0.7-0.2
				c-0.1,0-0.1,0.1-0.2,0c0.2-0.1,0.3-0.4,0.5-0.3c0-0.1,0-0.1,0-0.2c-0.1,0-0.1,0-0.1,0c-0.1-0.2,0.2-0.2,0.2-0.3
				c-0.1,0-0.2,0-0.1-0.1c-0.1,0-0.1,0.1-0.2,0.1c-0.1-0.1-0.1-0.2-0.1-0.3c-0.1,0-0.1,0-0.2,0c0-0.1,0-0.2-0.1-0.2
				c-0.1,0-0.1,0.1-0.2,0.1c-0.3,0-0.2-0.4-0.2-0.7c-0.1-0.1-0.2,0.1-0.2,0.1c0,0.1,0,0.1,0,0.2c-0.1,0.1-0.1,0.3-0.1,0.4
				c-0.2,0.2-0.6,0.3-0.7,0.5c0.1,0,0.2-0.1,0.2,0c-0.1,0.1-0.2,0.2-0.4,0.1c0,0.2,0.2,0.1,0.2,0.2c0.1-0.1,0.1-0.3,0.3-0.2
				c0,0.1-0.2,0.1-0.2,0.3c0,0.1,0.2,0,0.1,0.1c0,0.5-0.3,0.6-0.4,0.9c-0.1-0.1-0.4-0.1-0.5-0.1c0.1-0.4,0.7-0.3,0.7-0.8
				c-0.2-0.1-0.4,0.4-0.7,0.2c0.1-0.1,0-0.2,0.2-0.2c0.1,0,0,0.1,0.1,0.1c0.1-0.1-0.1-0.2,0-0.2c0.1,0,0.2,0.1,0.2,0
				c-0.2-0.1-0.3,0.1-0.5,0.1c0-0.1,0.1-0.1,0.1-0.2c-0.1,0-0.1-0.1-0.1-0.2c-0.3,0-0.3,0.2-0.3,0.4c0.1,0,0.2,0,0.3,0
				c0,0.2-0.1,0.3-0.2,0.4c-0.1,0-0.1-0.1-0.1,0c0.1,1.1,1.5,2.1,2.5,1.5c0.1,0,0.3-0.1,0.3-0.1c-0.1,0.1-0.2,0.1-0.3,0.1
				c-0.1-0.2-0.1-0.6,0.1-0.7c0.3,0,0.5,0,0.6,0.2c0,0.1-0.1,0.1-0.1,0.2c0.1,0.1,0.2-0.1,0.2-0.2c-0.1-0.1-0.2-0.2-0.3-0.3
				C17.4,15.2,17.6,15.1,17.7,14.9z M17.5,16.2c-0.2,0-0.3,0.2-0.5,0.1c-0.1,0.1,0.2,0.4,0.1,0.6c0,0,0,0-0.1,0
				c-0.1-0.1-0.2-0.1-0.2-0.2c-0.1,0-0.1,0.1-0.3,0c-0.1-0.1,0-0.2,0-0.3c-0.1,0-0.1,0.1-0.2,0c0,0.3,0,0.7,0,1
				c0.2,0,0.2-0.2,0.4-0.2c0-0.1-0.1-0.1-0.1-0.2c0.1,0,0.1-0.1,0.1-0.1c0,0.1,0,0.2,0.1,0.2c0.3,0,0.6-0.2,0.5-0.4
				c0.1,0,0.1,0,0.1-0.1c0,0-0.1,0-0.1-0.1C17.4,16.3,17.5,16.4,17.5,16.2z M17.1,17.7c0,0.3,0.4,0.2,0.6,0.2
				C17.7,17.6,17.3,17.7,17.1,17.7z M17.3,18c-0.2,0-0.3-0.1-0.4-0.2c-0.1,0.2-0.6,0.1-0.5,0.4C16.6,18.1,17.1,18.1,17.3,18z
				 M16.6,18.5c0,0.2,0.3,0.2,0.3,0C16.8,18.4,16.6,18.4,16.6,18.5z M15.8,16.8c0.1-0.1,0.1-0.2,0.1-0.4c-0.6-0.1-1-0.3-1.3-0.5
				c-0.4,0.4-0.8,0.8-1.2,1.2c0.5,0.5,1.2,0.9,2.1,1c0-0.1-0.1-0.2,0-0.2c0.1,0,0.2,0,0.4,0c0-0.4-0.1-0.5,0-0.8
				C16,16.9,15.9,16.9,15.8,16.8z M15.9,8.2c0-0.4,0-0.8,0-1.1c0-0.1,0.1-0.3-0.1-0.3c0,0,0,0-0.1,0C14.9,6.8,14,7,13,7.4
				c-0.4,0.2-0.7,0.4-1.1,0.6c-0.2,0.1-1,0.6-1,0.8c0,0,0.2,0.2,0.2,0.2c0.3,0.3,0.5,0.5,0.8,0.7C13,8.9,14.1,8.3,15.9,8.2z
				 M15.9,23.5c0-0.5,0-1,0-1.6c-2.4-0.1-3.9-1-5.2-2.1c-0.4,0.4-0.8,0.7-1.1,1.1C11.2,22.3,13.1,23.4,15.9,23.5z M15.9,21.6
				c0-0.5,0-1,0-1.5c-1.6,0-2.7-0.6-3.6-1.3c-0.2,0-0.3-0.1-0.5-0.2c-0.3,0.3-0.6,0.6-0.9,0.9C12.2,20.7,13.7,21.5,15.9,21.6z
				 M15.9,11.9c0-0.6,0-1.1,0-1.7c-1.1,0-1.9,0.5-2.5,1.1c0.2,0.2,0.6,0.2,0.8,0.4c0.1,0,0.2,0,0.2,0c0.2,0.1,0.4,0.3,0.3,0.5
				C15.2,12.3,15.5,11.9,15.9,11.9z M15.9,9.9c0-0.5,0-0.9,0-1.4c-1.7,0.1-2.8,0.7-3.7,1.5c0.3,0.4,0.6,0.7,1,1
				C13.9,10.4,14.7,10,15.9,9.9z M15.9,6.4c0-0.5,0-1,0-1.6C13.1,5,11.2,6.1,9.7,7.5c0.3,0.4,0.7,0.8,1.1,1.1
				C12,7.4,13.6,6.5,15.9,6.4z M15.9,12.3c-0.3,0-0.6,0.1-0.8,0.3C15.4,12.8,15.8,12.5,15.9,12.3z M15.2,18.7
				c0.1-0.1,0.3-0.2,0.4-0.3c-1.1-0.1-1.8-0.6-2.4-1.1c-0.3,0.3-0.6,0.6-0.9,1c0.6,0.7,1.6,1.2,2.6,1.4c-0.2-0.1-0.4-0.2-0.5-0.4
				c0-0.2,0.2-0.2,0.2-0.4C14.8,18.8,14.9,18.6,15.2,18.7z M14.4,15.7c-0.3-0.4-0.5-0.8-0.5-1.3c-0.1,0-0.1,0.2-0.2,0.1
				c-0.1,0-0.1-0.1-0.2-0.1c-0.4,0-1,0-1.3,0c0.1,1.1,0.5,1.9,1.1,2.5C13.6,16.5,14,16.1,14.4,15.7z M14,11.7c0-0.1-0.1-0.1-0.1-0.1
				C13.8,11.7,13.9,11.7,14,11.7z M13.2,11.8c0.1,0,0.1-0.1,0.2,0c0-0.1-0.1-0.1-0.2-0.2C13.1,11.6,13.1,11.7,13.2,11.8z M12.2,14
				c0.3,0,0.7,0,1,0c0-0.1-0.2-0.1-0.2-0.2c0,0,0-0.2-0.1-0.2c-0.2,0-0.4,0.1-0.4-0.1c0.1-0.1,0.2-0.1,0.3-0.1
				c0.1-0.3,0.2-0.5,0.3-0.8c-0.2-0.6-0.7-0.2-0.6,0.3c-0.2,0.1-0.3,0.4-0.3,0.6c0.2,0,0.1-0.3,0.2-0.3C12.4,13.6,12.2,13.7,12.2,14
				z M13,11.3c-0.3-0.4-0.6-0.7-1-1c-0.6,0.7-1.2,1.6-1.4,2.7c0.3-0.1,0.4,0.3,0.5,0.6c0.1,0,0.2,0,0.3,0c0.1-0.1,0-0.2,0-0.3
				c0.1-0.2,0.2-0.5,0.5-0.5C12.3,12.3,12.5,11.7,13,11.3z M12.1,18c0.3-0.3,0.6-0.6,0.9-1c-0.6-0.7-1.1-1.5-1.1-2.7
				c-0.1,0-0.3,0-0.3,0c0,0.2-0.1,0.2-0.1,0.4c0,0.1,0.1,0.2,0.1,0.4c0,0.3-0.1,0.6,0,0.8c0.1,0.4,0.4,0.7,0,1
				C11.7,17.3,11.8,17.7,12.1,18z M11.8,14c0-0.3,0.1-0.5,0.1-0.8c-0.2-0.2-0.5,0-0.4,0.4c0,0-0.1,0.1-0.1,0.1
				c0,0.1,0.1,0.1,0.1,0.3C11.6,14,11.7,14,11.8,14z M11.1,19c0.1-0.1,0.3-0.2,0.3-0.4c-0.5,0-0.7-0.5-1-0.8c-0.5,0.1-0.6-0.5-1-0.5
				c0.4,0.7,0.8,1.4,1.3,1.9C10.8,19.3,11,19.1,11.1,19z M11.8,10c-0.4-0.3-0.7-0.7-1-1c-1.1,1.2-2,2.7-2.1,5c0.4,0,0.8,0,1.2,0
				c-0.1-0.3,0.2-0.4,0.3-0.6c0.1-0.3,0.1-0.7,0.2-1C10.7,11.4,11.2,10.7,11.8,10z M10.5,8.8c-0.3-0.4-0.7-0.8-1.1-1.1
				C8,9.3,6.9,11.1,6.8,14c0.1,0,0.3,0,0.4,0c0-0.3,0.3-0.4,0.5-0.5C8,13.7,7.9,14,8.2,14c0-0.1-0.1-0.2,0-0.3
				c0.1-0.2,0.2,0.2,0.2,0C8.5,11.6,9.4,10,10.5,8.8z M9.4,20.6c0.4-0.3,0.7-0.7,1.1-1.1c-0.8-1-1.6-2-1.9-3.5
				c-0.2-0.1-0.1-0.5-0.2-0.7c-0.1,0.1,0,0.3-0.1,0.3c-0.2-0.2-0.2-0.5-0.4-0.6c0,0.1,0.1,0.3-0.1,0.4c-0.1-0.2-0.2-0.5-0.3-0.7
				c-0.2,0.2-0.2,0.5-0.3,0.9c-0.1-0.3-0.2-0.9-0.1-1.2c-0.1,0-0.2,0-0.4,0C6.9,17.2,8,19.1,9.4,20.6z M9.9,14.4c-0.2,0-0.4,0-0.5,0
				c-0.1,0,0.1,0,0.1,0C9.5,14.4,9.8,14.5,9.9,14.4z"/>
			<path class="st1" d="M26.7,23.1c-0.6,1.1-1.8,2-3.4,2.1c-1.5,0.1-2.7-0.5-4-0.7c0.2-0.1,0.5-0.2,0.7-0.2c1.6-0.6,2.5-2.2,3.9-3
				c-0.7,1.1-1.1,2.8-2.7,3.1c0.5,0,1-0.1,1.5-0.1C24.3,24.1,25.9,24,26.7,23.1z"/>
			<path class="st1" d="M24.4,25.3c0,0.2-0.3,0.4-0.4,0.5c-0.6,0.5-1.6,0.9-2.8,0.8c-0.9-0.1-1.6-0.5-2.2-1c-0.6-0.4-1.2-1-2.2-0.9
				c1.2,0.6,2.2,1.3,3.1,2.1c-0.1,0.3-0.4,0.4-0.5,0.6c-0.7-0.7-1.3-1.4-2.2-2c-0.2-0.2-0.7-0.5-0.9-0.5c-0.3,0-0.7,0.3-1,0.5
				c-0.9,0.6-1.5,1.3-2.2,2c-0.2-0.2-0.5-0.3-0.6-0.6c0.9-0.8,1.9-1.6,3.1-2.1c-1.1-0.2-1.7,0.6-2.5,1.1c-0.5,0.3-1.1,0.7-1.9,0.7
				c-1.5,0.1-2.6-0.5-3.3-1.3c0,0,0,0,0,0c0.7,0.3,1.4,0.5,2.1,0.5c0.9-0.1,1.6-0.5,2.4-0.8c0.9-0.4,2-0.7,3.2-0.5
				c0.2,0,0.3,0.1,0.5,0.1c0.3,0,0.8-0.2,1.2-0.2c1-0.1,1.9,0.3,2.7,0.6c0.9,0.4,1.7,0.9,3,0.8C23.5,25.8,23.9,25.6,24.4,25.3z"/>
			<path class="st1" d="M21.5,14.7c0,0,0,0.1,0,0.2c0-0.1-0.2,0-0.1-0.2C21.4,14.7,21.4,14.7,21.5,14.7z"/>
			<path class="st1" d="M19.8,11.7c0.1,0,0.1,0,0.2,0C20,11.9,19.8,11.8,19.8,11.7z"/>
			<path class="st1" d="M15.9,15.7c0.1,0,0.1,0.1,0.1,0.2C15.8,15.9,15.9,15.8,15.9,15.7z"/>
			<path class="st1" d="M15.8,17.1c0,0.2-0.2,0.2-0.3,0.2C15.4,17.1,15.7,17,15.8,17.1z"/>
			<path class="st1" d="M12.6,24.4c0.1,0,0.3,0,0.3,0.1c-1.3,0.2-2.5,0.8-4,0.7c-1.7-0.1-2.7-1-3.4-2.1c0.6,0.4,1.3,0.9,2.3,1
				c1,0.1,2.1,0.1,3.1,0.3c-0.5-0.2-0.9-0.4-1.3-0.7C9.1,23,8.9,22,8.3,21.3c1.4,0.7,2.2,2.4,3.9,3C12.3,24.4,12.5,24.4,12.6,24.4z"
				/>
			<path class="st1" d="M8,21.2c0.3,1.1,0.8,2.1,1.5,2.7c-0.8-0.3-1.5-0.2-2.2-0.4c-0.7-0.1-1.2-0.4-1.7-0.8c-0.9-0.7-1.8-1.6-2.1-3
				c0.5,0.9,1.3,1.5,2.2,1.9c0.9,0.4,1.8,1,2.6,1.6c-0.5-0.5-1-1.1-1.2-2c-0.2-0.9-0.2-1.9-0.6-2.7C7.1,19.2,7.6,20.1,8,21.2z"/>
			<path class="st1" d="M8.9,5.4C8.5,6,7.9,6.6,7.4,7.3C7,8,6.3,8.5,5.7,9c0,0.1-0.1,0.1-0.1,0C6,8.1,6.1,7.2,6.7,6.6
				C7.3,6,8.1,5.8,8.9,5.4z"/>
			<path class="st1" d="M7.6,16.3c0.1,0.2,0.3,0.5,0.3,0.7C7.7,16.9,7.6,16.6,7.6,16.3z"/>
			<path class="st1" d="M7.6,7.6c0,2.3-2.3,2.5-3.1,4.2c0-0.9-0.1-1.8-0.1-2.5c0.1-1.4,0.8-2.1,1.9-2.5c0,0,0,0,0,0
				c-1,0.7-0.9,2.5-1.4,3.7C5.4,9.2,7,8.9,7.6,7.6z"/>
			<path class="st1" d="M5.5,15.7c0.9,1.6,0.3,4.6,1.3,6.1c-1.9-1.3-4.2-2.2-4.3-5.2c0-0.1,0-0.2,0-0.3c0.1,0,0-0.2,0-0.3
				C2.7,17,3.3,17.7,4,18.3c0.3,0.3,0.6,0.6,0.9,1c0.3,0.4,0.5,0.7,0.8,1.1c-0.2-0.5-0.5-0.9-0.5-1.5C5.1,17.8,5.7,16.8,5.5,15.7z"
				/>
			<path class="st1" d="M5.6,12.7c0.3,2.4-1.1,3.6-0.9,5.9c-0.4-0.7-1-1.3-1.5-2c-0.5-0.7-0.7-1.6-0.7-2.7c0-0.7,0.1-1.3,0.3-1.8
				c0,2.1,1.2,3.1,1.4,5c0,0,0,0,0,0c0,0,0,0,0,0c0,0,0,0,0,0c0,0,0,0,0,0c0-0.3-0.1-0.8,0-1.1C4.4,14.7,5.3,13.9,5.6,12.7z"/>
			<path class="st1" d="M6.5,10.1c-0.1,2.2-2,3-2.4,5.1c-0.1-1.3-0.9-2.2-1-3.6c0-1.2,0.5-2.2,1.2-3c-0.6,1.2,0,3.1-0.1,4.8
				C4.4,11.7,5.8,11.2,6.5,10.1z"/>
		</g>
	</g>
	<g>
		<rect x="0" y="33.4" class="st0" width="15.5" height="15.5"/>
		<path class="st2" d="M15.6,48.9H0V33.3h15.6V48.9z M0.1,48.8h15.4V33.4H0.1V48.8z"/>
	</g>
	<g>
		<rect x="16.7" y="33.4" class="st0" width="15.5" height="15.5"/>
		<path class="st2" d="M32.2,48.9H16.7V33.3h15.6V48.9z M16.8,48.8h15.4V33.4H16.8V48.8z"/>
	</g>
	<g>
		<rect x="0" y="50.2" class="st0" width="15.5" height="15.5"/>
		<path class="st2" d="M15.6,65.7H0V50.1h15.6V65.7z M0.1,65.6h15.4V50.2H0.1V65.6z"/>
	</g>
	<g>
		<rect x="16.7" y="50.2" class="st0" width="15.5" height="15.5"/>
		<path class="st2" d="M32.2,65.7H16.7V50.1h15.6V65.7z M16.8,65.6h15.4V50.2H16.8V65.6z"/>
	</g>
	<g>
		<path class="st1" d="M5.3,36v5.9c0,2.2,1,3.2,2.3,3.2c1.5,0,2.4-1,2.4-3.2V36h1.3v5.9c0,3.1-1.6,4.3-3.8,4.3c-2,0-3.6-1.2-3.6-4.3
			V36H5.3z"/>
	</g>
	<g>
		<path class="st1" d="M20.8,46.1v-10h1.4l3.2,5.1c0.7,1.2,1.3,2.2,1.8,3.3l0,0c-0.1-1.3-0.1-2.6-0.1-4.1v-4.2h1.2v10H27L23.8,41
			c-0.7-1.1-1.4-2.3-1.9-3.3l0,0C22,39,22,40.2,22,41.8v4.3H20.8z"/>
	</g>
	<g>
		<path class="st1" d="M3.6,53c0.8-0.1,1.7-0.2,2.7-0.2c1.9,0,3.2,0.4,4.1,1.2c0.9,0.8,1.4,2,1.4,3.6c0,1.6-0.5,3-1.4,3.9
			c-1,0.9-2.5,1.4-4.4,1.4c-0.9,0-1.7,0-2.3-0.1V53z M4.9,61.9c0.3,0,0.8,0.1,1.3,0.1c2.8,0,4.3-1.5,4.3-4.2c0-2.4-1.3-3.9-4.1-3.9
			c-0.7,0-1.2,0.1-1.5,0.1V61.9z"/>
	</g>
	<g>
		<path class="st1" d="M21.4,53c0.6-0.1,1.4-0.2,2.5-0.2c1.3,0,2.2,0.3,2.8,0.8c0.5,0.5,0.9,1.2,0.9,2.1c0,0.9-0.3,1.6-0.8,2.1
			C26.1,58.6,25,59,23.8,59c-0.4,0-0.7,0-1-0.1v4h-1.3V53z M22.7,57.9c0.3,0.1,0.6,0.1,1.1,0.1c1.6,0,2.5-0.8,2.5-2.1
			c0-1.3-0.9-2-2.4-2c-0.6,0-1,0-1.2,0.1V57.9z"/>
	</g>
	<text transform="matrix(1 0 0 1 4.814228e-02 71.0771)"><tspan x="0" y="0" class="st3 st4 st5">Empowered Lives</tspan><tspan x="0" y="7.4" class="st3 st4 st5">Resilient Nations</tspan></text>
</g>
</svg>
