<?xml version="1.0" encoding="utf-8"?>
<!-- Generator: Adobe Illustrator 19.2.0, SVG Export Plug-In . SVG Version: 6.00 Build 0)  -->
<svg version="1.1" id="Layer_1" xmlns="http://www.w3.org/2000/svg" xmlns:xlink="http://www.w3.org/1999/xlink" x="0px" y="0px"
	 viewBox="0 0 67.5 80" style="enable-background:new 0 0 67.5 80;" xml:space="preserve">
<style type="text/css">
	.st0{fill-rule:evenodd;clip-rule:evenodd;fill:#1E8FCE;}
	.st1{fill:#1E8FCE;}
</style>
<g>
	<path class="st0" d="M3.5,33.6c-2.1-2.6-3.5-5-3.5-7.5c0-2.1,0.3-3.1,0.9-3.9c0.5,2.4,1,3.9,1.9,5.4c0.8,1.2,2.1,3.3,2.3,4.9
		c0.3-3.4,1.2-5.8,3.9-8.6c0,3.5,0,5.5-1.4,8c-0.9,1.7-1.1,3.3-1.1,5.7H6.4L3.5,33.6L3.5,33.6z M7.2,43.6c-4.9-2.2-6.7-4.8-6.7-11.1
		h0.2c1.8,3.9,5,8.1,8.2,9.1c-1-3.7-0.8-5.9,0.2-9.1c1.7,2.4,1.9,4.5,1.9,7.3c0,2.1,0,4.4,1.5,5.8l-0.2,0.2L7.2,43.6L7.2,43.6z
		 M5.5,10.8L5.7,11C4.6,14.9,4.1,18,4.9,22.1c1.3-3.1,4.1-5,6.3-6.2c-0.5,2.9-1.3,4.4-3.7,6.8c-1.4,1.4-2.6,2.7-3.1,4.8H4.1
		c-1.3-4.6-2-6.6-2-9.3C2.1,15.5,3.5,12.7,5.5,10.8L5.5,10.8z M3.3,43.2L3.5,43c2.2,2.1,4.2,3.4,7.5,3.7c1.5,0.2,3.9,1.2,5.3,1.9
		c-2.2-1.9-3.1-5.7-3.1-8.8c1.6,1.4,3.7,3.7,4.1,5.8c0.2,1.1,1.6,3.3,3.3,4.2c-2.2,0.6-3.7,0.7-6.1,0.7C9.5,50.5,4.8,48.1,3.3,43.2
		L3.3,43.2z M6.6,14.7c0.5-2.8,1-4.6,1.8-6c1.2-2.1,2.8-4.3,5-5.2l0.2,0.2c-1.9,2.8-3.2,5.3-3.9,8.4c1.8-1.3,5.1-2,6.9-2.3
		c-0.9,1.5-2.7,2.9-5.5,4.2c-1.7,0.8-2.8,1.6-4.8,3.5l-0.1-0.2L6.6,14.7L6.6,14.7z M23.7,57.3c2.4-2.3,4.8-3.9,7.7-5.1
		c-5.4,0.3-8.1,2.6-13.1,2.6c-2.5,0-5.7-0.7-7.5-2.4l0.2-0.2c1,0.3,1.8,0.3,2.6,0.3c2.7,0,7.7-2.1,11.7-2.1c3.3,0,5.3,0.3,8,1.4
		c2.7-1,4.8-1.4,8-1.4c3.9,0,9,2.1,11.7,2.1c1,0,1.7,0,2.6-0.3l0.2,0.2c-1.8,1.7-5,2.4-7.5,2.4c-4.8,0-7.6-2.4-13.1-2.6
		c2.8,1.2,5.3,2.8,7.7,5.1h-2c-2.2-2.7-5.9-4.6-7.5-4.6c-1.5,0-5.4,1.9-8,4.6H23.7L23.7,57.3z M13.8,7c1.7-3.3,4.7-6.6,9.2-7
		c-1.9,2.6-3.7,4.4-6,6.1c1.5-0.4,2.8-0.8,3.9-0.8c0.9,0,1.9,0.2,2.8,0.6C21.7,7.3,19,8,17.6,8c-1.4,0-3.5,0.6-5,1L13.8,7L13.8,7z
		 M29.2,26.1c1.7,0.2,3.5,2.3,3.5,7.1c0,8.1-2.4,13.5-3.5,13.5c-1.9,0-13.8-4.7-13.8-18c0-3.5,0.7-4.1,1.8-3.9L29.2,26.1L29.2,26.1z
		 M17.4,23.6c-0.7,0.1-0.9-0.4-0.9-0.7c0-0.8,4.8-12,17.1-12c12.3,0,17.1,11.2,17.1,12c0,0.3-0.2,0.8-0.9,0.7l-15.5-2.4V21
		c1.1-0.4,1.7-1.3,1.7-2.6c0-1.4-0.8-2.5-2.4-2.5s-2.4,1.1-2.4,2.5c0,1.2,0.6,2.1,1.7,2.6v0.2L17.4,23.6L17.4,23.6z M21.5,4h-0.7
		V3.8l1.9-1.3C25,0.6,26.6,0,28.5,0c1,0,1.7,0.2,2.5,0.6v0.2c-2.2,0.3-4.3,0.9-6.4,2c2.6,0.4,3.6,0.7,5.9,2.1
		c-0.6,0.1-1.2,0.3-1.9,0.3C25.9,5.3,24.6,4.1,21.5,4L21.5,4z M38.8,2.8c-1.5,0-3.3,0.2-4.8,0.6v0.2c1.4,0.3,2.5,1.5,3.3,2.7
		c-2.6-0.5-5.2-1.7-6.8-3.7c1.4-0.5,3.2-1.2,4.9-1.2C36.4,1.4,37.9,1.6,38.8,2.8L38.8,2.8z M49.9,24.8c1.1-0.2,1.8,0.4,1.8,3.9
		c0,13.3-11.8,18-13.8,18c-1.1,0-3.5-5.4-3.5-13.5c0-4.8,1.7-6.9,3.5-7.1L49.9,24.8L49.9,24.8z M39.9,6.6c-0.7-0.3-1.1-1.3-1.5-2.4
		c2.4,0.4,3.9,1.5,4.6,3.5L39.9,6.6L39.9,6.6z M47.1,50.5h-0.8v-0.1c1.7-1,2.1-2.1,2.6-3c1.4-2.6,3-5.2,5.3-6.4
		c-0.5,2.1-1.2,6-3.9,8l0.2,0.2c5-1.1,8.9-2.8,13.1-6.3l0.2,0.2c-2.1,5.7-7.5,8-11,8C51.7,51,50,50.5,47.1,50.5L47.1,50.5z
		 M47.6,1.4c2.6,0,5.1,1.1,6.1,3.6c-2.1-0.4-4-1.3-5.3-2.8L47.6,1.4L47.6,1.4z M56.2,6.8l0.2-0.2c-0.8-1-2.1-3-2.1-3.5
		c3.3,1,4.3,3.3,4.5,6.4c-3.9-0.8-6.3-1.9-7.5-4.3L56.2,6.8L56.2,6.8z M58.7,32.7c0.2,1.2,0.7,3.4,0.7,4.8c0,1.8-0.5,3.7-1.4,5.2
		l0.1,0.1c3.7-2.6,5.9-5.7,8.3-9.3l0.2,0.1c-0.7,5.5-3,10-11.7,12.4c0.9-1.8,0.9-3.7,0.9-5.1C55.9,37.9,56.6,35.5,58.7,32.7
		L58.7,32.7z M62.9,18c-3.5-1.8-5.9-4.4-7.7-8l0.2-0.2c1,0.5,4.9,2.4,5.4,3.3l0.2-0.2c-0.7-1-0.9-4.4-0.9-5.2
		c2.3,2.1,3.2,4.9,3.2,7.9C63.3,16.4,63.2,17.1,62.9,18L62.9,18z M63.3,26.9c-0.4-1.7-0.9-2.6-2.1-3.7c-0.9-1.2-2-3.8-2.5-6.6
		l0.2-0.2c0.3,0.7,1,1.4,2.6,2.8c0.7,0.7,1.6,2.1,1.7,3.2h0.2l1.2-7.9h0.2c0.6,1.5,1.1,3.3,1.1,4.7C66,21.3,64.5,25.2,63.3,26.9
		L63.3,26.9z M59.9,24.1c1.3,2,2.6,4.6,2.6,7.5h0.2c0.2-1.4,0.6-2.6,1.7-3.5c0.7-0.7,2.3-3.5,2.8-4.4h0.2c0.8,4.6-1.8,9.2-5.8,13.6
		c0.1-3.3-2.3-8.6-2.3-10.5C59.2,25.8,59.5,24.6,59.9,24.1L59.9,24.1z"/>
	<g>
		<path class="st1" d="M12.7,62.9v-0.5h6.1v0.5h-0.6c-0.7,0-1.2,0.3-1.5,0.8c-0.2,0.3-0.3,0.9-0.3,1.8v7c0,1.7-0.2,3.1-0.5,4
			c-0.3,0.9-1,1.8-2,2.4c-1,0.7-2.4,1-4.1,1c-1.9,0-3.3-0.3-4.3-1c-1-0.6-1.7-1.5-2.1-2.6c-0.3-0.8-0.4-2.2-0.4-4.2v-6.7
			c0-1.1-0.1-1.7-0.4-2.1c-0.3-0.3-0.8-0.5-1.4-0.5H0.4v-0.5h7.4v0.5H7.2c-0.7,0-1.2,0.2-1.5,0.7c-0.2,0.3-0.3,0.9-0.3,1.9v7.5
			c0,0.7,0.1,1.4,0.2,2.3c0.1,0.9,0.3,1.5,0.7,2c0.3,0.5,0.8,0.9,1.4,1.2c0.6,0.3,1.3,0.5,2.2,0.5c1.1,0,2.1-0.2,3-0.7
			c0.9-0.5,1.5-1.1,1.8-1.9c0.3-0.8,0.5-2.1,0.5-3.9v-6.9c0-1.1-0.1-1.7-0.4-2c-0.3-0.4-0.8-0.6-1.5-0.6H12.7z"/>
		<path class="st1" d="M18.7,62.4h4.7l10.5,12.9v-9.9c0-1.1-0.1-1.7-0.4-2c-0.3-0.4-0.8-0.5-1.5-0.5h-0.6v-0.5h6v0.5h-0.6
			c-0.7,0-1.2,0.2-1.5,0.7c-0.2,0.3-0.3,0.9-0.3,1.8v14.5h-0.5L23.2,66v10.6c0,1.1,0.1,1.7,0.3,2c0.3,0.4,0.8,0.5,1.5,0.5h0.6v0.5
			h-6v-0.5h0.6c0.7,0,1.3-0.2,1.6-0.7c0.2-0.3,0.3-0.9,0.3-1.8V64.7c-0.5-0.6-0.9-1-1.1-1.2c-0.3-0.2-0.6-0.4-1.1-0.5
			c-0.2-0.1-0.6-0.1-1.1-0.1V62.4z"/>
		<path class="st1" d="M43.1,63.4v6.8h3.8c1,0,1.6-0.1,2-0.4c0.4-0.4,0.7-1.1,0.7-2.1h0.5v6h-0.5c-0.1-0.8-0.2-1.4-0.4-1.6
			c-0.2-0.3-0.4-0.5-0.7-0.7c-0.3-0.2-0.9-0.3-1.6-0.3h-3.8v5.7c0,0.8,0,1.2,0.1,1.4c0.1,0.2,0.2,0.3,0.4,0.4c0.2,0.1,0.5,0.1,1,0.1
			h2.9c1,0,1.7-0.1,2.1-0.2c0.4-0.1,0.9-0.4,1.3-0.8c0.5-0.5,1.1-1.3,1.6-2.4H53l-1.5,4.3H38.3v-0.5h0.6c0.4,0,0.8-0.1,1.2-0.3
			c0.3-0.1,0.5-0.3,0.6-0.6c0.1-0.3,0.1-0.8,0.1-1.7V65.4c0-1.1-0.1-1.8-0.3-2c-0.3-0.3-0.8-0.5-1.5-0.5h-0.6v-0.5h13.2l0.2,3.8
			h-0.5c-0.2-0.9-0.4-1.5-0.6-1.9c-0.2-0.3-0.5-0.6-1-0.8c-0.3-0.1-0.9-0.2-1.8-0.2H43.1z"/>
		<path class="st1" d="M58.9,71.6v5c0,1.1,0.1,1.8,0.4,2c0.3,0.4,0.8,0.6,1.4,0.6h0.7v0.5H54v-0.5h0.6c0.7,0,1.2-0.2,1.6-0.7
			c0.2-0.3,0.3-0.9,0.3-1.9V65.5c0-1.1-0.1-1.8-0.3-2c-0.3-0.4-0.8-0.6-1.5-0.6H54v-0.5h6.3c1.5,0,2.7,0.2,3.6,0.5
			c0.9,0.3,1.6,0.9,2.2,1.6c0.6,0.8,0.9,1.6,0.9,2.7c0,1.4-0.5,2.5-1.4,3.4c-0.9,0.9-2.2,1.3-3.9,1.3c-0.4,0-0.9,0-1.3-0.1
			C60,71.8,59.4,71.7,58.9,71.6z M58.9,70.8c0.4,0.1,0.8,0.1,1.2,0.2c0.3,0,0.6,0.1,0.9,0.1c0.9,0,1.6-0.3,2.3-1
			c0.6-0.7,1-1.6,1-2.6c0-0.7-0.2-1.4-0.5-2.1c-0.3-0.6-0.7-1.1-1.3-1.4c-0.6-0.3-1.2-0.5-1.9-0.5c-0.4,0-1,0.1-1.7,0.2V70.8z"/>
	</g>
</g>
</svg>
