<?xml version="1.0" encoding="utf-8"?>
<!-- Generator: Adobe Illustrator 19.2.0, SVG Export Plug-In . SVG Version: 6.00 Build 0)  -->
<svg version="1.1" id="Layer_1" xmlns="http://www.w3.org/2000/svg" xmlns:xlink="http://www.w3.org/1999/xlink" x="0px" y="0px"
	 viewBox="0 0 112.7 80" style="enable-background:new 0 0 112.7 80;" xml:space="preserve">
<style type="text/css">
	.st0{fill:#005492;}
</style>
<g>
	<polygon class="st0" points="1.3,58.3 1,58.3 1,55 0,55 0,54.7 2.3,54.7 2.3,55 1.3,55 	"/>
	<path class="st0" d="M3,58.3H2.8v-3.6H3V56c0.2-0.2,0.4-0.4,0.7-0.4c0.5,0,1,0.3,1,1v1.7H4.5v-1.7c0-0.5-0.3-0.8-0.7-0.8
		c-0.4,0-0.7,0.3-0.7,0.8V58.3z"/>
	<path class="st0" d="M5.7,56.7h1.5v-0.1c0-0.5-0.3-0.8-0.7-0.8c-0.4,0-0.7,0.3-0.7,0.8V56.7z M5.7,57.3c0,0.5,0.3,0.8,0.7,0.8
		c0.4,0,0.7-0.2,0.7-0.6h0.3c-0.1,0.6-0.6,0.9-1,0.9c-0.5,0-1-0.3-1-1v-0.7c0-0.8,0.5-1,1-1c0.5,0,1,0.3,1,1V57H5.7V57.3z"/>
	<path class="st0" d="M9.3,54.7h0.3v2.4c0,0.6,0.4,0.9,0.8,0.9c0.5,0,0.8-0.3,0.8-0.9v-2.4h0.3v2.4c0,0.7-0.5,1.2-1.1,1.2
		c-0.6,0-1.1-0.5-1.1-1.2V54.7z"/>
	<path class="st0" d="M12.7,58.3h-0.3v-2.6h0.3V56c0.2-0.2,0.4-0.4,0.7-0.4c0.5,0,1,0.3,1,1v1.7h-0.3v-1.7c0-0.5-0.3-0.8-0.7-0.8
		c-0.4,0-0.7,0.3-0.7,0.8V58.3z"/>
	<path class="st0" d="M15.2,58.3h0.3v-2.6h-0.3V58.3z M15.2,55.2h0.3v-0.4h-0.3V55.2z"/>
	<path class="st0" d="M16.6,57.8c0,0.2,0,0.3,0.3,0.3h0.4v0.3h-0.4c-0.4,0-0.5-0.2-0.5-0.5v-1.8H16v-0.3h0.4v-0.6h0.3v0.6h0.6v0.3
		h-0.6V57.8z"/>
	<path class="st0" d="M18.1,56.7h1.5v-0.1c0-0.5-0.3-0.8-0.7-0.8c-0.4,0-0.7,0.3-0.7,0.8V56.7z M18.1,57.3c0,0.5,0.3,0.8,0.7,0.8
		c0.4,0,0.7-0.2,0.7-0.6h0.3c-0.1,0.6-0.6,0.9-1,0.9c-0.5,0-1-0.3-1-1v-0.7c0-0.8,0.5-1,1-1s1,0.3,1,1V57h-1.7V57.3z"/>
	<path class="st0" d="M22.3,56.6c0-0.5-0.3-0.8-0.7-0.8c-0.4,0-0.7,0.3-0.7,0.8v0.7c0,0.5,0.3,0.8,0.7,0.8c0.4,0,0.7-0.3,0.7-0.8
		V56.6z M22.5,58.3h-0.3V58c-0.2,0.2-0.4,0.4-0.7,0.4c-0.5,0-1-0.3-1-1v-0.7c0-0.8,0.5-1,1-1c0.3,0,0.6,0.1,0.7,0.4v-1.2h0.3V58.3z"
		/>
	<polygon class="st0" points="26.8,58.3 26.5,58.3 24.8,55.3 24.8,58.3 24.5,58.3 24.5,54.7 24.8,54.7 26.5,57.7 26.5,54.7 
		26.8,54.7 	"/>
	<path class="st0" d="M29.2,56.9c-0.6,0-0.9,0.1-1.1,0.2c-0.2,0.1-0.3,0.3-0.3,0.5c0,0.3,0.2,0.5,0.7,0.5c0.5,0,0.8-0.3,0.8-0.8
		V56.9z M29.2,56.6c0-0.5-0.3-0.8-0.7-0.8c-0.4,0-0.7,0.2-0.7,0.6h-0.3c0.1-0.6,0.6-0.9,1-0.9c0.5,0,1,0.3,1,1v1.7h-0.3V58
		c-0.2,0.2-0.5,0.4-0.9,0.4c-0.6,0-0.9-0.4-0.9-0.8c0-0.3,0.2-0.6,0.6-0.8C28.4,56.7,28.8,56.7,29.2,56.6L29.2,56.6z"/>
	<path class="st0" d="M30.7,57.8c0,0.2,0,0.3,0.3,0.3h0.4v0.3H31c-0.4,0-0.5-0.2-0.5-0.5v-1.8H30v-0.3h0.4v-0.6h0.3v0.6h0.6v0.3
		h-0.6V57.8z"/>
	<path class="st0" d="M32,58.3h0.3v-2.6H32V58.3z M32,55.2h0.3v-0.4H32V55.2z"/>
	<path class="st0" d="M34.7,56.6c0-0.5-0.3-0.8-0.7-0.8c-0.4,0-0.7,0.3-0.7,0.8v0.7c0,0.5,0.3,0.8,0.7,0.8c0.4,0,0.7-0.3,0.7-0.8
		V56.6z M35,57.3c0,0.8-0.5,1-1,1c-0.5,0-1-0.3-1-1v-0.7c0-0.8,0.5-1,1-1c0.5,0,1,0.3,1,1V57.3z"/>
	<path class="st0" d="M36,58.3h-0.3v-2.6H36V56c0.2-0.2,0.4-0.4,0.7-0.4c0.5,0,1,0.3,1,1v1.7h-0.3v-1.7c0-0.5-0.3-0.8-0.7-0.8
		c-0.4,0-0.7,0.3-0.7,0.8V58.3z"/>
	<path class="st0" d="M40,56.4c0-0.4-0.3-0.6-0.7-0.6c-0.3,0-0.6,0.1-0.6,0.5c0,0.2,0.1,0.4,0.5,0.4l0.5,0.1
		c0.5,0.1,0.7,0.3,0.7,0.8c0,0.5-0.4,0.7-0.9,0.7c-0.5,0-1-0.2-1.1-0.9h0.3c0.1,0.4,0.4,0.6,0.8,0.6c0.4,0,0.7-0.1,0.7-0.4
		c0-0.2-0.1-0.4-0.4-0.5L39,57c-0.4-0.1-0.6-0.3-0.6-0.7c0-0.5,0.4-0.7,0.9-0.7c0.5,0,0.9,0.3,1,0.8H40z"/>
	<path class="st0" d="M42.3,57.1c0,0.6,0.4,0.9,0.8,0.9c0.5,0,0.8-0.3,0.8-0.9v-1.2c0-0.6-0.4-0.9-0.8-0.9c-0.5,0-0.8,0.3-0.8,0.9
		V57.1z M44.3,57.1c0,0.7-0.5,1.2-1.1,1.2c-0.6,0-1.1-0.5-1.1-1.2v-1.2c0-0.7,0.5-1.2,1.1-1.2c0.6,0,1.1,0.5,1.1,1.2V57.1z"/>
	<path class="st0" d="M48.4,58.3h-0.3v-2.6h0.3V58.3z M48.4,55.2h-0.3v-0.4h0.3V55.2z M46.3,55.7h0.4v-0.4c0-0.3,0.1-0.5,0.5-0.5
		h0.4V55h-0.4C47,55,47,55.1,47,55.3v0.4h0.6v0.3H47v2.4h-0.3v-2.4h-0.4V55.7z M44.8,55.7h0.4v-0.4c0-0.3,0.1-0.5,0.5-0.5h0.4V55
		h-0.4c-0.2,0-0.3,0.1-0.3,0.3v0.4h0.6v0.3h-0.6v2.4h-0.3v-2.4h-0.4V55.7z"/>
	<path class="st0" d="M49.1,57.3v-0.7c0-0.8,0.5-1,1-1c0.4,0,0.9,0.2,1,0.9h-0.3c-0.1-0.4-0.3-0.6-0.7-0.6c-0.4,0-0.7,0.3-0.7,0.8
		v0.7c0,0.5,0.3,0.8,0.7,0.8c0.4,0,0.7-0.2,0.7-0.6h0.3c-0.1,0.6-0.6,0.9-1,0.9C49.7,58.3,49.1,58.1,49.1,57.3"/>
	<path class="st0" d="M52,56.7h1.5v-0.1c0-0.5-0.3-0.8-0.7-0.8c-0.4,0-0.7,0.3-0.7,0.8V56.7z M52,57.3c0,0.5,0.3,0.8,0.7,0.8
		c0.4,0,0.7-0.2,0.7-0.6h0.3c-0.1,0.6-0.6,0.9-1,0.9c-0.5,0-1-0.3-1-1v-0.7c0-0.8,0.5-1,1-1c0.5,0,1,0.3,1,1V57H52V57.3z"/>
	<path class="st0" d="M55.4,55.7h0.4v-0.4c0-0.3,0.1-0.5,0.5-0.5h0.4V55h-0.4c-0.2,0-0.3,0.1-0.3,0.3v0.4h0.6v0.3h-0.6v2.4h-0.3
		v-2.4h-0.4V55.7z"/>
	<path class="st0" d="M58.9,56.6c0-0.5-0.3-0.8-0.7-0.8c-0.4,0-0.7,0.3-0.7,0.8v0.7c0,0.5,0.3,0.8,0.7,0.8c0.4,0,0.7-0.3,0.7-0.8
		V56.6z M59.2,57.3c0,0.8-0.5,1-1,1c-0.5,0-1-0.3-1-1v-0.7c0-0.8,0.5-1,1-1c0.5,0,1,0.3,1,1V57.3z"/>
	<path class="st0" d="M60.9,55.9c-0.4,0-0.7,0.3-0.7,0.8v1.6h-0.3v-2.6h0.3V56c0.2-0.2,0.4-0.4,0.7-0.4H61L60.9,55.9L60.9,55.9z"/>
	<path class="st0" d="M63,58h0.8c0.5,0,0.8-0.3,0.8-0.9v-1.1c0-0.6-0.4-0.9-0.8-0.9H63V58z M64.9,57.1c0,0.7-0.5,1.2-1.1,1.2h-1.1
		v-3.6h1.1c0.6,0,1.1,0.5,1.1,1.2V57.1z"/>
	<path class="st0" d="M65.7,58.3h0.3v-2.6h-0.3V58.3z M65.7,55.2h0.3v-0.4h-0.3V55.2z"/>
	<path class="st0" d="M68.2,56.4c0-0.4-0.3-0.6-0.7-0.6c-0.3,0-0.6,0.1-0.6,0.5c0,0.2,0.1,0.4,0.5,0.4l0.5,0.1
		c0.5,0.1,0.7,0.3,0.7,0.8c0,0.5-0.4,0.7-0.9,0.7c-0.5,0-1-0.2-1.1-0.9h0.3c0.1,0.4,0.4,0.6,0.8,0.6c0.4,0,0.7-0.1,0.7-0.4
		c0-0.2-0.1-0.4-0.4-0.5L67.2,57c-0.4-0.1-0.6-0.3-0.6-0.7c0-0.5,0.4-0.7,0.9-0.7c0.5,0,0.9,0.3,1,0.8H68.2z"/>
	<path class="st0" d="M70.8,56.9c-0.6,0-0.9,0.1-1.1,0.2c-0.2,0.1-0.3,0.3-0.3,0.5c0,0.3,0.2,0.5,0.7,0.5c0.5,0,0.8-0.3,0.8-0.8
		V56.9z M70.8,56.6c0-0.5-0.3-0.8-0.7-0.8c-0.4,0-0.7,0.2-0.7,0.6h-0.3c0.1-0.6,0.6-0.9,1-0.9c0.5,0,1,0.3,1,1v1.7h-0.3V58
		c-0.2,0.2-0.5,0.4-0.9,0.4c-0.6,0-0.9-0.4-0.9-0.8c0-0.3,0.2-0.6,0.6-0.8C70,56.7,70.4,56.7,70.8,56.6L70.8,56.6z"/>
	<path class="st0" d="M74.7,57.8c0,0.2,0,0.3,0.3,0.3h0.4v0.3H75c-0.4,0-0.5-0.2-0.5-0.5v-1.8h-0.4v-0.3h0.4v-0.6h0.3v0.6h0.6v0.3
		h-0.6V57.8z M73.3,56.4c0-0.4-0.3-0.6-0.7-0.6c-0.3,0-0.6,0.1-0.6,0.5c0,0.2,0.1,0.4,0.5,0.4l0.5,0.1c0.5,0.1,0.7,0.3,0.7,0.8
		c0,0.5-0.4,0.7-0.9,0.7c-0.5,0-1-0.2-1.1-0.9H72c0.1,0.4,0.4,0.6,0.8,0.6c0.4,0,0.7-0.1,0.7-0.4c0-0.2-0.1-0.4-0.4-0.5L72.4,57
		c-0.4-0.1-0.6-0.3-0.6-0.7c0-0.5,0.4-0.7,0.9-0.7c0.5,0,0.9,0.3,1,0.8H73.3z"/>
	<path class="st0" d="M76.2,56.7h1.5v-0.1c0-0.5-0.3-0.8-0.7-0.8c-0.4,0-0.7,0.3-0.7,0.8V56.7z M76.2,57.3c0,0.5,0.3,0.8,0.7,0.8
		c0.4,0,0.7-0.2,0.7-0.6h0.3c-0.1,0.6-0.6,0.9-1,0.9c-0.5,0-1-0.3-1-1v-0.7c0-0.8,0.5-1,1-1c0.5,0,1,0.3,1,1V57h-1.7V57.3z"/>
	<path class="st0" d="M79.7,55.9c-0.4,0-0.7,0.3-0.7,0.8v1.6h-0.3v-2.6h0.3V56c0.2-0.2,0.4-0.4,0.7-0.4h0.1L79.7,55.9L79.7,55.9z"/>
	<path class="st0" d="M82.7,56.4c0.4,0,0.7-0.2,0.7-0.7c0-0.4-0.3-0.7-0.7-0.7h-0.9v1.3H82.7z M81.7,56.6v1.7h-0.3v-3.6h1.2
		c0.6,0,1,0.4,1,1c0,0.5-0.3,0.9-0.9,0.9l1,1.7h-0.3l-1-1.7H81.7z"/>
	<path class="st0" d="M84.3,58.3h0.3v-2.6h-0.3V58.3z M84.3,55.2h0.3v-0.4h-0.3V55.2z"/>
	<path class="st0" d="M86.9,56.4c0-0.4-0.3-0.6-0.7-0.6c-0.3,0-0.6,0.1-0.6,0.5c0,0.2,0.1,0.4,0.5,0.4l0.5,0.1
		c0.5,0.1,0.7,0.3,0.7,0.8c0,0.5-0.4,0.7-0.9,0.7c-0.5,0-1-0.2-1.1-0.9h0.3c0.1,0.4,0.4,0.6,0.8,0.6c0.4,0,0.7-0.1,0.7-0.4
		c0-0.2-0.1-0.4-0.4-0.5L85.9,57c-0.4-0.1-0.6-0.3-0.6-0.7c0-0.5,0.4-0.7,0.9-0.7c0.5,0,0.9,0.3,1,0.8H86.9z"/>
	<polygon class="st0" points="88.2,57 89.4,55.7 89.8,55.7 88.8,56.7 89.9,58.3 89.6,58.3 88.6,56.9 88.2,57.4 88.2,58.3 87.9,58.3 
		87.9,54.7 88.2,54.7 	"/>
	<path class="st0" d="M92.8,56.4c0.4,0,0.7-0.2,0.7-0.7c0-0.4-0.3-0.7-0.7-0.7h-0.9v1.3H92.8z M91.8,56.6v1.7h-0.3v-3.6h1.2
		c0.6,0,1,0.4,1,1c0,0.5-0.3,0.9-0.9,0.9l1,1.7h-0.3l-1-1.7H91.8z"/>
	<path class="st0" d="M94.6,56.7h1.5v-0.1c0-0.5-0.3-0.8-0.7-0.8c-0.4,0-0.7,0.3-0.7,0.8V56.7z M94.6,57.3c0,0.5,0.3,0.8,0.7,0.8
		c0.4,0,0.7-0.2,0.7-0.6h0.3c-0.1,0.6-0.6,0.9-1,0.9c-0.5,0-1-0.3-1-1v-0.7c0-0.8,0.5-1,1-1c0.5,0,1,0.3,1,1V57h-1.7V57.3z"/>
	<path class="st0" d="M98.8,56.6c0-0.5-0.3-0.8-0.7-0.8c-0.4,0-0.7,0.3-0.7,0.8v0.7c0,0.5,0.3,0.8,0.7,0.8c0.4,0,0.7-0.3,0.7-0.8
		V56.6z M99,58.3h-0.3V58c-0.2,0.2-0.4,0.4-0.7,0.4c-0.5,0-1-0.3-1-1v-0.7c0-0.8,0.5-1,1-1c0.3,0,0.6,0.1,0.7,0.4v-1.2H99V58.3z"/>
	<path class="st0" d="M101.5,55.7h0.3v2.6h-0.3V58c-0.2,0.2-0.5,0.4-0.7,0.4c-0.5,0-1-0.3-1-1v-1.6h0.3v1.6c0,0.5,0.3,0.8,0.7,0.8
		c0.4,0,0.7-0.3,0.7-0.8V55.7z"/>
	<path class="st0" d="M105.6,57.8c0,0.2,0,0.3,0.3,0.3h0.4v0.3h-0.4c-0.4,0-0.5-0.2-0.5-0.5v-1.8H105v-0.3h0.4v-0.6h0.3v0.6h0.6v0.3
		h-0.6V57.8z M102.5,57.3v-0.7c0-0.8,0.5-1,1-1c0.4,0,0.9,0.2,1,0.9h-0.3c-0.1-0.4-0.3-0.6-0.7-0.6c-0.4,0-0.7,0.3-0.7,0.8v0.7
		c0,0.5,0.3,0.8,0.7,0.8c0.4,0,0.7-0.2,0.7-0.6h0.3c-0.1,0.6-0.6,0.9-1,0.9C103.1,58.3,102.5,58.1,102.5,57.3"/>
	<path class="st0" d="M106.9,58.3h0.3v-2.6h-0.3V58.3z M106.9,55.2h0.3v-0.4h-0.3V55.2z"/>
	<path class="st0" d="M109.6,56.6c0-0.5-0.3-0.8-0.7-0.8c-0.4,0-0.7,0.3-0.7,0.8v0.7c0,0.5,0.3,0.8,0.7,0.8c0.4,0,0.7-0.3,0.7-0.8
		V56.6z M109.9,57.3c0,0.8-0.5,1-1,1c-0.5,0-1-0.3-1-1v-0.7c0-0.8,0.5-1,1-1c0.5,0,1,0.3,1,1V57.3z"/>
	<path class="st0" d="M110.9,58.3h-0.3v-2.6h0.3V56c0.2-0.2,0.4-0.4,0.7-0.4c0.5,0,1,0.3,1,1v1.7h-0.3v-1.7c0-0.5-0.3-0.8-0.7-0.8
		s-0.7,0.3-0.7,0.8V58.3z"/>
	<path class="st0" d="M24.8,29.6c0,0,0,0.1,0.1,0.2c0,0,0.1,0,0.1,0.1c0,0,0,0,0,0.1c0,0-0.1,0-0.1-0.1c0,0,0,0-0.1-0.1
		c-0.1-0.1-0.1-0.1-0.1-0.2c0,0,0-0.1,0-0.1c0,0,0.1,0,0.1,0C24.7,29.5,24.8,29.5,24.8,29.6"/>
	<path class="st0" d="M25,29.8C25,29.8,25,29.8,25,29.8C25,29.8,25,29.8,25,29.8C25,29.8,25,29.8,25,29.8"/>
	<path class="st0" d="M25.1,29.9C25.2,29.9,25.2,29.9,25.1,29.9C25.1,29.9,25.1,30,25.1,29.9C25,29.9,25,29.9,25,29.9
		C25,29.9,25.1,29.9,25.1,29.9C25.1,29.8,25.1,29.8,25.1,29.9"/>
	<path class="st0" d="M25.2,30.1C25.2,30.2,25.2,30.2,25.2,30.1C25.2,30.2,25.2,30.2,25.2,30.1c0.1,0.1,0.1,0.1,0.1,0.1
		c0,0,0,0.1,0,0.1c0,0,0,0-0.1,0C25.2,30.3,25.2,30.2,25.2,30.1C25.2,30.2,25.2,30.2,25.2,30.1c0,0.1,0.1,0.1,0,0.2c0,0,0,0,0,0
		c0,0-0.1,0-0.1,0c0,0-0.1,0-0.1-0.1c0,0,0,0,0,0C25.1,30.2,25.1,30.2,25.2,30.1c-0.1,0.1-0.1,0.1-0.1,0c0,0-0.1-0.1-0.1-0.1
		c0,0,0,0,0-0.1c0,0,0.1,0,0.1,0L25.2,30.1z"/>
	<path class="st0" d="M25.4,30.5C25.4,30.5,25.4,30.5,25.4,30.5c0,0.1,0.1,0.2,0.1,0.2c0,0-0.1,0.1-0.1,0.1c0,0,0-0.1-0.1-0.1
		c0,0,0,0,0-0.1c0,0,0-0.1,0-0.1C25.2,30.5,25.2,30.5,25.4,30.5C25.3,30.4,25.3,30.4,25.4,30.5"/>
	<path class="st0" d="M25.5,30.8C25.5,30.9,25.5,30.9,25.5,30.8c-0.1,0-0.1,0.1-0.1,0.1c0,0,0,0,0,0C25.4,30.8,25.5,30.8,25.5,30.8
		L25.5,30.8z"/>
	<path class="st0" d="M25.6,31C25.6,31,25.5,31,25.6,31c-0.1,0-0.1,0.1-0.2,0.1c0,0,0-0.1,0-0.1C25.5,30.9,25.5,31,25.6,31
		C25.6,30.9,25.6,31,25.6,31"/>
	<path class="st0" d="M25.6,31.2c0,0,0,0.1,0,0.1c0,0,0,0.1,0.1,0.1c0,0.1,0,0.2,0.1,0.3c0,0.1,0.1,0.1,0.1,0.2c0,0.1,0,0.1,0,0.2
		l0,0.1c0,0.1-0.1,0-0.1,0.1c0,0,0-0.1-0.1-0.1c0,0,0-0.1-0.1-0.1c0,0,0-0.1,0-0.1c0-0.1,0-0.3-0.1-0.4c0-0.1-0.1-0.1-0.1-0.1
		c0-0.1,0-0.1-0.1-0.2c0,0,0-0.1,0-0.1c0,0,0.1,0,0.1,0c0,0,0,0,0,0c-0.1,0,0,0.1,0,0.2c0,0,0,0,0,0.1c0.1,0,0-0.1,0.1-0.1
		c0,0,0-0.1,0-0.1C25.5,31.1,25.5,31.1,25.6,31.2C25.6,31.1,25.6,31.1,25.6,31.2"/>
	<path class="st0" d="M25.9,32.7C25.9,32.7,26,32.8,25.9,32.7C25.9,32.8,25.9,32.8,25.9,32.7C25.9,32.8,25.9,32.7,25.9,32.7
		C25.9,32.7,25.9,32.7,25.9,32.7C25.9,32.7,25.9,32.7,25.9,32.7"/>
	<path class="st0" d="M25.8,33C25.8,33,25.8,33.1,25.8,33C25.8,33.1,25.8,33.1,25.8,33C25.8,33.1,25.8,33.1,25.8,33
		C25.7,33.1,25.8,33,25.8,33C25.8,33,25.8,33,25.8,33"/>
	<path class="st0" d="M25.2,33.9C25.2,34,25.2,34,25.2,33.9c0,0.1-0.1,0.1-0.1,0.1c0,0,0,0,0,0C25,33.9,25.1,33.9,25.2,33.9
		C25.1,33.9,25.2,33.9,25.2,33.9"/>
	<path class="st0" d="M24.5,34.1C24.5,34.1,24.5,34.1,24.5,34.1C24.5,34.1,24.4,34.1,24.5,34.1C24.4,34.1,24.4,34.1,24.5,34.1
		C24.5,34.1,24.5,34,24.5,34.1L24.5,34.1z"/>
	<path class="st0" d="M24.6,34.1C24.6,34.1,24.6,34.1,24.6,34.1C24.6,34.2,24.5,34.2,24.6,34.1C24.5,34.1,24.5,34.1,24.6,34.1
		C24.6,34.1,24.6,34.1,24.6,34.1"/>
	<path class="st0" d="M24.9,34.1C24.8,34.1,24.9,34.2,24.9,34.1c-0.1,0.1-0.1,0-0.1,0.1c0,0,0,0-0.1,0c0,0,0,0,0-0.1c0,0,0,0,0.1,0
		c0,0,0,0,0,0C24.8,34.1,24.8,34.1,24.9,34.1C24.8,34.1,24.9,34.1,24.9,34.1"/>
	<path class="st0" d="M25.1,35.5c0,0.1,0.1,0.1,0,0.2c-0.1,0.1-0.2,0-0.3,0.1c-0.1,0-0.1,0-0.2-0.1c0,0,0,0-0.1-0.1c0,0,0,0,0.1-0.1
		c0,0,0,0,0.1,0c0,0,0.1,0,0.2,0C25,35.4,25,35.5,25.1,35.5"/>
	<path class="st0" d="M28.8,36.8C28.8,36.8,28.8,36.8,28.8,36.8c0,0.1-0.1,0.1-0.1,0.1c0,0-0.1,0-0.1,0c0,0,0,0,0-0.1c0,0,0,0,0,0
		C28.6,36.8,28.7,36.7,28.8,36.8L28.8,36.8z"/>
	<path class="st0" d="M7.3,37.4C7.3,37.4,7.3,37.4,7.3,37.4c0,0.1-0.1,0.1-0.1,0.1c0,0,0-0.1-0.1-0.1c0,0,0-0.1,0-0.1
		C7.2,37.3,7.2,37.3,7.3,37.4L7.3,37.4z"/>
	<path class="st0" d="M6.7,37.5C6.7,37.5,6.6,37.5,6.7,37.5C6.6,37.6,6.6,37.6,6.7,37.5c-0.1,0-0.1,0-0.2,0c0,0,0,0,0,0
		c0,0,0,0,0.1,0C6.6,37.4,6.6,37.4,6.7,37.5"/>
	<path class="st0" d="M9.1,37.4C9.1,37.5,9.1,37.5,9.1,37.4C9,37.4,9,37.4,9.1,37.4C9.1,37.4,9.1,37.4,9.1,37.4"/>
	<path class="st0" d="M6.5,37.6C6.5,37.6,6.5,37.6,6.5,37.6c0,0.1-0.1,0-0.1,0.1c0,0,0,0,0,0C6.4,37.6,6.4,37.6,6.5,37.6
		C6.5,37.6,6.5,37.6,6.5,37.6"/>
	<path class="st0" d="M29.6,37.9C29.6,37.9,29.6,37.9,29.6,37.9C29.6,38,29.6,38,29.6,37.9c-0.1,0.1-0.1,0.1-0.1,0
		C29.5,37.9,29.5,37.9,29.6,37.9C29.6,37.9,29.6,37.9,29.6,37.9"/>
	<path class="st0" d="M6.5,38C6.5,38,6.5,38,6.5,38c-0.1,0-0.1,0-0.2,0c0,0,0,0,0,0C6.4,37.9,6.4,37.9,6.5,38
		C6.5,37.9,6.5,38,6.5,38"/>
	<path class="st0" d="M29.5,38.1C29.5,38.1,29.5,38.1,29.5,38.1C29.5,38.2,29.5,38.2,29.5,38.1C29.4,38.1,29.4,38.1,29.5,38.1
		C29.4,38.1,29.4,38.1,29.5,38.1C29.5,38.1,29.5,38.1,29.5,38.1"/>
	<path class="st0" d="M29.1,38.4c0,0,0,0.1,0,0.1c0,0.1,0,0.2-0.1,0.2c0,0-0.1,0-0.1-0.1c0,0,0-0.1,0-0.1
		C28.9,38.5,29,38.4,29.1,38.4C29.1,38.4,29.1,38.4,29.1,38.4"/>
	<path class="st0" d="M6.4,38.5C6.4,38.5,6.4,38.4,6.4,38.5L6.4,38.5C6.4,38.4,6.5,38.4,6.4,38.5"/>
	<path class="st0" d="M6.6,38.5c0,0,0.1,0.1,0.1,0.1c0,0,0,0.1-0.1,0.1c0,0,0,0,0,0C6.6,38.7,6.6,38.6,6.6,38.5
		C6.6,38.5,6.6,38.5,6.6,38.5C6.6,38.5,6.6,38.5,6.6,38.5"/>
	<path class="st0" d="M6.8,38.7C6.8,38.8,6.8,38.8,6.8,38.7L6.8,38.7C6.8,38.8,6.7,38.7,6.8,38.7C6.7,38.7,6.8,38.7,6.8,38.7"/>
	<path class="st0" d="M26,39.5C26,39.5,26,39.5,26,39.5c0,0.1-0.1,0.2-0.1,0.1c0,0,0,0,0-0.1c0,0,0-0.1,0-0.1
		C25.9,39.4,25.9,39.4,26,39.5"/>
	<path class="st0" d="M7.1,39.7C7.1,39.7,7.1,39.7,7.1,39.7C7.1,39.8,7.1,39.8,7.1,39.7C7,39.8,7,39.8,7,39.8l0-0.1c0,0,0-0.1,0-0.1
		c0,0,0,0,0-0.1c0,0,0,0,0,0C7.1,39.5,7.1,39.6,7.1,39.7"/>
	<path class="st0" d="M25.8,39.7C25.8,39.7,25.8,39.8,25.8,39.7c0,0.1,0,0.2-0.1,0.1c0,0-0.1,0-0.1,0c0,0,0-0.1,0-0.1
		C25.7,39.7,25.7,39.7,25.8,39.7C25.8,39.7,25.8,39.7,25.8,39.7"/>
	<path class="st0" d="M8.1,39.7C8.1,39.7,8.1,39.8,8.1,39.7C8.1,39.7,8.1,39.7,8.1,39.7C8.1,39.7,8.1,39.7,8.1,39.7"/>
	<path class="st0" d="M7.7,40.2c0,0,0.1,0.1,0.1,0.1c0,0-0.1,0.1-0.1,0.1c-0.1,0-0.1-0.1-0.1-0.2c0,0,0-0.1,0-0.1
		C7.6,40.1,7.7,40.2,7.7,40.2"/>
	<path class="st0" d="M7.9,40.5C7.9,40.5,8,40.5,7.9,40.5C8,40.6,8,40.7,8,40.7c0,0,0,0,0,0c0,0-0.1,0-0.1,0c-0.1,0-0.1-0.1-0.1-0.2
		c0,0-0.1-0.1,0-0.1C7.8,40.5,7.8,40.5,7.9,40.5C7.9,40.4,7.9,40.5,7.9,40.5"/>
	<path class="st0" d="M10.8,44c0,0.1,0.1,0.1,0.1,0.2c0,0,0,0.1,0,0.1c0,0,0,0,0,0c0,0-0.1,0-0.1-0.1c-0.1-0.1-0.1-0.1-0.2-0.2
		c0,0,0,0,0-0.1c0,0,0,0,0-0.1c0,0,0.1,0,0.1,0C10.7,43.9,10.7,44,10.8,44"/>
	<path class="st0" d="M6.2,49.4c2.9,1.2,4.8-0.6,7.9-0.6c2,0,5.9,0.5,8.5,3.6L22,52.6c-1.5-2-3.4-3.1-5.1-3.1
		c-1.4,0-3.5,1.4-5.9,1.4C9.7,50.9,7.2,50.6,6.2,49.4"/>
	<path class="st0" d="M29.7,49.4c-2.9,1.2-4.8-0.6-7.9-0.6c-2,0-5.9,0.5-8.5,3.6l0.7,0.2c1.5-2,3.4-3.1,5.1-3.1
		c1.4,0,3.5,1.4,5.9,1.4C26.3,50.9,28.8,50.6,29.7,49.4"/>
	<path class="st0" d="M12,48.4c-0.6,0.1-2.5,0.6-3.5,0.5c-1-0.1-3.6-0.6-5.1-3.3c1.5,1.2,4.1,1.6,5.1,1.9c1,0.3,1.8,0.6,2.4,0.7
		c-1.5-0.6-2.2-1.3-2.6-2.1c-0.5-1-0.7-1.8-1.1-3.4c0.7,0.7,1.9,2.1,2.4,2.6C10.6,46.3,10.8,48,12,48.4"/>
	<path class="st0" d="M7.8,46.6c-1-0.4-2.7-0.6-3.5-1.1c-1.2-0.7-2.8-2.4-3.1-5.1c0.9,1.7,2.8,2.9,3.6,3.5c0.8,0.6,1.9,1.8,2.4,2.2
		c-1.1-1.1-1.7-2.3-1.8-3c0-1.1-0.3-2.2-0.2-3.8c0.4,0.9,1.5,2.9,1.8,3.6C7.6,44.7,7.2,45.5,7.8,46.6"/>
	<path class="st0" d="M4.9,43.2c-0.8-0.7-3-2.5-3.6-3.4c-0.7-1.2-1.2-2.6-1.2-4.2c0.5,1.9,2.2,3.3,2.8,4.2c0.6,0.8,1.1,2.2,1.5,2.7
		c-0.8-1.4-0.8-2.5-0.8-3.3c0-1.1,0.2-2.5,0.6-3.9c0.4,1,0.5,1.6,0.6,2.3C5,40,4.1,42.1,4.9,43.2"/>
	<path class="st0" d="M2.8,38.8c-0.7-1.3-2-2.8-2.4-4.1c-0.4-1.3-0.6-2.9-0.2-4.5c0.1,1.9,1.2,2.9,1.6,4.5c0.2,0.9,0.4,1.9,0.6,2.5
		c-0.1-1.4,0.2-2.4,0.6-3.2c0.3-0.6,0.6-1.1,1.3-2.3c0.1,1.3-0.3,2.9-0.5,3.3C3.6,35.8,2.5,37.5,2.8,38.8"/>
	<path class="st0" d="M2.1,35c-0.2-1.3-0.8-3-0.9-4.2c-0.1-1,0.2-3.4,1.6-4.8c-0.6,1.4-0.3,2.8-0.2,3.8c0.2,1.5-0.4,2.5-0.3,3.1
		c0.2-0.6,0.4-1.5,0.9-2.1c0.8-0.8,1.2-1.1,2.6-2.5c-0.5,1.3-1.4,2.9-1.6,3.2C3.6,32.3,2.1,33.8,2.1,35"/>
	<path class="st0" d="M3,30.5c0.2-1.5-0.2-2.1,0-3.2c0.2-1,0.9-2.8,2.3-3.7C4.9,24.2,4.5,25,4.4,26c-0.2,1.5-0.6,1.8-0.6,2.4
		c0.3-0.6,1-1.3,1.6-1.7c1-0.6,1.3-0.8,2.2-1.7c-0.4,1.2-1.6,2.5-1.8,2.8C4.6,28.9,3.9,29,3,30.5"/>
	<path class="st0" d="M8.5,22.7c-0.7,0.3-2.3,1.2-2.8,1.8c-0.5,0.5-1,1.6-1.3,2.5C5,26.4,5.7,26,6.3,25.5C6.9,25,7.7,23.7,8.5,22.7"
		/>
	<path class="st0" d="M23.9,48.4c0.6,0.1,2.5,0.6,3.5,0.5c1-0.1,3.6-0.6,5.1-3.3c-1.5,1.2-4.1,1.6-5.1,1.9c-1,0.3-1.8,0.6-2.4,0.7
		c1.5-0.6,2.2-1.3,2.6-2.1c0.5-1,0.7-1.8,1.1-3.4c-0.7,0.7-1.9,2.1-2.4,2.6C25.4,46.3,25.1,48,23.9,48.4"/>
	<path class="st0" d="M28.1,46.7c1-0.4,2.7-0.6,3.5-1.1c1.2-0.7,2.8-2.4,3.1-5.1c-0.9,1.7-2.8,2.9-3.6,3.5c-0.8,0.6-1.9,1.8-2.4,2.2
		c1.1-1.1,1.7-2.3,1.8-3c0-1.1,0.3-2.2,0.2-3.8c-0.4,0.9-1.5,2.9-1.8,3.6C28.3,44.7,28.7,45.5,28.1,46.7"/>
	<path class="st0" d="M31,43.2c0.8-0.7,3-2.5,3.6-3.4c0.7-1.2,1.2-2.6,1.2-4.2c-0.5,1.9-2.2,3.3-2.8,4.2c-0.6,0.8-1.1,2.2-1.5,2.7
		c0.8-1.4,0.8-2.5,0.8-3.3c0-1.1-0.2-2.5-0.6-3.9c-0.4,1-0.5,1.6-0.6,2.3C31,40,31.8,42.1,31,43.2"/>
	<path class="st0" d="M33.1,38.8c0.7-1.3,2-2.8,2.4-4.1c0.4-1.3,0.6-2.9,0.2-4.5c-0.1,1.9-1.2,2.9-1.6,4.5c-0.2,0.9-0.4,1.9-0.6,2.5
		c0.1-1.4-0.2-2.4-0.6-3.2c-0.3-0.6-0.6-1.1-1.3-2.3c-0.1,1.3,0.4,2.9,0.5,3.3C32.4,35.8,33.4,37.5,33.1,38.8"/>
	<path class="st0" d="M33.8,35c0.2-1.3,0.8-3,0.9-4.2c0.1-1-0.2-3.4-1.6-4.8c0.6,1.4,0.3,2.8,0.2,3.8c-0.2,1.5,0.4,2.5,0.3,3.1
		c-0.2-0.6-0.4-1.5-0.9-2.1c-0.8-0.8-1.2-1.1-2.6-2.5c0.5,1.3,1.4,2.9,1.6,3.2C32.3,32.3,33.8,33.8,33.8,35"/>
	<path class="st0" d="M32.9,30.5c-0.2-1.5,0.2-2.1,0-3.2c-0.2-1-0.9-2.8-2.3-3.7c0.4,0.6,0.8,1.5,0.9,2.5c0.2,1.5,0.6,1.8,0.6,2.4
		c-0.3-0.6-1-1.3-1.6-1.7c-1-0.6-1.3-0.8-2.2-1.7c0.4,1.2,1.6,2.5,1.8,2.8C31.3,28.9,32.1,29,32.9,30.5"/>
	<path class="st0" d="M27.4,22.7c0.7,0.3,2.3,1.2,2.8,1.8c0.5,0.5,1,1.6,1.2,2.5c-0.5-0.5-1.2-0.9-1.8-1.4
		C29.1,25,28.3,23.7,27.4,22.7"/>
	<path class="st0" d="M6.3,37.8C6.3,37.8,6.3,37.8,6.3,37.8c0,0,0.1,0,0.1,0c0,0,0,0,0,0H6.3z"/>
	<path class="st0" d="M19.2,22.4C19.2,22.5,19.2,22.5,19.2,22.4C19.2,22.5,19.2,22.5,19.2,22.4C19.3,22.5,19.3,22.5,19.2,22.4
		C19.3,22.5,19.3,22.5,19.2,22.4"/>
	<path class="st0" d="M20.2,22.7c-0.1,0-0.1,0-0.2,0c0,0,0,0,0,0.1c0.1,0,0.1,0.1,0.2,0C20.3,22.8,20.3,22.8,20.2,22.7
		C20.3,22.7,20.2,22.7,20.2,22.7"/>
	<path class="st0" d="M20.7,23.1c0.1,0,0.2,0.1,0.2,0c0,0,0,0,0-0.1c0,0-0.1-0.1-0.1-0.1C20.7,23,20.7,23,20.7,23.1
		C20.7,23.1,20.7,23.1,20.7,23.1"/>
	<path class="st0" d="M20.6,23.2C20.5,23.2,20.5,23.2,20.6,23.2c-0.1-0.1-0.1-0.1-0.2-0.1c0,0,0,0,0,0.1
		C20.5,23.3,20.5,23.3,20.6,23.2C20.6,23.3,20.6,23.3,20.6,23.2"/>
	<path class="st0" d="M23.8,25.2c0.1,0,0.1,0.1,0.2,0.1c0.1,0,0.1,0.1,0.1,0.1c0.1,0,0.1,0.1,0.2,0.1c0.1,0,0-0.1,0.1-0.1
		c0-0.1,0-0.1,0-0.1c0,0-0.1-0.1-0.1-0.1c0-0.1-0.1-0.1-0.1-0.1C24.1,25,24,25,23.9,25c0,0,0,0,0,0.1c0,0-0.1,0-0.1,0
		c0,0-0.1,0-0.1,0.1C23.7,25.1,23.7,25.2,23.8,25.2L23.8,25.2z"/>
	<path class="st0" d="M20,25.4C20,25.4,20,25.3,20,25.4c0-0.1-0.1-0.1-0.1-0.1c0,0-0.1,0-0.1,0c0,0,0,0.1,0,0.1
		C19.9,25.4,19.9,25.4,20,25.4"/>
	<path class="st0" d="M20.5,25.6c0-0.1,0-0.1,0-0.1c-0.1,0-0.1-0.1-0.2-0.1l-0.1,0c0,0-0.1-0.1-0.1,0c0,0,0,0,0,0.1
		c0,0,0,0.1,0.1,0.1c0,0,0,0,0,0c0,0,0.1,0.1,0.1,0.1c0,0,0.1,0.1,0.1,0.1C20.4,25.7,20.5,25.7,20.5,25.6"/>
	<path class="st0" d="M19.7,25.4c0,0-0.1-0.1-0.1-0.1c0,0,0,0,0,0C19.6,25.5,19.6,25.5,19.7,25.4c0,0.1,0,0.2,0.1,0.2c0,0,0,0,0-0.1
		C19.8,25.5,19.8,25.5,19.7,25.4"/>
	<path class="st0" d="M19.9,25.8C19.9,25.8,19.9,25.7,19.9,25.8C19.9,25.7,19.9,25.7,19.9,25.8C19.8,25.7,19.8,25.7,19.9,25.8
		C19.9,25.8,19.9,25.8,19.9,25.8"/>
	<path class="st0" d="M16.7,25.8C16.6,25.8,16.6,25.7,16.7,25.8c-0.1,0-0.1,0.1-0.1,0.1c0,0,0.1,0,0.1,0
		C16.7,25.9,16.8,25.8,16.7,25.8C16.7,25.8,16.7,25.8,16.7,25.8"/>
	<path class="st0" d="M16.4,25.8C16.4,25.8,16.4,25.8,16.4,25.8C16.4,25.8,16.4,25.9,16.4,25.8C16.5,25.9,16.5,25.8,16.4,25.8
		C16.5,25.8,16.5,25.8,16.4,25.8"/>
	<path class="st0" d="M19.9,25.8C19.9,25.8,19.9,25.8,19.9,25.8c0,0.1-0.1,0.1,0,0.2c0,0,0.1,0.1,0.1,0.1c0,0,0.1,0,0.1-0.1
		C20.1,25.9,20,25.9,19.9,25.8C20,25.8,20,25.8,19.9,25.8"/>
	<path class="st0" d="M16.9,25.9C16.9,25.9,16.9,25.8,16.9,25.9c-0.1,0-0.1,0.1-0.1,0.1C16.8,26,16.9,26,16.9,25.9
		C16.9,26,16.9,25.9,16.9,25.9L16.9,25.9z"/>
	<path class="st0" d="M20.5,26.3C20.4,26.3,20.4,26.3,20.5,26.3C20.4,26.3,20.4,26.3,20.5,26.3C20.4,26.3,20.4,26.3,20.5,26.3
		C20.4,26.3,20.4,26.4,20.5,26.3C20.4,26.3,20.5,26.3,20.5,26.3"/>
	<path class="st0" d="M20.6,26.6C20.6,26.6,20.6,26.5,20.6,26.6C20.6,26.5,20.6,26.5,20.6,26.6c0-0.1,0-0.1,0-0.1c0,0-0.1,0-0.1,0
		c0,0,0,0,0,0C20.5,26.5,20.5,26.5,20.6,26.6C20.5,26.6,20.6,26.6,20.6,26.6"/>
	<path class="st0" d="M20.9,26.7C20.9,26.7,20.9,26.7,20.9,26.7C20.9,26.6,20.9,26.6,20.9,26.7c0-0.1,0-0.1-0.1-0.1
		C20.8,26.6,20.8,26.6,20.9,26.7L20.9,26.7z"/>
	<path class="st0" d="M20.6,26.6C20.6,26.6,20.6,26.6,20.6,26.6c-0.1,0.1-0.1,0.1-0.1,0.1c0,0.1,0.1,0.1,0.2,0.1c0,0,0.1,0,0.1-0.1
		c0,0,0,0,0-0.1C20.8,26.7,20.8,26.7,20.6,26.6C20.7,26.7,20.7,26.6,20.6,26.6C20.7,26.6,20.7,26.6,20.6,26.6"/>
	<path class="st0" d="M13.5,26.7C13.5,26.6,13.5,26.6,13.5,26.7c-0.1,0-0.1,0-0.1,0c0,0,0,0,0,0C13.4,26.8,13.5,26.8,13.5,26.7
		C13.5,26.7,13.5,26.7,13.5,26.7"/>
	<path class="st0" d="M20.8,26.9c0,0.1,0.1,0.1,0.1,0.1c0.1,0,0.1-0.1,0.1-0.1c0,0,0-0.1-0.1-0.1C20.9,26.8,20.9,26.8,20.8,26.9
		C20.8,26.8,20.8,26.9,20.8,26.9"/>
	<path class="st0" d="M21.2,27.1C21.2,27.1,21.2,27,21.2,27.1c0.1-0.1,0-0.1,0-0.1c0,0,0,0,0,0c0,0-0.1,0-0.1-0.1c0,0,0,0,0,0
		C21.1,26.9,21.1,27,21.2,27.1C21.1,27,21.1,27.1,21.2,27.1"/>
	<path class="st0" d="M21.3,27.2C21.3,27.2,21.3,27.2,21.3,27.2c0,0.1,0.1,0.1,0.1,0.1c0,0,0.1,0,0.1,0c0,0,0-0.1,0-0.1
		c0,0-0.1-0.1-0.1-0.1c0-0.1-0.1-0.1-0.1-0.1C21.3,27,21.3,27,21.3,27.2C21.3,27.1,21.2,27.1,21.3,27.2"/>
	<path class="st0" d="M15.8,29C15.8,29,15.8,29,15.8,29c-0.1,0-0.1,0-0.1,0c0,0,0,0,0,0c0,0-0.1,0-0.1,0c0,0-0.1,0.1-0.1,0.1
		c0,0,0,0,0,0.1c0,0,0,0,0.1,0c0,0,0.1,0,0.1,0c0,0,0,0,0.1-0.1c0,0,0,0,0,0C15.8,29.2,15.8,29.1,15.8,29
		C15.9,29.1,15.9,29.1,15.8,29C15.9,29.1,15.8,29,15.8,29"/>
	<path class="st0" d="M24,29C24,29,24,29.1,24,29c0.1,0.1,0.1,0.1,0.2,0c0,0,0,0,0-0.1C24.1,29,24,29,24,29"/>
	<path class="st0" d="M23.7,30.2C23.7,30.2,23.8,30.2,23.7,30.2C23.8,30.1,23.8,30.1,23.7,30.2c0-0.1,0-0.1,0-0.1
		C23.7,30.1,23.7,30.1,23.7,30.2C23.7,30.2,23.7,30.2,23.7,30.2"/>
	<path class="st0" d="M23.9,30.3C23.9,30.3,23.9,30.3,23.9,30.3C24,30.3,24,30.3,23.9,30.3c0.1-0.1,0.1-0.1,0-0.1
		C23.9,30.2,23.9,30.2,23.9,30.3C23.9,30.3,23.9,30.3,23.9,30.3"/>
	<path class="st0" d="M23.6,30.6c0.1,0,0.1,0.1,0.1,0.1c0,0,0,0.1,0,0.1c0.1,0,0.1,0,0.2,0c0-0.1,0-0.1-0.1-0.2c0,0,0-0.1,0-0.1
		c0-0.1,0-0.1-0.1-0.2c-0.1,0-0.1,0-0.2,0c0,0-0.1,0.1-0.1,0.1c0,0,0,0-0.1,0.1c0,0,0,0.1,0,0.1C23.5,30.5,23.6,30.6,23.6,30.6"/>
	<path class="st0" d="M23.3,30.7C23.3,30.7,23.3,30.7,23.3,30.7C23.3,30.8,23.3,30.8,23.3,30.7c0.1,0.2,0.1,0,0.2,0l0,0
		c0,0,0,0.1,0,0.1c0,0,0.1-0.1,0.1,0c0,0,0-0.1,0-0.1c0,0,0,0-0.1-0.1c0,0-0.1,0-0.1,0c0,0,0,0,0,0c0,0,0,0,0,0c0,0,0,0,0,0
		C23.4,30.6,23.3,30.7,23.3,30.7"/>
	<path class="st0" d="M24,30.9C24.1,30.9,24.1,30.9,24,30.9C24.2,30.8,24.1,30.8,24,30.9C24.1,30.8,24.1,30.8,24,30.9
		C24,30.8,24,30.8,24,30.9C24,30.8,24,30.8,24,30.9"/>
	<path class="st0" d="M23.7,30.8l-0.1,0.1c0,0-0.1,0-0.1,0.1c0,0,0,0.1,0,0.1c0,0,0.1,0,0.1,0c0.1,0,0.1-0.1,0.1-0.1
		C23.7,30.9,23.8,30.8,23.7,30.8C23.7,30.8,23.7,30.8,23.7,30.8"/>
	<path class="st0" d="M24.2,30.9C24.2,30.9,24.3,30.9,24.2,30.9C24.3,30.8,24.2,30.8,24.2,30.9C24.2,30.8,24.2,30.8,24.2,30.9
		C24.2,30.9,24.2,30.9,24.2,30.9"/>
	<path class="st0" d="M23.7,31.1c0,0-0.1,0-0.1,0c0,0,0,0-0.1-0.1c0,0,0,0-0.1,0c0-0.1-0.1-0.1,0-0.2c0,0,0,0,0,0c0,0,0,0,0,0
		c0,0,0,0.1,0,0.1c0,0.1,0,0.1,0,0.2c-0.1,0-0.2,0-0.3,0.1c0,0.1,0,0.1,0,0.2c0,0,0.1,0,0.1,0c0,0,0.1,0,0.1-0.1c0,0,0,0,0.1,0
		c0.1,0,0.1,0,0.2,0c0,0,0.1,0,0.1,0c0,0,0,0,0,0c0,0,0,0,0,0c0,0-0.1,0-0.1-0.1c0,0,0-0.1,0-0.1c0,0,0.1,0,0.1,0L23.7,31.1
		C23.7,31.2,23.7,31.1,23.7,31.1"/>
	<path class="st0" d="M20,31.3c0,0,0.1,0,0.1,0c0,0,0.1,0,0.1-0.1c0,0,0-0.1,0-0.1c0,0,0,0-0.1,0c0,0.1-0.1,0-0.2,0.1
		C19.9,31.2,19.9,31.2,20,31.3C20,31.3,20,31.3,20,31.3"/>
	<path class="st0" d="M20.2,31.3c0,0,0,0.1,0,0.1c0,0,0.1,0,0.1,0c0,0,0.1-0.1,0.1-0.1c0,0,0.1,0,0.1,0c0,0,0.1-0.1,0.1-0.1
		c0,0,0,0,0,0c0,0,0,0-0.1-0.1c0,0-0.1,0-0.1,0c0,0,0-0.1,0-0.1c0,0-0.1,0-0.1,0c0,0-0.1,0-0.1,0c0,0,0,0,0,0
		C20.2,31.2,20.2,31.3,20.2,31.3"/>
	<path class="st0" d="M19.6,31.3C19.6,31.3,19.6,31.3,19.6,31.3C19.6,31.3,19.6,31.3,19.6,31.3c0.1,0,0.2-0.1,0.2-0.1
		c0,0,0.1,0,0.1,0c0,0,0,0,0-0.1c0,0,0,0,0,0c-0.1,0-0.1,0-0.2,0C19.7,31.2,19.6,31.3,19.6,31.3C19.5,31.3,19.5,31.3,19.6,31.3
		C19.5,31.3,19.5,31.3,19.6,31.3L19.6,31.3z"/>
	<path class="st0" d="M23.9,31.2C23.8,31.2,23.8,31.2,23.9,31.2C23.8,31.2,23.8,31.3,23.9,31.2C23.8,31.3,23.9,31.3,23.9,31.2
		c0.1,0.1,0.2,0.1,0.2,0.1c0,0,0-0.1,0-0.1c0,0,0,0-0.1,0C24,31.3,24,31.3,23.9,31.2C23.9,31.3,23.9,31.3,23.9,31.2"/>
	<path class="st0" d="M19.4,31.4C19.4,31.4,19.4,31.4,19.4,31.4C19.5,31.4,19.5,31.3,19.4,31.4L19.4,31.4
		C19.4,31.3,19.4,31.3,19.4,31.4C19.4,31.3,19.4,31.4,19.4,31.4"/>
	<path class="st0" d="M18.3,31.3C18.3,31.3,18.3,31.3,18.3,31.3C18.3,31.4,18.3,31.4,18.3,31.3C18.4,31.4,18.4,31.3,18.3,31.3
		C18.4,31.3,18.4,31.3,18.3,31.3"/>
	<path class="st0" d="M17.5,31.3C17.5,31.3,17.4,31.3,17.5,31.3c-0.1,0-0.1,0-0.1,0c0,0,0,0,0,0c0,0,0.1,0,0.1,0
		C17.5,31.4,17.5,31.4,17.5,31.3C17.5,31.3,17.5,31.3,17.5,31.3C17.5,31.3,17.5,31.3,17.5,31.3"/>
	<path class="st0" d="M23,31.3C23,31.3,23,31.3,23,31.3C23,31.3,23,31.3,23,31.3C22.9,31.3,22.9,31.3,23,31.3"/>
	<path class="st0" d="M22.7,31.4C22.7,31.4,22.7,31.4,22.7,31.4C22.6,31.4,22.6,31.4,22.7,31.4c-0.1-0.1-0.1,0-0.1,0
		C22.6,31.4,22.6,31.5,22.7,31.4C22.6,31.5,22.6,31.5,22.7,31.4"/>
	<path class="st0" d="M17.3,31.4C17.3,31.4,17.3,31.4,17.3,31.4c-0.1,0-0.1,0-0.1,0c0,0,0,0,0,0.1C17.2,31.5,17.3,31.5,17.3,31.4
		C17.3,31.5,17.4,31.5,17.3,31.4C17.4,31.5,17.4,31.4,17.3,31.4"/>
	<path class="st0" d="M18.6,31.4C18.6,31.4,18.6,31.5,18.6,31.4C18.6,31.5,18.6,31.5,18.6,31.4C18.6,31.5,18.6,31.5,18.6,31.4
		C18.6,31.5,18.7,31.5,18.6,31.4C18.6,31.4,18.6,31.4,18.6,31.4"/>
	<path class="st0" d="M22.8,31.5c0,0-0.1,0.1-0.1,0.1c0,0-0.1,0-0.1,0.1c0,0,0,0,0,0.1c0.1,0,0.1,0,0.2,0c0,0,0.1,0,0.1-0.1
		c0,0,0,0,0,0c0,0,0-0.1,0-0.1C22.9,31.5,22.8,31.5,22.8,31.5"/>
	<path class="st0" d="M19.8,32C19.8,32,19.8,32,19.8,32C19.8,32.1,19.8,32.1,19.8,32c0.1,0.1,0.1,0.1,0.1,0c0-0.1,0.1-0.1,0.2-0.2
		c0.1,0,0.1-0.1,0.2-0.1c0,0,0,0,0-0.1c0,0,0-0.1,0-0.1c0,0,0,0,0,0c0,0-0.1,0-0.1,0c-0.1,0-0.1,0.1-0.1,0.1c0,0.1-0.1,0-0.2,0.1
		C19.9,31.8,19.8,31.9,19.8,32C19.8,32,19.8,32,19.8,32"/>
	<path class="st0" d="M17.2,31.5C17.1,31.5,17.1,31.5,17.2,31.5c-0.1,0.1,0,0.1,0,0.1c0,0,0,0,0,0C17.2,31.6,17.2,31.6,17.2,31.5
		C17.2,31.5,17.2,31.5,17.2,31.5"/>
	<path class="st0" d="M18.8,31.6C18.7,31.5,18.7,31.5,18.8,31.6C18.7,31.5,18.7,31.5,18.8,31.6C18.7,31.6,18.7,31.6,18.8,31.6
		C18.7,31.6,18.7,31.6,18.8,31.6C18.8,31.6,18.8,31.6,18.8,31.6"/>
	<path class="st0" d="M16.7,31.9c-0.1,0-0.1,0.1-0.1,0.2c0,0,0,0,0,0c0,0,0,0,0,0c0,0,0,0,0-0.1C16.8,32,16.8,31.9,16.7,31.9
		C16.8,31.9,16.7,31.9,16.7,31.9"/>
	<path class="st0" d="M18.9,33.4C18.9,33.4,18.9,33.4,18.9,33.4C18.8,33.4,18.8,33.3,18.9,33.4C18.8,33.4,18.8,33.4,18.9,33.4
		C18.8,33.4,18.8,33.5,18.9,33.4"/>
	<path class="st0" d="M18.7,33.5C18.7,33.5,18.7,33.5,18.7,33.5C18.7,33.4,18.7,33.4,18.7,33.5l0-0.1C18.6,33.4,18.6,33.4,18.7,33.5
		C18.6,33.4,18.6,33.4,18.7,33.5C18.6,33.5,18.6,33.5,18.7,33.5"/>
	<path class="st0" d="M18.8,33.6C18.8,33.6,18.8,33.6,18.8,33.6C18.8,33.5,18.9,33.5,18.8,33.6C18.8,33.5,18.8,33.5,18.8,33.6
		C18.7,33.5,18.7,33.5,18.8,33.6C18.7,33.6,18.8,33.6,18.8,33.6"/>
	<path class="st0" d="M16.8,33.8C16.8,33.8,16.9,33.8,16.8,33.8c0.1-0.1,0.1-0.1,0.1-0.2c0,0-0.1-0.1-0.2-0.1c0,0,0,0.1-0.1,0.1
		c0,0,0,0,0,0C16.7,33.7,16.7,33.8,16.8,33.8"/>
	<path class="st0" d="M17.1,34.1C17.1,34,17.2,34.1,17.1,34.1C17.1,34,17.1,34,17.1,34.1c0-0.1,0-0.2,0-0.2c0,0-0.1-0.1-0.1,0
		c0,0,0,0-0.1,0.1c0,0,0,0.1,0,0.1c0,0,0,0,0,0c0,0,0,0,0,0c0,0,0,0,0,0c0,0,0,0,0-0.1c0,0,0-0.1,0-0.1c0,0,0,0,0,0
		c0,0-0.1,0.1-0.1,0.1c0,0,0,0.1,0.1,0.1C16.9,34.1,17,34.1,17.1,34.1"/>
	<path class="st0" d="M16.6,34.2C16.7,34.2,16.6,34.1,16.6,34.2c0-0.1,0-0.1,0-0.1c0,0,0,0,0,0C16.6,34,16.6,34.1,16.6,34.2
		C16.5,34.1,16.6,34.2,16.6,34.2C16.6,34.2,16.6,34.2,16.6,34.2"/>
	<path class="st0" d="M16.8,34.1C16.7,34.2,16.7,34.2,16.8,34.1c-0.1,0.1-0.1,0.1,0,0.1c0.1,0,0.1,0.1,0.1,0c0,0,0-0.1,0-0.1
		C16.9,34.2,16.8,34.2,16.8,34.1"/>
	<path class="st0" d="M17.3,34.4c0-0.1-0.1,0-0.1,0c0,0,0,0,0-0.1c0,0-0.1-0.1-0.1-0.1l0,0c0,0-0.1,0-0.1,0c0,0,0,0.1,0,0.1
		c0,0,0.1,0,0.2,0c0,0,0,0,0,0c0,0,0,0.1-0.1,0.1c0,0,0,0-0.1,0c0,0-0.1,0-0.1,0.1c0,0,0,0.1,0,0.1c0.1,0,0.1,0,0.2,0
		c0,0,0.1,0,0.1,0c0,0,0.1,0,0.2,0c0,0,0,0,0,0C17.5,34.5,17.4,34.5,17.3,34.4C17.4,34.4,17.3,34.4,17.3,34.4"/>
	<path class="st0" d="M18.7,34.3C18.7,34.4,18.7,34.4,18.7,34.3C18.7,34.4,18.7,34.4,18.7,34.3C18.8,34.3,18.8,34.3,18.7,34.3
		C18.7,34.3,18.7,34.3,18.7,34.3C18.7,34.3,18.7,34.3,18.7,34.3"/>
	<path class="st0" d="M18.8,34.3C18.8,34.3,18.8,34.3,18.8,34.3C18.8,34.4,18.8,34.4,18.8,34.3C18.9,34.4,18.9,34.3,18.8,34.3
		c0.1,0,0.1,0.1,0.1,0.1c0,0,0,0,0,0C19,34.3,18.9,34.3,18.8,34.3C18.8,34.3,18.8,34.3,18.8,34.3"/>
	<path class="st0" d="M16.8,34.4C16.7,34.4,16.7,34.4,16.8,34.4C16.7,34.4,16.7,34.4,16.8,34.4c-0.1,0.1-0.1,0.1-0.2,0.1
		c0,0,0,0,0,0.1c0,0,0.1,0.1,0.2,0.1h0c0,0,0-0.1,0-0.1C16.7,34.6,16.8,34.5,16.8,34.4"/>
	<path class="st0" d="M18.9,34.8C18.9,34.8,18.9,34.8,18.9,34.8c0,0.1-0.1,0.1-0.1,0.2c0,0,0,0.1,0,0.1c0,0,0,0.1,0.1,0.1
		c0,0,0.1,0,0.1-0.1c0,0,0-0.1-0.1-0.1C18.9,34.9,19,34.8,18.9,34.8"/>
	<path class="st0" d="M19,35.2c0,0,0,0.1,0,0.1c0.1,0,0.1,0.1,0.2,0.1c0,0,0.1,0,0.1,0c0,0,0-0.1,0-0.1c0,0-0.1-0.1-0.1-0.1
		C19.1,35.1,19.1,35.1,19,35.2C19,35.1,19,35.1,19,35.2"/>
	<path class="st0" d="M18.3,35.5c0,0,0-0.1,0.1-0.1c0,0,0-0.1-0.1-0.1c0,0,0-0.1,0-0.1c0,0,0.1,0,0.1,0c0,0,0,0,0-0.1
		c0,0-0.1,0-0.1,0c0,0,0,0.1,0,0.1c0,0,0,0,0,0c0,0,0,0,0,0.1C18.2,35.4,18.2,35.4,18.3,35.5C18.3,35.5,18.3,35.5,18.3,35.5"/>
	<path class="st0" d="M12.4,36.7C12.5,36.6,12.5,36.6,12.4,36.7c0-0.1,0.1-0.2,0.1-0.3c0-0.1-0.1-0.1-0.1-0.2c0,0-0.1,0-0.1,0
		c-0.1,0,0-0.1-0.1-0.2c0,0,0,0-0.1,0c0,0-0.1,0-0.1,0.1c0,0,0,0.1,0,0.1c0,0,0,0.1,0,0.1c0,0.1,0,0.1,0,0.1c0,0,0,0,0,0
		C12.3,36.5,12.3,36.6,12.4,36.7C12.4,36.6,12.4,36.7,12.4,36.7"/>
	<path class="st0" d="M17.6,36.3c-0.1,0-0.2,0-0.2,0c0,0-0.1-0.1-0.1-0.1c0,0,0,0-0.1,0c0,0,0,0.1,0,0.1l0.1,0c0,0,0,0.1,0,0.1
		c0,0,0,0.1,0.1,0.1c0.1,0.1,0.2,0,0.2,0c0,0,0.1,0,0.1,0C17.6,36.5,17.6,36.5,17.6,36.3C17.6,36.4,17.6,36.3,17.6,36.3"/>
	<path class="st0" d="M12.4,36.9C12.5,36.9,12.5,36.9,12.4,36.9c0.1,0,0.1,0,0.1-0.1c0,0,0,0,0-0.1c0,0,0,0-0.1-0.1c0,0-0.1,0-0.1,0
		C12.4,36.8,12.4,36.8,12.4,36.9C12.4,36.9,12.4,36.9,12.4,36.9"/>
	<path class="st0" d="M12.5,37C12.4,37,12.5,37.1,12.5,37c0.1,0.1,0.1,0.1,0.1,0.1c0,0,0,0,0,0l0,0C12.5,37,12.5,37,12.5,37"/>
	<path class="st0" d="M12.6,37.1C12.6,37.2,12.6,37.2,12.6,37.1C12.6,37.2,12.7,37.2,12.6,37.1C12.7,37.1,12.7,37.1,12.6,37.1
		C12.7,37.1,12.6,37.1,12.6,37.1C12.6,37.1,12.6,37.1,12.6,37.1"/>
	<path class="st0" d="M12.6,37.2C12.6,37.2,12.6,37.3,12.6,37.2c0,0.1-0.1,0.1-0.1,0.1c0,0,0,0,0,0c0,0,0,0,0.1,0c0,0,0,0,0,0
		C12.6,37.3,12.7,37.3,12.6,37.2C12.7,37.2,12.6,37.2,12.6,37.2"/>
	<path class="st0" d="M12.5,37.5C12.5,37.5,12.5,37.5,12.5,37.5c0-0.1,0-0.1,0-0.1C12.4,37.4,12.4,37.5,12.5,37.5
		C12.4,37.5,12.4,37.5,12.5,37.5"/>
	<path class="st0" d="M23.4,38.4C23.4,38.4,23.5,38.4,23.4,38.4c0.1-0.1,0.2-0.1,0.2-0.2c0-0.1-0.1,0-0.1,0c0,0-0.1,0.1-0.1,0.1
		C23.4,38.3,23.3,38.3,23.4,38.4"/>
	<path class="st0" d="M20.6,38.4c0,0,0.1,0,0.1,0c0,0,0-0.1,0-0.1c0,0,0,0-0.1,0C20.6,38.2,20.5,38.3,20.6,38.4
		C20.5,38.4,20.5,38.4,20.6,38.4"/>
	<path class="st0" d="M18.6,38.4C18.6,38.5,18.7,38.5,18.6,38.4c0.1,0,0.1-0.1,0-0.1c0,0,0,0-0.1,0C18.6,38.3,18.6,38.4,18.6,38.4
		C18.6,38.4,18.6,38.4,18.6,38.4"/>
	<path class="st0" d="M18.6,38.6C18.6,38.7,18.6,38.7,18.6,38.6C18.6,38.7,18.7,38.7,18.6,38.6c0.2,0,0.2,0,0.2-0.1c0,0,0,0-0.1,0
		C18.6,38.5,18.6,38.6,18.6,38.6"/>
	<path class="st0" d="M20,38.7c0.1,0,0.2,0,0.2-0.1c0-0.1-0.1,0-0.1,0c0,0-0.1,0-0.1,0c0,0-0.1,0-0.1,0.1c0,0,0,0,0,0.1
		C19.9,38.7,19.9,38.7,20,38.7"/>
	<path class="st0" d="M19,38.8c0,0,0.1,0,0.2,0c0,0,0-0.1,0-0.1c0,0,0-0.1,0-0.1c0,0-0.1,0-0.1,0C19,38.7,19,38.7,19,38.8
		C18.9,38.7,18.9,38.8,19,38.8"/>
	<path class="st0" d="M24,40.8C24,40.8,24.1,40.8,24,40.8c0-0.1,0-0.1,0-0.1c0,0,0,0,0,0C23.9,40.7,23.9,40.7,24,40.8
		C24,40.8,24,40.8,24,40.8"/>
	<path class="st0" d="M16.1,42.5C16.1,42.5,16.1,42.5,16.1,42.5c0.1-0.1,0.1-0.1,0.1-0.1c0,0-0.1,0-0.1,0c0,0,0,0,0,0
		C16,42.3,16,42.4,16.1,42.5C16,42.4,16.1,42.5,16.1,42.5"/>
	<path class="st0" d="M17.2,43.4C17.2,43.4,17.2,43.4,17.2,43.4c0.1-0.1,0.1-0.1,0.1-0.1c0,0-0.1,0-0.1,0
		C17.1,43.3,17.1,43.3,17.2,43.4C17.1,43.4,17.1,43.4,17.2,43.4"/>
	<path class="st0" d="M29.8,29.5c-0.3-0.8-0.7-1.5-1.2-2.2c-0.5-0.7-1-1.3-1.6-1.9c-0.6-0.6-1.2-1.1-1.9-1.6
		c-0.7-0.5-1.4-0.9-2.2-1.2c-1.6-0.7-3.3-1-5-1c-1.7,0-3.4,0.3-5,1c-0.8,0.3-1.5,0.7-2.2,1.2c-0.7,0.5-1.3,1-1.9,1.6
		c-0.6,0.6-1.1,1.2-1.6,1.9c-0.5,0.7-0.9,1.4-1.2,2.2c-0.7,1.6-1,3.3-1,5c0,1.7,0.3,3.4,1,5c0.3,0.8,0.7,1.5,1.2,2.2
		c0.5,0.7,1,1.3,1.6,1.9c0.6,0.6,1.2,1.1,1.9,1.6c0.7,0.5,1.4,0.9,2.2,1.2c1.6,0.7,3.3,1,5,1c1.7,0,3.4-0.3,5-1
		c0.8-0.3,1.5-0.7,2.2-1.2c0.7-0.5,1.3-1,1.9-1.6c0.6-0.6,1.1-1.2,1.6-1.9c0.5-0.7,0.9-1.4,1.2-2.2c0.7-1.6,1-3.3,1-5
		C30.9,32.7,30.5,31,29.8,29.5 M28.3,27.5c0.5,0.7,0.8,1.4,1.2,2.1c0.6,1.5,1,3,1,4.6h-2.2c0-0.7-0.1-1.4-0.3-2.1
		c-0.2-0.7-0.4-1.3-0.7-2c0,0,0.1,0,0.1,0c0,0,0.1-0.1,0-0.1c0-0.1,0-0.2-0.1-0.2c0,0,0,0,0,0c0-0.1-0.1-0.1-0.1-0.2
		c0-0.1-0.1-0.1-0.1-0.1c0,0-0.1-0.1-0.1-0.1c-0.1-0.1-0.1-0.1-0.1-0.2c0-0.1-0.1-0.1-0.1-0.2c-0.1,0-0.1-0.1-0.1-0.1
		c-0.1-0.1,0-0.2-0.1-0.2c-0.1,0-0.1-0.1-0.2-0.1c0,0,0-0.1-0.1-0.1c-0.1,0-0.1-0.1-0.2-0.1c0-0.1-0.1-0.2-0.2-0.3
		c0-0.1-0.1-0.1-0.2-0.1c-0.1-0.1-0.2-0.1-0.2-0.2c-0.1-0.1-0.1-0.2-0.2-0.3l0-0.1l1.5-1.5C27.4,26.3,27.9,26.9,28.3,27.5 M25.1,41
		c0-0.1,0-0.2,0-0.2c0-0.1,0-0.1-0.1-0.2c0-0.1,0-0.2-0.1-0.2c0,0,0,0,0-0.1c0,0,0-0.1,0-0.1c0,0-0.1,0-0.1-0.1
		c-0.1,0-0.2-0.1-0.3-0.1c0,0-0.1,0-0.1,0c0,0,0,0.1,0,0.1c0,0.1,0,0.2,0,0.3c0,0,0,0,0,0l0,0l-0.7-0.7c0.6-0.7,1.1-1.4,1.5-2.3
		c0.4-0.9,0.6-1.9,0.6-2.9h2.2c0,1.3-0.3,2.5-0.8,3.7c-0.5,1.1-1.1,2.1-2,3l-0.1-0.1l0,0C25.1,41.1,25.1,41,25.1,41 M23.4,42.5
		c0-0.1,0.1-0.1,0.1-0.1c0,0,0-0.1,0-0.1c0,0,0-0.1,0-0.1l0-0.1c0-0.1,0-0.1-0.1-0.1c0-0.1,0.1-0.1,0.1-0.2c0.1-0.1,0.1-0.1,0.1-0.2
		c0,0,0-0.1,0.1-0.1c0,0,0.1-0.1,0.1-0.1c0,0,0,0,0-0.1c0-0.1,0-0.1,0-0.2c0-0.1-0.1-0.1-0.1-0.2c0,0-0.1-0.1-0.1-0.1
		c0,0,0-0.1-0.1-0.1c0,0-0.1,0-0.1,0c-0.1,0-0.1-0.1-0.2-0.1c-0.1-0.1-0.1-0.2,0-0.3c0-0.1,0-0.1,0.1-0.1c0,0,0,0,0-0.1
		c0,0,0.1-0.1,0.1-0.1l0.5,0.5l0,0c0,0.1-0.1,0-0.1,0.1c0,0,0,0,0,0.1c0,0,0.1,0,0.1-0.1l0,0l0.3,0.3l0,0c0,0,0,0,0,0.1
		c0,0,0,0,0,0.1c0,0,0.1,0.1,0.1,0.1c0,0,0,0.1,0,0.1c0,0,0,0.1,0.1,0.1c0,0,0.1,0.1,0.1,0.1c0.1,0,0.1,0,0.1,0c0,0,0.1,0,0.1,0l0,0
		l0.1,0.1c-0.5,0.5-1,0.9-1.5,1.2l0-0.1C23.4,42.6,23.4,42.6,23.4,42.5 M23,38.8c0,0-0.1,0.1-0.1,0.2c0,0,0,0.1,0,0.1c0,0,0,0,0,0
		c0,0,0,0.1,0,0.1c0,0-0.1,0-0.1,0c-0.1,0-0.1,0-0.2,0c-0.1,0-0.1,0.1-0.2,0c-0.1,0-0.1,0-0.2,0c0,0-0.1,0-0.1,0c-0.1,0-0.1,0-0.2,0
		c-0.1,0-0.1,0-0.2,0c-0.1,0-0.1,0-0.2-0.1c0,0-0.1,0-0.1,0c0,0,0,0-0.1,0c-0.1,0-0.1,0-0.2-0.1c-0.1,0-0.1,0-0.1-0.1
		c-0.1,0-0.2,0-0.2,0c0,0,0,0,0,0c0,0,0,0,0.1,0c0,0,0.1,0,0.1,0c0,0,0,0,0.1,0c0,0,0,0,0,0c0,0-0.1-0.1-0.1-0.1c0,0,0,0,0.1,0
		c0,0,0,0,0,0c0,0.1,0.1,0.1,0.1,0.1c0.1,0,0.2,0,0.3,0.1c0.1,0,0.2,0,0.3,0.1c0.1,0.1,0.2,0,0.3,0c0,0,0.1,0,0.1,0c0,0,0,0,0.1,0
		c0,0,0.1,0,0.1,0.1c0.1,0,0.1,0,0.2,0.1c0.1,0,0.2,0,0.3-0.1c0,0,0,0,0,0c0,0,0,0,0-0.1c0,0,0,0,0-0.1c0-0.1,0-0.1,0.1-0.1
		C22.9,38.8,22.9,38.8,23,38.8c-0.1-0.1-0.1-0.2,0-0.2c0,0,0-0.1,0-0.1c0,0,0,0,0,0c0-0.1,0-0.1,0-0.2c0-0.1,0-0.1,0-0.2
		c0,0,0-0.1,0-0.1c0,0,0.1-0.1,0.1-0.1c0,0,0,0,0,0c0-0.1-0.1-0.1,0-0.2c0-0.1,0-0.1,0-0.2c0,0,0,0,0-0.1c0,0-0.1-0.1-0.1-0.1v0
		c0,0,0-0.1,0-0.1c0-0.1-0.1,0-0.2,0c-0.1,0-0.1,0-0.2,0.1c0,0-0.1,0-0.1,0c0,0,0,0.1,0,0.1c0,0,0,0,0,0.1c0,0.1,0,0.1-0.1,0.2
		c-0.1,0-0.1,0-0.2,0c0,0,0,0.1-0.1,0.1c-0.1,0-0.2,0-0.3-0.1c0,0,0,0,0,0c0,0,0.1,0,0.1-0.1c0-0.1,0.1,0,0.1,0c0.1,0,0.1,0,0.2,0
		c0.1,0,0.1,0,0.2-0.1c0.1,0,0-0.1,0.1-0.2c0,0,0,0,0,0c0,0,0-0.1,0.1-0.1c0.1,0,0.1,0,0.2,0c0.1,0,0.1-0.1,0.2-0.2c0,0,0-0.1,0-0.1
		c0-0.1,0.1-0.1,0.1-0.1c0,0,0,0,0,0c0,0,0-0.1,0-0.1c0.1-0.1,0.1-0.1,0.1-0.2c0-0.1,0-0.1,0-0.2c0,0,0-0.1,0-0.1c0,0,0,0,0,0
		c0,0,0,0.1,0,0.1c0,0,0,0.1,0,0.1c0,0,0,0,0,0.1c0,0,0.1,0,0.1,0c0,0,0.1,0,0.1,0c0,0,0.1,0,0.1,0c0,0,0,0,0-0.1c0,0,0,0,0,0
		c0,0,0-0.1,0-0.1c0,0,0.1,0,0.1,0c0.1,0.1,0.2,0.1,0.2,0c0.1,0,0.2-0.1,0.2-0.1c0.1,0,0.2,0,0.3-0.1c0.1,0,0.2,0,0.3,0l0,0
		c0-0.1,0-0.1-0.1-0.2l0-0.1c0,0,0,0,0,0c-0.1-0.1-0.1-0.1-0.2-0.2c0,0-0.1,0-0.1-0.1c0-0.1-0.1,0-0.2-0.1c0,0-0.1-0.1-0.1-0.1
		c0,0,0-0.1,0-0.1c0-0.1-0.1-0.1-0.1-0.2c0,0,0-0.1-0.1-0.1c0,0,0,0,0-0.1c0,0-0.1-0.1-0.1-0.1c0,0,0,0,0,0c0,0,0,0,0-0.1l0,0h1.6
		c0,1-0.2,1.9-0.6,2.8c-0.3,0.8-0.8,1.5-1.4,2.1c0,0,0-0.1,0-0.1c0,0,0-0.1,0-0.1c0,0,0-0.1,0-0.1c0,0,0,0,0-0.1c0,0,0,0,0,0
		c0-0.1,0-0.1-0.1-0.2c0-0.1,0-0.1,0-0.2c0,0,0-0.1-0.1-0.1c0,0-0.1,0-0.1,0C23.1,38.6,23.1,38.7,23,38.8C23,38.7,23,38.8,23,38.8
		 M20.9,36.9c0,0,0.1,0,0.1,0c0,0,0.1,0,0.1,0c0,0,0.1,0,0.1,0c0.1,0,0.1,0,0.1,0c0,0,0.1,0.1,0.1,0.1c0,0,0,0.1,0,0.1
		c0,0,0,0.1-0.1,0.1c-0.1,0-0.1,0-0.1-0.1c0,0,0-0.1-0.1-0.1c-0.1,0-0.2,0-0.3,0c0,0-0.1,0-0.1,0C20.9,37,20.9,37,20.9,36.9l-0.1,0
		c0,0,0-0.1,0-0.1c0,0,0.1-0.1,0.1-0.1l0,0C21,36.8,21,36.8,20.9,36.9C21,36.8,20.9,36.8,20.9,36.9 M21.5,31.3
		C21.5,31.3,21.5,31.2,21.5,31.3L21.5,31.3l0-0.1C21.6,31.2,21.6,31.2,21.5,31.3L21.5,31.3c0,0.1,0.1,0.1,0.1,0.1c0,0.1,0.1,0,0.2,0
		l0,0c0,0,0.1,0.1,0.1,0.1l0,0c0,0,0,0,0,0.1c0,0,0.1,0.1,0.1,0.1c0,0,0,0,0,0c0.1,0.1,0.1,0.2,0.2,0.2c0,0,0,0,0,0
		c0,0-0.1,0-0.1,0.1c0,0,0,0,0,0.1c0,0,0,0,0,0c0,0-0.1,0-0.1,0c0,0-0.1,0-0.1,0c0,0,0,0.1,0,0.1c0,0.1,0.1,0.1,0.1,0.2c0,0,0,0,0,0
		c-0.1,0-0.1,0-0.1-0.1c0-0.1-0.1-0.1-0.1-0.1c0,0,0,0,0.1,0c0,0,0,0,0.1-0.1c0,0,0,0,0,0c0,0,0-0.1-0.1-0.1c0-0.1-0.1-0.1-0.1-0.1
		c0,0,0,0,0,0c0,0,0,0,0.1-0.1c0-0.1,0-0.1,0.1-0.1c0,0,0.1-0.1,0.1-0.1c0-0.1-0.1-0.1-0.1-0.1l0,0c-0.1,0-0.2,0-0.2,0
		c0,0-0.1,0.1-0.1,0.1c-0.1,0-0.1,0.1-0.2,0.1c-0.1,0-0.1,0-0.2,0c0,0,0-0.1,0-0.1l0.2-0.2c0,0,0,0,0,0c0,0,0.1,0,0.1,0
		c0,0,0.1,0,0.1,0C21.5,31.4,21.5,31.3,21.5,31.3 M24.3,29c0,0,0.1,0.1,0.1,0.1c0,0,0,0,0,0c0,0,0,0,0-0.1c0,0,0,0,0,0c0,0,0,0,0,0
		c0.1,0,0.2,0,0.2,0c0,0,0,0.1,0,0.1c0,0.1,0.1,0.2,0.1,0.2c0.1,0.1,0.2,0.1,0.2,0.1c0.1,0,0.1,0,0.2,0.1c0,0,0.1,0.1,0.2,0.1
		c0,0,0,0,0.1,0c0,0,0.1,0,0.1,0c0.1,0,0.1,0.1,0.2,0.1c0,0,0,0.1,0.1,0.1c0,0,0,0,0,0c0.1,0.1,0.1,0.1,0.2,0.2c0,0,0,0.1,0.1,0.1
		c0,0.1,0.1,0.1,0.1,0.2c0,0,0.1,0,0.1,0.1c0,0,0,0.1,0,0.1c0.1,0,0.1,0,0.2,0c0,0,0.1-0.1,0.1-0.1c0.1,0,0.1,0,0.1-0.1l0.1-0.1
		c0.3,0.6,0.4,1.2,0.6,1.8c0.2,0.7,0.2,1.3,0.3,2h-2.2c0-0.4,0-0.7-0.1-1.1l0,0c0-0.1,0.1-0.1,0.1-0.2c0,0,0.1-0.1,0.1-0.2
		c0,0,0-0.1,0-0.2c0,0,0-0.1,0-0.1c0,0,0-0.1-0.1-0.1c-0.1,0-0.2,0.1-0.2,0.2c0,0,0,0.1-0.1,0.1c0,0,0,0.1,0,0.1c0,0,0,0.1,0,0.1
		c0,0,0,0.1,0,0.1c0,0,0,0.1,0,0.1c0,0.1-0.1,0.1-0.1,0.1c0,0,0,0,0,0h0c0,0,0,0,0,0c0,0,0,0.1,0,0.1c0,0,0,0.1-0.1,0.1
		c0,0.1,0,0.1,0,0.2c0,0,0,0.1,0,0.1c0,0,0,0,0,0.1c0.1,0,0.1,0,0.1,0l0,0c0,0.2,0,0.3,0,0.5h-1.5l0,0c0,0,0,0,0,0c0,0,0.1,0,0.1,0
		c0,0,0.1-0.1,0.1-0.1c0.1,0,0.2,0,0.2-0.2c0-0.1-0.1-0.1-0.1-0.2c0,0,0.1-0.1,0.1-0.1c0,0,0,0,0,0c0,0,0.1,0,0.1,0c0,0,0.1,0,0.1,0
		c0.1,0,0.2,0,0.3,0c0,0,0.1,0,0.1-0.1c0,0,0,0,0-0.1c0-0.1,0.1-0.1,0.1-0.2c0.1,0,0.2-0.1,0.2-0.2c0-0.1,0.1-0.1,0.1-0.2
		c0,0,0-0.1,0-0.1c0,0,0,0,0,0l0,0c0,0,0,0,0,0c0,0,0-0.1,0-0.1h0c0-0.1,0-0.1,0-0.1c0,0,0.1,0,0.1,0c0,0,0-0.1,0-0.1
		c0,0-0.1,0-0.2,0c0,0,0,0,0,0c0,0,0,0,0-0.1c0,0,0.1,0,0.1,0c0,0,0-0.1,0-0.1c0,0,0-0.1,0-0.1c0,0-0.1,0-0.1,0c0,0,0,0-0.1,0
		c-0.1-0.1,0-0.1,0-0.2c0,0,0-0.1,0-0.1c0,0,0-0.1-0.1-0.1c0-0.1,0-0.1,0-0.1c0,0,0,0,0,0c0,0,0-0.1,0-0.1c0,0,0-0.1,0-0.1
		c0-0.1-0.1-0.1-0.1-0.2c0,0,0,0-0.1,0c0,0-0.1,0-0.1-0.1l-0.1-0.2c0,0,0-0.1,0-0.1c0,0,0.1-0.1,0.1-0.1c0,0,0-0.1,0-0.1
		c0,0-0.1,0-0.1,0c0,0-0.1,0-0.1,0.1c0,0,0,0-0.1,0c0,0,0.1-0.1,0.1-0.1c0,0,0-0.1,0-0.1c0,0,0-0.1-0.1-0.1c0,0-0.1,0-0.1,0
		c0,0-0.1,0-0.1-0.1c0,0,0-0.1,0-0.1c0,0-0.1-0.1-0.1-0.1c0-0.1,0-0.1,0-0.2c0-0.1-0.1,0-0.1-0.1c0-0.1-0.1-0.2-0.2-0.2
		c0,0-0.1-0.1-0.1-0.1c0,0,0,0,0,0c0,0-0.1-0.1-0.1-0.1c0,0,0-0.1,0-0.1c0,0,0-0.1,0-0.1c0,0-0.1,0-0.1-0.1l0,0l0.4-0.4l0,0.1
		c0.1,0,0.1,0.1,0.1,0.2C24.3,28.9,24.4,28.8,24.3,29C24.4,28.9,24.4,28.9,24.3,29C24.4,29,24.4,29,24.3,29C24.3,29,24.3,29,24.3,29
		 M25,26.9c0,0,0.1,0,0.2,0c0,0,0,0,0,0c0,0,0,0,0,0C25.1,27,25,27,25,26.9C24.9,26.9,25,26.9,25,26.9 M23.8,29.9
		C23.8,29.9,23.7,29.9,23.8,29.9c0,0.1,0,0.2,0.1,0.2c0,0,0,0,0,0h0c0.1,0.1,0.2,0.2,0.2,0.3c0.1,0.2,0.2,0.4,0.3,0.6
		c-0.1,0-0.2,0-0.2,0.1c0,0.1,0,0.1,0,0.2c0,0-0.1,0.1-0.1,0.1c0,0,0,0,0,0.1c0,0,0.1,0,0.1,0c0.1,0,0.1,0.1,0.2,0
		c0,0,0.1,0,0.1,0.1c0,0.1,0.1,0.1,0.1,0.1c0,0,0.1,0,0.1,0.1c0.1,0.3,0.2,0.5,0.3,0.8c0,0,0,0.1,0,0.1v0c0,0.1,0,0.1,0,0.2
		c-0.1,0-0.1,0.1-0.1,0.1c0,0,0,0.1-0.1,0.1c0,0.1-0.1,0.1-0.1,0.1c-0.1,0.1-0.1,0.1-0.2,0.2c-0.1,0-0.1,0-0.2,0c0,0-0.1,0-0.1,0
		c0-0.1,0-0.1,0-0.1c0-0.1,0-0.1,0.1-0.2c0,0,0.1-0.1,0.1-0.1c0,0,0-0.1,0-0.1c0,0,0.1,0,0.1-0.1c0,0,0-0.1-0.1-0.1c0,0-0.1,0-0.1,0
		c0,0-0.1-0.1-0.1-0.1c0,0,0,0,0,0c-0.1,0-0.2-0.1-0.2,0c0,0,0,0-0.1,0c-0.1,0-0.1,0.1-0.2,0.2c0,0,0,0-0.1,0.1
		c0,0.1-0.1,0.2-0.2,0.2c-0.1,0-0.1-0.1-0.1-0.1c0,0-0.1,0-0.1-0.1c0,0,0,0,0,0c0,0,0,0,0,0c0,0,0,0,0.1-0.1c0,0,0,0,0,0
		c0,0,0,0.1,0,0.1c0,0,0,0,0,0c0,0,0,0.1,0.1,0.1c0.1,0,0.1,0,0.2,0c0,0,0,0,0,0c0,0,0,0,0-0.1c-0.1,0-0.1-0.2-0.2-0.1
		c-0.1,0,0-0.1-0.1-0.1c0,0,0,0-0.1,0c0,0,0,0,0-0.1c0,0,0-0.1,0-0.2c0,0,0,0,0-0.1c-0.1-0.1-0.1-0.1-0.2-0.2c-0.1,0-0.2,0-0.2,0
		c0,0-0.1,0-0.1,0c0,0-0.1,0-0.1,0l-0.1,0c-0.1-0.2-0.2-0.3-0.4-0.5l0.1,0c0,0,0.1,0,0-0.1c0-0.1-0.2,0-0.2-0.1l0,0.1
		c-0.1-0.1-0.2-0.2-0.3-0.3l1.5-1.5C23.5,29.5,23.6,29.7,23.8,29.9 M18.2,23.9c0.1,0,0.2,0,0.2,0c0.1,0,0.2,0,0.2,0.1
		c0,0,0.1,0.1,0.1,0.1c0,0,0.1,0,0.1,0c0.1,0.1,0.1,0.1,0.2,0.2l0.1,0c0.1,0,0.1,0,0.2,0c0,0,0,0,0-0.1c0-0.1-0.1-0.1-0.1-0.1
		c-0.1,0-0.1-0.1-0.1-0.1c0,0,0,0,0,0c0,0,0,0,0-0.1c0-0.1-0.1-0.1-0.1-0.1c0,0,0-0.1-0.1-0.1c0,0,0,0,0,0c0,0,0,0,0,0
		c0,0,0,0,0.1,0c0.1,0,0.2,0.1,0.3,0.1c0.1,0,0.2,0,0.2-0.1c0.1,0,0.2,0,0.3-0.1c0,0,0.1,0,0.1,0c0.1,0,0.2,0,0.2,0c0,0,0.1,0,0.1,0
		c0,0,0,0,0,0c0,0,0,0,0,0l0.1,0c0,0,0.1,0,0.1,0c0-0.1-0.1-0.1-0.1-0.1c0,0-0.1,0-0.1-0.1c-0.1,0-0.1,0-0.1,0c0,0-0.1,0-0.1,0
		c-0.1,0-0.1,0-0.2,0c-0.1,0-0.1,0-0.2,0c0,0-0.1,0-0.1,0.1c-0.1,0-0.2,0.1-0.3,0.1c-0.1,0-0.1,0.1-0.2,0.1c0,0-0.1,0-0.1,0
		c0,0-0.1,0-0.1,0c0,0,0,0.1,0,0.1c0,0,0,0,0-0.1c0,0-0.1,0-0.1,0c-0.1,0-0.2,0.1-0.3,0.1c0,0-0.1,0-0.1,0.1c0,0-0.1,0-0.1,0l0,0
		c0,0-0.1,0.1-0.1,0.1V22c1.6,0,3.2,0.4,4.6,1c0.7,0.3,1.5,0.7,2.1,1.1c0.6,0.4,1.2,0.9,1.7,1.4l-1.3,1.3l0,0c0,0,0,0,0,0
		c0,0,0-0.1,0-0.1c-0.1,0-0.1-0.1-0.1-0.1c-0.1,0-0.1,0-0.2-0.1c0,0,0,0,0-0.1c0-0.1,0-0.1,0-0.2c0,0,0-0.1,0-0.1
		c-0.1-0.1-0.2-0.1-0.2-0.3c0-0.1-0.1-0.1-0.1-0.2c-0.1,0-0.2-0.1-0.2-0.1c-0.1,0-0.1,0-0.1-0.1c-0.1-0.1-0.1-0.1-0.1-0.2
		c0,0-0.1-0.1-0.2,0c-0.1,0-0.1,0-0.2,0c-0.1,0-0.3-0.1-0.4-0.1c-0.1,0.1-0.2,0-0.3,0.1c0,0-0.1,0-0.1,0v0c-0.7-0.4-1.4-0.7-2.2-0.9
		c-0.8-0.2-1.6-0.3-2.4-0.3V23.9z M18.2,25.6L18.2,25.6L18.2,25.6c0.1-0.1,0.2-0.1,0.2-0.1c0,0,0-0.1,0-0.1c0,0,0,0,0,0
		c-0.1,0-0.1,0-0.1-0.1l0,0v-0.8c0.8,0,1.6,0.1,2.3,0.3c0.6,0.2,1.3,0.4,1.8,0.7l-0.1,0c0,0.1,0,0.1,0,0.1c0,0,0,0-0.1,0
		c0,0,0,0,0,0.1c0,0,0,0.1,0,0.1c0,0,0,0,0,0c0,0,0,0,0-0.1c0,0,0,0,0,0.1c0,0,0.1,0,0.1,0.1c0,0.1,0.1,0.1,0.2,0.1
		c0.1,0.1,0,0.1,0.1,0.2c0,0.1,0,0.1,0,0.2c0,0.1,0,0.1,0,0.2c0,0.1,0.1,0.1,0.1,0.1c0,0,0.1,0,0.1,0.1c0,0,0,0.1,0,0.1
		c0,0.1,0,0.1,0,0.2c0,0,0,0.1,0,0.1c0,0,0,0.1,0.1,0.1c0,0,0.1,0.1,0.1,0.1c0,0,0,0,0,0.1c0,0.1,0,0.2,0,0.2c0,0,0,0,0.1,0.1
		c0.1,0,0.2,0,0.2-0.1l0.1,0c0.1,0,0.2-0.1,0.3-0.1c0,0,0.1,0.1,0.1,0.1c0.1,0.1,0.2,0.2,0.2,0.3c0,0,0,0.1,0,0.1l0,0l-0.5,0.5l0,0
		c0,0-0.1,0-0.1-0.1c0,0,0-0.1,0-0.1c0,0,0.1,0,0.1,0c0,0,0,0,0-0.1c0,0,0-0.1-0.1-0.1c0,0,0,0-0.1,0.1c0,0,0,0.1,0,0.1h0
		c0-0.1,0-0.1-0.1-0.2c0,0,0,0,0-0.1c0,0,0,0,0,0c0,0,0,0,0-0.1c0-0.1,0-0.1-0.1-0.2c-0.1-0.1-0.1-0.1-0.2-0.2c0,0,0,0,0,0
		c0,0-0.1,0-0.1,0c-0.1,0-0.1-0.1-0.1-0.1c0,0,0-0.1-0.1-0.1c0-0.1-0.1-0.1-0.1-0.2c-0.1,0-0.1-0.1-0.1-0.1c0-0.1-0.1-0.1-0.1-0.1
		c0,0,0,0-0.1,0c0,0-0.1,0-0.1,0.1c0,0.1,0.1,0.1,0.1,0.2c0,0.1,0.1,0.1,0.1,0.2c0,0.1,0.1,0.1,0.1,0.1c0,0,0,0,0,0c0,0,0,0-0.1,0
		c0,0,0,0-0.1,0c-0.1,0,0-0.1-0.1-0.1c0,0-0.1,0-0.1-0.1c0,0,0,0,0,0l0,0c0-0.1-0.1-0.1-0.1-0.1c0,0-0.1,0-0.1,0c0,0,0,0-0.1,0.1
		c0,0,0.1,0,0.1,0.1c0,0,0,0,0.1,0c0,0,0,0,0,0c0,0-0.1,0-0.1,0c-0.1,0-0.1,0-0.1,0c0,0,0,0.1-0.1,0.1c0,0,0-0.1-0.1-0.1
		c0,0,0,0,0-0.1c-0.1,0-0.1,0.1-0.1,0.1c0,0,0,0,0,0c-0.3-0.2-0.6-0.3-0.9-0.4c-0.8-0.3-1.5-0.4-2.3-0.4V25.6z M21.8,27.6
		c0,0,0.1,0,0.1,0c0,0,0.1,0,0.1,0c0.1,0,0.1,0.1,0.1,0.1c0,0,0,0,0,0c0,0,0,0,0-0.1c0,0,0,0,0.1,0.1c0,0,0,0.1,0.1,0.1
		c0.1,0,0.1,0.1,0.1,0.1c0,0,0,0.1,0,0.1l0,0c0,0,0,0,0,0C22.3,28,22,27.8,21.8,27.6C21.7,27.7,21.8,27.7,21.8,27.6
		C21.8,27.6,21.8,27.6,21.8,27.6 M18.2,27.1c0.8,0,1.5,0.2,2.2,0.4c0.8,0.3,1.5,0.6,2.1,1.1c0.2,0.2,0.4,0.3,0.6,0.5l-1.5,1.5
		c-0.5-0.4-1-0.7-1.5-1c-0.6-0.2-1.2-0.4-1.8-0.4V27.1z M18.2,29.6c0.6,0,1.1,0.2,1.7,0.4c0.5,0.2,1,0.5,1.4,0.9L21.2,31l0,0
		c0,0,0-0.1-0.1,0c0,0,0,0-0.1,0c0,0,0,0,0-0.1c0,0,0.1,0,0-0.1c0,0,0,0-0.1,0c-0.1,0-0.1,0-0.1,0.1c-0.1,0-0.1,0.1-0.2,0.2
		c0,0,0,0-0.1,0c0,0-0.1,0.1-0.1,0.1c0,0,0,0,0,0.1c0,0,0,0,0.1,0c0,0,0,0.1,0.1,0c0.1,0,0.1-0.1,0.2-0.1c0,0,0,0,0,0c0,0,0,0,0,0
		l-0.4,0.4c0,0-0.1,0-0.1,0c0,0-0.1,0-0.1,0.1c-0.1,0-0.1,0.1-0.2,0.1c0,0-0.1,0.1-0.1,0.1c0,0,0,0,0,0c0,0-0.1,0,0,0.1
		c0,0,0,0,0,0.1c0,0,0,0,0,0.1c0,0-0.1,0-0.1,0c0,0-0.1,0-0.1,0c0,0-0.1,0-0.2,0c0-0.1-0.1-0.1-0.1-0.1c-0.1,0-0.1-0.1-0.1-0.1
		c-0.1,0-0.1-0.1-0.2-0.1C19.1,32,19,32,18.9,32.1c-0.1,0-0.1,0-0.2,0c0,0,0,0,0,0c0,0,0.1,0,0.1-0.1c0,0,0,0,0,0c0,0,0,0,0,0
		c0.1-0.1,0.1-0.1,0.2-0.1c0,0,0.1-0.1,0.2-0.1c0.1,0,0-0.1,0.1-0.2c0,0,0-0.1,0-0.1c0,0,0,0,0,0c0,0,0,0-0.1,0
		c-0.1,0-0.1,0-0.2,0.1c0,0,0,0,0,0c-0.1,0.1-0.1,0-0.2,0.1c-0.1,0-0.1,0.1-0.2,0.2c0,0,0,0,0,0.1c0,0,0,0,0,0
		c-0.2-0.1-0.4-0.1-0.5-0.1V29.6z M20,38.1C20,38.1,20,38.1,20,38.1c0,0.1-0.1,0.1-0.1,0.1c0,0,0,0,0,0C19.8,38.1,19.9,38.1,20,38.1
		c-0.1,0-0.1-0.1-0.1-0.1c0,0,0.1-0.1,0.1-0.1c0,0,0,0,0,0c0-0.1-0.1-0.1,0-0.1c0,0,0-0.1,0.1-0.1c0,0,0,0,0,0c0,0,0,0,0,0
		c0,0,0.1,0,0.1,0c0,0,0.1-0.1,0.1-0.1c0,0,0.1,0,0.1,0c0,0,0.1,0,0.1,0c0.1,0,0.1,0,0.2,0c0,0,0,0,0,0c0,0,0,0.1,0,0.1
		c-0.1,0.1-0.2,0.1-0.2,0.1c-0.1,0-0.1,0.1-0.1,0.1c0,0-0.1,0-0.1,0C20.1,37.9,20,37.9,20,38.1C20,38,19.9,38,20,38.1 M20.2,37.4
		C20.2,37.4,20.2,37.4,20.2,37.4c0.1-0.1,0.1,0,0.1,0C20.3,37.4,20.3,37.5,20.2,37.4C20.2,37.5,20.2,37.5,20.2,37.4
		C20.2,37.5,20.2,37.4,20.2,37.4 M18,32.2C18,32.3,18,32.3,18,32.2c0.1,0,0.1,0,0.1,0c0,0,0,0,0,0c0,0,0,0,0,0.1L18,32.2
		c-0.1,0-0.1,0-0.2,0c0,0,0,0-0.1,0c0,0-0.1,0-0.1,0.1c0,0,0,0.1,0,0.1c0,0,0,0,0,0v0c0,0.1,0.1,0.1,0.1,0.1c0,0.1,0.1,0,0.1,0.1
		c0,0,0,0.1,0.1,0.1c0,0,0.1,0,0.1,0c0.1,0,0.1,0.1,0.2,0.1c0,0,0.1,0,0.1,0c0.1,0,0.1,0.1,0.1,0.1c0,0,0.1,0.1,0.1,0.1
		c0.1,0.1,0.1,0.1,0.1,0.2l0.1,0.1c0.1,0,0.1,0,0.2,0c0,0,0-0.1,0.1,0c0,0.1-0.1,0.1-0.1,0.2c0,0,0,0,0,0.1c0,0,0,0,0,0
		c0,0,0,0,0,0.1c0,0,0.1,0.1,0.1,0.1c0,0,0,0.1,0,0.1c0,0.1-0.2,0-0.1,0.1c0,0,0,0,0,0c0,0.1,0,0.1-0.1,0.1c0,0,0,0.1,0,0.1
		c0,0,0,0,0.1,0c0,0,0,0,0,0c0,0,0.1,0,0.1,0.1c0,0.1,0.1,0.2,0.1,0.2c0,0,0,0.1,0.1,0.1c0,0,0,0,0.1,0c0,0,0,0,0-0.1c0,0,0,0,0,0
		c0,0,0,0,0,0c0,0,0,0.1,0,0.1c0,0,0,0,0,0c0,0-0.1,0-0.1,0.1c0,0,0.1,0,0.1,0c0.1,0,0.1,0,0.2-0.1c0.1,0,0.1,0,0.2-0.1c0,0,0,0,0,0
		c0,0,0,0,0,0h0c0,0,0,0,0,0c0,0-0.1,0-0.1,0.1c0,0,0,0,0,0c0,0,0,0,0.1,0c0,0,0,0-0.1,0c-0.1,0-0.2,0-0.3,0c0,0-0.1,0-0.1,0
		c0,0-0.1,0-0.1,0c0,0,0,0,0,0c0,0.1,0.1,0.2,0.2,0.2c0,0,0,0,0,0.1c0,0,0,0.1-0.1,0.1c0,0,0,0.1,0,0.1c0,0,0,0.1,0,0.1
		c0,0-0.1,0.1-0.1,0.2c0,0,0,0.1,0,0.1c0,0,0,0,0,0c0,0-0.1,0-0.1,0c-0.1,0-0.2,0-0.3,0c0,0,0,0,0,0c0,0,0,0-0.1,0c0,0,0,0-0.1,0
		c-0.1,0-0.1,0.1-0.1,0.1c0,0,0,0.1-0.1,0.1c0,0-0.1,0.1-0.1,0.1c0,0,0,0.1,0,0.1c0,0.1,0,0.1,0,0.2c0,0,0,0.1,0,0.1
		c0,0.1-0.1,0.1-0.1,0.1c0,0,0,0.1,0,0.1c0,0,0,0,0,0c-0.1,0-0.1,0-0.2,0c-0.4,0-0.9-0.1-1.3-0.4c-0.1-0.1-0.2-0.2-0.3-0.3l0.1,0
		c0,0,0.1-0.1,0.2-0.1c0,0,0.1-0.1,0.1-0.1c0.1,0,0.2,0,0.3,0c0.1,0,0.1,0,0.2,0c0.1,0,0.2,0,0.2-0.1c0,0,0,0,0,0c0,0,0.1,0,0-0.1
		c0,0,0,0,0,0c0,0,0,0,0,0c0,0,0,0,0,0c0,0,0.1,0,0.1,0c0,0,0,0,0-0.1c0,0,0-0.1,0-0.1c0,0-0.1,0,0-0.1c0,0,0.1,0,0.1-0.1
		c0,0,0,0,0.1-0.1c0-0.1,0.1-0.1,0.1-0.2c0,0,0.1-0.1,0-0.2c0,0-0.1,0-0.1-0.1c0,0,0.1,0,0.1-0.1c0,0,0-0.1,0-0.1
		c-0.1-0.1-0.2-0.1-0.3-0.1c0,0,0,0-0.1,0c0,0-0.1,0-0.2,0c0,0-0.1,0-0.1,0c0,0-0.1,0-0.1,0c-0.1,0-0.1,0-0.2,0c0,0-0.1,0,0,0.1
		c0,0,0,0.1,0,0.1c0,0,0,0.1,0,0.1c0,0.1,0,0.1,0,0.2c0,0,0,0.1,0,0.1c0,0,0,0,0,0c0,0,0-0.1,0-0.1c0,0,0,0,0,0
		c-0.1,0-0.1,0-0.2,0.1c0,0-0.1,0.1-0.1,0.1c0,0.1,0,0.1-0.1,0.1l-0.1,0.1c0,0.1-0.1,0.1-0.1,0.2c0,0,0,0,0,0.1c0,0,0,0,0,0.1l0,0
		l0,0c-0.1-0.1-0.2-0.3-0.3-0.4l0,0l0-0.1l0.1-0.1c0,0,0.1,0,0.1,0c0,0,0-0.1,0.1-0.1c0,0,0,0,0,0c0,0,0,0,0,0c0,0,0,0,0,0
		c0,0,0,0,0,0c0,0,0,0,0,0c0,0,0,0,0,0c0,0,0.1,0,0.1,0c0,0,0.1-0.1,0.1-0.1c0,0,0,0,0,0c0,0,0-0.1,0-0.1c0-0.1,0-0.1,0.1-0.1
		c0-0.1,0.1-0.1,0.1-0.2c0,0,0-0.1,0.1-0.1c0,0,0,0,0,0c0,0,0,0-0.1,0c0,0,0,0,0,0c0,0-0.1,0-0.1-0.1c0-0.1,0-0.2,0-0.3
		c0,0,0.1-0.1,0-0.1c0,0-0.1-0.1-0.1-0.1c0,0,0,0-0.1,0h0l0,0.1c0,0,0,0.1,0,0.1c0,0,0.1,0,0.1,0c0,0,0,0,0.1,0c0,0,0,0,0,0
		c-0.1,0-0.1,0-0.2,0.1c0,0,0,0.1,0,0.1c0,0,0,0.1,0,0.1c0,0,0,0,0,0c0,0.1,0,0.1-0.1,0.1c0,0-0.1,0-0.1,0.1c0,0,0,0,0,0
		c0,0,0,0,0,0c0,0,0,0,0,0c0,0,0,0,0,0c0,0,0,0,0,0c0,0,0-0.1-0.1-0.1c0,0-0.1,0-0.2,0c0,0,0,0.1-0.1,0.1c0,0-0.1,0-0.1,0
		c0,0-0.1,0-0.1,0c0,0-0.1,0-0.1,0c-0.1,0-0.1,0-0.2,0c0,0-0.1,0-0.1,0c0,0,0,0,0-0.1c0,0,0,0-0.1,0c0,0-0.1,0-0.1,0c0,0,0,0,0,0.1
		l0,0c-0.1,0-0.1,0-0.2,0c0,0,0,0,0-0.1c0.1-0.1,0.2,0,0.2-0.1c0,0,0,0,0,0c0,0,0,0,0,0l0-0.1c0-0.1,0.1-0.2,0.1-0.2
		c0,0,0.1,0,0.1-0.1l0,0c0.1,0,0.1,0,0.2,0c0,0,0.1,0.1,0.1,0.1c0,0,0.1,0,0.1,0l0-0.1c0,0-0.1-0.1,0-0.1c0.1,0,0.1,0.1,0.1,0.1
		c0,0,0,0.1,0,0.1c0,0-0.1,0-0.1,0c0,0,0,0.1,0,0.1c0,0-0.1,0.1-0.1,0.1c0,0,0,0,0,0.1c0.1,0,0.1,0,0.2,0c0,0,0-0.1,0-0.1
		c0-0.1-0.1-0.1,0-0.2c0.1,0,0,0.1,0.1,0.1c0,0.1,0,0.1,0.1,0.2c0,0,0,0,0.1,0c0,0,0,0,0.1,0c0,0,0.1,0,0.1,0c0,0,0,0,0,0
		c0,0,0-0.1,0-0.2l0,0l0.1,0c0-0.1,0.1-0.1,0-0.2c0,0,0-0.1,0-0.1c0,0,0,0,0-0.1c0,0,0,0,0.1,0c0.1,0,0.1,0,0.2,0c0,0,0.1,0,0.1,0
		c0,0,0.1-0.1,0.1-0.1c0-0.1-0.1,0-0.1-0.1c-0.1,0-0.2-0.1-0.2,0c0,0,0,0.1-0.1,0.1c0,0,0,0,0,0c0,0,0-0.1,0-0.1
		c0,0,0.1-0.1,0.1-0.1c0,0,0.1-0.1,0.1-0.1c0,0,0.1,0,0.1,0c0.1,0,0-0.1,0.1-0.2c0,0,0-0.1,0.1-0.1c0,0,0.1,0,0.2,0
		c0.1,0,0.2-0.1,0.3-0.1c0,0,0.1,0,0.1,0c0-0.1,0.1-0.1,0.1-0.2c0,0,0,0,0.1-0.1c0,0,0-0.1,0-0.1c0,0-0.1-0.1,0-0.1c0,0,0-0.1,0-0.1
		c0,0,0-0.1,0-0.1c0-0.1,0-0.1,0-0.1l0.1,0c0,0,0,0,0,0c0,0,0,0,0,0c0,0-0.1,0-0.2,0c0,0,0,0,0,0c0,0,0,0,0,0c0,0,0,0,0,0
		c0,0,0,0,0,0c0,0,0,0,0,0c0,0,0-0.1,0-0.1c0.2,0,0.3-0.1,0.5-0.1C17.9,32.1,18,32.2,18,32.2 M19,37.1C19,37.1,19,37.1,19,37.1
		c0,0.1-0.1,0.1-0.1,0.1c-0.1,0,0,0.1-0.1,0.1c-0.1,0-0.1,0-0.1,0c0,0-0.1,0-0.1,0c0,0,0,0,0-0.1c-0.1,0-0.1-0.1-0.1-0.2
		c0,0,0,0-0.1,0l0,0c0,0,0-0.1,0-0.1c0,0,0,0,0.1,0c0,0,0,0.1,0.1,0.1c0,0,0,0.1,0,0.1c0,0,0,0.1,0.1,0.1c0,0,0.1,0,0.1,0
		c0.1,0,0-0.1,0.1-0.1c0,0,0-0.1,0-0.1c0,0,0-0.1,0-0.1c0,0,0,0,0,0c0,0,0,0,0-0.1c0,0,0-0.1,0-0.1c0-0.1,0-0.2,0-0.2
		c0,0,0-0.1,0-0.1c0,0,0.1,0,0.1,0.1c0,0,0,0.1,0,0.1c0,0,0,0.1,0,0.1c0,0,0,0.1,0,0.1c0,0,0.1,0,0.1,0c0,0,0,0,0,0c0,0,0,0-0.1,0
		c0,0-0.1,0-0.1,0C18.9,37,19,37,19,37.1 M18.3,37.5C18.3,37.5,18.3,37.5,18.3,37.5C18.3,37.5,18.3,37.5,18.3,37.5
		c-0.1,0-0.1,0.1-0.1,0c0,0,0-0.1,0-0.1c0,0,0,0,0,0c0,0,0,0,0,0c0,0,0-0.1,0-0.1c0,0,0,0,0,0c0.1,0,0.2,0,0.3,0c0,0,0,0.1,0,0.1
		C18.3,37.4,18.3,37.4,18.3,37.5C18.3,37.4,18.3,37.4,18.3,37.5C18.3,37.4,18.3,37.4,18.3,37.5 M12.2,39.3
		C12.2,39.3,12.2,39.3,12.2,39.3c0.1-0.1,0.2-0.1,0.2-0.1c0,0,0.1,0,0.1-0.1c0,0,0-0.1,0-0.1c0,0,0-0.1,0-0.1c0-0.1,0-0.2,0-0.2
		c0,0,0,0,0,0c0,0,0-0.1,0-0.1c0-0.1-0.1-0.1-0.1-0.2l0,0c0-0.1-0.1-0.1-0.1-0.2c-0.1-0.1,0-0.2,0-0.2c0-0.1,0-0.1,0-0.2
		c0,0,0,0,0-0.1c0,0,0,0,0,0c0-0.1,0.1,0,0.2-0.1c0,0,0,0,0-0.1c0,0,0.1,0,0.1,0c0,0,0,0,0,0c0,0,0,0,0,0c0,0-0.1,0-0.1,0
		c0,0,0-0.1-0.1-0.1c0,0,0,0,0,0c0,0,0,0,0,0c0,0,0,0,0,0c0,0,0,0,0,0c0,0,0,0,0,0c0,0,0,0,0-0.1c0,0,0-0.1,0.1-0.1c0,0,0-0.1,0-0.1
		c0,0,0,0,0,0c0,0,0,0-0.1-0.1c0,0,0,0,0-0.1c0,0,0-0.1,0-0.1c0,0,0,0,0,0c0,0,0,0,0,0c0,0,0,0,0-0.1c0,0-0.1,0-0.1-0.1
		c0,0,0,0,0-0.1c0,0,0,0,0-0.1c0,0,0,0,0,0c0-0.1,0-0.1,0-0.2c0,0,0-0.1-0.1-0.1c0,0,0,0,0,0c-0.1,0-0.1,0.1-0.2,0c0,0,0,0,0-0.1
		c0,0,0,0,0,0c0,0,0.1,0,0.1,0c0,0,0-0.1,0-0.1c-0.1-0.1-0.1-0.1-0.2-0.2c0,0,0-0.1,0-0.1c0,0,0-0.1-0.1-0.1c0,0-0.1,0-0.1-0.1
		c0,0,0,0,0,0c0,0,0,0,0-0.1c0-0.1,0-0.1,0-0.2c0-0.1-0.1-0.1-0.1-0.2c0-0.1,0-0.1,0-0.2c0,0,0.1-0.1,0.1-0.1c0.1,0,0.2,0,0.3,0
		c0,0,0.1-0.1,0.1-0.1c0,0,0,0,0-0.1c0-0.1,0-0.2,0-0.3c0,0,0,0,0,0c0,0,0.1,0,0.2,0c0.1,0,0.1,0,0.2,0l0.1-0.1c0,0,0-0.1,0-0.1l0,0
		h0.5l0,0c0,0,0,0.1,0.1,0.1c0,0,0,0,0,0c0,0,0.1,0,0.1,0c0,0,0,0.1-0.1,0.1c0,0,0,0.1,0,0.1c0,0,0,0.1-0.1,0.1c0,0-0.1,0-0.1,0
		c0,0-0.1,0.1-0.1,0.1c0,0-0.1,0-0.1,0c-0.1-0.1-0.1-0.2-0.3-0.2c0,0,0,0-0.1,0c0,0.1,0.1,0.1,0.1,0.2c0,0,0,0.1,0,0.1
		c0,0,0,0.1,0,0.1c0,0,0,0.1,0,0.1c0,0,0,0.1,0,0.1c0,0,0,0,0,0c0,0-0.1-0.1-0.1-0.1c0,0-0.1,0-0.1,0c0,0.1,0,0.1,0,0.2
		c0,0,0,0.1,0.1,0.1c0,0,0.1,0,0.1,0c0,0,0,0.1,0,0.1c0,0,0,0,0,0c0,0,0.1,0,0.1,0c0,0,0,0,0,0c0,0,0,0,0,0c0,0,0,0,0,0c0,0,0,0,0,0
		c0,0,0,0,0,0.1c0,0,0.1,0.1,0.1,0c0,0,0,0,0,0c0,0-0.1,0-0.1-0.1c0,0,0,0,0.1,0c0,0,0,0,0,0c0,0,0.1-0.1,0.1-0.1c0,0,0,0,0-0.1
		l-0.1,0c-0.1,0,0,0.1-0.1,0.1c0,0-0.1,0-0.1,0c0-0.1,0-0.2,0-0.3c0,0,0,0,0,0c0,0,0.1,0,0.1,0.1c0,0,0,0,0.1-0.1c0,0,0.1,0,0.1-0.1
		c0,0,0,0,0,0.1c0,0,0,0.1-0.1,0.1c0,0,0,0,0,0c0,0,0.1,0,0.1,0c0,0,0.1-0.1,0.1,0l0.1,0c0.2,0.8,0.6,1.6,1.2,2.3l-1.5,1.5
		c0,0,0,0,0,0c0,0,0,0-0.1,0c0,0,0,0-0.1,0c0,0-0.1,0-0.1,0c-0.1,0-0.2,0-0.2,0C12.1,39.4,12.2,39.4,12.2,39.3 M11.2,35
		c0,0.1-0.1,0.2-0.1,0.3c0,0-0.1,0.1,0,0.1c0,0,0,0.1,0,0.1c0,0,0,0.1,0,0.1c0,0,0.1,0,0.1,0.1c0,0.1,0,0.1-0.1,0.1
		c-0.1,0-0.2,0.1-0.2,0c0,0-0.1-0.1-0.1-0.1c0,0-0.1,0-0.1,0c-0.1-0.4-0.1-0.7-0.1-1.1h0.8l0,0c0,0.1,0,0.1,0,0.2
		C11.3,34.9,11.2,34.9,11.2,35 M9.4,36.7c0,0.1,0,0.2,0,0.2c0,0,0,0,0,0.1c0,0.1,0.1,0.1,0.1,0.2c0,0,0,0,0,0.1c0,0,0,0.1,0,0.1
		c0,0,0,0.1,0,0.1c-0.1,0-0.1,0.1-0.2,0.1l-0.1,0c0,0,0,0,0,0c0,0,0,0,0,0c-0.1,0-0.2,0-0.3,0c-0.1,0-0.1,0-0.2,0h0
		c-0.3-1-0.5-2-0.5-3h2.2c0,0.3,0,0.7,0.1,1l-0.1,0c-0.1,0-0.2,0-0.2,0.1c-0.1,0.1-0.1,0.2-0.2,0.3c0,0-0.1,0-0.1,0.1
		c0,0-0.1,0-0.1,0.1c0,0-0.1,0.1-0.1,0.1c0,0,0,0.1-0.1,0.1c0,0-0.1,0.1-0.1,0.1c0,0,0,0.1,0,0.1C9.4,36.6,9.4,36.6,9.4,36.7
		C9.4,36.6,9.4,36.6,9.4,36.7 M10.2,34.2H8c0-1.3,0.3-2.5,0.8-3.6c0.5-1.1,1.2-2.1,2-3l1.5,1.5c-0.7,0.7-1.2,1.5-1.6,2.3
		C10.4,32.3,10.2,33.3,10.2,34.2 M17.6,31.3C17.6,31.3,17.6,31.3,17.6,31.3c0.1,0,0.1-0.1,0.2-0.1c0,0.1,0.1,0,0.1,0.1l0,0v0.4
		c-0.2,0-0.5,0.1-0.7,0.1c0-0.1,0.1-0.2,0-0.2c0,0-0.1,0-0.1,0.1c0,0.1-0.1,0.1-0.1,0.2c0,0-0.1,0.1-0.1,0.2c0,0-0.1,0,0,0.1
		c0,0-0.1,0.1-0.1,0.1c0,0,0,0,0,0c0,0,0,0-0.1,0c0,0,0,0,0,0c0,0,0,0,0,0c0,0,0,0,0,0c-0.1,0,0,0.2-0.1,0.1c0,0,0,0-0.1,0
		c0,0-0.1,0.1-0.1,0h0l-1.5-1.5c0,0,0.1-0.1,0.1-0.1c0.8-0.7,1.9-1.1,3-1.2v1.6l0,0c0,0-0.1,0-0.1,0c0,0-0.1,0-0.1,0
		C17.5,31.2,17.5,31.3,17.6,31.3C17.5,31.3,17.5,31.3,17.6,31.3 M15.5,32.4c0,0-0.1,0-0.1-0.1c0,0-0.1,0-0.1,0c0,0,0,0-0.1,0
		c-0.1,0-0.1,0-0.2,0c0,0,0,0-0.1,0c0,0,0,0,0,0c0-0.1-0.1-0.1-0.2-0.1c0,0,0,0,0,0c0-0.1-0.1-0.1-0.2-0.1c-0.1,0-0.1-0.1-0.2-0.1
		c-0.1,0-0.2-0.1-0.4,0c0,0-0.1,0-0.1,0c-0.1,0-0.1,0.1-0.2,0.1c-0.1,0-0.1,0-0.2,0c0.2-0.4,0.5-0.7,0.8-1l1.3,1.3c0,0,0,0-0.1,0.1
		L15.5,32.4C15.6,32.5,15.6,32.5,15.5,32.4C15.5,32.5,15.6,32.5,15.5,32.4 M14.9,36c0,0,0.1,0.1,0.1,0.1c0,0,0,0,0,0
		C15,36.1,14.9,36,14.9,36C14.9,36,14.8,35.9,14.9,36C14.9,35.9,14.9,36,14.9,36 M14.8,35.8C14.8,35.8,14.8,35.8,14.8,35.8
		L14.8,35.8C14.8,35.7,14.8,35.8,14.8,35.8C14.8,35.8,14.8,35.8,14.8,35.8 M13.9,35.5C13.8,35.5,13.8,35.5,13.9,35.5
		C13.8,35.5,13.8,35.5,13.9,35.5C13.8,35.5,13.8,35.5,13.9,35.5L13.9,35.5C13.9,35.5,13.9,35.5,13.9,35.5 M12.7,32.6
		c0,0,0.1,0.1,0.1,0.1l0.3-0.1c0,0,0,0,0,0l-0.1,0c-0.1,0-0.1,0-0.2,0c0,0-0.1,0-0.1,0.1c0,0-0.1,0-0.1,0c-0.1,0-0.1,0.1-0.2,0
		c0,0-0.1,0-0.2,0c0,0,0,0-0.1,0.1c0,0.1-0.1,0.1-0.1,0.2c0,0,0,0.1,0,0.1c0,0-0.1,0.1-0.1,0.1c0,0.1,0,0.1,0,0.1
		c0,0-0.1,0.1-0.1,0.2c0,0,0,0.1,0,0.1c0,0,0,0,0,0c0,0,0,0.1,0,0.1c0,0.1-0.1,0.2-0.1,0.2c0,0,0,0,0,0c0,0,0,0-0.1,0.1l0,0h-1
		c0-0.9,0.2-1.8,0.6-2.6c0.4-0.8,0.9-1.6,1.5-2.2l1.5,1.5c-0.4,0.4-0.7,0.8-0.9,1.3l-0.1,0c0,0,0,0,0,0c0,0-0.1,0.1-0.1,0.1
		c0,0-0.1,0-0.1,0C12.8,32.4,12.8,32.5,12.7,32.6C12.7,32.5,12.7,32.5,12.7,32.6 M12.8,34.2L12.8,34.2l-0.7,0l0,0c0,0,0-0.1,0-0.1
		c0,0,0,0,0-0.1c0,0,0-0.1,0-0.1c0-0.1,0.1-0.1,0.1-0.1c0.1,0,0.1-0.1,0.2-0.1c0.1,0,0.1,0,0.2,0c0.1,0,0.1,0,0.2,0.1
		c0,0,0.1,0.1,0.1,0.1c0,0,0,0.1,0.1,0.2C12.8,34.1,12.8,34.1,12.8,34.2C12.9,34.2,12.8,34.2,12.8,34.2 M14.5,30.5
		c0,0-0.1,0.1-0.1,0.1l-1.5-1.5c0.6-0.6,1.4-1.1,2.2-1.4c0.9-0.4,1.8-0.6,2.7-0.6v2.1C16.6,29.3,15.5,29.7,14.5,30.5 M15,27.3
		c-0.9,0.4-1.7,0.9-2.3,1.5l-1.5-1.5c0.9-0.8,1.9-1.5,3-2c1.2-0.5,2.4-0.7,3.7-0.8v2.1C16.8,26.7,15.9,26.9,15,27.3 M11,41l-0.2,0.2
		c-0.1-0.1-0.2-0.2-0.3-0.3l0,0v0l0.1,0c0.1-0.1,0.1-0.1,0.2-0.1C10.9,40.9,10.9,41,11,41L11,41z M12.7,35.5
		C12.7,35.5,12.6,35.5,12.7,35.5c-0.1,0-0.2,0-0.2,0l0,0c0-0.1,0-0.1,0-0.2c0,0,0-0.1,0-0.1c0,0,0,0,0,0c0,0,0.1,0.1,0.1,0.1
		c0,0,0,0,0.1,0C12.7,35.4,12.7,35.4,12.7,35.5C12.7,35.5,12.7,35.5,12.7,35.5 M13.2,35.5C13.2,35.5,13.2,35.4,13.2,35.5
		C13.2,35.4,13.2,35.4,13.2,35.5l0.1,0c0.1,0,0.1,0.1,0.1,0.1c0.1,0,0.1,0,0.2,0c0,0,0,0,0,0c0,0,0.1,0,0.1,0c0,0,0.1,0,0.1,0
		c0.1,0,0.1,0.1,0.1,0.2c0,0.1,0.1,0.1,0.1,0.1c0,0,0,0,0,0c0,0,0-0.1,0-0.1c0,0,0,0,0,0c0.1,0,0.1,0.1,0.1,0.1c0,0,0,0.1,0.1,0.1
		c0,0,0.1,0,0.1,0.1v0c0,0,0,0,0,0c0,0,0,0,0,0c0,0,0,0-0.1,0c0,0,0,0,0,0c0,0,0,0,0,0c0,0.1,0.1,0.1,0.1,0.1c0,0.1,0.1,0.1,0.1,0.1
		c0,0,0,0,0.1,0c0,0,0,0.1,0.1,0.1c0,0,0.1,0,0.1,0c0-0.1,0-0.1,0-0.2c0,0,0,0,0,0c0,0,0,0,0,0c0,0,0-0.1,0-0.1c0,0,0,0,0,0
		c0,0,0-0.1,0-0.1c0,0,0,0,0.1,0c0,0,0,0,0,0c0,0,0,0.1,0,0.1c0,0,0,0,0,0.1c0,0,0,0,0,0.1c0,0,0,0.1,0,0.1c0,0,0,0.1,0,0.1
		c0,0,0,0,0,0.1c0,0,0,0,0.1,0.1c0,0,0,0,0,0.1c0,0,0,0,0,0.1c0,0,0.1,0,0.1,0c0.1,0,0.1-0.1,0.1-0.1c0,0,0,0,0,0c0,0,0-0.1,0-0.2
		c0-0.1,0.1-0.1,0.1-0.1c0,0,0.1,0,0.1-0.1c0-0.1,0-0.2,0.1-0.2c0,0,0,0,0,0c0,0,0,0,0.1,0l0,0c0.1,0.1,0.2,0.2,0.2,0.3l-1.5,1.5
		C13.8,37.1,13.4,36.3,13.2,35.5 M15,36.2c0,0,0.1,0,0.1,0c0,0,0.1,0,0.1,0c0,0,0,0,0.1,0c0,0,0,0,0,0c-0.1,0,0,0.1-0.1,0.1
		c0,0,0,0-0.1,0C15.2,36.2,15.1,36.2,15,36.2C15.1,36.2,15,36.2,15,36.2 M11,24.2c0.7-0.4,1.4-0.8,2.1-1.1c1.5-0.6,3-0.9,4.7-1v2.1
		c-1.3,0-2.6,0.3-3.8,0.8c-1.2,0.5-2.2,1.2-3.2,2.1l-1.5-1.5C9.8,25,10.4,24.6,11,24.2 M6.5,29.6c0.3-0.7,0.7-1.4,1.2-2.1
		c0.4-0.6,0.9-1.2,1.4-1.7l1.5,1.5c-0.9,0.9-1.6,2-2.1,3.1c-0.5,1.2-0.8,2.5-0.8,3.8H5.5C5.5,32.6,5.9,31.1,6.5,29.6 M7.6,41.4
		c-0.5-0.7-0.8-1.4-1.2-2.1c-0.6-1.5-1-3.1-1-4.7h2.1c0,1,0.2,2,0.5,3l-0.1,0c0,0-0.1,0-0.1,0c0,0,0,0,0,0c0,0,0-0.1-0.1-0.1
		c0-0.1,0-0.1-0.1-0.1c-0.1,0-0.1,0-0.1,0c0,0-0.1,0-0.2,0c0,0,0,0,0,0.1c0,0,0,0,0,0.1c0,0,0,0,0,0c0,0,0,0,0,0c0,0,0,0-0.1,0
		c-0.1,0-0.1,0-0.2,0.1c0,0,0,0-0.1,0c0,0,0-0.1-0.1-0.1c0,0,0,0,0.1,0c0-0.1,0-0.1,0-0.2c0-0.1-0.1-0.1-0.1-0.1c-0.1,0,0,0.1,0,0.1
		c0,0,0-0.1-0.1,0c0,0,0,0-0.1,0c0,0,0,0.1,0,0.1c0,0,0.1,0,0.1,0c0,0,0,0,0,0c0,0,0.1,0,0.1,0.1v0c0,0-0.1,0-0.1,0
		c-0.1,0-0.1,0-0.1,0c-0.1,0-0.1,0.1-0.1,0.1c0,0-0.1,0.1-0.1,0.1c0,0,0,0-0.1,0c0,0-0.1,0-0.1,0c0,0-0.1,0.1-0.1,0.1h0.2
		c0,0,0,0,0,0c0,0,0,0,0,0c0,0,0,0,0,0c0,0,0,0,0,0c0,0.1,0,0.1,0,0.2c0,0,0,0.1,0,0.1c0,0.1,0,0.2,0,0.2c0,0,0,0,0,0.1
		c0,0,0,0.1,0,0.1c0,0,0-0.1,0-0.1c0,0,0-0.1-0.1-0.1c0,0-0.1,0-0.1,0c0,0,0-0.1,0-0.1c0,0,0,0,0,0c0,0,0,0,0,0c0,0,0-0.1-0.1-0.1
		c0,0,0,0,0,0c-0.1,0,0,0.1,0,0.2c0,0,0,0.1,0.1,0.1c0,0,0,0,0,0c0,0,0,0,0,0l0,0c0,0.1,0,0.1,0.1,0.2c0,0,0,0.1,0.1,0.1
		c0,0,0,0,0,0c0,0,0,0.1,0,0.2c0,0,0,0,0,0c0,0,0,0,0,0c0,0,0,0.1,0,0.1c0,0,0,0,0,0c0,0,0,0,0.1,0c0,0,0,0,0,0l0,0c0,0,0-0.1,0-0.1
		c0,0,0,0,0.1,0c0,0,0,0.1,0.1,0.1c0,0,0,0.1,0,0.1c0,0,0,0,0,0c0,0,0,0,0-0.1c0,0,0,0-0.1,0c0,0,0,0.1,0,0.1c0,0,0.1,0,0.1,0l0,0
		c0,0,0,0,0,0.1c0,0.1,0.1,0.1,0.1,0.1c0,0,0.1,0,0.1,0c0-0.1,0-0.2,0-0.2c0,0,0-0.1,0-0.1c0,0,0,0,0,0c0-0.1,0-0.1-0.1-0.2
		c0,0,0,0,0-0.1c0,0,0.1,0,0.1,0c0,0,0.1,0,0.1-0.1v0c0,0,0,0,0,0c0,0,0,0,0,0c0,0,0,0.1,0,0.1c0.1,0,0.1,0.1,0.2,0.2c0,0,0,0,0,0
		c0,0,0.1,0.1,0.1,0.1c0,0,0.1,0,0.1,0c0,0,0,0,0-0.1c0,0,0,0,0-0.1c0,0,0-0.1,0-0.1c0.1,0,0.1,0.1,0.1,0.1c0,0.1,0.1,0.1,0.1,0.1
		c0,0,0,0.1,0.1,0.1c0.1,0.1,0.1,0,0.2,0c0,0,0,0,0,0c-0.1,0,0-0.1-0.1-0.2c0,0,0,0,0,0c0,0,0,0.1,0,0.1c0,0.1,0,0.1,0,0.2
		c0,0,0,0.1,0,0.1c0.1,0.1,0.2,0,0.2,0c0,0,0,0.1,0,0.1c0,0,0,0,0,0.1c0,0,0,0,0,0c0,0.1,0.1,0.2,0.1,0.2c0,0,0.1,0.1,0.1,0.1
		c0.1,0,0.1,0.1,0.2,0.2c0.1,0,0.1,0,0.2,0c0.1,0,0.1-0.1,0.1-0.1c0,0,0,0,0,0c0,0,0,0,0,0c0,0.1,0,0.1,0,0.2c0,0.1,0.1,0.1,0.2,0.2
		c0.1,0.1,0.1,0.1,0.2,0.2c0.1,0,0.1,0.1,0.2,0.1c0.2,0.3,0.4,0.5,0.7,0.8L9,43.1C8.5,42.5,8.1,42,7.6,41.4 M17.8,46.9
		c-1.6,0-3.2-0.4-4.7-1c-0.7-0.3-1.5-0.7-2.1-1.2c-0.6-0.4-1.2-0.9-1.8-1.4l1.5-1.5c0.9,0.9,2,1.6,3.2,2.1c1.2,0.5,2.5,0.8,3.8,0.8
		V46.9z M17.8,44.4c-1.3,0-2.5-0.3-3.7-0.8c-1.1-0.5-2.2-1.2-3.1-2l0.3-0.3l0.1,0c0.1,0.1,0.1,0.1,0.2,0.2c0.1,0,0.2,0,0.2,0
		c0.1,0,0.2-0.1,0.3,0c0,0,0.1,0,0.2-0.1c0.1,0,0.2-0.1,0.3-0.1c0,0,0.1,0,0.1,0c0.1,0,0.2,0,0.2,0c0,0,0.1,0,0.1,0c0,0,0.1,0,0.1,0
		c0.1,0,0.1,0,0.2-0.1c0,0,0.1-0.1,0.1-0.1c0,0,0.1-0.1,0-0.1c0,0-0.1-0.1,0-0.1l-0.1-0.2c0.5,0.4,1,0.7,1.6,0.9
		c0.9,0.4,1.9,0.6,2.9,0.6V44.4z M17.8,41.8c-0.9,0-1.9-0.2-2.7-0.6c-0.8-0.4-1.6-0.9-2.2-1.5l1.5-1.5c0.1,0.1,0.2,0.2,0.3,0.2
		c0.5,0.4,1,0.7,1.6,0.9c0.2,0.1,0.4,0.1,0.5,0.2l-0.1,0c0,0,0,0.1-0.1,0.1c-0.1,0-0.1,0.1-0.1,0.1c0,0.1-0.1,0-0.1,0.1
		c0,0.1,0,0.1,0,0.2c0,0,0,0.1,0,0.1c0,0,0,0.1,0,0.2c-0.1,0.1-0.2,0-0.2,0.1c0,0.1,0.1,0.2,0.1,0.3c0,0,0.1,0.1,0.1,0.1
		c0.1,0.1,0.1,0.1,0.2,0.2c0,0,0,0.1,0.1,0.1c0,0,0.1,0.1,0.1,0.1c0,0,0.1,0.1,0.1,0.1c0,0,0.1,0,0.1,0c0,0,0.1,0.1,0.1,0.1
		c0.1,0,0.2,0,0.3,0c0,0,0.1,0,0.1,0c0.1,0,0.1,0,0.2,0c0.1,0,0.2,0,0.3,0c0,0,0,0,0,0V41.8z M17.9,39C17.9,39,17.9,39,17.9,39
		C17.9,39,17.9,39,17.9,39c-0.1,0-0.1,0.1-0.2,0.1c0,0-0.1,0-0.1,0c-0.1,0-0.2,0-0.2,0c0,0.1-0.1,0.1-0.2,0.1c0,0,0,0-0.1,0.1
		c-0.3-0.1-0.6-0.1-0.9-0.2c-0.5-0.2-1-0.5-1.4-0.8c-0.1-0.1-0.2-0.1-0.2-0.2l1.5-1.5c0.1,0.1,0.3,0.2,0.4,0.3
		c0.4,0.2,0.7,0.4,1.2,0.4c0,0,0,0.1,0,0.1c0,0,0,0,0.1,0c0,0,0-0.1,0-0.1l0,0c0,0,0.1,0,0.1,0l-0.1,0c0,0,0,0.1,0,0.1
		c0,0,0,0,0,0.1c0,0,0,0,0,0c0,0,0,0-0.1,0c0,0,0,0,0,0c0,0,0,0,0,0c0,0,0,0,0,0c0,0,0,0.1,0,0.1c0,0,0-0.1,0-0.1c0,0,0,0,0,0
		c0,0-0.1-0.1-0.1-0.1c-0.1,0-0.1,0-0.1,0.1c0,0,0,0,0,0c0,0,0,0,0,0c0,0,0,0,0,0c0,0-0.1,0.1-0.1,0.1c0,0.1,0.1,0.1,0.1,0.1
		c0,0,0.1,0,0.1,0c0,0,0.1-0.1,0.1-0.1c0,0,0,0,0.1,0.1c0,0,0,0.1,0,0.1c0,0,0,0-0.1,0c0,0-0.1,0,0,0.1c0,0,0,0,0.1,0.1
		c0,0,0.1,0,0.1,0c0,0,0,0,0-0.1c0,0,0.1-0.1,0.1-0.1c0,0,0.1,0,0.1,0c0,0,0,0,0,0c0,0,0,0.1,0,0.1c0,0,0,0-0.1,0c0,0-0.1,0-0.1,0.1
		c0,0,0,0.1,0,0.1c-0.1,0-0.2,0-0.2,0c0,0,0,0,0,0.1c0,0,0,0,0,0.1c0,0,0.1,0,0.1,0.1c0,0,0,0,0,0c0,0,0.1,0.1,0,0.2
		c0,0,0,0.1-0.1,0.1c-0.1,0-0.1,0-0.2,0c0,0-0.1,0-0.1,0c0,0-0.1,0.1-0.1,0.1c0,0,0,0.1,0,0.1v0c0,0,0,0.1,0,0.1c0,0,0,0.1,0,0.1
		c0,0,0,0.1,0,0.1c0,0,0,0.1,0.1,0.1c0,0,0.1,0,0.1,0.1c0,0,0,0,0,0c0,0,0,0,0,0c0,0,0.1,0,0.1,0c0,0,0,0,0,0c0.1,0,0.1,0,0.1,0
		c0,0,0,0,0-0.1c0,0,0.1-0.1,0.2,0c0,0,0.1,0,0.1,0c0,0,0-0.1,0-0.1c0,0,0.1,0,0.1-0.1c0,0,0-0.1,0.1-0.1c0,0,0.1,0,0.1-0.1
		c0,0,0,0,0-0.1c0,0,0,0,0,0c0,0,0,0,0,0c0,0,0.1,0,0.1,0c0.1-0.1,0.1-0.1,0.2-0.1c0,0,0,0,0.1,0c0.1,0,0.1,0.1,0.1,0.2
		c0,0,0.1,0,0.1,0c0,0,0.1,0,0.1,0c0,0,0.1,0,0.1,0.1c0,0,0,0.1,0.1,0.1c0,0,0,0,0.1,0.1c0,0,0-0.1,0-0.1c0,0,0,0,0-0.1c0,0,0,0,0,0
		c0,0,0.1,0,0.1,0c0-0.1-0.1,0-0.1-0.1c0,0,0,0-0.1,0c0,0-0.1,0-0.1-0.1c0,0,0,0-0.1,0c0,0-0.1,0-0.1-0.1c0,0,0,0,0,0
		c0.1,0,0.1,0,0.2,0c0.1,0,0.1,0,0.2,0.1c0,0,0,0,0,0c0,0,0,0.1,0,0.1c0,0,0,0.1,0.1,0.1c0,0,0,0,0,0c0,0,0.1,0,0.1,0c0,0,0,0,0,0
		c0,0,0,0,0,0c0,0,0.1,0.1,0.1,0.1c0,0,0.1,0,0.1-0.1c0,0,0.1,0,0.1,0c0,0,0-0.1,0-0.1c0,0,0,0,0,0c0,0-0.1-0.1-0.1-0.1c0,0,0,0,0,0
		c0,0,0,0,0-0.1c0.1,0,0.1,0.1,0.2,0.1c0,0,0.1,0,0.1,0c0.1,0,0.1,0,0.1-0.1c0,0,0.1,0,0.1-0.1c0,0,0,0,0-0.1c0-0.1,0.1-0.1,0.2-0.1
		c0,0,0.1-0.1,0.1-0.1c0.1,0,0.1,0.1,0.1,0.1c0,0.1,0,0.1,0,0.2c0,0,0,0.1,0,0.1v0c0,0,0,0,0,0.1c0,0.1-0.1,0.1-0.2,0.1
		c-0.1,0.1-0.1,0.1-0.2,0.1c-0.1,0-0.1,0-0.2,0.1c0,0-0.1,0-0.1,0c-0.1,0-0.1,0-0.2,0c0,0-0.1,0-0.1,0.1c0,0,0,0.1-0.1,0.1
		c-0.1,0-0.2,0.1-0.3,0.1c0,0-0.1-0.1-0.1,0c-0.1,0-0.2,0-0.2,0c0,0,0,0,0,0c0,0,0,0,0,0c0,0-0.1-0.1-0.1-0.1c0,0,0-0.1-0.1-0.1
		l-0.1,0c-0.1,0-0.1,0.1-0.2,0.1c-0.1,0-0.1,0-0.2,0c0,0-0.1,0-0.1,0c0,0-0.1,0-0.1,0C18.1,38.9,18,39,17.9,39 M18.9,41.6
		C18.9,41.6,18.9,41.6,18.9,41.6c0.1,0,0.1,0,0.1,0c0,0,0,0.1,0,0.1c0,0,0,0.1,0,0.1c-0.3,0-0.5,0.1-0.8,0.1v-0.3l0,0
		c0.1,0,0.2,0,0.3,0c0.1,0,0.1,0,0.2,0.1C18.7,41.6,18.8,41.6,18.9,41.6C18.8,41.6,18.9,41.5,18.9,41.6
		C18.9,41.6,18.8,41.6,18.9,41.6 M19.4,42.1L19.4,42.1c0.1,0.1,0.2,0.1,0.2,0.1c0,0,0,0,0,0c0,0,0,0,0,0l0,0.1
		c0.1,0,0.1,0.1,0.1,0.2c0,0,0,0.1,0.1,0.1c0,0,0,0,0,0.1c0,0.1,0,0.1-0.1,0.1c0,0,0,0,0,0.1c0,0.1,0,0.1,0,0.1
		c0,0.1,0.1,0.1,0.1,0.2c0,0,0.1,0,0.1,0.1c0,0.1,0.1,0.1,0.2,0.2c0,0,0.1,0,0.1,0c0.1,0,0.1,0.1,0.2,0.2c0,0,0.1,0.1,0.1,0.1
		c0,0,0.1,0.1,0.1,0.1v0l0,0c-0.8,0.2-1.6,0.3-2.5,0.4v-2.1C18.6,42.2,19,42.2,19.4,42.1 M25,44.8c-0.7,0.4-1.4,0.8-2.1,1.2
		c-1.5,0.6-3,1-4.6,1v-2.1c1,0,1.9-0.2,2.8-0.4l0,0c0,0,0,0,0.1,0c0,0,0.1,0,0.1,0c0,0.1,0.1,0.1,0.2,0.1c0.1,0,0.1,0,0.2,0
		c0,0,0.1,0,0.1-0.1c0,0,0.1,0,0.1,0c0,0,0,0,0,0c0-0.1,0.1-0.1,0.1-0.1c0.1,0,0.1,0,0.2-0.1c0.1,0,0.1,0,0.1-0.1
		c0-0.1,0.1-0.1,0.1-0.1c0,0,0.1,0,0.1,0c0,0,0.1,0,0.1-0.1c0,0,0,0,0,0c0.1,0,0.1-0.1,0.1-0.1c0.1,0,0.1-0.1,0.2-0.1
		c0.1-0.1,0.2-0.1,0.3-0.2c0.1,0,0.2-0.1,0.2-0.2l0,0c0.7-0.4,1.3-0.9,1.9-1.5l1.5,1.5C26.2,43.8,25.6,44.3,25,44.8 M29.5,39.3
		c-0.3,0.7-0.7,1.4-1.2,2.1c-0.4,0.6-0.9,1.2-1.4,1.7l-1.5-1.5c0.9-0.9,1.6-2,2-3.1c0.5-1.2,0.8-2.5,0.8-3.9h2.2
		C30.5,36.2,30.1,37.8,29.5,39.3"/>
	<path class="st0" d="M39.6,33.9h1.9v11.5c0,2.6,1.6,3.9,3.6,3.9s3.6-1.3,3.6-3.9V33.9h1.9v11.5c0,3.6-2.2,5.8-5.5,5.8
		c-3.3,0-5.5-2.2-5.5-5.8V33.9z"/>
	<polygon class="st0" points="65.2,50.9 63.4,50.9 56.1,37.5 56.1,50.9 54.2,50.9 54.2,33.9 56.1,33.9 63.4,47.3 63.4,33.9 
		65.2,33.9 	"/>
	<rect x="69.7" y="33.9" class="st0" width="1.9" height="17"/>
	<path class="st0" d="M74.2,45.9h1.9c0.3,2.2,1.8,3.4,3.6,3.4c1.9,0,3.3-0.9,3.3-2.7c0-1.5-0.8-2.5-2.8-3L78.1,43
		c-2.5-0.7-3.6-2.8-3.6-4.8c0-2.9,2.3-4.5,5-4.5c2.9,0,4.8,1.7,5.1,4.6h-1.9c-0.4-1.6-1.4-2.7-3.2-2.7c-2,0-3.1,1.2-3.1,2.7
		c0,1.6,0.8,2.5,2.5,3l2,0.6c2.4,0.7,4,2.2,4,4.9c0,2.7-1.8,4.6-5.2,4.6C76.6,51.2,74.4,49.2,74.2,45.9"/>
	<path class="st0" d="M92.9,33.9c3.3,0,5.5,2.2,5.5,5.8v5.5c0,3.6-2.2,5.8-5.5,5.8h-5.5v-17H92.9z M89.3,35.8v13.3h3.6
		c2,0,3.6-1.3,3.6-3.9v-5.5c0-2.6-1.6-3.9-3.6-3.9H89.3z"/>
	<path class="st0" d="M103.3,43.2v7.7h-1.9v-17h5.8c3.6,0,4.9,2.4,4.9,4.7c0,2.1-1.1,4.2-4,4.6l4.6,7.8h-2.2l-4.5-7.7H103.3z
		 M107.2,35.8h-3.9v5.7h3.9c1.9,0,3-1.2,3-2.8C110.2,36.9,109.1,35.8,107.2,35.8"/>
</g>
</svg>
