<?xml version="1.0" encoding="utf-8"?>
<!-- Generator: Adobe Illustrator 19.2.0, SVG Export Plug-In . SVG Version: 6.00 Build 0)  -->
<svg version="1.1" id="Layer_1" xmlns="http://www.w3.org/2000/svg" xmlns:xlink="http://www.w3.org/1999/xlink" x="0px" y="0px"
	 viewBox="0 0 132.8 80" style="enable-background:new 0 0 132.8 80;" xml:space="preserve">
<style type="text/css">
	.st0{fill:#1392D1;}
</style>
<g>
	<g>
		<g>
			<path class="st0" d="M55.9,29.2L55.9,29.2l-1.8,9.5h-2.4l-2.2-11.6h1.9l1.6,9h0l1.7-9h2.5l1.6,9h0l1.6-9h1.8L60,38.8h-2.4
				L55.9,29.2z"/>
			<path class="st0" d="M65.6,30.1c1.7,0,3.6,0.9,3.6,4.4c0,3.6-1.9,4.4-3.6,4.4c-1.7,0-3.6-0.8-3.6-4.4C62,31,64,30.1,65.6,30.1z
				 M65.6,37.4c1.3,0,1.6-1.5,1.6-3s-0.3-2.9-1.6-2.9c-1.3,0-1.6,1.5-1.6,2.9S64.4,37.4,65.6,37.4z"/>
			<path class="st0" d="M70.4,31.6c0-0.5,0-1-0.1-1.4h1.8c0,0.5,0.1,1,0.1,1.6h0c0.2-0.7,0.9-1.7,2.1-1.7c0.1,0,0.2,0,0.3,0.1V32
				c-0.2,0-0.3-0.1-0.6-0.1c-0.8,0-1.7,0.5-1.7,2.1v4.7h-2V31.6z"/>
			<path class="st0" d="M75.9,26.3h2v12.5h-2V26.3z"/>
			<path class="st0" d="M86.1,26.3v11c0,0.6,0,1.1,0.1,1.5h-1.8c0-0.2-0.1-0.7-0.1-1.3h0c-0.3,0.7-0.9,1.5-2.2,1.5
				c-2,0-2.9-2-2.9-4.4c0-2.8,1.1-4.4,2.8-4.4c1.2,0,1.8,0.7,2.1,1.4h0v-5.1H86.1z M82.6,37.4c1.2,0,1.6-1.3,1.6-2.9
				c0-1.7-0.4-2.9-1.5-2.9c-1.1,0-1.5,1.1-1.5,2.8C81.1,36.4,81.4,37.4,82.6,37.4z"/>
			<path class="st0" d="M92.6,27.1h2v4.7h3.3v-4.7h2v11.6h-2v-5.1h-3.3v5.1h-2V27.1z"/>
			<path class="st0" d="M107.4,38.3c-0.4,0.2-1.3,0.5-2.4,0.5c-2.6,0-3.8-2-3.8-4.3c0-2.6,1.3-4.5,3.4-4.5c1.8,0,3.3,1.1,3.3,4.6V35
				h-4.7c0,1.5,0.6,2.3,2.1,2.3c1.2,0,1.8-0.4,2.1-0.7L107.4,38.3z M105.9,33.7c0-1.5-0.5-2.3-1.4-2.3c-1,0-1.5,1.1-1.5,2.3H105.9z"
				/>
			<path class="st0" d="M109.6,30.7c0.6-0.3,1.3-0.6,2.6-0.6c2.5,0,3.1,1.3,3.1,3.4v3.7c0,0.6,0.1,1.2,0.1,1.5h-1.8
				c-0.1-0.3-0.1-0.7-0.1-1.2h0c-0.5,0.7-1.1,1.3-2.3,1.3c-1.3,0-2.4-0.9-2.4-2.5c0-2.3,1.8-2.9,4.3-2.9h0.4v-0.3
				c0-0.8-0.4-1.6-1.5-1.6c-1,0-1.9,0.5-2.2,0.8L109.6,30.7z M113.5,34.6h-0.2c-1.7,0-2.7,0.4-2.7,1.6c0,0.8,0.5,1.3,1.3,1.3
				c1.2,0,1.6-0.9,1.6-2.4V34.6z"/>
			<path class="st0" d="M117.3,26.3h2v12.5h-2V26.3z"/>
			<path class="st0" d="M121.7,28.4l2-0.6v2.4h1.6v1.5h-1.6v4.4c0,0.9,0.3,1.2,0.9,1.2c0.3,0,0.6-0.1,0.7-0.2v1.5
				c-0.3,0.2-0.7,0.3-1.3,0.3c-1.5,0-2.3-0.7-2.3-2.5v-4.7h-1.3v-1.5h1.3V28.4z"/>
			<path class="st0" d="M126.3,26.3h2v5h0c0.3-0.5,0.8-1.2,2-1.2c1.9,0,2.4,1.4,2.4,3.2v5.5h-2v-5.1c0-1.3-0.3-1.9-1.1-1.9
				c-1,0-1.4,0.9-1.4,2v5h-2V26.3z"/>
		</g>
		<g>
			<path class="st0" d="M53.8,41.8c2.3,0,4.4,1.8,4.4,6c0,4.2-2.1,6-4.4,6c-2.3,0-4.4-1.8-4.4-6C49.4,43.6,51.5,41.8,53.8,41.8z
				 M53.8,52.1c1.3,0,2.3-1.2,2.3-4.3c0-3.2-1-4.3-2.3-4.3c-1.3,0-2.3,1.1-2.3,4.3C51.5,51,52.5,52.1,53.8,52.1z"/>
			<path class="st0" d="M59.6,46.4c0-0.5,0-1-0.1-1.4h1.8c0,0.5,0.1,1,0.1,1.6h0c0.2-0.7,0.9-1.7,2.1-1.7c0.1,0,0.2,0,0.3,0.1v1.9
				c-0.2-0.1-0.3-0.1-0.6-0.1c-0.8,0-1.7,0.5-1.7,2.1v4.7h-2V46.4z"/>
			<path class="st0" d="M65,54.9c0.5,0.3,1.4,0.7,2.4,0.7c1.9,0,2.2-1.3,2.2-2.7v-0.8h0c-0.3,0.7-0.9,1.4-2.2,1.4
				c-1.1,0-2.9-0.8-2.9-4.3c0-2.4,0.8-4.4,3-4.4c1.2,0,1.7,0.7,2.2,1.5h0.1c0-0.5,0-0.9,0.1-1.3h1.8c0,0.4-0.1,0.9-0.1,1.3v6.3
				c0,2.7-0.8,4.6-3.8,4.6c-1.3,0-2.3-0.4-2.8-0.5L65,54.9z M68.1,52.1c1.2,0,1.7-0.9,1.7-2.9c0-1.8-0.7-2.8-1.6-2.7
				c-1,0-1.4,1-1.4,2.8C66.8,51.2,67.4,52.1,68.1,52.1z"/>
			<path class="st0" d="M73.6,45.5c0.6-0.3,1.3-0.6,2.6-0.6c2.5,0,3.1,1.3,3.1,3.4v3.7c0,0.6,0.1,1.2,0.1,1.5h-1.8
				c-0.1-0.3-0.1-0.7-0.1-1.2h0c-0.5,0.7-1.1,1.3-2.3,1.3c-1.3,0-2.4-0.9-2.4-2.5c0-2.3,1.8-2.9,4.3-2.9h0.4V48
				c0-0.8-0.4-1.6-1.5-1.6c-1,0-1.9,0.5-2.2,0.8L73.6,45.5z M77.5,49.4h-0.2c-1.7,0-2.7,0.4-2.7,1.6c0,0.8,0.5,1.3,1.3,1.3
				c1.2,0,1.6-0.9,1.6-2.4V49.4z"/>
			<path class="st0" d="M81.3,46.4c0-0.5,0-1-0.1-1.4h1.8c0,0.4,0.1,0.9,0.1,1.3h0h0c0.3-0.5,0.8-1.4,2.2-1.4c1.9,0,2.4,1.4,2.4,3.2
				v5.5h-2v-5.1c0-1.3-0.3-1.9-1.1-1.9c-1,0-1.4,0.9-1.4,2v5h-2V46.4z"/>
			<path class="st0" d="M89.5,41.4h2v2h-2V41.4z M89.5,45h2v8.6h-2V45z"/>
			<path class="st0" d="M93.3,51.8l3.5-5.2h-3.4V45h5.3v1.8L95.4,52h3.5v1.6h-5.6V51.8z"/>
			<path class="st0" d="M100.8,45.5c0.6-0.3,1.3-0.6,2.6-0.6c2.5,0,3.1,1.3,3.1,3.4v3.7c0,0.6,0.1,1.2,0.1,1.5h-1.8
				c-0.1-0.3-0.1-0.7-0.1-1.2h0c-0.5,0.7-1.1,1.3-2.3,1.3c-1.3,0-2.4-0.9-2.4-2.5c0-2.3,1.8-2.9,4.3-2.9h0.4V48
				c0-0.8-0.4-1.6-1.5-1.6c-1,0-1.9,0.5-2.2,0.8L100.8,45.5z M104.6,49.4h-0.2c-1.7,0-2.7,0.4-2.7,1.6c0,0.8,0.5,1.3,1.3,1.3
				c1.2,0,1.6-0.9,1.6-2.4V49.4z"/>
			<path class="st0" d="M108.7,43.3l2-0.6V45h1.6v1.5h-1.6V51c0,0.9,0.3,1.2,0.9,1.2c0.3,0,0.6-0.1,0.7-0.2v1.5
				c-0.3,0.2-0.7,0.3-1.3,0.3c-1.5,0-2.3-0.7-2.3-2.5v-4.7h-1.3V45h1.3V43.3z"/>
			<path class="st0" d="M113.7,41.4h2v2h-2V41.4z M113.9,45h2v8.6h-2V45z"/>
			<path class="st0" d="M121,44.9c1.7,0,3.6,0.9,3.6,4.4c0,3.6-1.9,4.4-3.6,4.4c-1.7,0-3.6-0.8-3.6-4.4
				C117.4,45.8,119.4,44.9,121,44.9z M121,52.3c1.3,0,1.6-1.5,1.6-3c0-1.4-0.3-2.9-1.6-2.9c-1.3,0-1.6,1.5-1.6,2.9
				C119.5,50.7,119.8,52.3,121,52.3z"/>
			<path class="st0" d="M126.3,46.4c0-0.5,0-1-0.1-1.4h1.8c0,0.4,0.1,0.9,0.1,1.3h0h0c0.3-0.5,0.8-1.4,2.2-1.4
				c1.9,0,2.4,1.4,2.4,3.2v5.5h-2v-5.1c0-1.3-0.3-1.9-1.1-1.9c-1,0-1.4,0.9-1.4,2v5h-2V46.4z"/>
		</g>
		<g>
			<path class="st0" d="M25.9,30.1c-0.8-0.3-1.6-0.5-2.4-0.7c0,0.1,0,0.1,0,0.2c0.8,0.1,1.5,0.3,2.3,0.6
				C25.9,30.3,25.9,30.2,25.9,30.1z M23.9,35.1l-0.3,0l-0.1,0.1h-0.1l0,0.5l0.3-0.1L23.9,35.1z M24.9,35.3l-0.1,0.1l0-0.1l-0.3,0.5
				l0.2,0l0-0.2L24.9,35.3l0.2-0.1L25,35.2L24.9,35.3z M25.2,35.1h0.2l0-0.1l-0.2,0l-0.1-0.1l-0.2,0l0.1,0.2v0.2L25.2,35.1z
				 M23.5,41.9l0,0.1l0,0.1c0.5-0.2,0.5-0.4,0.5-0.4c0-0.2-0.3-0.4-0.7-0.6c0,0.1,0,0.3,0,0.4l0.1,0.1c0,0-0.1,0-0.1,0
				c0,0.1,0,0.2,0,0.2c0,0,0.1,0,0.1-0.1L23.5,41.9z M23.7,41.5L23.7,41.5C23.7,41.5,23.7,41.5,23.7,41.5L23.7,41.5z M15.2,39.4
				l0.1,0.3l-0.1,0.1l0,0.2l0,0.2l-0.1,0.1l0.2,0.4l0,0l0-0.4l0.1-0.6l-0.1-0.3L15.2,39.4z M15.3,40.8L15.3,40.8l-0.1,0.1l-0.1-0.2
				l0,0l0,0.2l0.1,0.1l0,0.1l0.1,0.2l0.1,0.2l0.1,0l0-0.3l-0.1-0.1L15.3,40.8z M23.2,48.2C23.2,48.2,23.2,48.2,23.2,48.2
				C23.2,48.2,23.2,48.2,23.2,48.2C23.2,48.2,23.2,48.2,23.2,48.2z M20.8,35.8L20.8,35.8c-0.2,0.2-0.4,0.3-0.5,0.4
				c0,0.2,0.1,0.5,0.3,0.7c0.1,0.1,0.2,0.2,0.3,0.3l0.3-0.1l0-1.3l-0.1,0l0-0.2l0.1-0.1l0-0.1L21,35.4l-0.1,0.2L20.8,35.8z
				 M20.8,36.2L20.8,36.2C20.8,36.2,20.8,36.2,20.8,36.2L20.8,36.2z M14.9,31.7c0-0.1,0-0.2,0.1-0.3l-0.1-0.1c-0.1,0-0.2,0-0.3,0
				L14.9,31.7z M19.9,39.9c-0.1,0-0.1,0-0.2-0.1l0,0.2L19.9,39.9z M19.7,39.8c0,0-0.1,0-0.1-0.1l0,0.3L19.7,39.8z M30.8,40.1
				l-0.4,0.1l0.1,0.2l0.3,0L30.8,40.1z M36.6,32.7c-0.8-1.9-1.9-3.5-3.3-5c-1.4-1.4-3.1-2.6-5-3.3c-1.5-0.6-3-1-4.6-1.2
				c0,0.1,0,0.1,0,0.2c1.6,0.1,3.1,0.5,4.5,1.1c1.8,0.8,3.4,1.9,4.9,3.3l-1.8,1.8l0-0.1l-0.1,0L31,29.5l-0.3-0.1l0.4-0.1L31,29.3
				h-0.2l0.1-0.2l-0.2-0.4l-0.5-0.6l-0.5-0.3l-0.3-0.1l-0.2,0v-0.1l-0.4-0.2l-0.2,0.2c0.3,0.6,0.5,1.1,0.5,1.6c0,0.4,0,0.8-0.1,1.1
				l0.1-0.1l0.5,0.9l-0.3,0l0.2,0.2l-0.5,0.5l-0.3-0.3l0-0.3c-0.1,0.2-0.2,0.4-0.3,0.5l0,0.1l0.3,0l0,0.1l-0.2,0.2
				c-0.1-0.1-0.2-0.2-0.3-0.3c0,0.1-0.1,0.1-0.1,0.2c0.1,0.1,0.2,0.2,0.3,0.3l-2,2c-0.2-0.2-0.3-0.3-0.5-0.5c-0.1,0-0.2,0.1-0.2,0.1
				c0.2,0.2,0.4,0.3,0.6,0.5l-0.3,0.3l0,0l0-0.1l-0.2,0.1l-0.2,0v-0.2l-0.2,0.1l-0.2,0.2l0.1,0.1l0.2-0.2l0.2,0.1v0l0.2,0l-0.6,0.6
				L25,35.5l-0.2,0.2l-0.1,0.1l0,0.1l0.1,0l0.1,0.1l0,0.1l0,0l-0.2,0l-0.4,0.1c-0.1-0.1-0.2-0.1-0.2-0.2l0,0L23.8,36
				c-0.1-0.1-0.3-0.1-0.4-0.2l0,0.8c0,0.3,0,0.5,0,0.7l0.1,0l0.1,0.1l-0.2,0.2c0,0.1,0,0.2,0,0.3l0.3-0.3l-0.1,0.2l0.1,0l0.1,0.4
				l0.2,0.2l-0.4-0.2l0,0.2c0.6,0.2,1.3,0.6,2,1c0.9,0.7,1.4,1.7,1.3,2.6c-0.1,0.7-0.5,1.3-1.1,1.7l0,0.1l-0.1,0.2l-0.2,0l-0.1,0.1
				l-0.4,0.2l-0.4,0l-0.1,0.2l0.1,0.1l0,0c-0.1,0-0.1,0-0.2,0.1l-0.3,0l-0.1-0.1l-0.3,0l0,0c-0.1,0-0.1,0-0.2,0.1l0,0.2
				c0,0.1,0,0.6,0,1.3c1,0.5,2.3,1.4,2.2,3.6c0,0,0,0.4-0.1,0.7l0,0l0.4,0.1c-0.9,0.3-1.8,0.4-2.7,0.5c0,0.1,0,0.1,0,0.2
				c1-0.1,1.9-0.2,2.9-0.5l0.2,0.1l0.2,0.2l0.2-0.1l0.4-0.1l0.2-0.1l0.4-0.2l0.4-0.3l0.5-0.5l0-0.1c0.9-0.5,1.7-1.1,2.4-1.8l2,2
				c-1.4,1.4-3,2.4-4.8,3.2c-1.9,0.8-3.9,1.2-6,1.2c-2.1,0-4.1-0.4-6-1.2c-1.8-0.8-3.4-1.8-4.8-3.2l2-2c1.1,1.1,2.4,2,3.9,2.6
				c1.3,0.5,2.7,0.9,4.1,1c0-0.1,0-0.1,0-0.2c-2.9-0.2-5.6-1.4-7.8-3.5l0.4-0.4l0.4,0.3l0.8-0.1l0.3-0.3l0.4,0l0.4,0l0.2-0.2l0-0.2
				l-0.2-0.2l-0.3-0.5L15.8,46l-0.2-0.3l0.1-0.1c1.5,1.5,3.5,2.4,5.6,2.6c0-0.1,0-0.1,0-0.2c-2.1-0.2-4-1.1-5.5-2.5l2-2
				c0.5,0.5,1.2,0.9,1.8,1.2c0-0.1,0-0.1,0.1-0.2c-0.6-0.3-1.2-0.7-1.7-1.2l2-2c0.3,0.3,0.7,0.5,1.1,0.7l0-0.2
				c-0.4-0.1-0.7-0.3-1-0.6l0.1-0.1l0.1,0l0.1-0.1l0.3,0l0.2-0.1l0.2,0l0-0.4l-0.6-0.2l0,0l-0.3,0l-0.2,0.3L20,40.8l0,0
				c-0.3-0.3-0.5-0.6-0.6-1l0-0.1c-0.2-0.1-0.4-0.2-0.5-0.3l-0.1,0.1l-0.2-0.1l-0.2,0.1l-0.1-0.1l0.1-0.1l0.2,0
				c-0.6-0.5-1-1.1-1.2-1.9c-0.1-0.5-0.2-1-0.1-1.4L17,36.1l-0.2,0c0.2-0.4,0.4-0.7,0.7-1.1c0.1-0.3,0.2-0.5,0.4-0.7c0,0,0,0,0,0
				l-2-2c1.4-1.4,3.2-2.3,5.1-2.6c0-0.1,0-0.1,0-0.2c-2,0.3-3.8,1.2-5.3,2.6l-0.5-0.5c0,0,0,0,0,0c0,0.1-0.1,0.1-0.1,0.2l0.4,0.4
				c-1.7,1.8-2.6,4.1-2.6,6.5H10c0-3.2,1.2-6.2,3.5-8.6l0.8,0.8c0.1,0,0.1,0,0.2,0c0,0,0.1,0,0.1,0l-0.9-0.9
				c0.6-0.6,1.3-1.2,2.1-1.6c0-0.1,0.1-0.2,0.2-0.4c-0.9,0.5-1.7,1.1-2.4,1.9l-2-2c1.4-1.4,3-2.5,4.9-3.3c1.4-0.6,3-1,4.5-1.1l0-0.2
				c-1.6,0.1-3.1,0.5-4.6,1.2c-1.9,0.8-3.5,1.9-5,3.3c-1.4,1.4-2.6,3.1-3.3,5c-0.8,1.9-1.2,4-1.2,6.1c0,2.1,0.4,4.2,1.2,6.1
				c0.8,1.9,1.9,3.5,3.3,5c1.4,1.4,3.1,2.6,5,3.3c1.9,0.8,4,1.2,6.1,1.2c2.1,0,4.1-0.4,6.1-1.2c1.9-0.8,3.5-1.9,5-3.3
				c1.4-1.4,2.6-3.1,3.3-5c0.8-1.9,1.2-4,1.2-6.1C37.9,36.7,37.4,34.7,36.6,32.7z M13.5,47.5c-0.2-0.2-0.4-0.4-0.6-0.7l0.2,0.1
				l0.2-0.1l0.5,0.3l0.1,0L13.5,47.5z M13.9,40.6l-0.3,0.1l-0.1-0.1l-0.1-0.1l-0.1-0.1c-0.1-0.4-0.1-0.9-0.1-1.4h1.2l0,0.1l-0.2,0.3
				l-0.1,0L13.8,40l0.2,0.3L13.9,40.6z M14.8,44.7L14.8,44.7l0.1-0.1c0,0,0.1,0.1,0.1,0.1L14.8,44.7z M15.5,45.5l-0.1-0.2
				C15.5,45.3,15.5,45.4,15.5,45.5L15.5,45.5z M15.7,45.3c-0.2-0.2-0.3-0.4-0.5-0.6h0l0.1-0.3l0-0.4L15,43.5V43l-0.1-0.3l0.1-0.1
				l-0.3-0.6l0-0.2l-0.2-0.3l-0.2,0l0.3,0l-0.1-0.1l-0.2-0.4L14,40.7l0.1-0.3L14,40l0.2-0.4l0.4,0l0.1-0.2l0-0.4h0.2l0.2,0l0.2,0.1
				l0-0.1h0.8c0,0.2,0,0.4,0,0.6l0,0l-0.2,0l-0.2,0.3l0.2,0l0.2-0.1c0.2,1.3,0.8,2.6,1.7,3.5L15.7,45.3z M14.9,38.6L15,38l0.4-0.2
				l0.5,0.1l0.1,0.2c0,0.2,0,0.4,0,0.7h-0.8l0-0.1L14.9,38.6z M17.1,40.1l0.3,0.1l0.2,0.2l0.1-0.1l0.3,0.2l0.1,0.2l-0.2-0.1l0,0.1
				l0.2,0.1l0.2,0.2V41l0-0.2l0.1-0.2l0.1-0.1l-0.2-0.3l0.2,0.1l0.2,0.2l0.1,0.3l0.2,0l-0.5,0.1l0.2,0.4l0.2,0l0-0.2l0-0.2l0.2,0
				l0.2-0.3l0.1-0.4l0.1,0l0.1-0.2c0.1,0.3,0.3,0.6,0.6,0.8l-2,2c-0.9-0.9-1.5-2.1-1.7-3.4l0.1,0l0.4,0.4L17.1,40.1z M16.7,36.4
				c0,0,0-0.1,0.1-0.1l0.1,0L16.7,36.4L16.7,36.4z M15.6,32.4l2,2c-0.5,0.5-0.9,1.1-1.1,1.7l-0.1,0l0.1-0.1l-0.2,0.2l-0.2,0.1l0-0.1
				l-0.3,0.1l0,0.1l0.2-0.1l0.3,0l0.3-0.1c0,0,0,0.1,0,0.1l-0.3,0.2L16,36.6l-0.4,0.3l-0.4-0.1L15,37.1l-0.4,0.8l0.1,0.2l-0.3,0.4
				l0,0.3l0,0h-1.3C13.1,36.4,14,34.2,15.6,32.4z M12.9,39c0,0.4,0,0.9,0.1,1.3l-0.2-0.1v0.2l-0.1,0l-0.1-0.2l-0.2,0.1l0,0.2
				l-0.5,0.8l-0.1,0l-0.1,1.3l-0.4,0.2l-0.1,0L11,42.8l-0.4,0l0,0C10.2,41.5,10,40.3,10,39H12.9z M8.1,32.8c0.8-1.8,1.8-3.4,3.2-4.8
				l2,2c-1.1,1.1-2,2.4-2.6,3.9c-0.6,1.5-1,3.2-1,4.9H6.9C6.9,36.7,7.3,34.7,8.1,32.8z M8.1,44.8C7.3,43,6.9,41,6.9,39h2.9
				c0,1.3,0.2,2.5,0.6,3.7l-0.2,0.1l-0.6-0.3l-0.1,0.1l-0.2-0.1l-0.1,0.1l0.1,0.2l-0.3,0l-0.2-0.1l0-0.2l0-0.1H8.6l0,0.2l0,0.1
				l-0.1,0l-0.2,0.1l0.2,0.1l-0.2,0l-0.1,0.1l0.1,0H8.1v0.2l0.1,0.1l0.1,0.1H8.2l0.1,0.2l0.1,0l0,0.1l0.1,0.1l0,0.1l-0.3-0.2
				l0.1,0.3l-0.2-0.4V44l0.2,0.4l0.1,0.3l0.4,0.9l0-0.2l-0.3-0.8v-0.3L8.7,44l0.6,0.7l0.1-0.1l-0.1-0.4l0.1,0.1l0.2,0.3l0.3,0.1
				l0.1,0.2l0.1,0l-0.1-0.2l0.1-0.1l0.1,0.3l0.2,0.3l0.2,0l0.5,0.8l0.3,0.1l0.1-0.3l0.1,0.1l0.4,0.6l0.5,0.1
				c0.3,0.4,0.6,0.7,0.9,1.1l-2,2C9.9,48.3,8.9,46.6,8.1,44.8z M33.3,28.1c1.4,1.4,2.4,3,3.2,4.8c0.8,1.9,1.2,3.9,1.2,6h-2.9
				c0-1.7-0.3-3.3-1-4.9c-0.1-0.1-0.1-0.3-0.2-0.4l0.1-0.2l0.2,0.1l0.1-0.2l-1-1.6l-0.2-0.1L31.3,30l0,0L33.3,28.1z M29,32.3
				l0.2,0.3l0.1-0.4l-0.2,0v0l0.6-0.6l0.4,0.4l0.4,0l0.1,0.2l0,0.3l0.8,0.5l0.2,0l0.5,0.6l0.1,0.3l0.4,0.4l0.4,0l0.2-0.4
				c0.7,1.6,1.1,3.3,1.1,5h-2.9c0-0.6-0.1-1.1-0.1-1.6l0.1-0.2h0.1l0.2-0.7l-0.1,0l0-0.1l-0.3,0l-0.1-0.1l-0.1,0.1l0.2,0.1l-0.1,0
				l0,0.1c-0.1-0.3-0.2-0.6-0.2-0.8l0.2-0.2l0-0.3l-0.1,0l-0.1-0.3l0.1-0.1L31,34.5l-0.3,0l-0.1-0.1c-0.1-0.1-0.1-0.2-0.2-0.3h0.3
				L30.7,34l0.2-0.1v-0.1l-0.1,0l-0.2,0.1l-0.1-0.1l0.2-0.2l-0.1-0.1l-0.2,0.2l-0.2-0.1c-0.2-0.2-0.3-0.5-0.5-0.7l0-0.1l0,0
				C29.4,32.7,29.2,32.5,29,32.3L29,32.3z M29.7,37.9l0.4-0.3l0.5,0l0.1-0.3l0.2-0.1l0.2-0.4l0.1-0.2c0,0.1,0,0.1,0,0.2l-0.1,0.2
				l0,0.1l-0.1,0.2l0,0.1l-0.2,0.3l0,0.2l0.1,0l0.2-0.4v-0.2l0.1,0l0,0c0.1,0.4,0.1,0.9,0.1,1.4h-2.2l-0.1,0l0-0.2l0.2-0.1l0.1-0.2
				l0.3,0v-0.1L29.7,37.9z M30.3,33.9L30.3,33.9C30.3,33.9,30.3,33.9,30.3,33.9L30.3,33.9z M28.9,32.4c0.2,0.2,0.4,0.5,0.6,0.7
				l-0.1,0.1l-0.1,0l0.2,0.1l0.1-0.1c0.1,0.1,0.2,0.2,0.3,0.4h-0.1v0.1l0.1,0l0.3,0.5l0.1,0c0,0.1,0.1,0.1,0.1,0.2v0.2l-0.2,0.2
				L30,34.6l-0.2,0l0.1,0.2l-0.1,0.1l0.3,0.1l0.1,0.2l0.3,0.1l0,0.1l0.2,0.1l0,0.4l0.1,0c0.1,0.2,0.2,0.5,0.2,0.7l0,0L31,36.7
				l-0.2,0.1l-0.1,0.4l-0.4,0.2l-0.1-0.2l0.1-0.5l0.2-0.1l-0.6-0.4l-0.3,0.2l-0.3,0.6L29,36.7l-0.1-0.2l0.2-0.1l0.1,0.1l0.1,0l0-0.2
				L29,36.2l0,0.1h-0.1l-0.1-0.2l-0.3-0.3l-0.4-0.3l-0.4,0l0,0.1c-0.2-0.4-0.5-0.7-0.8-1.1L28.9,32.4z M26.5,34.8l0.2-0.2
				c0.1,0.1,0.1,0.1,0.2,0.2L26.7,35l-0.2,0l-0.1-0.1L26.5,34.8L26.5,34.8z M26.5,36.1l0.2-0.1l-0.3-0.2l0.2-0.2l0-0.1l0.3-0.1
				l-0.2-0.3l-0.3,0.3l0,0.2l-0.2-0.1l-0.2,0l-0.1-0.1l0,0l0.5-0.5l0,0l0.4,0l0.1-0.2c0.2,0.2,0.4,0.5,0.5,0.7l0,0L27.2,36l-0.3-0.2
				l-0.1,0l0.1,0.2l0.1,0.1l-0.1,0.2l0-0.1L26.5,36.1z M28.4,44.3l-0.5,0.4l-0.1,0.1l0-0.1h-0.2l-0.3,0.1l-0.3-0.1h-0.2l-0.2-0.2
				l-0.2,0l-0.1-0.1l-0.2,0l-0.1-0.2l-0.1,0c0,0,0,0,0,0l0.1,0V44l0.3,0.1l0.1,0.1l0.4,0.1l0,0.1H27l0.4,0.1l0.1,0.2l0.2,0l0.2-0.2
				l0.1-0.3l0.2-0.6l0-0.1l0.1-0.1l0.1-0.3l-0.1-0.1l0.1-0.1l-0.1-0.1l0-0.3l-0.2,0.1l-0.1,0.2l-0.2,0l0,0.3L27.6,43l-0.1-0.1
				L27.3,43l-0.3,0l0,0c0.1-0.1,0.1-0.2,0.2-0.2h0.1l0.2,0l0.2-0.2l0-0.1l0.2,0l0.3-0.4l0.2-0.5l0.7-0.3l0-0.2l-0.1-0.1l0-0.1
				l0.2,0.1l0.4,0.1l0.3-0.1l0.6-0.1l-0.1-0.4l-0.2-0.2l-0.3,0l-0.4-0.9l-0.1,0l-0.1-0.1l0.1-0.1l0,0h2.1c0,2.4-1,4.6-2.7,6.3
				l-0.1-0.1l0-0.1l0.1-0.4l-0.1-0.6l-0.1-0.3L28.5,44l-0.2,0.2V44.3z M28.7,49.3L28.7,49.3l0.1-0.2l-0.1-0.3l0.4-0.3l0-0.2
				l-0.3-0.1l0.3-0.5l0.3-0.5L29,46.7l-0.1,0l-0.2,0l-0.2-0.3l-0.1,0l0.1-0.3l0.1-0.3c0.1-0.1,0.1-0.1,0.2-0.2l1.3,1.3l0,0l0,0
				l0.8,0.8C30.2,48.3,29.5,48.8,28.7,49.3z M30.7,47.2l0-0.1l0.1-0.1l-0.1-0.7l0-0.2l-0.1-0.3l-0.1-0.1l0.1,0l-0.1-0.2l-0.3,0v0.2
				l-0.1,0.1l0.1,0.2l-0.1,0.3L30,46.5l0,0.1l-1.1-1.1c1.7-1.7,2.7-4,2.7-6.4h2.9c0,3.2-1.3,6.2-3.6,8.5L30.7,47.2z M36.4,44.8
				c-0.8,1.8-1.9,3.5-3.3,4.9l-2-2c1.1-1.1,2-2.5,2.7-3.9c0.6-1.5,1-3.1,1-4.7h2.9C37.6,41,37.2,43,36.4,44.8z M24.6,49.8L24.6,49.8
				C24.6,49.8,24.6,49.8,24.6,49.8L24.6,49.8z M29.3,27.2l0.2,0.1l0.4,0.1l0.1,0.2h0.1l0-0.3L30,27.4l0-0.1l-0.2-0.1l-0.1,0.1
				l-0.1-0.1l0.1-0.1L29.3,27.2z M9.7,46.2l0-0.1l-0.2-0.2l-0.1,0L9.7,46.2l-0.1,0l0.1,0.2l0.1,0.2l0.1,0l-0.1-0.2L9.7,46.2z
				 M28.9,31.1C28.9,31.2,28.9,31.2,28.9,31.1l0.1,0.2l0.1,0L28.9,31.1z M31.4,34.3L31.4,34.3l-0.1-0.4l-0.1,0l0.1,0.2L31.4,34.3z
				 M30.8,33.3l0.2,0.4l0.1,0.1l-0.2-0.4L30.8,33.3z M31.6,35.4l0.1,0.2l0,0.1l0.1,0.4l0.1,0v-0.4l-0.1-0.1l0-0.4l-0.2-0.5l0,0.1
				l0.1,0.3L31.6,35.4z M28.3,35.3l0.1-0.1l-0.3,0l-0.1,0.1l0.2,0.1L28.3,35.3z M30.6,32.9l0.1,0.1l0.1,0l0.1,0.1l0-0.1L30.6,32.9
				l-0.2-0.3L30.6,32.9L30.6,32.9z M29.2,34.2l0.2,0.1l0.2,0l-0.2,0l0-0.2v-0.1l-0.1-0.2l-0.1,0l-0.1,0l-0.2,0.2l0.3,0.1L29.2,34.2z
				 M28.8,35L28.8,35l0.2-0.1l0.1-0.2l-0.1,0l-0.1,0.1l-0.1-0.3l-0.1,0.1l0.1,0.2l-0.1,0.2l-0.1,0l-0.1,0.1l0,0.2L28.8,35z
				 M28.9,34.1V34l-0.1,0.1l0,0.2L28.9,34.1z"/>
			<g>
				<g>
					<path class="st0" d="M17.2,60.7l1.1,0.1c0,0,1.5-3.2,5.1-3.4c2.4-0.1,4.4,1.1,6.9,1.3c3,0.2,5.1-0.4,6.8-2.1
						c-1.8,1-4,0.6-6.5,0c-1.6-0.4-3.3-0.5-4.5-0.5C20.5,56.2,17.2,60.7,17.2,60.7z"/>
					<path class="st0" d="M34.5,50.1c-0.5,0.5-1.3,1.2-1.9,2.7c-0.7,1.5-0.7,2-1.3,3.1c1.5-0.6,2.6,0.5,6.4-0.9
						c1.7-0.6,3-2.3,3.6-3.7c-1.3,1.2-2.4,1.8-4,2.1c-1.6,0.2-2.6,0.3-3.9,1.1c0.8-0.9,1.1-1.4,1.6-2.5c0.5-1.2,0.4-2.3,0.9-3.3
						C35.3,49.2,35,49.6,34.5,50.1z"/>
					<path class="st0" d="M36.4,48.2c-0.4,2-0.3,3.7-1.3,5.1c1.4-1.2,2.7-1.1,4.6-2c2.2-1.1,3.4-3,4-5.8c-0.5,1.2-1.8,2.4-3.2,3.3
						c-1.2,0.8-2.5,1.1-3.4,2.2c0.5-0.6,0.7-0.9,0.8-1.6c0.4-1.9-0.2-3,0-4.9C37.6,45.3,36.6,46.9,36.4,48.2z"/>
					<path class="st0" d="M38.5,42.2c-0.1,3.2,1.2,3.9,0.2,6.8c0.8-1.2,1.8-1.5,3.1-2.7c1.6-1.4,2.9-3.5,2.8-6.3
						c-0.3,0.8-1.2,2.3-2.3,3.4c-1,1.1-1.9,2.4-2.3,3.3c1-3.5-0.8-4.9-1-7C38.8,40.5,38.5,41.7,38.5,42.2z"/>
					<path class="st0" d="M39.1,38.6c-0.3-1-0.2-1.7-0.4-2.8c0.4,1,2.9,2.9,2.6,6.4c0.1-0.6,0.6-2.6,1.4-4c0.6-1.1,1.1-2.2,1-3.8
						c0.7,2.1,0.6,3.3,0.3,4.4c-0.3,1.1-1,1.9-1.6,2.7c-0.4,0.6-1.2,1.6-1.6,2.6C40.8,42,39.4,40,39.1,38.6z"/>
					<path class="st0" d="M38.3,33.9c-0.5-0.9-0.6-1.6-1.2-2.7c0.4,0.5,0.7,0.7,1.6,1.5c1.3,1.1,2.2,2.3,2.7,4.3
						c0-1.3,0.2-2,0.4-3.4c0.2-1.3,0.2-2.7-0.4-4.3c1.1,1.4,2.1,4,1.5,5.8c-0.4,1.7-1.2,2.6-1.4,3.8C40.8,36.5,38.9,35.1,38.3,33.9z
						"/>
					<path class="st0" d="M38.9,31.6c-0.6-0.5-2-1.3-2.7-2.1c-0.7-0.8-1-1.6-1.5-2.3c1,0.9,1.6,1.2,2.6,1.9c0.9,0.5,2.2,1.3,2.7,2.4
						c-0.3-0.9-0.5-2-0.6-2.9c-0.2-1.4-0.7-2.3-1.2-2.8c1.4,1.1,2.2,2.1,2.6,4.1c0.4,2-0.1,3.5,0.1,4.6
						C40.3,32.9,39.5,32.1,38.9,31.6z"/>
					<path class="st0" d="M39.2,29.5c-0.6-1.9-1.3-3-2.5-4c-1.7-1.4-3.4-2-4.1-2.4c1.4,1,1.3,1.8,3.1,3.5C37,28,38,28.1,39.2,29.5z"
						/>
				</g>
				<path class="st0" d="M27.3,60.7l-1.1,0.1c0,0-1.5-3.2-5.1-3.4c-2.4-0.1-4.4,1.1-6.9,1.3c-3,0.2-5.1-0.4-6.8-2.1
					c1.8,1,4,0.6,6.5,0c1.6-0.4,3.3-0.5,4.5-0.5C24,56.2,27.3,60.7,27.3,60.7z"/>
				<path class="st0" d="M10.1,50.1c0.5,0.5,1.3,1.2,1.9,2.7c0.7,1.5,0.7,2,1.3,3.1c-1.5-0.6-2.6,0.5-6.4-0.9
					c-1.7-0.6-3-2.3-3.6-3.7c1.3,1.2,2.4,1.8,4,2.1c1.6,0.2,2.6,0.3,3.9,1.1c-0.8-0.9-1.1-1.4-1.6-2.5c-0.5-1.2-0.4-2.3-0.9-3.3
					C9.2,49.2,9.5,49.6,10.1,50.1z"/>
				<path class="st0" d="M8.2,48.2c0.4,2,0.3,3.7,1.3,5.1c-1.4-1.2-2.7-1.1-4.6-2c-2.2-1.1-3.4-3-4-5.8c0.5,1.2,1.8,2.4,3.2,3.3
					c1.2,0.8,2.5,1.1,3.4,2.2c-0.5-0.6-0.7-0.9-0.8-1.6c-0.4-1.9,0.2-3,0-4.9C6.9,45.3,7.9,46.9,8.2,48.2z"/>
				<path class="st0" d="M6.1,42.2c0.1,3.2-1.2,3.9-0.2,6.8C5,47.9,4,47.5,2.8,46.4C1.2,45-0.1,42.9,0,40c0.3,0.8,1.2,2.3,2.3,3.4
					c1,1.1,1.9,2.4,2.3,3.3c-1-3.5,0.8-4.9,1-7C5.7,40.5,6,41.7,6.1,42.2z"/>
				<path class="st0" d="M5.4,38.6c0.3-1,0.2-1.7,0.4-2.8c-0.4,1-2.9,2.9-2.6,6.4c-0.1-0.6-0.6-2.6-1.4-4c-0.6-1.1-1.1-2.2-1-3.8
					c-0.7,2.1-0.6,3.3-0.3,4.4c0.3,1.1,1,1.9,1.6,2.7c0.4,0.6,1.2,1.6,1.6,2.6C3.7,42,5.1,40,5.4,38.6z"/>
				<path class="st0" d="M6,34.2c0.6-0.9,0.9-2,1.5-3.1c-0.4,0.5-0.7,0.7-1.6,1.5c-1.3,1.1-2.2,2.3-2.7,4.3c0-1.3-0.2-2-0.4-3.4
					c-0.2-1.3-0.2-2.7,0.4-4.3c-1.1,1.4-2.1,4-1.5,5.8c0.4,1.7,1.2,2.6,1.4,3.8C3.7,36.5,5.2,35.3,6,34.2z"/>
				<path class="st0" d="M5.6,31.6c0.6-0.5,2-1.3,2.7-2.1c0.7-0.8,1-1.6,1.5-2.3c-1,0.9-1.6,1.2-2.6,1.9c-0.9,0.5-2.2,1.3-2.7,2.4
					c0.3-0.9,0.5-2,0.6-2.9c0.2-1.4,0.7-2.3,1.2-2.8c-1.4,1.1-2.2,2.1-2.6,4.1c-0.4,2,0.1,3.5-0.1,4.6C4.2,32.9,5.1,32.1,5.6,31.6z"
					/>
				<path class="st0" d="M5.4,29.5c0.6-1.9,1.3-3,2.5-4c1.7-1.4,3.4-2,4.1-2.4c-1.3,1-1.3,1.8-3.1,3.5C7.5,28,6.5,28.1,5.4,29.5z"/>
			</g>
		</g>
		<g>
			<g>
				<path class="st0" d="M23.3,46.7c0,0.3,0,0.6,0,1c0.8,0.4,1.5,0.9,1.8,2.1C25.1,47.9,24.2,47.2,23.3,46.7z M25.2,39.7
					c-0.6-0.4-1.3-0.8-1.8-1c0,0.8,0,1.4,0,1.9c0.6,0.3,1.1,0.6,1.1,1c0,0.4-0.4,0.7-1.2,1v0l-0.2,0.1c-0.1,0-0.2,0.1-0.3,0.1
					c0,0,0,0,0,0c-0.1,0-0.1,0.1-0.2,0.1c-0.2,0.1-0.4,0.1-0.6,0.2c0,0-0.1,0-0.1,0c-0.1,0-0.2,0.1-0.3,0.1c0,0-0.1,0-0.1,0.1
					c-1.3,0.6-1.4,1.4-1.3,2.2c0.1,0.6,0.5,1,1.1,1.3c0-0.7,0-1.2,0-1.3c0-0.3,0.2-0.6,0.5-0.8c0.2-0.2,0.5-0.3,1-0.5
					c0.6-0.2,1.1-0.4,2-0.7C26.8,42.8,26.8,40.9,25.2,39.7z M23.6,25.4c0,0.5,0,1.1,0,1.7c0.2,0,0.4,0.1,0.5,0.1
					c1.7,0.4,2.4,1.3,2.4,2.3c0,0.9-0.8,2-2.5,2.6c-0.2,0-0.4,0.1-0.6,0.1l0,0l-0.3,0.1c-0.3,0.1-0.7,0.2-0.9,0.2
					c-0.3,0.1-0.5,0.1-0.7,0.2L21,32.7l0,0c-0.4,0.1-0.7,0.2-1,0.3c-1.9,0.9-2.6,2.4-2.2,4.2c0.3,1,0.8,1.8,2.4,2.3
					c0.3,0.1,0.7,0.2,1,0.3l0-2c-0.4-0.2-0.7-0.4-1-0.6c-0.6-0.8-0.5-1.9,0.9-2.4l0,0l0.1,0c0,0,0,0,0,0c0,0,0.1,0,0.1,0l0.1,0
					c0.1,0,0.5-0.1,0.8-0.2c0.3-0.1,0.7-0.2,1-0.3l0.1,0l0,0c1-0.2,1.9-0.5,2.8-0.9c1.5-0.8,2.7-2,2.6-4.1
					C28.7,27.7,27.2,25.6,23.6,25.4z M19.4,28.4c0.4-0.5,0.9-0.9,1.5-1.1c0-0.6,0-1.2,0-1.8c-1,0.2-1.5,0.6-1.7,0.7
					c-0.6,0.2-1.3,0.1-2.2,1c-0.1,0.2-0.5,0.6-0.8,1c-0.2,0.4-0.3,0.9-0.4,1.3c-0.3,0.5-0.2,0.7-0.2,0.7l0,0c0,0.1-0.1,0.3-0.3,0.5
					c-0.3,0.3-0.6,0.5-1.1,0.4c0.4,0.2,0.9-0.1,0.9-0.1s-0.1,0.3-0.2,0.8c0.4-0.8,0.7-1.2,0.9-1.4c0.2,0,0.5,0,1.3-0.4
					C17.9,29.6,19.1,28.9,19.4,28.4z M18,28l-0.6,0.7L17,28.7l0.1-0.3l0.6-0.5l0.5,0L18,28z M21.4,32.1c0.5-0.1,1.1-0.2,1.6-0.4
					c0-0.6,0.2-7.8,0.2-8.2c0.1-1.1,1.1-3.9-1-3.9c-2,0-1.1,3-1,4C21.3,24.1,21.4,31.5,21.4,32.1z M21.8,45.6c0,0.2,0.1,6.3,0.2,6.9
					c0.1,1.5,0.6,1.5,0.7,0.1c0-0.4,0.2-7.6,0.2-7.8C22.2,45,21.8,45.2,21.8,45.6z M22.2,42.6c0.3-0.1,0.5-0.2,0.7-0.2
					c0-0.1,0.1-7.3,0.1-7.6c-0.3,0-1.2,0.3-1.4,0.4c0,0.2,0.1,7.6,0.1,7.6S22,42.7,22.2,42.6z"/>
			</g>
		</g>
	</g>
</g>
</svg>
