<?xml version="1.0" encoding="utf-8"?>
<!-- Generator: Adobe Illustrator 19.2.0, SVG Export Plug-In . SVG Version: 6.00 Build 0)  -->
<svg version="1.1" id="Layer_1" xmlns="http://www.w3.org/2000/svg" xmlns:xlink="http://www.w3.org/1999/xlink" x="0px" y="0px"
	 viewBox="0 0 340.6 96.7" style="enable-background:new 0 0 340.6 96.7;" xml:space="preserve">
<style type="text/css">
	.st0{opacity:0.65;}
	.st1{fill:#FFFFFF;}
</style>
<g class="st0">
	<g>
		<g>
			<path class="st1" d="M178.3,29.4v8h-19.8v-8H178.3z"/>
		</g>
		<path class="st1" d="M340.6,69.5l-35.7-20.6V35.1c1.1,0.2,2.4,0.3,3.9,0.3c6.8,0,12.6-1.8,16.6-5.6c3.1-2.9,4.7-7.5,4.7-12.7
			c0-5.2-2.1-9.7-5.4-12.4c-3.4-2.9-8.5-4.3-15.6-4.3c-7,0-12,0.5-15.6,1.1v52.8h-21.2c9-2.2,13.3-8.5,13.3-15.8
			c0-7.5-4.2-12.5-13.2-15.9c-6.7-2.6-9.5-4.1-9.5-7.5c0-2.7,2.4-5.2,7.4-5.2c4.9,0,8.6,1.5,10.6,2.5l2.6-9.7c-3-1.5-7.2-2.7-13-2.7
			c-12,0-19.3,6.9-19.3,16c0,7.8,5.6,12.7,14.1,15.9c6.1,2.2,8.6,4.1,8.6,7.5c0,3.5-2.8,5.8-8.1,5.8c-4.9,0-9.8-1.7-12.8-3.3
			l-2.3,9.9c1.6,0.9,4.2,1.9,7.1,2.5h-24.2c4.1-0.6,7.7-1.6,10-2.5V23.6h-19v9.4h7.9v11.3c-0.9,0.4-3,0.7-5.6,0.7
			c-9.5,0-16.1-6.4-16.1-17.5c0-11.7,7.4-17.3,17-17.3c5.6,0,9,1,11.8,2.3l2.4-9.8c-2.5-1.2-7.6-2.5-14.2-2.5
			c-16.7,0-29.1,10.2-29.1,27.9c0,7.8,2.6,14.8,7.2,19.5c3.4,3.4,7.9,5.6,13.6,6.6h-106V35.1c1.1,0.2,2.4,0.3,3.9,0.3
			c6.8,0,12.6-1.8,16.6-5.6c3.1-2.9,4.7-7.5,4.7-12.7c0-5.2-2.1-9.7-5.4-12.4c-3.4-2.9-8.5-4.3-15.6-4.3c-7,0-12,0.5-15.6,1.1v52.8
			h-6.7L79.3,0.8H64.1L48.6,54.3h-6.4V0.8H31.7v15.5c0,8.1,0.2,15.3,0.9,22.4h-0.2c-2.3-6-5.3-12.7-8.3-18.3L13.5,0.8H0v83.9h293.4
			v12L340.6,69.5z M304.8,10c0.8-0.2,2.4-0.4,4.7-0.4c5.8,0,9.1,2.9,9.1,7.8c0,5.4-3.8,8.7-9.9,8.7c-1.7,0-2.9-0.1-3.9-0.3V10z
			 M113.3,10c0.8-0.2,2.4-0.4,4.7-0.4c5.8,0,9.1,2.9,9.1,7.8c0,5.4-3.8,8.7-9.9,8.7c-1.7,0-2.9-0.1-3.9-0.3V10z M10.6,54.3V38.2
			c0-8.7-0.2-16.3-0.5-23.4h0.3c2.4,6.3,5.8,13.2,8.9,18.9l10.9,20.6H10.6z M68.8,20.1c0.8-3.1,1.6-7.1,2.3-10.3h0.2
			C72.1,13,73,17,73.9,20.1l3.2,11.3H65.8L68.8,20.1z M60.5,54.3l3.6-13.7h14.6l3.9,13.7H60.5z"/>
	</g>
</g>
</svg>
