<?xml version="1.0" encoding="utf-8"?>
<!-- Generator: Adobe Illustrator 18.1.1, SVG Export Plug-In . SVG Version: 6.00 Build 0)  -->
<svg version="1.1" id="Layer_1" xmlns="http://www.w3.org/2000/svg" xmlns:xlink="http://www.w3.org/1999/xlink" x="0px" y="0px"
	 viewBox="0 0 243 144" enable-background="new 0 0 243 144" xml:space="preserve">
<path opacity="0.5" fill="#FFFFFF" d="M227.1,144H15.9C7.1,144,0,136.9,0,128.1V15.9C0,7.1,7.1,0,15.9,0h211.1
	c8.8,0,15.9,7.1,15.9,15.9v112.1C243,136.9,235.9,144,227.1,144z"/>
<polygon fill="#F5CE00" points="43.4,80.8 44.9,80.8 44.9,100.8 41.4,100.8 41.4,80.8 "/>
<polygon fill="#ED1C24" points="43.4,60.7 44.9,60.7 44.9,80.8 41.4,80.8 41.4,60.7 "/>
<polygon points="44.9,40.8 44.9,60.8 43.4,60.8 41.4,60.8 41.4,40.8 "/>
<g>
	<path d="M32.3,47.7c1,1.6,1.8,1.6,3,1.6c-1-0.8-1.7-1.8-2-2.3l-1.9-3c-0.2-0.9-0.7-1.8-1.4-2.4c0.2-0.1,0.4-0.2,0.6-0.3
		c-1.2,0-2.4-0.6-3.1-0.6c-0.4,0-0.7,0.3-0.7,0.6c0,0.4,0.4,0.8,1.1,0.8c0.2,0,0.4,0,0.6-0.1c0.4,0.5,0.7,1,0.7,1.7
		c0,1.3-1.6,2.3-3.1,2.3c-0.1,0-0.2,0-0.3,0c-0.1-0.3-0.6-0.9-0.6-1.5c0-1,0.7-1.9,0.7-2.9c0-0.6-0.3-1-0.4-1.2
		c0.2-0.2,0.4-0.4,0.5-0.6c-0.1,0-0.2,0.1-0.4,0.1c-0.8,0-1.4-0.2-2-0.2c-0.3,0-0.4,0.1-0.4,0.2c0,0,0,0.1,0,0.1
		C23,40,22.9,40,22.8,40c-0.2,0-0.4-0.1-0.6-0.1c-0.7,0-1,0.3-1,0.6c0,0.2,0.2,0.6,0.4,0.9c0.3-0.1,0.6-0.2,0.8-0.2
		c0.4,0,0.7,0.4,0.9,0.8c-0.3,0-0.3,0-0.6,0c-0.7,0-1.2-0.3-1.3-0.3c0,0,0,0,0,0c0,0.1,0.2,0.4,0.6,0.5c0.5,0.2,1.3,0.3,1.4,0.3
		c0,0-0.1,0.3-0.3,0.3c0,0-0.1,0-0.1,0c-0.5-0.1-0.7-0.2-1.4-0.4c0,0,0,0,0,0c0,0.3,0.7,0.9,1.3,1.1c-0.5,0.7-1.2,1.4-1.5,2.4
		c-0.1,0-0.2,0-0.3,0c-1.6,0-3.1-1-3.1-2.3c0-0.7,0.3-1.2,0.7-1.7c0.2,0,0.4,0.1,0.6,0.1c0.7,0,1.1-0.4,1.1-0.8
		c0-0.3-0.3-0.6-0.7-0.6c-0.7,0-1.9,0.6-3.1,0.6c0.1,0.1,0.3,0.2,0.6,0.3c-0.7,0.6-1.2,1.5-1.4,2.4l-1.9,3c-0.3,0.5-1,1.5-2,2.3
		c1.2,0,2,0,3-1.6l1-1.5c0.1,0.2,0.2,0.4,0.3,0.6l-1.9,3.1c-0.3,0.5-1,1.5-2,2.3c1.2,0,2,0,3-1.6l1.6-2.6c0.1,0.1,0.3,0.3,0.4,0.4
		L15.1,52c-0.3,0.5-1,1.5-2,2.2c1.2,0,2,0,3-1.6l2.3-3.6c0.1,0.1,0.3,0.2,0.5,0.3l-2.8,4.4c-0.3,0.5-1,1.5-2,2.2c1.2,0,2,0,3-1.6
		l2.8-4.5c0.2,0.1,0.3,0.1,0.5,0.2l-3.2,5.1c-0.3,0.5-1,1.5-2,2.2c1.2,0,2,0,3-1.6l3.4-5.5c0,0,0.1,0,0.1,0c0.1,0.3,0.2,0.6,0.2,0.8
		c0,1.7-1.1,3.2-2.5,4.4c0.1,0,0.2,0.1,0.4,0.1c0.3,0,0.5,0,0.6,0c-0.3,0.7-1,1.6-1.3,2.1c-0.4-0.1-1.1-0.1-1.5-0.1
		c-0.4,0-0.5,0.3-0.5,0.5c0,0.4,0.2,0.7,0.4,0.9c0.1-0.2,0.2-0.5,1.1-0.5c0,0,0,0,0.1,0c-0.2,0.3-1,0.9-1,1.4c0,0.3,0.4,0.8,0.8,0.8
		c0-0.1,0-0.2,0-0.3c0-0.4,0.3-0.9,0.6-1.2c0,0.1,0,0.1,0,0.2c0,0.9,0.1,1.4,0.7,1.4c0.3,0,0.5-0.2,0.6-0.2
		c-0.4-0.4-0.4-0.6-0.4-1.2c0-0.1,0-0.3,0-0.5c0-0.1,0-0.3,0-0.4c0.2,0,0.3,0,0.5,0c0,0,0.8-0.1,1,0.4c0.2-0.2,0.6-0.5,0.6-0.8
		c0-0.2-0.1-0.5-0.5-0.5c-0.2,0-0.7,0.1-1.1,0.1c0.1-0.3,0.6-1,1.1-1.6c0.1,0.2,0.2,0.4,0.4,0.6c0-0.4,0.2-1.5,0.8-2.1
		c0.1,0.4,0.2,0.9,0.2,1.8c0,2.3-0.6,4-1.7,4.3c0.2,0.3,0.5,0.5,0.8,0.5c0.4,0,0.7-0.5,0.9-0.9c0.1,0.3,0.5,1.2,0.8,1.2
		c0.3,0,0.7-0.8,0.8-1.2c0.2,0.5,0.5,0.9,0.9,0.9c0.3,0,0.7-0.2,0.8-0.5c-1.2-0.3-1.7-2-1.7-4.3c0-1,0.1-1.4,0.1-1.8
		c0.6,0.7,0.8,1.8,0.8,2.1c0.2-0.2,0.3-0.4,0.4-0.6c0.4,0.5,1,1.3,1.1,1.6c-0.4,0-0.9-0.1-1.1-0.1c-0.4,0-0.5,0.2-0.5,0.5
		c0,0.3,0.3,0.6,0.6,0.8c0.2-0.4,1-0.4,1-0.4c0.2,0,0.2,0,0.5,0c0,0.1,0,0.3,0,0.4c0,0.2,0,0.3,0,0.5c0,0.5,0,0.8-0.4,1.2
		c0.1,0,0.3,0.2,0.6,0.2c0.6,0,0.7-0.4,0.7-1.4c0-0.1,0-0.1,0-0.2c0.3,0.3,0.6,0.8,0.6,1.2c0,0.1,0,0.2,0,0.3c0.5,0,0.8-0.5,0.8-0.8
		c0-0.5-0.7-1.1-1-1.4c0,0,0.1,0,0.1,0c0.8,0,1,0.3,1.1,0.5c0.2-0.2,0.4-0.5,0.4-0.9c0-0.2,0-0.5-0.5-0.5c-0.4,0-1.1,0.1-1.5,0.1
		c-0.3-0.5-1-1.4-1.3-2.1c0.1,0,0.3,0,0.6,0c0.1,0,0.3,0,0.4-0.1c-1.4-1.2-2.5-2.7-2.5-4.4c0-0.3,0.1-0.6,0.2-0.8c0,0,0.1,0,0.1,0
		l3.4,5.5c1,1.6,1.8,1.6,3,1.6c-1-0.8-1.7-1.8-2-2.2L26.8,50c0.2-0.1,0.3-0.1,0.5-0.2l2.8,4.5c1,1.6,1.8,1.6,3,1.6
		c-1-0.8-1.7-1.7-2-2.2l-2.8-4.4c0.2-0.1,0.3-0.2,0.5-0.3l2.3,3.6c1,1.6,1.8,1.6,3,1.6c-1-0.8-1.7-1.7-2-2.2l-2.3-3.7
		c0.1-0.1,0.3-0.2,0.4-0.4l1.6,2.6c1,1.6,1.8,1.6,3,1.6c-1-0.8-1.7-1.7-2-2.3l-1.9-3.1c0.1-0.2,0.2-0.4,0.3-0.6L32.3,47.7z M17,44.2
		c0-1.1,0.8-2,1.1-2.3c0.1,0,0.1,0,0.2,0c-0.3,0.4-0.9,1-0.9,1.9c0,1.7,1.8,3.1,3.8,3.1c0,0.1,0,0.3,0,0.4c0,0.2,0,0.5,0,0.7
		C19,48.1,17,46.2,17,44.2z M20.1,57.9L20.1,57.9L20.1,57.9c0.7,0,1,0,1.2,0c0.1,0,0.2,0,0.3,0c0.2,0,0.3,0,0.3,0.2
		c0,0.1-0.2,0.4-0.3,0.5c-0.2-0.2-0.6-0.3-1-0.3c-0.2,0-0.5,0-0.7,0.1l0,0l0,0l0,0.1c0,0.1,0,0.3,0,0.5l0,0.2l0,0.3
		c0,0.5,0.1,0.9,0.3,1.1c0,0-0.1,0-0.2,0c-0.3,0-0.4-0.1-0.4-1.1c0-0.2,0-0.4,0-0.5l0-0.2l0,0c-0.5,0.4-1,1.1-1.1,1.6
		C18.2,60.2,18,60,18,59.8c0-0.3,0.4-0.7,0.9-1.2l0.3-0.3l0,0l-0.1,0c-0.1,0-0.3-0.1-0.5-0.1c-0.5,0-0.9,0.1-1.1,0.3
		c-0.1-0.1-0.1-0.4-0.1-0.5c0-0.1,0-0.2,0.1-0.2c0,0,0.1,0,0.2,0h0c0.6,0,1.3,0.1,1.6,0.2l0,0l0,0c0-0.1,1.2-1.6,1.5-2.4
		c0.1,0,0.1,0,0.2,0c0.2,0,0.3,0.2,0.4,0.4C20.7,56.8,20.3,57.4,20.1,57.9z M26.3,55.5c0.1,0,0.2,0,0.2,0c0.3,0.8,1.4,2.3,1.5,2.4
		l0,0l0,0c0.3,0,1-0.2,1.6-0.2h0c0.1,0,0.1,0,0.2,0c0,0,0.1,0.1,0.1,0.2c0,0.1-0.1,0.4-0.1,0.5c-0.2-0.2-0.6-0.3-1.1-0.3
		c-0.2,0-0.4,0-0.5,0.1l0,0l0,0l0.3,0.3c0.5,0.5,0.9,0.9,0.9,1.2c0,0.2-0.2,0.4-0.3,0.5c0-0.5-0.5-1.2-1.1-1.6l0,0l0,0.2
		c0,0.1,0,0.3,0,0.5c0,1-0.1,1.1-0.4,1.1c-0.1,0-0.1,0-0.2,0c0.2-0.2,0.3-0.5,0.3-1.1l0-0.3l0-0.2c0-0.2,0-0.4,0-0.5l0-0.1l-0.1,0
		c-0.2,0-0.5-0.1-0.7-0.1c-0.5,0-0.8,0-1,0.3c-0.2-0.1-0.3-0.3-0.3-0.5c0-0.2,0.1-0.2,0.3-0.2c0.1,0,0.2,0,0.3,0
		c0.2,0,0.5,0.1,1.2,0.1h0l0,0c-0.2-0.5-0.6-1.1-1.3-2C26,55.7,26.1,55.5,26.3,55.5z M23.6,42.2c-0.1-0.3-0.2-0.6-0.4-0.8
		c-0.2-0.2-0.5-0.5-0.9-0.5c-0.2,0-0.5,0.1-0.7,0.2c-0.1-0.1-0.2-0.4-0.2-0.6c0-0.1,0.2-0.3,0.7-0.3c1,0,1.6,0.5,1.6,1.2
		C23.8,41.7,23.7,42,23.6,42.2z M24.1,41.2c0-0.2-0.1-0.4-0.2-0.6c0-0.2,0.1-0.4,0.4-0.2c-0.2,0.2,0,0.5,0,0.5s0.4-0.2,0.3-0.4
		C25,40.6,24.7,41.3,24.1,41.2z M26.1,48.1c0-0.2,0-0.5,0-0.7c0-0.1,0-0.3,0-0.4c2,0,3.7-1.5,3.7-3.1c0-0.8-0.5-1.5-0.9-1.9
		c0.1,0,0.1,0,0.2,0c0.3,0.3,1.1,1.2,1.1,2.3C30.3,46.2,28.4,48,26.1,48.1z"/>
</g>
<g>
	<path d="M52.2,48.8v-8h4v0.9h-3v2.6H56v0.9h-2.8v3.7H52.2z"/>
	<path d="M58,46.3c0,0.7,0.1,1.2,0.3,1.5c0.2,0.3,0.5,0.4,0.9,0.4c0.3,0,0.5-0.1,0.7-0.3c0.2-0.2,0.3-0.5,0.3-0.8h1
		c0,0.6-0.2,1-0.5,1.4c-0.3,0.3-0.8,0.5-1.4,0.5c-0.9,0-1.5-0.3-1.7-0.8C57.2,47.6,57,46.9,57,46c0-1.1,0.2-1.9,0.5-2.4
		c0.3-0.4,0.9-0.7,1.7-0.7c0.7,0,1.2,0.2,1.5,0.6c0.3,0.4,0.4,1.1,0.4,2v0.6H58z M58,45.6h2.2c0-0.8-0.1-1.3-0.3-1.6
		c-0.1-0.2-0.4-0.3-0.7-0.3c-0.4,0-0.7,0.1-0.9,0.4C58.1,44.4,58,44.9,58,45.6z"/>
	<path d="M65.7,43.8v-3h0.9v8h-0.9v-0.7c-0.3,0.5-0.7,0.8-1.3,0.8c-0.7,0-1.1-0.2-1.4-0.7c-0.3-0.5-0.4-1.2-0.4-2.3
		c0-1.1,0.2-1.9,0.5-2.3c0.3-0.4,0.8-0.6,1.4-0.6C65,43,65.4,43.3,65.7,43.8z M63.5,46.1c0,0.8,0.1,1.3,0.3,1.6
		c0.2,0.3,0.5,0.5,0.9,0.5c0.3,0,0.6-0.1,0.8-0.4c0.2-0.3,0.3-0.9,0.3-1.7c0-0.6,0-1.1-0.1-1.4c-0.1-0.2-0.2-0.4-0.3-0.6
		c-0.2-0.2-0.4-0.3-0.7-0.3c-0.4,0-0.7,0.2-0.9,0.5C63.6,44.6,63.5,45.2,63.5,46.1z"/>
	<path d="M69.2,46.3c0,0.7,0.1,1.2,0.3,1.5c0.2,0.3,0.5,0.4,0.9,0.4c0.3,0,0.5-0.1,0.7-0.3c0.2-0.2,0.3-0.5,0.3-0.8h1
		c0,0.6-0.2,1-0.5,1.4c-0.3,0.3-0.8,0.5-1.4,0.5c-0.9,0-1.5-0.3-1.7-0.8c-0.3-0.5-0.4-1.2-0.4-2.1c0-1.1,0.2-1.9,0.5-2.4
		c0.3-0.4,0.9-0.7,1.7-0.7c0.7,0,1.2,0.2,1.5,0.6c0.3,0.4,0.4,1.1,0.4,2v0.6H69.2z M69.2,45.6h2.2c0-0.8-0.1-1.3-0.3-1.6
		c-0.1-0.2-0.4-0.3-0.7-0.3c-0.4,0-0.7,0.1-0.9,0.4C69.3,44.4,69.2,44.9,69.2,45.6z"/>
	<path d="M74,48.8v-5.7h0.9V44c0.2-0.7,0.8-1,1.6-1h0.2v1c-0.2,0-0.3-0.1-0.5-0.1c-0.8,0-1.3,0.5-1.3,1.6v3.4H74z"/>
	<path d="M77.7,44.7c0-1.1,0.7-1.7,1.9-1.7s1.9,0.6,1.9,1.7v2.8c0,0.5,0,0.9,0.1,1.3h-1V48c-0.3,0.6-0.7,1-1.4,1
		c-1.1,0-1.6-0.6-1.6-1.9c0-0.6,0.2-1,0.6-1.3c0.4-0.3,0.9-0.5,1.7-0.5h0.7v-0.5c0-0.7-0.3-1.1-1-1.1c-0.3,0-0.5,0.1-0.6,0.2
		c-0.2,0.2-0.3,0.4-0.3,0.7H77.7z M80.3,46c-0.7,0-1.2,0.1-1.4,0.3c-0.3,0.2-0.4,0.5-0.4,0.9c0,0.3,0.1,0.6,0.2,0.8
		c0.2,0.2,0.4,0.3,0.6,0.3c0.4,0,0.7-0.1,0.9-0.4c0.2-0.3,0.3-0.9,0.3-1.8H80.3z"/>
	<path d="M83.2,48.8v-8h0.9v8H83.2z"/>
	<path d="M88.3,40.8H90l2.1,6.8l2.1-6.8h1.7v8h-1.1v-7.1l-2.3,7.1h-1l-2.3-7.2v7.2h-1V40.8z"/>
	<path d="M97.5,40.6h1v1h-1V40.6z M97.5,43.1h0.9v5.7h-0.9V43.1z"/>
	<path d="M101,48.8H100v-4.7c0-0.3,0-0.6,0-1h1l0,0.8c0.2-0.3,0.4-0.6,0.6-0.7c0.3-0.1,0.6-0.2,0.9-0.2c0.5,0,0.9,0.1,1.1,0.4
		c0.2,0.3,0.4,0.7,0.4,1.4v4h-0.9v-4c0-0.7-0.3-1.1-1-1.1c-0.8,0-1.2,0.5-1.2,1.6V48.8z"/>
	<path d="M105.6,40.6h1v1h-1V40.6z M105.6,43.1h0.9v5.7h-0.9V43.1z"/>
	<path d="M108.9,47.1c0,0.7,0.3,1.1,0.9,1.1c0.3,0,0.6-0.1,0.7-0.2c0.2-0.1,0.3-0.4,0.3-0.6c0-0.2-0.1-0.4-0.3-0.5
		c-0.2-0.1-0.5-0.3-0.9-0.5c-0.5-0.2-0.9-0.5-1.2-0.8c-0.3-0.3-0.4-0.6-0.4-1c0-0.5,0.2-0.9,0.5-1.2c0.3-0.3,0.8-0.4,1.4-0.4
		c0.6,0,1,0.1,1.3,0.4c0.3,0.2,0.5,0.5,0.5,0.9v0.3h-1.1c0-0.6-0.3-0.9-0.8-0.9c-0.3,0-0.5,0.1-0.6,0.2c-0.2,0.1-0.2,0.3-0.2,0.6
		c0,0.2,0.1,0.4,0.4,0.6c0.3,0.2,0.6,0.3,0.9,0.4c0.5,0.2,0.9,0.5,1.1,0.7c0.3,0.3,0.4,0.6,0.4,1c0,1.2-0.7,1.8-2,1.8
		c-1.3,0-2-0.6-2-1.8H108.9z"/>
	<path d="M112.3,43.8v-0.7h0.9V42l0.9-0.4v1.5h1.2v0.7h-1.2v3.6c0,0.2,0.1,0.4,0.2,0.5c0.1,0.1,0.3,0.2,0.6,0.2c0.1,0,0.2,0,0.4,0
		v0.7c-0.2,0.1-0.5,0.1-0.9,0.1c-0.8,0-1.3-0.3-1.3-1v-4.1H112.3z"/>
	<path d="M116.2,48.8v-5.7h0.9V44c0.2-0.7,0.8-1,1.6-1h0.2v1c-0.2,0-0.3-0.1-0.5-0.1c-0.8,0-1.3,0.5-1.3,1.6v3.4H116.2z"/>
	<path d="M119.2,43.1h1.1l1.4,4.6l1.4-4.6h1l-2.6,7.8h-0.9l0.6-2.1L119.2,43.1z"/>
	<path d="M126.7,43.1h0.9v-1c0-0.5,0.1-0.8,0.4-1.1c0.3-0.2,0.7-0.3,1.3-0.3c0.1,0,0.3,0,0.4,0v0.7c0,0-0.1,0-0.2,0
		c-0.6,0-0.9,0.2-0.9,0.7v0.9h1.1v0.7h-1.1v5h-0.9v-5h-0.9V43.1z"/>
	<path d="M130.3,46c0-1.2,0.2-2,0.5-2.4c0.3-0.4,0.9-0.6,1.7-0.6c0.8,0,1.4,0.2,1.7,0.7c0.3,0.5,0.5,1.2,0.5,2.2
		c0,1.1-0.2,1.9-0.5,2.3c-0.3,0.4-0.9,0.7-1.7,0.7c-0.8,0-1.3-0.2-1.7-0.6C130.5,47.9,130.3,47.1,130.3,46z M131.3,45.7
		c0,0.9,0.1,1.6,0.2,2c0.2,0.4,0.5,0.5,1,0.5c0.4,0,0.8-0.2,0.9-0.6c0.2-0.4,0.2-1,0.2-2c0-0.7-0.1-1.3-0.3-1.5
		c-0.2-0.3-0.5-0.4-0.9-0.4c-0.4,0-0.7,0.1-0.9,0.4C131.4,44.5,131.3,45,131.3,45.7z"/>
	<path d="M136.1,48.8v-5.7h0.9V44c0.2-0.7,0.8-1,1.6-1h0.2v1c-0.2,0-0.3-0.1-0.5-0.1c-0.8,0-1.3,0.5-1.3,1.6v3.4H136.1z"/>
	<path d="M141.5,43.8v-0.7h0.9V42l0.9-0.4v1.5h1.2v0.7h-1.2v3.6c0,0.2,0.1,0.4,0.2,0.5c0.1,0.1,0.3,0.2,0.6,0.2c0.1,0,0.2,0,0.4,0
		v0.7c-0.2,0.1-0.5,0.1-0.9,0.1c-0.8,0-1.3-0.3-1.3-1v-4.1H141.5z"/>
	<path d="M145.4,40.8h0.9v3.1c0.3-0.6,0.8-0.9,1.6-0.9c0.5,0,0.9,0.1,1.1,0.4c0.2,0.3,0.4,0.8,0.4,1.4v4h-0.9v-4
		c0-0.7-0.3-1.1-1-1.1c-0.8,0-1.2,0.5-1.2,1.6v3.5h-0.9V40.8z"/>
	<path d="M151.9,46.3c0,0.7,0.1,1.2,0.3,1.5c0.2,0.3,0.5,0.4,0.9,0.4c0.3,0,0.5-0.1,0.7-0.3c0.2-0.2,0.3-0.5,0.3-0.8h1
		c0,0.6-0.2,1-0.5,1.4c-0.3,0.3-0.8,0.5-1.4,0.5c-0.9,0-1.5-0.3-1.7-0.8c-0.3-0.5-0.4-1.2-0.4-2.1c0-1.1,0.2-1.9,0.5-2.4
		c0.3-0.4,0.9-0.7,1.7-0.7c0.7,0,1.2,0.2,1.5,0.6c0.3,0.4,0.4,1.1,0.4,2v0.6H151.9z M151.9,45.6h2.2c0-0.8-0.1-1.3-0.3-1.6
		c-0.1-0.2-0.4-0.3-0.7-0.3c-0.4,0-0.7,0.1-0.9,0.4C152,44.4,151.9,44.9,151.9,45.6z"/>
	<path d="M52.2,60.8v-8h4.2v0.9h-3.1v2.6h2.9v0.9h-2.9v2.8h3.2v0.9H52.2z"/>
	<path d="M58.7,60.8h-0.9v-4.7c0-0.3,0-0.6,0-1h1l0,0.8c0.2-0.3,0.4-0.6,0.6-0.7c0.3-0.1,0.6-0.2,0.9-0.2c0.5,0,0.9,0.1,1.1,0.4
		c0.2,0.3,0.4,0.7,0.4,1.4v4h-0.9v-4c0-0.7-0.3-1.1-1-1.1c-0.8,0-1.2,0.5-1.2,1.6V60.8z"/>
	<path d="M65,60l1.4-4.8h1l-1.8,5.7h-1.2l-1.7-5.7h1L65,60z"/>
	<path d="M68.2,52.6h1v1h-1V52.6z M68.3,55.1h0.9v5.7h-0.9V55.1z"/>
	<path d="M70.8,60.8v-5.7h0.9V56c0.2-0.7,0.8-1,1.6-1h0.2v1c-0.2,0-0.3-0.1-0.5-0.1c-0.8,0-1.3,0.5-1.3,1.6v3.4H70.8z"/>
	<path d="M74.4,58c0-1.2,0.2-2,0.5-2.4c0.3-0.4,0.9-0.6,1.7-0.6c0.8,0,1.4,0.2,1.7,0.7c0.3,0.5,0.5,1.2,0.5,2.2
		c0,1.1-0.2,1.9-0.5,2.3c-0.3,0.4-0.9,0.7-1.7,0.7c-0.8,0-1.3-0.2-1.7-0.6C74.5,59.9,74.4,59.1,74.4,58z M75.4,57.7
		c0,0.9,0.1,1.6,0.2,2c0.2,0.4,0.5,0.5,1,0.5c0.4,0,0.8-0.2,0.9-0.6c0.2-0.4,0.2-1,0.2-2c0-0.7-0.1-1.3-0.3-1.5
		c-0.2-0.3-0.5-0.4-0.9-0.4c-0.4,0-0.7,0.1-0.9,0.4C75.4,56.5,75.4,57,75.4,57.7z"/>
	<path d="M81,60.8h-0.9v-4.7c0-0.3,0-0.6,0-1h1l0,0.8c0.2-0.3,0.4-0.6,0.6-0.7c0.3-0.1,0.6-0.2,0.9-0.2c0.5,0,0.9,0.1,1.1,0.4
		c0.2,0.3,0.4,0.7,0.4,1.4v4h-0.9v-4c0-0.7-0.3-1.1-1-1.1c-0.8,0-1.2,0.5-1.2,1.6V60.8z"/>
	<path d="M86.6,60.8h-0.9v-4.6c0-0.3,0-0.7,0-1.1h0.9v0.8c0.2-0.6,0.7-0.9,1.4-0.9c0.7,0,1.1,0.2,1.3,0.7c0.3-0.5,0.7-0.7,1.3-0.7
		c1,0,1.5,0.5,1.5,1.5v4.3h-0.9v-4c0-0.7-0.3-1.1-0.9-1.1c-0.7,0-1,0.4-1,1.2v3.9h-0.9v-4c0-0.7-0.3-1.1-0.9-1.1c-0.7,0-1,0.4-1,1.2
		V60.8z"/>
	<path d="M94.7,58.3c0,0.7,0.1,1.2,0.3,1.5c0.2,0.3,0.5,0.4,0.9,0.4c0.3,0,0.5-0.1,0.7-0.3c0.2-0.2,0.3-0.5,0.3-0.8h1
		c0,0.6-0.2,1-0.5,1.4c-0.3,0.3-0.8,0.5-1.4,0.5c-0.9,0-1.5-0.3-1.7-0.8c-0.3-0.5-0.4-1.2-0.4-2.1c0-1.1,0.2-1.9,0.5-2.4
		c0.3-0.4,0.9-0.7,1.7-0.7c0.7,0,1.2,0.2,1.5,0.6c0.3,0.4,0.4,1.1,0.4,2v0.6H94.7z M94.7,57.6h2.2c0-0.8-0.1-1.3-0.3-1.6
		c-0.1-0.2-0.4-0.3-0.7-0.3c-0.4,0-0.7,0.1-0.9,0.4C94.8,56.4,94.7,56.9,94.7,57.6z"/>
	<path d="M100.3,60.8h-0.9v-4.7c0-0.3,0-0.6,0-1h1l0,0.8c0.2-0.3,0.4-0.6,0.6-0.7c0.3-0.1,0.6-0.2,0.9-0.2c0.5,0,0.9,0.1,1.1,0.4
		c0.2,0.3,0.4,0.7,0.4,1.4v4h-0.9v-4c0-0.7-0.3-1.1-1-1.1c-0.8,0-1.2,0.5-1.2,1.6V60.8z"/>
	<path d="M104.2,55.8v-0.7h0.9V54l0.9-0.4v1.5h1.2v0.7H106v3.6c0,0.2,0.1,0.4,0.2,0.5c0.1,0.1,0.3,0.2,0.6,0.2c0.1,0,0.2,0,0.4,0
		v0.7c-0.2,0.1-0.5,0.1-0.9,0.1c-0.8,0-1.3-0.3-1.3-1v-4.1H104.2z"/>
	<path d="M107.7,62.2l0.6-2.6h1.1l-1,2.6H107.7z"/>
	<path d="M113.3,52.8h1.5l3.2,7v-7h0.9v8h-1.4l-3.2-7v7h-0.9V52.8z"/>
	<path d="M120.6,56.7c0-1.1,0.7-1.7,1.9-1.7s1.9,0.6,1.9,1.7v2.8c0,0.5,0,0.9,0.1,1.3h-1V60c-0.3,0.6-0.7,1-1.4,1
		c-1.1,0-1.6-0.6-1.6-1.9c0-0.6,0.2-1,0.6-1.3c0.4-0.3,0.9-0.5,1.7-0.5h0.7v-0.5c0-0.7-0.3-1.1-1-1.1c-0.3,0-0.5,0.1-0.6,0.2
		c-0.2,0.2-0.3,0.4-0.3,0.7H120.6z M123.3,58c-0.7,0-1.2,0.1-1.4,0.3c-0.3,0.2-0.4,0.5-0.4,0.9c0,0.3,0.1,0.6,0.2,0.8
		c0.2,0.2,0.4,0.3,0.6,0.3c0.4,0,0.7-0.1,0.9-0.4c0.2-0.3,0.3-0.9,0.3-1.8H123.3z"/>
	<path d="M125.3,55.8v-0.7h0.9V54l0.9-0.4v1.5h1.2v0.7h-1.2v3.6c0,0.2,0.1,0.4,0.2,0.5c0.1,0.1,0.3,0.2,0.6,0.2c0.1,0,0.2,0,0.4,0
		v0.7c-0.2,0.1-0.5,0.1-0.9,0.1c-0.8,0-1.3-0.3-1.3-1v-4.1H125.3z"/>
	<path d="M129.3,55.1h0.9v4c0,0.8,0.3,1.2,0.9,1.2c0.4,0,0.6-0.1,0.8-0.4c0.2-0.3,0.3-0.6,0.3-0.9v-3.8h0.9v4.7c0,0.3,0,0.6,0,1
		h-0.9V60c-0.3,0.6-0.8,0.9-1.5,0.9c-0.5,0-0.8-0.1-1.1-0.4c-0.3-0.2-0.4-0.6-0.4-1.1V55.1z"/>
	<path d="M134.9,60.8v-5.7h0.9V56c0.2-0.7,0.8-1,1.6-1h0.2v1c-0.2,0-0.3-0.1-0.5-0.1c-0.8,0-1.3,0.5-1.3,1.6v3.4H134.9z"/>
	<path d="M139.5,58.3c0,0.7,0.1,1.2,0.3,1.5c0.2,0.3,0.5,0.4,0.9,0.4c0.3,0,0.5-0.1,0.7-0.3c0.2-0.2,0.3-0.5,0.3-0.8h1
		c0,0.6-0.2,1-0.5,1.4c-0.3,0.3-0.8,0.5-1.4,0.5c-0.9,0-1.5-0.3-1.7-0.8c-0.3-0.5-0.4-1.2-0.4-2.1c0-1.1,0.2-1.9,0.5-2.4
		c0.3-0.4,0.9-0.7,1.7-0.7c0.7,0,1.2,0.2,1.5,0.6c0.3,0.4,0.4,1.1,0.4,2v0.6H139.5z M139.5,57.6h2.2c0-0.8-0.1-1.3-0.3-1.6
		c-0.1-0.2-0.4-0.3-0.7-0.3c-0.4,0-0.7,0.1-0.9,0.4C139.6,56.4,139.5,56.9,139.5,57.6z"/>
	<path d="M150.5,58.4h1.1c0,0.9-0.2,1.5-0.6,1.9c-0.4,0.4-1,0.6-1.8,0.6c-0.8,0-1.4-0.2-1.8-0.7c-0.4-0.4-0.6-1.3-0.6-2.5v-2.4
		c0-1.9,0.8-2.9,2.5-2.9c1.5,0,2.2,0.6,2.2,1.9v0.5h-1.1v-0.3c0-0.8-0.4-1.2-1.2-1.2c-0.4,0-0.8,0.1-1,0.4c-0.3,0.3-0.4,0.9-0.4,1.8
		V58c0,0.7,0.1,1.2,0.3,1.6c0.2,0.3,0.6,0.5,1.1,0.5c0.4,0,0.7-0.1,0.9-0.4C150.4,59.4,150.5,59,150.5,58.4z"/>
	<path d="M152.8,58c0-1.2,0.2-2,0.5-2.4c0.3-0.4,0.9-0.6,1.7-0.6c0.8,0,1.4,0.2,1.7,0.7c0.3,0.5,0.5,1.2,0.5,2.2
		c0,1.1-0.2,1.9-0.5,2.3c-0.3,0.4-0.9,0.7-1.7,0.7c-0.8,0-1.3-0.2-1.7-0.6C152.9,59.9,152.8,59.1,152.8,58z M153.8,57.7
		c0,0.9,0.1,1.6,0.2,2c0.2,0.4,0.5,0.5,1,0.5c0.4,0,0.8-0.2,0.9-0.6c0.2-0.4,0.2-1,0.2-2c0-0.7-0.1-1.3-0.3-1.5
		c-0.2-0.3-0.5-0.4-0.9-0.4c-0.4,0-0.7,0.1-0.9,0.4C153.8,56.5,153.8,57,153.8,57.7z"/>
	<path d="M159.5,60.8h-0.9v-4.7c0-0.3,0-0.6,0-1h1l0,0.8c0.2-0.3,0.4-0.6,0.6-0.7c0.3-0.1,0.6-0.2,0.9-0.2c0.5,0,0.9,0.1,1.1,0.4
		c0.2,0.3,0.4,0.7,0.4,1.4v4h-0.9v-4c0-0.7-0.3-1.1-1-1.1c-0.8,0-1.2,0.5-1.2,1.6V60.8z"/>
	<path d="M164.9,59.1c0,0.7,0.3,1.1,0.9,1.1c0.3,0,0.6-0.1,0.7-0.2c0.2-0.1,0.3-0.4,0.3-0.6c0-0.2-0.1-0.4-0.3-0.5
		c-0.2-0.1-0.5-0.3-0.9-0.5c-0.5-0.2-0.9-0.5-1.2-0.8c-0.3-0.3-0.4-0.6-0.4-1c0-0.5,0.2-0.9,0.5-1.2c0.3-0.3,0.8-0.4,1.4-0.4
		c0.6,0,1,0.1,1.3,0.4c0.3,0.2,0.5,0.5,0.5,0.9v0.3h-1.1c0-0.6-0.3-0.9-0.8-0.9c-0.3,0-0.5,0.1-0.6,0.2c-0.2,0.1-0.2,0.3-0.2,0.6
		c0,0.2,0.1,0.4,0.4,0.6c0.3,0.2,0.6,0.3,0.9,0.4c0.5,0.2,0.9,0.5,1.1,0.7c0.3,0.3,0.4,0.6,0.4,1c0,1.2-0.7,1.8-2,1.8
		c-1.3,0-2-0.6-2-1.8H164.9z"/>
	<path d="M170,58.3c0,0.7,0.1,1.2,0.3,1.5c0.2,0.3,0.5,0.4,0.9,0.4c0.3,0,0.5-0.1,0.7-0.3c0.2-0.2,0.3-0.5,0.3-0.8h1
		c0,0.6-0.2,1-0.5,1.4c-0.3,0.3-0.8,0.5-1.4,0.5c-0.9,0-1.5-0.3-1.7-0.8c-0.3-0.5-0.4-1.2-0.4-2.1c0-1.1,0.2-1.9,0.5-2.4
		c0.3-0.4,0.9-0.7,1.7-0.7c0.7,0,1.2,0.2,1.5,0.6c0.3,0.4,0.4,1.1,0.4,2v0.6H170z M170,57.6h2.2c0-0.8-0.1-1.3-0.3-1.6
		c-0.1-0.2-0.4-0.3-0.7-0.3c-0.4,0-0.7,0.1-0.9,0.4C170.1,56.4,170,56.9,170,57.6z"/>
	<path d="M174.7,60.8v-5.7h0.9V56c0.2-0.7,0.8-1,1.6-1h0.2v1c-0.2,0-0.3-0.1-0.5-0.1c-0.8,0-1.3,0.5-1.3,1.6v3.4H174.7z"/>
	<path d="M180.1,60l1.4-4.8h1l-1.8,5.7h-1.2l-1.7-5.7h1L180.1,60z"/>
	<path d="M183.5,56.7c0-1.1,0.7-1.7,1.9-1.7c1.2,0,1.9,0.6,1.9,1.7v2.8c0,0.5,0,0.9,0.1,1.3h-1V60c-0.3,0.6-0.7,1-1.4,1
		c-1.1,0-1.6-0.6-1.6-1.9c0-0.6,0.2-1,0.6-1.3c0.4-0.3,0.9-0.5,1.7-0.5h0.7v-0.5c0-0.7-0.3-1.1-1-1.1c-0.3,0-0.5,0.1-0.6,0.2
		c-0.2,0.2-0.3,0.4-0.3,0.7H183.5z M186.1,58c-0.7,0-1.2,0.1-1.4,0.3c-0.3,0.2-0.4,0.5-0.4,0.9c0,0.3,0.1,0.6,0.2,0.8
		c0.2,0.2,0.4,0.3,0.6,0.3c0.4,0,0.7-0.1,0.9-0.4c0.2-0.3,0.3-0.9,0.3-1.8H186.1z"/>
	<path d="M188.2,55.8v-0.7h0.9V54l0.9-0.4v1.5h1.2v0.7H190v3.6c0,0.2,0.1,0.4,0.2,0.5c0.1,0.1,0.3,0.2,0.6,0.2c0.1,0,0.2,0,0.4,0
		v0.7c-0.2,0.1-0.5,0.1-0.9,0.1c-0.8,0-1.3-0.3-1.3-1v-4.1H188.2z"/>
	<path d="M192,52.6h1v1h-1V52.6z M192.1,55.1h0.9v5.7h-0.9V55.1z"/>
	<path d="M194.4,58c0-1.2,0.2-2,0.5-2.4c0.3-0.4,0.9-0.6,1.7-0.6c0.8,0,1.4,0.2,1.7,0.7c0.3,0.5,0.5,1.2,0.5,2.2
		c0,1.1-0.2,1.9-0.5,2.3c-0.3,0.4-0.9,0.7-1.7,0.7c-0.8,0-1.3-0.2-1.7-0.6C194.6,59.9,194.4,59.1,194.4,58z M195.4,57.7
		c0,0.9,0.1,1.6,0.2,2c0.2,0.4,0.5,0.5,1,0.5c0.4,0,0.8-0.2,0.9-0.6c0.2-0.4,0.2-1,0.2-2c0-0.7-0.1-1.3-0.3-1.5
		c-0.2-0.3-0.5-0.4-0.9-0.4c-0.4,0-0.7,0.1-0.9,0.4C195.5,56.5,195.4,57,195.4,57.7z"/>
	<path d="M201.1,60.8h-0.9v-4.7c0-0.3,0-0.6,0-1h1l0,0.8c0.2-0.3,0.4-0.6,0.6-0.7c0.3-0.1,0.6-0.2,0.9-0.2c0.5,0,0.9,0.1,1.1,0.4
		c0.2,0.3,0.4,0.7,0.4,1.4v4h-0.9v-4c0-0.7-0.3-1.1-1-1.1c-0.8,0-1.2,0.5-1.2,1.6V60.8z"/>
	<path d="M205.3,62.2l0.6-2.6h1.1l-1,2.6H205.3z"/>
	<path d="M52.3,72.8v-8H55c0.7,0,1.2,0.2,1.6,0.5c0.4,0.3,0.6,0.8,0.6,1.4c0,1.1-0.5,1.7-1.5,1.9c1.2,0.1,1.8,0.8,1.8,2
		c0,0.8-0.2,1.3-0.6,1.7c-0.4,0.4-1,0.6-1.7,0.6H52.3z M53.4,68.1h1.5c0.8,0,1.2-0.4,1.2-1.3c0-0.4-0.1-0.7-0.3-0.9
		c-0.2-0.2-0.5-0.3-0.9-0.3h-1.5V68.1z M53.4,71.9h1.5c0.4,0,0.8-0.1,1.1-0.4c0.3-0.3,0.4-0.6,0.4-1c0-0.5-0.1-0.9-0.4-1.1
		c-0.3-0.2-0.7-0.4-1.4-0.4h-1.2V71.9z"/>
	<path d="M59,67.1h0.9v4c0,0.8,0.3,1.2,0.9,1.2c0.4,0,0.6-0.1,0.8-0.4c0.2-0.3,0.3-0.6,0.3-0.9v-3.8h0.9v4.7c0,0.3,0,0.6,0,1H62V72
		c-0.3,0.6-0.8,0.9-1.5,0.9c-0.5,0-0.8-0.1-1.1-0.4C59.2,72.3,59,72,59,71.5V67.1z"/>
	<path d="M64.5,64.6h1v1h-1V64.6z M64.6,67.1h0.9v5.7h-0.9V67.1z"/>
	<path d="M67.1,72.8v-8H68v8H67.1z"/>
	<path d="M72.6,67.8v-3h0.9v8h-0.9v-0.7c-0.3,0.5-0.7,0.8-1.3,0.8c-0.7,0-1.1-0.2-1.4-0.7c-0.3-0.5-0.4-1.2-0.4-2.3
		c0-1.1,0.2-1.9,0.5-2.3c0.3-0.4,0.8-0.6,1.4-0.6C71.9,67,72.3,67.3,72.6,67.8z M70.4,70.1c0,0.8,0.1,1.3,0.3,1.6
		c0.2,0.3,0.5,0.5,0.9,0.5c0.3,0,0.6-0.1,0.8-0.4c0.2-0.3,0.3-0.9,0.3-1.7c0-0.6,0-1.1-0.1-1.4c-0.1-0.2-0.2-0.4-0.3-0.6
		c-0.2-0.2-0.4-0.3-0.7-0.3c-0.4,0-0.7,0.2-0.9,0.5C70.5,68.6,70.4,69.2,70.4,70.1z"/>
	<path d="M75.1,64.6h1v1h-1V64.6z M75.1,67.1h0.9v5.7h-0.9V67.1z"/>
	<path d="M78.6,72.8h-0.9v-4.7c0-0.3,0-0.6,0-1h1l0,0.8c0.2-0.3,0.4-0.6,0.6-0.7c0.3-0.1,0.6-0.2,0.9-0.2c0.5,0,0.9,0.1,1.1,0.4
		c0.2,0.3,0.4,0.7,0.4,1.4v4h-0.9v-4c0-0.7-0.3-1.1-1-1.1c-0.8,0-1.2,0.5-1.2,1.6V72.8z"/>
	<path d="M83.4,73.4h1.1c0,0.3,0.1,0.5,0.3,0.6c0.2,0.1,0.4,0.2,0.6,0.2c0.6,0,1-0.3,1-1v-1.2c-0.3,0.5-0.7,0.7-1.3,0.7
		c-0.7,0-1.3-0.3-1.5-1c-0.2-0.5-0.3-1.1-0.3-2c0-1.9,0.6-2.8,1.8-2.8c0.6,0,1.1,0.3,1.3,0.9v-0.8h0.9v6.2c0,1-0.7,1.5-2,1.5
		c-0.6,0-1.1-0.1-1.4-0.4c-0.3-0.3-0.5-0.6-0.5-0.9V73.4z M84.1,69.8c0,0.8,0.1,1.4,0.3,1.7c0.2,0.3,0.5,0.5,0.8,0.5
		c0.3,0,0.6-0.1,0.8-0.4c0.2-0.3,0.3-0.8,0.3-1.7c0-0.9-0.1-1.4-0.3-1.7c-0.2-0.3-0.4-0.4-0.8-0.4c-0.4,0-0.7,0.2-0.9,0.5
		C84.2,68.6,84.1,69.1,84.1,69.8z"/>
	<path d="M91.4,68.7c0-1.1,0.7-1.7,1.9-1.7c1.2,0,1.9,0.6,1.9,1.7v2.8c0,0.5,0,0.9,0.1,1.3h-1V72c-0.3,0.6-0.7,1-1.4,1
		c-1.1,0-1.6-0.6-1.6-1.9c0-0.6,0.2-1,0.6-1.3c0.4-0.3,0.9-0.5,1.7-0.5h0.7v-0.5c0-0.7-0.3-1.1-1-1.1c-0.3,0-0.5,0.1-0.6,0.2
		c-0.2,0.2-0.3,0.4-0.3,0.7H91.4z M94,70c-0.7,0-1.2,0.1-1.4,0.3c-0.3,0.2-0.4,0.5-0.4,0.9c0,0.3,0.1,0.6,0.2,0.8
		c0.2,0.2,0.4,0.3,0.6,0.3c0.4,0,0.7-0.1,0.9-0.4c0.2-0.3,0.3-0.9,0.3-1.8H94z"/>
	<path d="M97.9,72.8h-0.9v-4.7c0-0.3,0-0.6,0-1h1l0,0.8c0.2-0.3,0.4-0.6,0.6-0.7c0.3-0.1,0.6-0.2,0.9-0.2c0.5,0,0.9,0.1,1.1,0.4
		c0.2,0.3,0.4,0.7,0.4,1.4v4H100v-4c0-0.7-0.3-1.1-1-1.1c-0.8,0-1.2,0.5-1.2,1.6V72.8z"/>
	<path d="M105.5,67.8v-3h0.9v8h-0.9v-0.7c-0.3,0.5-0.7,0.8-1.3,0.8c-0.7,0-1.1-0.2-1.4-0.7c-0.3-0.5-0.4-1.2-0.4-2.3
		c0-1.1,0.2-1.9,0.5-2.3c0.3-0.4,0.8-0.6,1.4-0.6C104.8,67,105.3,67.3,105.5,67.8z M103.4,70.1c0,0.8,0.1,1.3,0.3,1.6
		c0.2,0.3,0.5,0.5,0.9,0.5c0.3,0,0.6-0.1,0.8-0.4c0.2-0.3,0.3-0.9,0.3-1.7c0-0.6,0-1.1-0.1-1.4c-0.1-0.2-0.2-0.4-0.3-0.6
		c-0.2-0.2-0.4-0.3-0.7-0.3c-0.4,0-0.7,0.2-0.9,0.5C103.4,68.6,103.4,69.2,103.4,70.1z"/>
	<path d="M110.8,64.8h1.5l3.2,7v-7h0.9v8h-1.4l-3.2-7v7h-0.9V64.8z"/>
	<path d="M118.1,67.1h0.9v4c0,0.8,0.3,1.2,0.9,1.2c0.4,0,0.6-0.1,0.8-0.4c0.2-0.3,0.3-0.6,0.3-0.9v-3.8h0.9v4.7c0,0.3,0,0.6,0,1
		h-0.9V72c-0.3,0.6-0.8,0.9-1.5,0.9c-0.5,0-0.8-0.1-1.1-0.4c-0.3-0.2-0.4-0.6-0.4-1.1V67.1z"/>
	<path d="M126.7,70.9h1c0,0.6-0.2,1.1-0.5,1.5c-0.3,0.4-0.8,0.5-1.3,0.5c-0.8,0-1.4-0.2-1.7-0.7c-0.3-0.5-0.4-1.2-0.4-2.2
		c0-1.1,0.2-1.9,0.5-2.3c0.3-0.5,0.9-0.7,1.7-0.7c0.5,0,1,0.1,1.3,0.4c0.3,0.3,0.5,0.8,0.5,1.5h-1c0-0.4-0.1-0.7-0.2-0.9
		c-0.1-0.2-0.3-0.3-0.6-0.3c-0.4,0-0.7,0.1-0.9,0.4c-0.2,0.3-0.3,0.8-0.3,1.5c0,1,0.1,1.7,0.2,2c0.2,0.3,0.5,0.5,0.9,0.5
		C126.4,72.2,126.7,71.8,126.7,70.9z"/>
	<path d="M129.3,72.8v-8h0.9v8H129.3z"/>
	<path d="M132.7,70.3c0,0.7,0.1,1.2,0.3,1.5c0.2,0.3,0.5,0.4,0.9,0.4c0.3,0,0.5-0.1,0.7-0.3c0.2-0.2,0.3-0.5,0.3-0.8h1
		c0,0.6-0.2,1-0.5,1.4c-0.3,0.3-0.8,0.5-1.4,0.5c-0.9,0-1.5-0.3-1.7-0.8c-0.3-0.5-0.4-1.2-0.4-2.1c0-1.1,0.2-1.9,0.5-2.4
		c0.3-0.4,0.9-0.7,1.7-0.7c0.7,0,1.2,0.2,1.5,0.6c0.3,0.4,0.4,1.1,0.4,2v0.6H132.7z M132.7,69.6h2.2c0-0.8-0.1-1.3-0.3-1.6
		c-0.1-0.2-0.4-0.3-0.7-0.3c-0.4,0-0.7,0.1-0.9,0.4C132.8,68.4,132.7,68.9,132.7,69.6z"/>
	<path d="M137.4,68.7c0-1.1,0.7-1.7,1.9-1.7c1.2,0,1.9,0.6,1.9,1.7v2.8c0,0.5,0,0.9,0.1,1.3h-1V72c-0.3,0.6-0.7,1-1.4,1
		c-1.1,0-1.6-0.6-1.6-1.9c0-0.6,0.2-1,0.6-1.3c0.4-0.3,0.9-0.5,1.7-0.5h0.7v-0.5c0-0.7-0.3-1.1-1-1.1c-0.3,0-0.5,0.1-0.6,0.2
		c-0.2,0.2-0.3,0.4-0.3,0.7H137.4z M140.1,70c-0.7,0-1.2,0.1-1.4,0.3c-0.3,0.2-0.4,0.5-0.4,0.9c0,0.3,0.1,0.6,0.2,0.8
		c0.2,0.2,0.4,0.3,0.6,0.3c0.4,0,0.7-0.1,0.9-0.4c0.2-0.3,0.3-0.9,0.3-1.8H140.1z"/>
	<path d="M143,72.8v-5.7h0.9V68c0.2-0.7,0.8-1,1.6-1h0.2v1c-0.2,0-0.3-0.1-0.5-0.1c-0.8,0-1.3,0.5-1.3,1.6v3.4H143z"/>
	<path d="M149.1,70.4h1.1v0.3c0,0.4,0.1,0.7,0.4,1c0.2,0.2,0.6,0.4,1.1,0.4c0.4,0,0.7-0.1,1-0.3c0.3-0.2,0.4-0.5,0.4-1
		c0-0.3-0.1-0.6-0.4-0.9c-0.2-0.2-0.7-0.5-1.3-0.8c-0.8-0.4-1.3-0.8-1.6-1.1c-0.3-0.3-0.4-0.8-0.4-1.2c0-0.7,0.2-1.2,0.6-1.6
		c0.4-0.4,1-0.6,1.8-0.6c0.7,0,1.3,0.2,1.7,0.5c0.4,0.4,0.6,0.9,0.6,1.5v0.3h-1.1c0-1-0.4-1.5-1.3-1.5c-0.4,0-0.7,0.1-0.9,0.3
		c-0.2,0.2-0.3,0.5-0.3,0.9c0,0.4,0.2,0.7,0.5,1c0.2,0.2,0.6,0.4,1.3,0.8c0.6,0.3,1.1,0.6,1.4,1c0.3,0.4,0.5,0.9,0.5,1.4
		c0,1.5-0.9,2.2-2.6,2.2c-0.7,0-1.3-0.2-1.7-0.6c-0.4-0.4-0.6-0.9-0.6-1.7V70.4z"/>
	<path d="M155.5,68.7c0-1.1,0.7-1.7,1.9-1.7c1.2,0,1.9,0.6,1.9,1.7v2.8c0,0.5,0,0.9,0.1,1.3h-1V72c-0.3,0.6-0.7,1-1.4,1
		c-1.1,0-1.6-0.6-1.6-1.9c0-0.6,0.2-1,0.6-1.3c0.4-0.3,0.9-0.5,1.7-0.5h0.7v-0.5c0-0.7-0.3-1.1-1-1.1c-0.3,0-0.5,0.1-0.6,0.2
		c-0.2,0.2-0.3,0.4-0.3,0.7H155.5z M158.1,70c-0.7,0-1.2,0.1-1.4,0.3c-0.3,0.2-0.4,0.5-0.4,0.9c0,0.3,0.1,0.6,0.2,0.8
		c0.2,0.2,0.4,0.3,0.6,0.3c0.4,0,0.7-0.1,0.9-0.4c0.2-0.3,0.3-0.9,0.3-1.8H158.1z"/>
	<path d="M160.3,67.1h0.9v-1c0-0.5,0.1-0.8,0.4-1.1c0.3-0.2,0.7-0.3,1.3-0.3c0.1,0,0.3,0,0.4,0v0.7c0,0-0.1,0-0.2,0
		c-0.6,0-0.9,0.2-0.9,0.7v0.9h1.1v0.7h-1.1v5h-0.9v-5h-0.9V67.1z"/>
	<path d="M165,70.3c0,0.7,0.1,1.2,0.3,1.5c0.2,0.3,0.5,0.4,0.9,0.4c0.3,0,0.5-0.1,0.7-0.3c0.2-0.2,0.3-0.5,0.3-0.8h1
		c0,0.6-0.2,1-0.5,1.4c-0.3,0.3-0.8,0.5-1.4,0.5c-0.9,0-1.5-0.3-1.7-0.8c-0.3-0.5-0.4-1.2-0.4-2.1c0-1.1,0.2-1.9,0.5-2.4
		c0.3-0.4,0.9-0.7,1.7-0.7c0.7,0,1.2,0.2,1.5,0.6c0.3,0.4,0.4,1.1,0.4,2v0.6H165z M165,69.6h2.2c0-0.8-0.1-1.3-0.3-1.6
		c-0.1-0.2-0.4-0.3-0.7-0.3c-0.4,0-0.7,0.1-0.9,0.4C165.1,68.4,165,68.9,165,69.6z"/>
	<path d="M168.9,67.8v-0.7h0.9V66l0.9-0.4v1.5h1.2v0.7h-1.2v3.6c0,0.2,0.1,0.4,0.2,0.5c0.1,0.1,0.3,0.2,0.6,0.2c0.1,0,0.2,0,0.4,0
		v0.7c-0.2,0.1-0.5,0.1-0.9,0.1c-0.8,0-1.3-0.3-1.3-1v-4.1H168.9z"/>
	<path d="M172.1,67.1h1.1l1.4,4.6l1.4-4.6h1l-2.6,7.8h-0.9l0.6-2.1L172.1,67.1z"/>
</g>
<g>
	<path d="M16.6,14.3c-0.3-0.2-0.7-0.3-1.1-0.3c-0.8,0-1.3,0.4-1.3,1.1c0,0.7,0.5,0.9,0.9,1.2l1,0.6c1,0.5,1.6,1,1.6,2.1
		c0,1.3-0.9,2.2-2.5,2.2c-1,0-1.8-0.4-1.9-0.5c0-0.3-0.1-1.1-0.1-1.2c0-0.4,0.1-0.6,0.4-0.6c0.1,0,0.2,0,0.3,0.1l0.3,1.2
		c0.2,0.2,0.7,0.4,1.2,0.4c0.9,0,1.4-0.5,1.4-1.2c0-0.7-0.5-1-1.4-1.5l-0.7-0.4c-0.7-0.4-1.4-0.9-1.4-2c0-1.3,1-2,2.4-2
		c1,0,1.5,0.3,1.8,0.4c0,0,0,1,0,1.1c0,0.3-0.1,0.6-0.4,0.6c-0.1,0-0.2,0-0.2,0L16.6,14.3z"/>
	<path d="M23.7,20.4l0.8,0.1c0,0,0,0,0,0.1c0,0.2-0.1,0.3-0.4,0.4l-1.5,0.1v-0.7h0c-0.2,0.2-0.7,0.8-1.6,0.8c-1.2,0-1.7-0.7-1.7-2
		v-2.8l-0.8-0.1c0,0,0-0.1,0-0.1c0-0.2,0.1-0.3,0.4-0.3l1.5-0.1v3.5c0,1,0.5,1.2,1,1.2c0.6,0,0.9-0.2,1.2-0.5v-3.5l-0.8-0.1
		c0,0,0-0.1,0-0.1c0-0.2,0.1-0.3,0.4-0.3l1.5-0.1V20.4z"/>
	<path d="M27,16.3L27,16.3c0.3-0.3,0.7-0.8,1.6-0.8c1.2,0,2,0.9,2,2.5c0,2.1-1.2,3-2.8,3c-0.3,0-0.6,0-0.8-0.1v1.6l0.6,0.1
		c0.1,0,0.2,0.1,0.2,0.1c0,0.1-0.1,0.3-0.1,0.3h-2.5c0,0,0-0.1,0-0.1c0-0.2,0.1-0.3,0.3-0.4l0.4-0.1v-6.3l-0.8-0.1c0,0,0-0.1,0-0.1
		c0-0.2,0.1-0.3,0.4-0.3l1.5-0.1L27,16.3z M27.1,20.1c0.2,0.1,0.5,0.3,0.9,0.3c1,0,1.6-0.6,1.6-2.2c0-1.3-0.6-1.8-1.4-1.8
		c-0.5,0-0.9,0.2-1.1,0.4V20.1z"/>
	<path d="M33.4,16.3L33.4,16.3c0.3-0.3,0.7-0.8,1.6-0.8c1.2,0,2,0.9,2,2.5c0,2.1-1.2,3-2.8,3c-0.3,0-0.6,0-0.8-0.1v1.6l0.6,0.1
		c0.1,0,0.2,0.1,0.2,0.1c0,0.1-0.1,0.3-0.1,0.3h-2.5c0,0,0-0.1,0-0.1c0-0.2,0.1-0.3,0.3-0.4l0.4-0.1v-6.3l-0.8-0.1c0,0,0-0.1,0-0.1
		c0-0.2,0.1-0.3,0.4-0.3l1.5-0.1L33.4,16.3z M33.4,20.1c0.2,0.1,0.5,0.3,0.9,0.3c1,0,1.6-0.6,1.6-2.2c0-1.3-0.6-1.8-1.4-1.8
		c-0.5,0-0.9,0.2-1.1,0.4V20.1z"/>
	<path d="M43.3,18.3c0,1.9-1.3,2.8-2.7,2.8c-1.4,0-2.5-0.9-2.5-2.7c0-1.9,1.3-2.8,2.7-2.8C42.2,15.5,43.3,16.4,43.3,18.3z
		 M39.3,18.3c0,1.5,0.6,2.1,1.4,2.1c0.8,0,1.4-0.6,1.4-2.1c0-1.5-0.6-2.2-1.4-2.2C39.9,16.2,39.3,16.8,39.3,18.3z"/>
	<path d="M46.1,16.6L46.1,16.6c0.3-0.4,0.7-1,1.4-1c0.5,0,0.8,0.2,0.8,0.6c0,0.2-0.1,0.5-0.2,0.6c-0.1,0-0.4-0.2-0.7-0.2
		c-0.6,0-0.9,0.2-1.1,0.6v3.3l0.8,0.1c0.1,0,0.2,0.1,0.2,0.1c0,0.1-0.1,0.3-0.1,0.3h-2.7c0,0,0-0.1,0-0.1c0-0.2,0.1-0.3,0.3-0.4
		l0.4-0.1v-4.1l-0.8-0.1c0,0,0-0.1,0-0.1c0-0.2,0.1-0.3,0.4-0.3l1.5-0.1L46.1,16.6z"/>
	<path d="M52.2,16.3h-1.5v3.2c0,0.5,0.2,0.9,0.7,0.9c0.4,0,0.8-0.2,0.9-0.3c0.1,0.1,0.1,0.3,0.1,0.4c0,0.1-0.4,0.6-1.4,0.6
		c-1,0-1.4-0.6-1.4-1.4v-3.4h-0.8c0,0,0-0.1,0-0.1c0-0.2,0.1-0.3,0.3-0.4l0.5-0.1l0.3-1.5h0.8v1.5h1.6L52.2,16.3z"/>
	<path d="M54.2,18.3c0,1.4,0.7,2,1.6,2c0.7,0,1.1-0.3,1.4-0.5c0.1,0.1,0.2,0.3,0.2,0.4c0,0.3-0.7,0.9-1.9,0.9
		c-1.4,0-2.4-0.8-2.4-2.7c0-1.9,1.2-2.9,2.4-2.9c1.2,0,1.9,0.8,1.9,1.9c0,0.3-0.1,0.7-0.1,0.9H54.2z M56.2,17.8
		c0-0.1,0.1-0.3,0.1-0.5c0-0.6-0.2-1.1-0.9-1.1c-0.6,0-1,0.5-1.1,1.6H56.2z"/>
	<path d="M63.2,20.4l0.8,0.1c0,0,0,0,0,0.1c0,0.2-0.1,0.3-0.4,0.4l-1.5,0.1v-0.7h0c-0.2,0.3-0.7,0.8-1.6,0.8c-1.1,0-2.1-0.7-2.1-2.6
		c0-2,1.4-3,2.8-3c0.3,0,0.6,0.1,0.8,0.1v-1.9l-0.8-0.1c0,0,0-0.1,0-0.1c0-0.2,0.1-0.3,0.4-0.3l1.5-0.1V20.4z M62.1,16.5
		c-0.2-0.2-0.5-0.3-0.9-0.3c-0.9,0-1.6,0.6-1.6,2.1c0,1.4,0.6,2,1.4,2c0.6,0,1-0.3,1.1-0.5V16.5z"/>
	<path d="M68.8,16.3L68.8,16.3c0.3-0.3,0.8-0.7,1.6-0.7c1,0,2,0.7,2,2.6c0,2.1-1.4,3-2.9,3c-1,0-1.6-0.3-1.9-0.4v-7l-0.8-0.1
		c0,0,0-0.1,0-0.1c0-0.2,0.1-0.3,0.4-0.3l1.5-0.1V16.3z M68.8,20.2c0.2,0.1,0.5,0.3,1,0.3c1,0,1.6-0.6,1.6-2.1
		c0-1.5-0.7-1.9-1.4-1.9c-0.5,0-0.9,0.2-1.1,0.5V20.2z"/>
	<path d="M78.3,16.2L76.5,21c-0.6,1.7-1.4,2.3-2.3,2.3c-0.5,0-0.7-0.2-0.7-0.6c0-0.2,0.1-0.4,0.2-0.5c0.1,0.1,0.3,0.1,0.5,0.1
		c0.7,0,1.3-0.3,1.6-1.2l-2.1-5L73.1,16c0,0,0-0.1,0-0.1c0-0.2,0.1-0.3,0.3-0.3h2.1c0.1,0,0.1,0,0.1,0.1c0,0.1-0.1,0.2-0.1,0.3
		l-0.6,0.2l1.3,3.6h0l1.3-3.6L76.6,16c0,0,0-0.1,0-0.1c0-0.2,0.1-0.3,0.3-0.3h1.8c0.1,0,0.1,0,0.1,0.1c0,0.1-0.1,0.2-0.1,0.3
		L78.3,16.2z"/>
	<path d="M80.3,16.9c-0.4,0-0.7-0.3-0.7-0.7c0-0.4,0.3-0.7,0.7-0.7c0.4,0,0.7,0.3,0.7,0.7C81,16.6,80.7,16.9,80.3,16.9z M80.3,21.1
		c-0.4,0-0.7-0.3-0.7-0.7c0-0.4,0.3-0.7,0.7-0.7c0.4,0,0.7,0.3,0.7,0.7C81,20.9,80.7,21.1,80.3,21.1z"/>
	<path d="M14.4,123.7L14.4,123.7c0.3-0.3,0.8-0.7,1.6-0.7c1,0,2,0.7,2,2.6c0,2.1-1.4,3-2.9,3c-1,0-1.6-0.3-1.9-0.4v-7l-0.8-0.1
		c0,0,0-0.1,0-0.1c0-0.2,0.1-0.3,0.4-0.3l1.5-0.1V123.7z M14.4,127.6c0.2,0.1,0.5,0.3,1,0.3c1,0,1.6-0.6,1.6-2.1
		c0-1.5-0.7-1.9-1.4-1.9c-0.5,0-0.9,0.2-1.1,0.5V127.6z"/>
	<path d="M23.1,127.2c0,0.4,0.2,0.6,0.4,0.6c0.3,0,0.4-0.1,0.4-0.2c0.1,0.1,0.1,0.2,0.1,0.3c0,0.1-0.3,0.6-1,0.6
		c-0.5,0-0.8-0.2-0.9-0.8h0c-0.1,0.2-0.5,0.8-1.4,0.8c-0.8,0-1.4-0.6-1.4-1.4c0-1.2,1.3-1.6,2.5-1.6h0.3V125c0-1-0.3-1.4-0.9-1.4
		c-0.3,0-0.5,0.1-0.6,0.1c-0.1,0.2-0.2,0.6-0.2,1c0,0-0.2,0-0.3,0c-0.4,0-0.6-0.2-0.6-0.5c0-0.7,0.9-1.2,1.9-1.2
		c1.2,0,1.8,0.7,1.8,1.9V127.2z M21.7,126c-0.9,0-1.4,0.4-1.4,0.9c0,0.5,0.3,0.8,0.7,0.8s0.8-0.3,0.9-0.5V126L21.7,126z"/>
	<path d="M27.2,123.8c-0.1-0.1-0.4-0.2-0.7-0.2c-0.4,0-0.7,0.2-0.7,0.6c0,0.5,0.5,0.8,1,1.1c0.7,0.4,1.4,0.8,1.4,1.7
		c0,0.9-0.7,1.6-2,1.6c-0.6,0-1.2-0.2-1.4-0.3c0-0.3-0.1-0.6-0.1-0.8c0-0.4,0.1-0.6,0.5-0.6c0.1,0,0.1,0,0.1,0l0.2,0.9
		c0.1,0.1,0.4,0.2,0.7,0.2c0.5,0,0.9-0.2,0.9-0.7c0-0.5-0.5-0.7-1-1c-0.7-0.4-1.3-0.9-1.3-1.8c0-0.9,0.7-1.4,1.8-1.4
		c0.6,0,1.1,0.2,1.3,0.4c0,0.2,0,0.4,0,0.6c0,0.4-0.1,0.6-0.5,0.6c-0.1,0-0.1,0-0.1,0L27.2,123.8z"/>
	<path d="M30.4,125.7c0,1.4,0.7,2,1.6,2c0.7,0,1.1-0.3,1.4-0.5c0.1,0.1,0.2,0.3,0.2,0.4c0,0.3-0.7,0.9-1.9,0.9
		c-1.4,0-2.4-0.8-2.4-2.7c0-1.9,1.2-2.9,2.4-2.9c1.2,0,1.9,0.8,1.9,1.9c0,0.3-0.1,0.7-0.1,0.9H30.4z M32.3,125.2
		c0-0.1,0.1-0.3,0.1-0.5c0-0.6-0.2-1.1-0.9-1.1c-0.6,0-1,0.5-1.1,1.6H32.3z"/>
	<path d="M39.4,127.8l0.8,0.1c0,0,0,0,0,0.1c0,0.2-0.1,0.3-0.4,0.4l-1.5,0.1v-0.7h0c-0.2,0.3-0.7,0.8-1.6,0.8
		c-1.1,0-2.1-0.7-2.1-2.6c0-2,1.4-3,2.8-3c0.3,0,0.6,0.1,0.8,0.1v-1.9l-0.8-0.1c0,0,0-0.1,0-0.1c0-0.2,0.1-0.3,0.4-0.3l1.5-0.1
		V127.8z M38.2,123.9c-0.2-0.2-0.5-0.3-0.9-0.3c-0.9,0-1.6,0.6-1.6,2.1c0,1.4,0.6,2,1.4,2c0.6,0,1-0.3,1.1-0.5V123.9z"/>
	<path d="M48.7,125.7c0,1.9-1.3,2.8-2.7,2.8c-1.4,0-2.5-0.9-2.5-2.7c0-1.9,1.3-2.8,2.7-2.8C47.6,122.9,48.7,123.8,48.7,125.7z
		 M44.7,125.7c0,1.5,0.6,2.1,1.4,2.1c0.8,0,1.4-0.6,1.4-2.1c0-1.5-0.6-2.2-1.4-2.2C45.3,123.6,44.7,124.2,44.7,125.7z"/>
	<path d="M55,127.8l0.6,0.1c0.1,0,0.2,0.1,0.2,0.1c0,0.1-0.1,0.3-0.1,0.3h-2.5c0,0,0-0.1,0-0.1c0-0.2,0.1-0.3,0.3-0.4l0.4-0.1V125
		c0-0.9-0.5-1.2-1.1-1.2c-0.6,0-1,0.3-1.3,0.5v3.5l0.6,0.1c0.1,0,0.2,0.1,0.2,0.1c0,0.1-0.1,0.3-0.1,0.3h-2.5c0,0,0-0.1,0-0.1
		c0-0.2,0.1-0.3,0.3-0.4l0.4-0.1v-4.1l-0.8-0.1c0,0,0-0.1,0-0.1c0-0.2,0.1-0.3,0.4-0.3l1.5-0.1l-0.1,0.8h0c0.3-0.3,0.8-0.8,1.8-0.8
		c1.1,0,1.7,0.7,1.7,1.9V127.8z"/>
	<path d="M62.9,127.2c0,0.4,0.2,0.6,0.4,0.6c0.3,0,0.4-0.1,0.4-0.2c0.1,0.1,0.1,0.2,0.1,0.3c0,0.1-0.3,0.6-1,0.6
		c-0.5,0-0.8-0.2-0.9-0.8h0c-0.1,0.2-0.5,0.8-1.4,0.8c-0.8,0-1.4-0.6-1.4-1.4c0-1.2,1.3-1.6,2.5-1.6h0.3V125c0-1-0.3-1.4-0.9-1.4
		c-0.3,0-0.5,0.1-0.6,0.1c-0.1,0.2-0.2,0.6-0.2,1c0,0-0.2,0-0.3,0c-0.4,0-0.6-0.2-0.6-0.5c0-0.7,0.9-1.2,1.9-1.2
		c1.2,0,1.8,0.7,1.8,1.9V127.2z M61.6,126c-0.9,0-1.4,0.4-1.4,0.9c0,0.5,0.3,0.8,0.7,0.8c0.5,0,0.8-0.3,0.9-0.5V126L61.6,126z"/>
	<path d="M71.7,127.8l0.8,0.1c0,0,0,0,0,0.1c0,0.2-0.1,0.3-0.4,0.4l-1.5,0.1v-0.7h0c-0.2,0.3-0.7,0.8-1.6,0.8
		c-1.1,0-2.1-0.7-2.1-2.6c0-2,1.4-3,2.8-3c0.3,0,0.6,0.1,0.8,0.1v-1.9l-0.8-0.1c0,0,0-0.1,0-0.1c0-0.2,0.1-0.3,0.4-0.3l1.5-0.1
		V127.8z M70.6,123.9c-0.2-0.2-0.5-0.3-0.9-0.3c-0.9,0-1.6,0.6-1.6,2.1c0,1.4,0.6,2,1.4,2c0.6,0,1-0.3,1.1-0.5V123.9z"/>
	<path d="M74.6,125.7c0,1.4,0.7,2,1.6,2c0.7,0,1.1-0.3,1.4-0.5c0.1,0.1,0.2,0.3,0.2,0.4c0,0.3-0.7,0.9-1.9,0.9
		c-1.4,0-2.4-0.8-2.4-2.7c0-1.9,1.2-2.9,2.4-2.9c1.2,0,1.9,0.8,1.9,1.9c0,0.3-0.1,0.7-0.1,0.9H74.6z M76.5,125.2
		c0-0.1,0.1-0.3,0.1-0.5c0-0.6-0.2-1.1-0.9-1.1c-0.6,0-1,0.5-1.1,1.6H76.5z"/>
	<path d="M81.4,123.6c-0.7,0-1.4,0.5-1.4,2c0,1.4,0.5,2.2,1.6,2.2c0.7,0,1.1-0.4,1.3-0.5c0.1,0.1,0.2,0.3,0.2,0.4
		c0,0.3-0.6,0.9-1.8,0.9c-1.4,0-2.4-0.9-2.4-2.7c0-1.9,1.2-2.9,2.7-2.9c1.2,0,1.5,0.6,1.5,0.9c0,0.3-0.1,0.6-0.6,0.7
		C82.4,124.1,82.1,123.6,81.4,123.6z"/>
	<path d="M85.8,127.8l0.6,0.1c0.1,0,0.2,0.1,0.2,0.1c0,0.1-0.1,0.3-0.1,0.3h-2.5c0,0,0-0.1,0-0.1c0-0.2,0.1-0.3,0.3-0.4l0.4-0.1
		v-4.1l-0.8-0.1c0,0,0-0.1,0-0.1c0-0.2,0.1-0.3,0.4-0.3l1.5-0.1V127.8z M85.2,121.9c-0.4,0-0.7-0.3-0.7-0.7c0-0.4,0.3-0.7,0.7-0.7
		c0.4,0,0.7,0.3,0.7,0.7C85.9,121.6,85.6,121.9,85.2,121.9z"/>
	<path d="M90,123.8c-0.1-0.1-0.4-0.2-0.7-0.2c-0.4,0-0.7,0.2-0.7,0.6c0,0.5,0.5,0.8,1,1.1c0.7,0.4,1.4,0.8,1.4,1.7
		c0,0.9-0.7,1.6-2,1.6c-0.6,0-1.2-0.2-1.4-0.3c0-0.3-0.1-0.6-0.1-0.8c0-0.4,0.1-0.6,0.5-0.6c0.1,0,0.1,0,0.1,0l0.2,0.9
		c0.1,0.1,0.4,0.2,0.7,0.2c0.5,0,0.9-0.2,0.9-0.7c0-0.5-0.5-0.7-1-1c-0.7-0.4-1.3-0.9-1.3-1.8c0-0.9,0.7-1.4,1.8-1.4
		c0.6,0,1.1,0.2,1.3,0.4c0,0.2,0,0.4,0,0.6c0,0.4-0.1,0.6-0.5,0.6c-0.1,0-0.1,0-0.1,0L90,123.8z"/>
	<path d="M93.7,127.8l0.6,0.1c0.1,0,0.2,0.1,0.2,0.1c0,0.1-0.1,0.3-0.1,0.3h-2.5c0,0,0-0.1,0-0.1c0-0.2,0.1-0.3,0.3-0.4l0.4-0.1
		v-4.1l-0.8-0.1c0,0,0-0.1,0-0.1c0-0.2,0.1-0.3,0.4-0.3l1.5-0.1V127.8z M93.2,121.9c-0.4,0-0.7-0.3-0.7-0.7c0-0.4,0.3-0.7,0.7-0.7
		c0.4,0,0.7,0.3,0.7,0.7C93.9,121.6,93.6,121.9,93.2,121.9z"/>
	<path d="M100.5,125.7c0,1.9-1.3,2.8-2.7,2.8c-1.4,0-2.5-0.9-2.5-2.7c0-1.9,1.3-2.8,2.7-2.8C99.4,122.9,100.5,123.8,100.5,125.7z
		 M96.5,125.7c0,1.5,0.6,2.1,1.4,2.1c0.8,0,1.4-0.6,1.4-2.1c0-1.5-0.6-2.2-1.4-2.2C97.1,123.6,96.5,124.2,96.5,125.7z"/>
	<path d="M106.8,127.8l0.6,0.1c0.1,0,0.2,0.1,0.2,0.1c0,0.1-0.1,0.3-0.1,0.3H105c0,0,0-0.1,0-0.1c0-0.2,0.1-0.3,0.3-0.4l0.4-0.1V125
		c0-0.9-0.5-1.2-1.1-1.2c-0.6,0-1,0.3-1.3,0.5v3.5l0.6,0.1c0.1,0,0.2,0.1,0.2,0.1c0,0.1-0.1,0.3-0.1,0.3h-2.5c0,0,0-0.1,0-0.1
		c0-0.2,0.1-0.3,0.3-0.4l0.4-0.1v-4.1l-0.8-0.1c0,0,0-0.1,0-0.1c0-0.2,0.1-0.3,0.4-0.3l1.5-0.1l-0.1,0.8h0c0.3-0.3,0.8-0.8,1.8-0.8
		c1.1,0,1.7,0.7,1.7,1.9V127.8z"/>
	<path d="M116.1,125.7c0,1.9-1.3,2.8-2.7,2.8c-1.4,0-2.5-0.9-2.5-2.7c0-1.9,1.3-2.8,2.7-2.8C115,122.9,116.1,123.8,116.1,125.7z
		 M112.1,125.7c0,1.5,0.6,2.1,1.4,2.1c0.8,0,1.4-0.6,1.4-2.1c0-1.5-0.6-2.2-1.4-2.2C112.7,123.6,112.1,124.2,112.1,125.7z"/>
	<path d="M120.3,123.7h-1.3v4.1l0.7,0.1c0.1,0,0.2,0.1,0.2,0.1c0,0.1-0.1,0.3-0.1,0.3h-2.6c0,0,0-0.1,0-0.1c0-0.2,0.1-0.3,0.3-0.4
		l0.4-0.1v-4.1H117c0,0,0-0.1,0-0.1c0-0.2,0.1-0.3,0.3-0.4l0.5-0.1V123c0-1.8,1.1-2.6,2-2.6c0.5,0,0.8,0.2,0.8,0.6
		c0,0.3-0.2,0.4-0.3,0.5c-0.1-0.1-0.4-0.3-0.7-0.3c-0.5,0-0.6,0.3-0.6,0.9c0,0.3,0,1,0,1h1.5L120.3,123.7z"/>
	<path d="M126.8,123.7h-1.5v3.2c0,0.5,0.2,0.9,0.7,0.9c0.4,0,0.8-0.2,0.9-0.3c0.1,0.1,0.1,0.3,0.1,0.4c0,0.1-0.4,0.6-1.4,0.6
		c-1,0-1.4-0.6-1.4-1.4v-3.4h-0.8c0,0,0-0.1,0-0.1c0-0.2,0.1-0.3,0.3-0.4l0.5-0.1l0.3-1.5h0.8v1.5h1.6L126.8,123.7z"/>
	<path d="M129.4,123.7L129.4,123.7c0.2-0.3,0.8-0.8,1.7-0.8c1.1,0,1.7,0.6,1.7,1.9v2.9l0.6,0.1c0.1,0,0.2,0.1,0.2,0.1
		c0,0.1-0.1,0.3-0.1,0.3H131c0,0,0-0.1,0-0.1c0-0.2,0.1-0.3,0.3-0.4l0.4-0.1V125c0-0.9-0.5-1.2-1.1-1.2c-0.7,0-1,0.3-1.3,0.5v3.5
		l0.6,0.1c0.1,0,0.2,0.1,0.2,0.1c0,0.1-0.1,0.3-0.1,0.3h-2.5c0,0,0-0.1,0-0.1c0-0.2,0.1-0.3,0.3-0.4l0.4-0.1v-6.7l-0.8-0.1
		c0,0,0-0.1,0-0.1c0-0.2,0.1-0.3,0.4-0.3l1.5-0.1V123.7z"/>
	<path d="M135.6,125.7c0,1.4,0.7,2,1.6,2c0.7,0,1.1-0.3,1.4-0.5c0.1,0.1,0.2,0.3,0.2,0.4c0,0.3-0.7,0.9-1.9,0.9
		c-1.4,0-2.4-0.8-2.4-2.7c0-1.9,1.2-2.9,2.4-2.9c1.2,0,1.9,0.8,1.9,1.9c0,0.3-0.1,0.7-0.1,0.9H135.6z M137.5,125.2
		c0-0.1,0.1-0.3,0.1-0.5c0-0.6-0.2-1.1-0.9-1.1c-0.6,0-1,0.5-1.1,1.6H137.5z"/>
	<path d="M147.7,121.7c-0.2-0.2-0.7-0.3-1.3-0.3c-1.3,0-2.7,0.9-2.7,3.2c0,2.2,1,3.3,2.5,3.3c0.5,0,0.9-0.1,1.3-0.2v-2.2l-0.7-0.2
		c-0.1,0-0.2-0.1-0.2-0.1c0-0.1,0.1-0.2,0.1-0.3h2.5c0,0,0,0.1,0,0.1c0,0.2-0.1,0.3-0.4,0.4l-0.3,0.1v2.3c-0.3,0.3-1.1,0.9-2.7,0.9
		c-1.9,0-3.5-1.2-3.5-3.9c0-2.9,2.1-4,3.9-4c1.2,0,1.7,0.3,2.1,0.5c0,0.3,0.1,1,0.1,1.1c0,0.3-0.1,0.6-0.4,0.6c-0.1,0-0.2,0-0.3,0
		L147.7,121.7z"/>
	<path d="M151.3,125.7c0,1.4,0.7,2,1.6,2c0.7,0,1.1-0.3,1.4-0.5c0.1,0.1,0.2,0.3,0.2,0.4c0,0.3-0.7,0.9-1.9,0.9
		c-1.4,0-2.4-0.8-2.4-2.7c0-1.9,1.2-2.9,2.4-2.9c1.2,0,1.9,0.8,1.9,1.9c0,0.3-0.1,0.7-0.1,0.9H151.3z M153.2,125.2
		c0-0.1,0.1-0.3,0.1-0.5c0-0.6-0.2-1.1-0.9-1.1c-0.6,0-1,0.5-1.1,1.6H153.2z"/>
	<path d="M157.2,124L157.2,124c0.3-0.4,0.7-1,1.4-1c0.5,0,0.8,0.2,0.8,0.6c0,0.2-0.1,0.5-0.2,0.6c-0.1,0-0.4-0.2-0.7-0.2
		c-0.6,0-0.9,0.2-1.1,0.6v3.3l0.8,0.1c0.1,0,0.2,0.1,0.2,0.1c0,0.1-0.1,0.3-0.1,0.3h-2.7c0,0,0-0.1,0-0.1c0-0.2,0.1-0.3,0.3-0.4
		l0.4-0.1v-4.1l-0.8-0.1c0,0,0-0.1,0-0.1c0-0.2,0.1-0.3,0.4-0.3l1.5-0.1L157.2,124z"/>
	<path d="M168.6,127.8l0.6,0.1c0.1,0,0.2,0.1,0.2,0.1c0,0.1-0.1,0.3-0.1,0.3h-2.5c0,0,0-0.1,0-0.1c0-0.2,0.1-0.3,0.3-0.4l0.4-0.1
		V125c0-1-0.5-1.2-1-1.2c-0.7,0-1,0.3-1.3,0.5c0,0.2,0.1,0.4,0.1,0.6v2.9l0.6,0.1c0.1,0,0.2,0.1,0.2,0.1c0,0.1-0.1,0.3-0.1,0.3h-2.5
		c0,0,0-0.1,0-0.1c0-0.2,0.1-0.3,0.3-0.4l0.4-0.1V125c0-1-0.5-1.2-1-1.2c-0.6,0-1,0.3-1.2,0.5v3.5l0.6,0.1c0.1,0,0.2,0.1,0.2,0.1
		c0,0.1-0.1,0.3-0.1,0.3h-2.5c0,0,0-0.1,0-0.1c0-0.2,0.1-0.3,0.3-0.4l0.4-0.1v-4.1l-0.8-0.1c0,0,0-0.1,0-0.1c0-0.2,0.1-0.3,0.4-0.3
		l1.5-0.1l-0.1,0.7h0c0.2-0.3,0.8-0.8,1.7-0.8c0.7,0,1.2,0.3,1.4,0.9c0.3-0.3,0.9-0.9,1.9-0.9c1.1,0,1.7,0.7,1.7,1.9V127.8z"/>
	<path d="M174,127.2c0,0.4,0.2,0.6,0.4,0.6c0.3,0,0.4-0.1,0.4-0.2c0.1,0.1,0.1,0.2,0.1,0.3c0,0.1-0.3,0.6-1,0.6
		c-0.5,0-0.8-0.2-0.9-0.8h0c-0.1,0.2-0.5,0.8-1.4,0.8c-0.8,0-1.4-0.6-1.4-1.4c0-1.2,1.3-1.6,2.5-1.6h0.3V125c0-1-0.3-1.4-0.9-1.4
		c-0.3,0-0.5,0.1-0.6,0.1c-0.1,0.2-0.2,0.6-0.2,1c0,0-0.2,0-0.3,0c-0.4,0-0.6-0.2-0.6-0.5c0-0.7,0.9-1.2,1.9-1.2
		c1.2,0,1.8,0.7,1.8,1.9V127.2z M172.6,126c-0.9,0-1.4,0.4-1.4,0.9c0,0.5,0.3,0.8,0.7,0.8c0.5,0,0.8-0.3,0.9-0.5V126L172.6,126z"/>
	<path d="M180.8,127.8l0.6,0.1c0.1,0,0.2,0.1,0.2,0.1c0,0.1-0.1,0.3-0.1,0.3H179c0,0,0-0.1,0-0.1c0-0.2,0.1-0.3,0.3-0.4l0.4-0.1V125
		c0-0.9-0.5-1.2-1.1-1.2c-0.6,0-1,0.3-1.3,0.5v3.5l0.6,0.1c0.1,0,0.2,0.1,0.2,0.1c0,0.1-0.1,0.3-0.1,0.3h-2.5c0,0,0-0.1,0-0.1
		c0-0.2,0.1-0.3,0.3-0.4l0.4-0.1v-4.1l-0.8-0.1c0,0,0-0.1,0-0.1c0-0.2,0.1-0.3,0.4-0.3l1.5-0.1l-0.1,0.8h0c0.3-0.3,0.8-0.8,1.8-0.8
		c1.1,0,1.7,0.7,1.7,1.9V127.8z"/>
	<path d="M188.9,124.5L188.9,124.5c1.1,0.2,1.8,0.8,1.8,1.8c0,1.2-1,2.1-3,2.1h-2.8c0,0,0-0.1,0-0.1c0-0.2,0.1-0.3,0.4-0.4l0.5-0.1
		v-6.4l-0.7-0.2c-0.1,0-0.2-0.1-0.2-0.1c0-0.1,0.1-0.2,0.1-0.3h2.6c2,0,2.9,0.7,2.9,1.9C190.5,123.8,189.9,124.3,188.9,124.5z
		 M187.5,121.5h-0.6v2.8h0.6c1.3,0,1.8-0.6,1.8-1.4C189.3,121.9,188.7,121.5,187.5,121.5z M187.6,124.9h-0.7v2.8h0.7
		c1.3,0,1.9-0.6,1.9-1.5C189.4,125.4,188.8,124.9,187.6,124.9z"/>
	<path d="M196.8,127.8l0.8,0.1c0,0,0,0,0,0.1c0,0.2-0.1,0.3-0.4,0.4l-1.5,0.1v-0.7h0c-0.2,0.2-0.7,0.8-1.6,0.8c-1.2,0-1.7-0.7-1.7-2
		v-2.8l-0.8-0.1c0,0,0-0.1,0-0.1c0-0.2,0.1-0.3,0.4-0.3l1.5-0.1v3.5c0,1,0.5,1.2,1,1.2c0.6,0,0.9-0.2,1.2-0.5v-3.5l-0.8-0.1
		c0,0,0-0.1,0-0.1c0-0.2,0.1-0.3,0.4-0.3l1.5-0.1V127.8z"/>
	<path d="M203.7,127.8l0.6,0.1c0.1,0,0.2,0.1,0.2,0.1c0,0.1-0.1,0.3-0.1,0.3h-2.5c0,0,0-0.1,0-0.1c0-0.2,0.1-0.3,0.3-0.4l0.4-0.1
		V125c0-0.9-0.5-1.2-1.1-1.2c-0.6,0-1,0.3-1.3,0.5v3.5l0.6,0.1c0.1,0,0.2,0.1,0.2,0.1c0,0.1-0.1,0.3-0.1,0.3h-2.5c0,0,0-0.1,0-0.1
		c0-0.2,0.1-0.3,0.3-0.4l0.4-0.1v-4.1l-0.8-0.1c0,0,0-0.1,0-0.1c0-0.2,0.1-0.3,0.4-0.3l1.5-0.1l-0.1,0.8h0c0.3-0.3,0.8-0.8,1.8-0.8
		c1.1,0,1.7,0.7,1.7,1.9V127.8z"/>
	<path d="M210,127.8l0.8,0.1c0,0,0,0,0,0.1c0,0.2-0.1,0.3-0.4,0.4l-1.5,0.1v-0.7h0c-0.2,0.3-0.7,0.8-1.6,0.8c-1.1,0-2.1-0.7-2.1-2.6
		c0-2,1.4-3,2.8-3c0.3,0,0.6,0.1,0.8,0.1v-1.9l-0.8-0.1c0,0,0-0.1,0-0.1c0-0.2,0.1-0.3,0.4-0.3l1.5-0.1V127.8z M208.9,123.9
		c-0.2-0.2-0.5-0.3-0.9-0.3c-0.9,0-1.6,0.6-1.6,2.1c0,1.4,0.6,2,1.4,2c0.6,0,1-0.3,1.1-0.5V123.9z"/>
	<path d="M212.8,125.7c0,1.4,0.7,2,1.6,2c0.7,0,1.1-0.3,1.4-0.5c0.1,0.1,0.2,0.3,0.2,0.4c0,0.3-0.7,0.9-1.9,0.9
		c-1.4,0-2.4-0.8-2.4-2.7c0-1.9,1.2-2.9,2.4-2.9c1.2,0,1.9,0.8,1.9,1.9c0,0.3-0.1,0.7-0.1,0.9H212.8z M214.7,125.2
		c0-0.1,0.1-0.3,0.1-0.5c0-0.6-0.2-1.1-0.9-1.1c-0.6,0-1,0.5-1.1,1.6H214.7z"/>
	<path d="M219.6,123.8c-0.1-0.1-0.4-0.2-0.7-0.2c-0.4,0-0.7,0.2-0.7,0.6c0,0.5,0.5,0.8,1,1.1c0.7,0.4,1.4,0.8,1.4,1.7
		c0,0.9-0.7,1.6-2,1.6c-0.6,0-1.2-0.2-1.4-0.3c0-0.3-0.1-0.6-0.1-0.8c0-0.4,0.1-0.6,0.5-0.6c0.1,0,0.1,0,0.1,0l0.2,0.9
		c0.1,0.1,0.4,0.2,0.7,0.2c0.5,0,0.9-0.2,0.9-0.7c0-0.5-0.5-0.7-1-1c-0.7-0.4-1.3-0.9-1.3-1.8c0-0.9,0.7-1.4,1.8-1.4
		c0.6,0,1.1,0.2,1.3,0.4c0,0.2,0,0.4,0,0.6c0,0.4-0.1,0.6-0.5,0.6c-0.1,0-0.1,0-0.1,0L219.6,123.8z"/>
	<path d="M224.8,123.7h-1.5v3.2c0,0.5,0.2,0.9,0.7,0.9c0.4,0,0.8-0.2,0.9-0.3c0.1,0.1,0.1,0.3,0.1,0.4c0,0.1-0.4,0.6-1.4,0.6
		c-1,0-1.4-0.6-1.4-1.4v-3.4h-0.8c0,0,0-0.1,0-0.1c0-0.2,0.1-0.3,0.3-0.4l0.5-0.1l0.3-1.5h0.8v1.5h1.6L224.8,123.7z"/>
	<path d="M229.5,127.2c0,0.4,0.2,0.6,0.4,0.6c0.3,0,0.4-0.1,0.4-0.2c0.1,0.1,0.1,0.2,0.1,0.3c0,0.1-0.3,0.6-1,0.6
		c-0.5,0-0.8-0.2-0.9-0.8h0c-0.1,0.2-0.5,0.8-1.4,0.8c-0.8,0-1.4-0.6-1.4-1.4c0-1.2,1.3-1.6,2.5-1.6h0.3V125c0-1-0.3-1.4-0.9-1.4
		c-0.3,0-0.5,0.1-0.6,0.1c-0.1,0.2-0.2,0.6-0.2,1c0,0-0.2,0-0.3,0c-0.4,0-0.6-0.2-0.6-0.5c0-0.7,0.9-1.2,1.9-1.2
		c1.2,0,1.8,0.7,1.8,1.9V127.2z M228.2,126c-0.9,0-1.4,0.4-1.4,0.9c0,0.5,0.3,0.8,0.7,0.8c0.5,0,0.8-0.3,0.9-0.5V126L228.2,126z"/>
	<path d="M236,123.7h-0.9c0.2,0.3,0.3,0.6,0.3,1c0,1.2-1,1.8-2.2,1.8c-0.2,0-0.4,0-0.5-0.1c-0.2,0.1-0.3,0.2-0.3,0.5
		c0,0.3,0.2,0.4,0.5,0.4h1.3c1,0,1.6,0.5,1.6,1.3c0,1.1-1.1,2.1-2.9,2.1c-1.4,0-2-0.5-2-1.3c0-0.8,0.6-1.1,1-1.3v0
		c-0.3-0.2-0.5-0.4-0.5-0.8c0-0.6,0.6-0.9,0.8-1v0c-0.6-0.3-1-0.8-1-1.6c0-1.2,1-1.8,2.1-1.8c0.3,0,0.6,0,0.9,0.1h1.9L236,123.7z
		 M232.8,128.3c-0.2,0-0.3,0-0.4,0c-0.3,0.2-0.5,0.4-0.5,0.8c0,0.6,0.4,0.9,1.2,0.9c1.1,0,1.7-0.5,1.7-1.1c0-0.5-0.3-0.6-0.8-0.6
		H232.8z M232.3,124.7c0,0.9,0.4,1.2,1,1.2c0.6,0,1-0.3,1-1.2c0-0.8-0.4-1.2-1-1.2C232.8,123.5,232.3,123.9,232.3,124.7z"/>
</g>
</svg>
