<?xml version="1.0" encoding="utf-8"?>
<!-- Generator: Adobe Illustrator 18.1.1, SVG Export Plug-In . SVG Version: 6.00 Build 0)  -->
<svg version="1.1" id="Layer_1" xmlns="http://www.w3.org/2000/svg" xmlns:xlink="http://www.w3.org/1999/xlink" x="0px" y="0px"
	 viewBox="0 0 180.7 50.1" enable-background="new 0 0 180.7 50.1" xml:space="preserve">
<g>
	<g>
		<path fill="#FFFFFF" d="M24.6,50.1C11,50.1,0,38.8,0,25C0,11.2,11,0,24.6,0c13.6,0,24.6,11.2,24.6,25
			C49.2,38.8,38.2,50.1,24.6,50.1z M24.5,15.2c0,0,2,2.1,2,3.9c0,1.9-1.4,2.3-1.9,2.3c0,0-0.1,0-0.1,0h0c0,0-0.1,0-0.1,0
			c-0.5,0-1.9-0.4-1.9-2.3C22.5,17.3,24.5,15.2,24.5,15.2z M6,26.4h2.2v-4.2H12v-1.8H8.2v-2.3h3.9v-1.8H6V26.4z M26.6,15.5h2.4
			L26.2,5.4h-3l-2.8,10.1h2.2l0.6-2.2H26L26.6,15.5z M25.6,11.5h-2.1l1-4.4h0.2L25.6,11.5z M36,21.4c0,3,1.4,5.2,4.2,5.2
			c2.9,0,4.2-2.3,4.2-5.2c0-3-1.4-5.2-4.2-5.2C37.3,16.2,36,18.4,36,21.4z M38.4,21.4c0-1.9,0.5-3.5,1.8-3.5c1.3,0,1.8,1.6,1.8,3.5
			c0,1.9-0.5,3.5-1.8,3.5C38.8,24.9,38.4,23.3,38.4,21.4z M23.6,47.3c0.1-1,0.3-2.6,0.3-4.4c0-0.5,0-0.2,0-0.3c0-2.6-0.1-3.4-1.8-4
			c-2.6-0.9-3.7-3.8-3.1-7.6L10.2,8.3c-4.6,4.1-7.4,10-7.4,16.7C2.7,37,12,46.7,23.6,47.3z M24.6,32.8c-3.5-0.8-4.8-4.1-4.8-6.9
			L12.2,6.7c-0.5,0.4-1,0.7-1.5,1.1c1.7,4.1,9.3,22.3,9.3,22.4c1.3,3.3,3.8,2.2,4.4,4.9c0.2,0.7,0.2,0.9,0.2,0.9h0.3
			c0,0,0-0.3,0.1-0.9c0.6-2.7,3-1.6,4.4-4.9c0,0,7.6-18.3,9.3-22.4c-0.5-0.4-0.9-0.8-1.5-1.1l-7.7,19.1C29.4,28.8,28.1,32,24.6,32.8
			L24.6,32.8z M24.6,27c-1.5-0.3-3.3-1.8-3.6-3.8c-0.1-0.7-0.2-0.9,0-2.4L14.3,5.4c-0.5,0.3-1.1,0.6-1.6,1c2,4.6,8.2,18.6,8.2,18.6
			c1,2.1,2.7,2.1,3.3,3.4c0.4,0.7,0.4,1.4,0.4,1.5h0.2c0,0,0-0.7,0.4-1.5c0.6-1.2,2.3-1.3,3.3-3.4c0,0,6.1-14,8.2-18.6
			C36,6,35.5,5.7,35,5.4l-6.7,15.5c0.1,1.5,0,1.7-0.1,2.4C27.9,25.2,26.1,26.7,24.6,27L24.6,27z M24.7,24.4l0.1-0.8
			c0.4-2,1.8-1.7,2.8-3.6c0,0,0,0,0,0c0-0.1,4.8-10.5,6.8-14.8c-2.9-1.5-6.3-2.3-9.8-2.3s-6.8,0.8-9.8,2.3c2,4.3,6.7,14.7,6.8,14.8
			c0,0,0,0,0,0c1,1.9,2.4,1.7,2.8,3.6l0.1,0.8H24.7z M46.5,25c0-6.7-2.9-12.6-7.4-16.7L30.3,31c0.6,3.7-0.5,6.7-3.1,7.6
			c-1.7,0.6-1.8,1.5-1.8,4c0,0.2,0-0.2,0,0.3c0,1.8,0.1,3.4,0.3,4.4C37.2,46.7,46.5,37,46.5,25z M9.6,31.6c0,0,0.3,0.7,0.6,1.2
			c0.3,0.5,0.6,1.1,0.6,1.1l-0.6,0.4c0,0-0.4-0.8-0.8-1.6c-0.1,0.1-0.8,0.4-0.9,0.5c0.1,0.1,0.8,1.5,0.8,1.5L8.7,35
			c0,0-0.7-1.4-0.8-1.5c-0.1,0.1-1.6,0.8-1.6,0.8l-0.4-0.7L9.6,31.6L9.6,31.6z M12,35.4l0.5,0.6l-3.2,2.7l-0.5-0.6L12,35.4L12,35.4z
			 M14.9,38.3l0.6,0.5l-0.8,4.5L14,42.8c0,0,0.2-0.9,0.2-1c0,0-0.5-0.3-0.9-0.6c-0.4-0.3-0.8-0.6-0.9-0.7c-0.1,0-0.9,0.5-0.9,0.5
			L11,40.5L14.9,38.3L14.9,38.3z M13.1,40.2c0.1,0.1,0.3,0.3,0.6,0.5c0.3,0.2,0.6,0.4,0.7,0.4c0-0.2,0.3-1.7,0.4-1.9
			C14.5,39.3,13.2,40.1,13.1,40.2z M17.5,39.9c0,0,0.7,0.4,1.6,0.7c0.7,0.2,1.2,0.4,1.8,0.5l-0.2,0.6c0,0-0.5-0.1-1.4-0.3
			c0,0.2-1.2,3.3-1.2,3.3l-0.7-0.3c0,0,1.1-3.2,1.1-3.3c-0.8-0.3-1.3-0.6-1.3-0.6L17.5,39.9z M30.7,40.8c0.3,0.1,0.5,0.4,0.6,0.8
			c0,0.2,0.1,0.3,0.1,0.4c0,0.6-0.4,1.1-1.1,1.3c0,0-0.4,0.1-0.5,0.2c0,0.1,0.5,1.6,0.5,1.6l-0.7,0.2l-1.2-4.1l1.1-0.3
			C29.9,40.6,30.4,40.6,30.7,40.8z M29.2,41.5c0,0.1,0.3,1.1,0.4,1.2c0.2,0,0.5-0.2,0.5-0.2c0.1,0,0.4-0.1,0.5-0.4
			c0.1-0.1,0.1-0.2,0.1-0.3c0-0.1,0-0.1,0-0.2c0-0.1-0.1-0.2-0.3-0.3c-0.2-0.1-0.5-0.1-0.7,0C29.6,41.4,29.3,41.5,29.2,41.5z
			 M33.2,39l3.6,2.7l-0.6,0.5c0,0-0.7-0.6-0.8-0.6c0,0-0.4,0.3-0.8,0.5c-0.4,0.2-0.8,0.4-0.8,0.5c0,0.1,0.2,1,0.2,1l-0.7,0.3
			l-0.6-4.5L33.2,39z M33.6,41.8c0.1-0.1,0.4-0.2,0.7-0.4c0.2-0.1,0.5-0.3,0.6-0.4c-0.2-0.1-1.3-1-1.5-1.2
			C33.4,40.2,33.6,41.6,33.6,41.8z M37.3,35.3l3.2,2.9l-0.6,0.7c0,0-3-0.9-3.4-1c0.3,0.3,2.2,2.3,2.2,2.3l-0.6,0.5l-3-3.1l0.7-0.6
			c0,0,2.9,0.9,3.3,1c-0.3-0.3-2.3-2-2.3-2L37.3,35.3z M38.8,33.1l3.6,2.2L42,36l-3.7-2.2L38.8,33.1z M40.3,29.6l0.6,0.3L40.9,30
			c-0.2,0.2-0.3,0.4-0.4,0.7c0,0.1-0.1,0.4,0,0.6c0,0.1,0.1,0.2,0.3,0.2c0.3,0.1,0.5-0.1,0.8-0.4c0.4-0.4,0.9-0.9,1.6-0.6
			c0.8,0.3,1,1,0.7,1.9c-0.1,0.3-0.3,0.5-0.4,0.8l0,0l-0.7-0.3l0.1-0.1c0.1-0.1,0.3-0.4,0.5-0.7c0.1-0.3,0.1-0.8-0.3-0.9
			c-0.4-0.1-0.6,0.1-0.9,0.5c-0.4,0.4-0.8,0.8-1.5,0.6c-0.3-0.1-0.5-0.3-0.7-0.6c-0.2-0.3-0.2-0.7,0-1.2
			C40,30.2,40.1,29.9,40.3,29.6L40.3,29.6z"/>
	</g>
	<g>
		<path fill="#FFFFFF" d="M58.9,5.1h5v1.5h-3.2v2.7h3v1.4h-3V15h-1.8V5.1z"/>
		<path fill="#FFFFFF" d="M67.8,7.6c1.5,0,3.2,0.8,3.2,3.7c0,3-1.7,3.8-3.2,3.8c-1.5,0-3.2-0.7-3.2-3.8C64.7,8.4,66.4,7.6,67.8,7.6z
			 M67.8,13.9c1.1,0,1.4-1.3,1.4-2.5c0-1.2-0.3-2.5-1.4-2.5c-1.1,0-1.4,1.3-1.4,2.5C66.5,12.6,66.7,13.9,67.8,13.9z"/>
		<path fill="#FFFFFF" d="M75.4,7.6c1.5,0,3.2,0.8,3.2,3.7c0,3-1.7,3.8-3.2,3.8c-1.5,0-3.2-0.7-3.2-3.8C72.2,8.4,73.9,7.6,75.4,7.6z
			 M75.4,13.9c1.1,0,1.4-1.3,1.4-2.5c0-1.2-0.2-2.5-1.4-2.5c-1.1,0-1.4,1.3-1.4,2.5C74,12.6,74.3,13.9,75.4,13.9z"/>
		<path fill="#FFFFFF" d="M86,4.4v9.3c0,0.5,0,1,0.1,1.2h-1.6c0-0.2-0.1-0.6-0.1-1.1h0c-0.3,0.6-0.8,1.2-1.9,1.2
			c-1.8,0-2.6-1.7-2.6-3.7c0-2.4,0.9-3.7,2.5-3.7c1.1,0,1.6,0.6,1.9,1.1h0V4.4H86z M82.8,13.8c1,0,1.4-1.1,1.4-2.5
			c0-1.4-0.4-2.5-1.4-2.5c-1,0-1.3,1-1.3,2.4C81.6,13,81.8,13.8,82.8,13.8z"/>
		<path fill="#FFFFFF" d="M91.6,8.1c0.5-0.2,1.2-0.5,2.3-0.5c2.3,0,2.8,1.1,2.8,2.9v3.2c0,0.5,0.1,1,0.1,1.3h-1.6
			c-0.1-0.3-0.1-0.6-0.1-1h0c-0.4,0.6-1,1.1-2,1.1c-1.1,0-2.2-0.8-2.2-2.1c0-2,1.6-2.5,3.8-2.5h0.3v-0.3c0-0.7-0.3-1.4-1.4-1.4
			c-0.9,0-1.7,0.4-2,0.7L91.6,8.1z M95.1,11.4h-0.2c-1.5,0-2.4,0.3-2.4,1.4c0,0.7,0.4,1.1,1.1,1.1c1.1,0,1.4-0.8,1.4-2.1V11.4z"/>
		<path fill="#FFFFFF" d="M98.3,8.9c0-0.5,0-0.9-0.1-1.2h1.6c0,0.4,0.1,0.7,0.1,1.1h0c0.3-0.5,0.7-1.2,1.9-1.2
			c1.7,0,2.1,1.2,2.1,2.7V15h-1.7v-4.3c0-1.1-0.3-1.6-1-1.6c-0.9,0-1.2,0.8-1.2,1.7V15h-1.8V8.9z"/>
		<path fill="#FFFFFF" d="M111.6,4.4v9.3c0,0.5,0,1,0.1,1.2H110c0-0.2-0.1-0.6-0.1-1.1h0c-0.3,0.6-0.8,1.2-1.9,1.2
			c-1.8,0-2.6-1.7-2.6-3.7c0-2.4,1-3.7,2.5-3.7c1,0,1.6,0.6,1.9,1.1h0V4.4H111.6z M108.5,13.8c1,0,1.4-1.1,1.4-2.5
			c0-1.4-0.4-2.5-1.4-2.5c-1,0-1.3,1-1.3,2.4C107.2,13,107.4,13.8,108.5,13.8z"/>
		<path fill="#FFFFFF" d="M121.3,12.6h-3.4l-0.7,2.3h-1.8l3.3-9.8h2l3.2,9.8H122L121.3,12.6z M120.9,11.2l-1.2-4.6h0l-1.4,4.6H120.9
			z"/>
		<path fill="#FFFFFF" d="M124.9,16.1c0.4,0.2,1.2,0.6,2.1,0.6c1.7,0,1.9-1.1,1.9-2.3v-0.7h0c-0.3,0.6-0.8,1.2-1.9,1.2
			c-1,0-2.5-0.7-2.5-3.6c0-2,0.7-3.8,2.6-3.8c1.1,0,1.6,0.6,1.9,1.2h0c0-0.4,0-0.8,0.1-1.1h1.6c0,0.4-0.1,0.8-0.1,1.1v5.4
			c0,2.3-0.7,3.9-3.4,3.9c-1.2,0-2.1-0.3-2.5-0.5L124.9,16.1z M127.5,13.7c1.1,0,1.5-0.8,1.5-2.4c0-1.5-0.6-2.3-1.4-2.3
			c-0.9,0-1.3,0.9-1.3,2.4C126.3,13,126.9,13.7,127.5,13.7z"/>
		<path fill="#FFFFFF" d="M132.4,8.9c0-0.5,0-0.9-0.1-1.2h1.6c0,0.4,0.1,0.9,0.1,1.3h0c0.2-0.6,0.8-1.4,1.9-1.4c0.1,0,0.2,0,0.3,0
			v1.6c-0.1,0-0.3-0.1-0.5-0.1c-0.7,0-1.5,0.4-1.5,1.8v4h-1.7V8.9z"/>
		<path fill="#FFFFFF" d="M137.4,4.6h1.8v1.7h-1.8V4.6z M137.4,7.7h1.8V15h-1.8V7.7z"/>
		<path fill="#FFFFFF" d="M145.9,14.8c-0.4,0.2-1,0.3-1.7,0.3c-2.4,0-3.4-1.7-3.4-3.7c0-2.1,1.1-3.7,3.5-3.7c0.6,0,1.2,0.2,1.5,0.3
			l-0.1,1.4c-0.3-0.2-0.7-0.4-1.2-0.4c-1.3,0-1.9,0.9-1.9,2.5c0,1.4,0.7,2.4,2,2.4c0.4,0,1-0.2,1.2-0.4L145.9,14.8z"/>
		<path fill="#FFFFFF" d="M152.7,13.8c0,0.4,0,0.9,0.1,1.2h-1.6c0-0.3-0.1-0.7-0.1-1.1l0,0l0,0c-0.3,0.5-0.8,1.2-1.9,1.2
			c-1.7,0-2.2-1.2-2.2-2.7V7.7h1.8v4.4c0,1.1,0.3,1.6,1,1.6c0.9,0,1.2-0.8,1.2-1.8V7.7h1.7V13.8z"/>
		<path fill="#FFFFFF" d="M154.4,4.4h1.8V15h-1.8V4.4z"/>
		<path fill="#FFFFFF" d="M158.6,6.2l1.8-0.6v2h1.4V9h-1.4v3.8c0,0.8,0.3,1,0.8,1c0.3,0,0.5-0.1,0.7-0.2v1.2
			c-0.3,0.1-0.7,0.2-1.2,0.2c-1.3,0-2-0.6-2-2.1V9h-1.1V7.7h1.1V6.2z"/>
		<path fill="#FFFFFF" d="M168.6,13.8c0,0.4,0,0.9,0,1.2h-1.6c0-0.3-0.1-0.7-0.1-1.1l0,0l0,0c-0.3,0.5-0.8,1.2-1.9,1.2
			c-1.6,0-2.1-1.2-2.1-2.7V7.7h1.8v4.4c0,1.1,0.3,1.6,1,1.6c0.9,0,1.2-0.8,1.2-1.8V7.7h1.8V13.8z"/>
		<path fill="#FFFFFF" d="M170.3,8.9c0-0.4,0-0.9-0.1-1.2h1.6c0,0.4,0.1,0.9,0.1,1.3h0c0.2-0.6,0.8-1.4,1.8-1.4c0.1,0,0.2,0,0.3,0
			v1.6c-0.2,0-0.3-0.1-0.5-0.1c-0.7,0-1.5,0.4-1.5,1.8v4h-1.7V8.9z"/>
		<path fill="#FFFFFF" d="M180.4,14.6c-0.4,0.2-1.1,0.5-2.2,0.5c-2.3,0-3.4-1.7-3.4-3.7c0-2.2,1.1-3.8,3-3.8c1.6,0,2.9,0.9,2.9,3.9
			v0.3h-4.2c0,1.2,0.5,2,1.9,2c1.1,0,1.6-0.3,1.9-0.6L180.4,14.6z M179.1,10.7c0-1.3-0.4-1.9-1.2-1.9c-0.9,0-1.3,1-1.3,1.9H179.1z"
			/>
		<path fill="#FFFFFF" d="M62.5,20.9c2,0,3.9,1.5,3.9,5.1c0,3.6-1.9,5.1-3.9,5.1c-2.1,0-3.9-1.5-3.9-5.1
			C58.5,22.5,60.4,20.9,62.5,20.9z M62.5,29.7c1.1,0,2.1-1,2.1-3.7c0-2.7-0.9-3.7-2.1-3.7c-1.1,0-2.1,1-2.1,3.7
			C60.4,28.7,61.3,29.7,62.5,29.7z"/>
		<path fill="#FFFFFF" d="M67.9,24.9c0-0.4,0-0.9-0.1-1.2h1.6c0,0.4,0.1,0.9,0.1,1.3h0c0.2-0.6,0.8-1.4,1.9-1.4c0.1,0,0.2,0,0.3,0
			v1.6c-0.2,0-0.3-0.1-0.5-0.1c-0.7,0-1.5,0.4-1.5,1.8v4h-1.7V24.9z"/>
		<path fill="#FFFFFF" d="M72.9,32.1c0.4,0.2,1.2,0.6,2.1,0.6c1.7,0,1.9-1.2,1.9-2.3v-0.7h0c-0.3,0.6-0.8,1.2-1.9,1.2
			c-1,0-2.5-0.7-2.5-3.6c0-2,0.7-3.8,2.6-3.8c1,0,1.6,0.6,1.9,1.2h0c0-0.4,0.1-0.7,0.1-1.1h1.6c0,0.4-0.1,0.8-0.1,1.2v5.4
			c0,2.3-0.7,3.9-3.4,3.9c-1.2,0-2.1-0.3-2.5-0.4L72.9,32.1z M75.4,29.7c1.1,0,1.5-0.8,1.5-2.4c0-1.5-0.6-2.3-1.4-2.3
			c-0.9,0-1.3,0.9-1.3,2.3C74.2,28.9,74.8,29.7,75.4,29.7z"/>
		<path fill="#FFFFFF" d="M80.6,24.1c0.5-0.2,1.2-0.5,2.3-0.5c2.3,0,2.8,1.1,2.8,2.9v3.2c0,0.5,0.1,1,0.1,1.3h-1.6
			c-0.1-0.3-0.1-0.6-0.1-1h0c-0.4,0.6-1,1.1-2,1.1c-1.1,0-2.2-0.8-2.2-2.1c0-2,1.6-2.5,3.8-2.5H84v-0.3c0-0.7-0.4-1.4-1.3-1.4
			c-0.9,0-1.7,0.4-2,0.7L80.6,24.1z M84,27.4h-0.2c-1.5,0-2.4,0.3-2.4,1.4c0,0.7,0.4,1.1,1.1,1.1c1,0,1.4-0.8,1.4-2.1V27.4z"/>
		<path fill="#FFFFFF" d="M87.3,24.9c0-0.4,0-0.9,0-1.2h1.6c0,0.4,0.1,0.8,0.1,1.1h0c0.3-0.4,0.8-1.2,1.9-1.2c1.7,0,2.2,1.2,2.2,2.7
			v4.7h-1.7v-4.4c0-1.1-0.3-1.6-1-1.6c-0.9,0-1.2,0.8-1.2,1.7v4.2h-1.8V24.9z"/>
		<path fill="#FFFFFF" d="M94.7,20.6h1.8v1.7h-1.8V20.6z M94.8,23.7h1.8v7.3h-1.8V23.7z"/>
		<path fill="#FFFFFF" d="M97.9,29.4L101,25h-3v-1.3h4.8v1.5l-3.1,4.4h3.2v1.3h-5V29.4z"/>
		<path fill="#FFFFFF" d="M104.4,24.1c0.5-0.2,1.2-0.5,2.3-0.5c2.3,0,2.8,1.1,2.8,2.9v3.2c0,0.5,0.1,1,0.1,1.3H108
			c-0.1-0.3-0.1-0.6-0.1-1h0c-0.4,0.6-1,1.1-2,1.1c-1.1,0-2.2-0.8-2.2-2.1c0-2,1.6-2.5,3.8-2.5h0.4v-0.3c0-0.7-0.4-1.4-1.4-1.4
			c-0.9,0-1.6,0.4-2,0.7L104.4,24.1z M107.8,27.4h-0.1c-1.5,0-2.4,0.3-2.4,1.4c0,0.7,0.4,1.1,1.1,1.1c1,0,1.4-0.8,1.4-2.1V27.4z"/>
		<path fill="#FFFFFF" d="M111.7,22.2l1.7-0.5v2h1.5V25h-1.5v3.8c0,0.8,0.3,1,0.8,1c0.3,0,0.5-0.1,0.7-0.2v1.2
			c-0.3,0.1-0.6,0.2-1.2,0.2c-1.3,0-2-0.6-2-2.1v-4h-1.2v-1.3h1.2V22.2z"/>
		<path fill="#FFFFFF" d="M116.2,20.6h1.8v1.7h-1.8V20.6z M116.2,23.7h1.7v7.3h-1.7V23.7z"/>
		<path fill="#FFFFFF" d="M122.7,23.6c1.5,0,3.2,0.8,3.2,3.7c0,3-1.7,3.8-3.2,3.8c-1.5,0-3.2-0.7-3.2-3.8
			C119.5,24.3,121.2,23.6,122.7,23.6z M122.7,29.8c1.1,0,1.4-1.3,1.4-2.5c0-1.2-0.3-2.5-1.4-2.5c-1.1,0-1.4,1.3-1.4,2.5
			C121.3,28.5,121.6,29.8,122.7,29.8z"/>
		<path fill="#FFFFFF" d="M127.3,24.9c0-0.4,0-0.9-0.1-1.2h1.6c0,0.4,0.1,0.8,0.1,1.1h0c0.3-0.4,0.8-1.2,1.9-1.2
			c1.6,0,2.1,1.2,2.1,2.7v4.7h-1.8v-4.4c0-1.1-0.3-1.6-1-1.6c-0.9,0-1.2,0.8-1.2,1.7v4.2h-1.7V24.9z"/>
		<path fill="#FFFFFF" d="M141.3,23.6c1.5,0,3.2,0.8,3.2,3.7c0,3-1.7,3.8-3.2,3.8c-1.5,0-3.2-0.7-3.2-3.8
			C138.1,24.3,139.8,23.6,141.3,23.6z M141.3,29.8c1.1,0,1.4-1.3,1.4-2.5c0-1.2-0.2-2.5-1.4-2.5c-1.1,0-1.4,1.3-1.4,2.5
			C139.9,28.5,140.1,29.8,141.3,29.8z"/>
		<path fill="#FFFFFF" d="M146.4,25h-1.2v-1.3h1.2v-1.5c0-1,0.5-2,2.1-2c0.5,0,0.9,0.1,1.3,0.2l-0.1,1.3c-0.2-0.1-0.4-0.1-0.7-0.1
			c-0.5,0-0.8,0.4-0.8,0.9v1.2h1.3V25h-1.3v6h-1.8V25z"/>
		<path fill="#FFFFFF" d="M154.9,22.2l1.8-0.5v2h1.4V25h-1.4v3.8c0,0.8,0.3,1,0.8,1c0.3,0,0.5-0.1,0.7-0.2v1.2
			c-0.3,0.1-0.7,0.2-1.2,0.2c-1.3,0-2-0.6-2-2.1v-4h-1.2v-1.3h1.2V22.2z"/>
		<path fill="#FFFFFF" d="M159.2,20.3h1.8v4.3h0c0.3-0.4,0.7-1,1.8-1c1.7,0,2.1,1.2,2.1,2.7v4.7h-1.8v-4.4c0-1.1-0.3-1.6-1-1.6
			c-0.9,0-1.2,0.8-1.2,1.7v4.2h-1.8V20.3z"/>
		<path fill="#FFFFFF" d="M171.8,30.6c-0.3,0.1-1.1,0.5-2.2,0.5c-2.4,0-3.4-1.7-3.4-3.6c0-2.2,1.1-3.9,3-3.9c1.6,0,2.9,0.9,2.9,3.9
			v0.3H168c0,1.2,0.5,2,1.8,2c1.1,0,1.6-0.3,1.9-0.6L171.8,30.6z M170.5,26.7c0-1.3-0.4-1.9-1.2-1.9c-0.9,0-1.3,1-1.3,1.9H170.5z"/>
		<path fill="#FFFFFF" d="M60.7,37v6.4c0,1.6,0.5,2.2,1.6,2.2c1,0,1.5-0.5,1.5-2.2V37h1.8v6.4c0,2.6-1.5,3.6-3.3,3.6
			c-1.9,0-3.4-1-3.4-3.6V37H60.7z"/>
		<path fill="#FFFFFF" d="M67.3,40.8c0-0.5,0-0.9,0-1.2h1.6c0,0.4,0,0.7,0,1.1H69c0.2-0.4,0.7-1.2,1.9-1.2c1.6,0,2.1,1.2,2.1,2.7
			v4.7h-1.7v-4.4c0-1.1-0.3-1.6-1-1.6c-0.9,0-1.2,0.8-1.2,1.7v4.2h-1.8V40.8z"/>
		<path fill="#FFFFFF" d="M74.8,36.5h1.8v1.7h-1.8V36.5z M74.8,39.6h1.7v7.3h-1.7V39.6z"/>
		<path fill="#FFFFFF" d="M78.9,38.1l1.7-0.5v2h1.5v1.3h-1.5v3.8c0,0.8,0.3,1,0.8,1c0.3,0,0.5-0.1,0.7-0.2v1.2
			C81.9,46.9,81.5,47,81,47c-1.3,0-2-0.6-2-2.1v-4h-1.2v-1.3h1.2V38.1z"/>
		<path fill="#FFFFFF" d="M88.6,46.5c-0.4,0.2-1.1,0.5-2.2,0.5c-2.4,0-3.4-1.7-3.4-3.6c0-2.2,1.1-3.9,3-3.9c1.6,0,2.9,0.9,2.9,3.9
			v0.4h-4.2c0,1.2,0.5,2,1.9,2c1.1,0,1.6-0.3,1.9-0.6L88.6,46.5z M87.3,42.6c0-1.3-0.4-1.9-1.2-1.9c-0.9,0-1.3,1-1.3,1.9H87.3z"/>
		<path fill="#FFFFFF" d="M96.3,36.3v9.4c0,0.5,0,1,0,1.2h-1.6c0-0.2-0.1-0.6-0.1-1.1h0c-0.3,0.6-0.8,1.2-1.9,1.2
			c-1.8,0-2.6-1.7-2.6-3.7c0-2.4,1-3.8,2.5-3.8c1,0,1.6,0.6,1.9,1.2h0v-4.4H96.3z M93.1,45.7c1,0,1.4-1.1,1.4-2.5
			c0-1.4-0.4-2.4-1.4-2.4c-1,0-1.3,1-1.3,2.4C91.9,44.9,92.1,45.7,93.1,45.7z"/>
		<path fill="#FFFFFF" d="M101.8,37h2.1l3.3,7.7h0V37h1.6v9.8h-2.2l-3.3-7.7h0v7.7h-1.6V37z"/>
		<path fill="#FFFFFF" d="M111,40c0.5-0.2,1.2-0.5,2.3-0.5c2.3,0,2.8,1.1,2.8,2.9v3.2c0,0.5,0.1,1,0.1,1.3h-1.6
			c-0.1-0.3-0.1-0.6-0.1-1h0c-0.4,0.6-1,1.1-2,1.1c-1.1,0-2.2-0.8-2.2-2.1c0-2,1.6-2.5,3.8-2.5h0.3v-0.3c0-0.7-0.3-1.4-1.4-1.4
			c-0.9,0-1.7,0.4-2,0.7L111,40z M114.5,43.3h-0.2c-1.5,0-2.4,0.3-2.4,1.4c0,0.7,0.4,1.1,1.1,1.1c1.1,0,1.4-0.8,1.4-2.1V43.3z"/>
		<path fill="#FFFFFF" d="M118.4,38.1l1.7-0.5v2h1.5v1.3h-1.5v3.8c0,0.8,0.3,1,0.8,1c0.3,0,0.5-0.1,0.7-0.2v1.2
			c-0.3,0.1-0.7,0.2-1.2,0.2c-1.3,0-2-0.6-2-2.1v-4h-1.1v-1.3h1.1V38.1z"/>
		<path fill="#FFFFFF" d="M122.9,36.5h1.8v1.7h-1.8V36.5z M122.9,39.6h1.7v7.3h-1.7V39.6z"/>
		<path fill="#FFFFFF" d="M129.4,39.5c1.5,0,3.2,0.8,3.2,3.7c0,3.1-1.7,3.8-3.2,3.8c-1.5,0-3.2-0.7-3.2-3.8
			C126.2,40.3,127.9,39.5,129.4,39.5z M129.4,45.8c1.1,0,1.4-1.3,1.4-2.5c0-1.2-0.2-2.5-1.4-2.5c-1.1,0-1.4,1.3-1.4,2.5
			C128,44.5,128.3,45.8,129.4,45.8z"/>
		<path fill="#FFFFFF" d="M134,40.8c0-0.5,0-0.9-0.1-1.2h1.6c0,0.4,0.1,0.7,0.1,1.1h0c0.2-0.4,0.8-1.2,1.9-1.2
			c1.6,0,2.1,1.2,2.1,2.7v4.7H138v-4.4c0-1.1-0.3-1.6-1-1.6c-0.9,0-1.2,0.8-1.2,1.7v4.2H134V40.8z"/>
		<path fill="#FFFFFF" d="M141.1,45.2c0.3,0.1,1,0.5,1.8,0.5c0.6,0,1.1-0.2,1.1-0.7c0-0.3-0.1-0.5-0.8-0.9l-0.7-0.4
			c-0.7-0.5-1.5-0.9-1.5-2.1c0-1,1-2.1,2.5-2.1c0.9,0,1.6,0.2,1.8,0.3l-0.1,1.4c-0.4-0.2-0.9-0.3-1.5-0.3c-0.7,0-1,0.3-1,0.7
			c0,0.4,0.3,0.6,0.8,0.9l0.8,0.6c0.9,0.6,1.4,1,1.4,1.8c0,1.3-1.1,2.1-2.7,2.1c-0.9,0-1.7-0.2-2-0.3L141.1,45.2z"/>
	</g>
</g>
</svg>
