<?xml version="1.0" encoding="utf-8"?>
<!-- Generator: Adobe Illustrator 18.1.1, SVG Export Plug-In . SVG Version: 6.00 Build 0)  -->
<svg version="1.1" id="Layer_1" xmlns="http://www.w3.org/2000/svg" xmlns:xlink="http://www.w3.org/1999/xlink" x="0px" y="0px"
	 viewBox="0 0 49.2 50.1" enable-background="new 0 0 49.2 50.1" xml:space="preserve">
<g>
	<path fill="#3E8EDE" d="M24.6,50.1C11,50.1,0,38.8,0,25C0,11.2,11,0,24.6,0c13.6,0,24.6,11.2,24.6,25
		C49.2,38.8,38.2,50.1,24.6,50.1z M24.5,15.2c0,0,2,2.1,2,3.9c0,1.9-1.4,2.3-1.9,2.3c0,0-0.1,0-0.1,0h0c0,0-0.1,0-0.1,0
		c-0.5,0-1.9-0.4-1.9-2.3C22.5,17.3,24.5,15.2,24.5,15.2z M6,26.4h2.2v-4.2H12v-1.8H8.2v-2.3h3.9v-1.8H6V26.4z M26.6,15.5h2.4
		L26.2,5.4h-3l-2.8,10.1h2.2l0.6-2.2H26L26.6,15.5z M25.6,11.5h-2.1l1-4.4h0.2L25.6,11.5z M36,21.4c0,3,1.4,5.2,4.2,5.2
		c2.9,0,4.2-2.3,4.2-5.2c0-3-1.4-5.2-4.2-5.2C37.3,16.2,36,18.4,36,21.4z M38.4,21.4c0-1.9,0.5-3.5,1.8-3.5c1.3,0,1.8,1.6,1.8,3.5
		c0,1.9-0.5,3.5-1.8,3.5C38.8,24.9,38.4,23.3,38.4,21.4z M23.6,47.3c0.1-1,0.3-2.6,0.3-4.4c0-0.5,0-0.2,0-0.3c0-2.6-0.1-3.4-1.8-4
		c-2.6-0.9-3.7-3.8-3.1-7.6L10.2,8.3c-4.6,4.1-7.4,10-7.4,16.7C2.7,37,12,46.7,23.6,47.3z M24.6,32.8c-3.5-0.8-4.8-4.1-4.8-6.9
		L12.2,6.7c-0.5,0.4-1,0.7-1.5,1.1c1.7,4.1,9.3,22.3,9.3,22.4c1.3,3.3,3.8,2.2,4.4,4.9c0.2,0.7,0.2,0.9,0.2,0.9h0.3
		c0,0,0-0.3,0.1-0.9c0.6-2.7,3-1.6,4.4-4.9c0,0,7.6-18.3,9.3-22.4c-0.5-0.4-0.9-0.8-1.5-1.1l-7.7,19.1C29.4,28.8,28.1,32,24.6,32.8
		L24.6,32.8z M24.6,27c-1.5-0.3-3.3-1.8-3.6-3.8c-0.1-0.7-0.2-0.9,0-2.4L14.3,5.4c-0.5,0.3-1.1,0.6-1.6,1c2,4.6,8.2,18.6,8.2,18.6
		c1,2.1,2.7,2.1,3.3,3.4c0.4,0.7,0.4,1.4,0.4,1.5h0.2c0,0,0-0.7,0.4-1.5c0.6-1.2,2.3-1.3,3.3-3.4c0,0,6.1-14,8.2-18.6
		C36,6,35.5,5.7,35,5.4l-6.7,15.5c0.1,1.5,0,1.7-0.1,2.4C27.9,25.2,26.1,26.7,24.6,27L24.6,27z M24.7,24.4l0.1-0.8
		c0.4-2,1.8-1.7,2.8-3.6c0,0,0,0,0,0c0-0.1,4.8-10.5,6.8-14.8c-2.9-1.5-6.3-2.3-9.8-2.3s-6.8,0.8-9.8,2.3c2,4.3,6.7,14.7,6.8,14.8
		c0,0,0,0,0,0c1,1.9,2.4,1.7,2.8,3.6l0.1,0.8H24.7z M46.5,25c0-6.7-2.9-12.6-7.4-16.7L30.3,31c0.6,3.7-0.5,6.7-3.1,7.6
		c-1.7,0.6-1.8,1.5-1.8,4c0,0.2,0-0.2,0,0.3c0,1.8,0.1,3.4,0.3,4.4C37.2,46.7,46.5,37,46.5,25z M9.6,31.6c0,0,0.3,0.7,0.6,1.2
		c0.3,0.5,0.6,1.1,0.6,1.1l-0.6,0.4c0,0-0.4-0.8-0.8-1.6c-0.1,0.1-0.8,0.4-0.9,0.5c0.1,0.1,0.8,1.5,0.8,1.5L8.7,35
		c0,0-0.7-1.4-0.8-1.5c-0.1,0.1-1.6,0.8-1.6,0.8l-0.4-0.7L9.6,31.6L9.6,31.6z M12,35.4l0.5,0.6l-3.2,2.7l-0.5-0.6L12,35.4L12,35.4z
		 M14.9,38.3l0.6,0.5l-0.8,4.5L14,42.8c0,0,0.2-0.9,0.2-1c0,0-0.5-0.3-0.9-0.6c-0.4-0.3-0.8-0.6-0.9-0.7c-0.1,0-0.9,0.5-0.9,0.5
		L11,40.5L14.9,38.3L14.9,38.3z M13.1,40.2c0.1,0.1,0.3,0.3,0.6,0.5c0.3,0.2,0.6,0.4,0.7,0.4c0-0.2,0.3-1.7,0.4-1.9
		C14.5,39.3,13.2,40.1,13.1,40.2z M17.5,39.9c0,0,0.7,0.4,1.6,0.7c0.7,0.2,1.2,0.4,1.8,0.5l-0.2,0.6c0,0-0.5-0.1-1.4-0.3
		c0,0.2-1.2,3.3-1.2,3.3l-0.7-0.3c0,0,1.1-3.2,1.1-3.3c-0.8-0.3-1.3-0.6-1.3-0.6L17.5,39.9z M30.7,40.8c0.3,0.1,0.5,0.4,0.6,0.8
		c0,0.2,0.1,0.3,0.1,0.4c0,0.6-0.4,1.1-1.1,1.3c0,0-0.4,0.1-0.5,0.2c0,0.1,0.5,1.6,0.5,1.6l-0.7,0.2l-1.2-4.1l1.1-0.3
		C29.9,40.6,30.4,40.6,30.7,40.8z M29.2,41.5c0,0.1,0.3,1.1,0.4,1.2c0.2,0,0.5-0.2,0.5-0.2c0.1,0,0.4-0.1,0.5-0.4
		c0.1-0.1,0.1-0.2,0.1-0.3c0-0.1,0-0.1,0-0.2c0-0.1-0.1-0.2-0.3-0.3c-0.2-0.1-0.5-0.1-0.7,0C29.6,41.4,29.3,41.5,29.2,41.5z
		 M33.2,39l3.6,2.7l-0.6,0.5c0,0-0.7-0.6-0.8-0.6c0,0-0.4,0.3-0.8,0.5c-0.4,0.2-0.8,0.4-0.8,0.5c0,0.1,0.2,1,0.2,1l-0.7,0.3
		l-0.6-4.5L33.2,39z M33.6,41.8c0.1-0.1,0.4-0.2,0.7-0.4c0.2-0.1,0.5-0.3,0.6-0.4c-0.2-0.1-1.3-1-1.5-1.2
		C33.4,40.2,33.6,41.6,33.6,41.8z M37.3,35.3l3.2,2.9l-0.6,0.7c0,0-3-0.9-3.4-1c0.3,0.3,2.2,2.3,2.2,2.3l-0.6,0.5l-3-3.1l0.7-0.6
		c0,0,2.9,0.9,3.3,1c-0.3-0.3-2.3-2-2.3-2L37.3,35.3z M38.8,33.1l3.6,2.2L42,36l-3.7-2.2L38.8,33.1z M40.3,29.6l0.6,0.3L40.9,30
		c-0.2,0.2-0.3,0.4-0.4,0.7c0,0.1-0.1,0.4,0,0.6c0,0.1,0.1,0.2,0.3,0.2c0.3,0.1,0.5-0.1,0.8-0.4c0.4-0.4,0.9-0.9,1.6-0.6
		c0.8,0.3,1,1,0.7,1.9c-0.1,0.3-0.3,0.5-0.4,0.8l0,0l-0.7-0.3l0.1-0.1c0.1-0.1,0.3-0.4,0.5-0.7c0.1-0.3,0.1-0.8-0.3-0.9
		c-0.4-0.1-0.6,0.1-0.9,0.5c-0.4,0.4-0.8,0.8-1.5,0.6c-0.3-0.1-0.5-0.3-0.7-0.6c-0.2-0.3-0.2-0.7,0-1.2C40,30.2,40.1,29.9,40.3,29.6
		L40.3,29.6z"/>
</g>
</svg>
