<?xml version="1.0" encoding="utf-8"?>
<!-- Generator: Adobe Illustrator 18.1.1, SVG Export Plug-In . SVG Version: 6.00 Build 0)  -->
<svg version="1.1" id="Layer_1" xmlns="http://www.w3.org/2000/svg" xmlns:xlink="http://www.w3.org/1999/xlink" x="0px" y="0px"
	 viewBox="0 0 224.1 90.9" enable-background="new 0 0 224.1 90.9" xml:space="preserve">
<polygon fill="#F5CE00" points="31.4,41 32.9,41 32.9,61 29.4,61 29.4,41 "/>
<polygon fill="#ED1C24" points="31.4,20.9 32.9,20.9 32.9,41 29.4,41 29.4,20.9 "/>
<polygon points="32.9,1 32.9,21 31.4,21 29.4,21 29.4,1 "/>
<g>
	<path d="M20.3,7.9c1,1.6,1.8,1.6,3,1.6c-1-0.8-1.7-1.7-2-2.3l-1.9-3c-0.2-0.9-0.7-1.8-1.4-2.4c0.2-0.1,0.4-0.2,0.6-0.3
		c-1.2,0-2.4-0.6-3.1-0.6c-0.4,0-0.7,0.3-0.7,0.6c0,0.4,0.4,0.8,1.1,0.8c0.2,0,0.4,0,0.6-0.1c0.4,0.5,0.7,1,0.7,1.7
		c0,1.3-1.6,2.3-3.1,2.3c-0.1,0-0.2,0-0.3,0c-0.1-0.3-0.6-0.9-0.6-1.5c0-1,0.7-1.9,0.7-2.9c0-0.6-0.3-1-0.4-1.2
		c0.2-0.2,0.4-0.4,0.5-0.6c-0.1,0-0.2,0.1-0.4,0.1c-0.8,0-1.4-0.2-2-0.2c-0.3,0-0.4,0.1-0.4,0.2c0,0,0,0.1,0,0.1
		c-0.1-0.1-0.2-0.1-0.4-0.1c-0.2,0-0.4-0.1-0.6-0.1c-0.7,0-1,0.3-1,0.6c0,0.2,0.2,0.6,0.4,0.9c0.3-0.1,0.6-0.2,0.8-0.2
		c0.4,0,0.7,0.4,0.9,0.8c-0.3,0-0.3,0-0.6,0C10,2.3,9.5,2,9.4,2c0,0,0,0,0,0c0,0.1,0.2,0.4,0.6,0.5c0.5,0.2,1.3,0.3,1.4,0.3
		c0,0-0.1,0.3-0.3,0.3c0,0-0.1,0-0.1,0C10.5,3,10.3,3,9.6,2.7c0,0,0,0,0,0c0,0.3,0.7,0.9,1.3,1.1c-0.5,0.7-1.2,1.4-1.5,2.4
		c-0.1,0-0.2,0-0.3,0C7.6,6.3,6,5.3,6,4c0-0.7,0.3-1.2,0.7-1.7c0.2,0,0.4,0.1,0.6,0.1c0.7,0,1.1-0.4,1.1-0.8C8.5,1.2,8.2,1,7.8,1
		C7.1,1,5.9,1.6,4.7,1.6C4.8,1.7,5,1.8,5.2,1.9C4.5,2.5,4,3.4,3.8,4.3L2,7.3C1.7,7.8,1,8.8,0,9.5c1.2,0,2,0,3-1.6l1-1.5
		C4.1,6.6,4.2,6.8,4.3,7L2.3,10c-0.3,0.5-1,1.5-2,2.3c1.2,0,2,0,3-1.6L5,8.1c0.1,0.1,0.3,0.3,0.4,0.4l-2.3,3.7c-0.3,0.5-1,1.5-2,2.2
		c1.2,0,2,0,3-1.6l2.3-3.6c0.1,0.1,0.3,0.2,0.5,0.3l-2.8,4.4c-0.3,0.5-1,1.5-2,2.2c1.2,0,2,0,3-1.6L8,10c0.2,0.1,0.3,0.1,0.5,0.2
		l-3.2,5.1c-0.3,0.5-1,1.5-2,2.2c1.2,0,2,0,3-1.6l3.4-5.5c0,0,0.1,0,0.1,0c0.1,0.3,0.2,0.6,0.2,0.8c0,1.7-1.1,3.2-2.5,4.4
		c0.1,0,0.2,0.1,0.4,0.1c0.3,0,0.5,0,0.6,0c-0.3,0.7-1,1.6-1.3,2.1c-0.4-0.1-1.1-0.1-1.5-0.1c-0.4,0-0.5,0.3-0.5,0.5
		c0,0.4,0.2,0.7,0.4,0.9c0.1-0.2,0.2-0.5,1.1-0.5c0,0,0,0,0.1,0c-0.2,0.3-1,0.9-1,1.4c0,0.3,0.4,0.8,0.8,0.8c0-0.1,0-0.2,0-0.3
		c0-0.4,0.3-0.9,0.6-1.2c0,0.1,0,0.1,0,0.2c0,0.9,0.1,1.4,0.7,1.4c0.3,0,0.5-0.2,0.6-0.2c-0.4-0.4-0.4-0.6-0.4-1.2
		c0-0.1,0-0.3,0-0.5c0-0.1,0-0.3,0-0.4c0.2,0,0.3,0,0.5,0c0,0,0.8-0.1,1,0.4c0.2-0.2,0.6-0.5,0.6-0.8c0-0.2-0.1-0.5-0.5-0.5
		c-0.2,0-0.7,0.1-1.1,0.1c0.1-0.3,0.6-1,1.1-1.6c0.1,0.2,0.2,0.4,0.4,0.6c0-0.4,0.2-1.5,0.8-2.1c0.1,0.4,0.2,0.9,0.2,1.8
		c0,2.3-0.6,4-1.7,4.3c0.2,0.3,0.5,0.5,0.8,0.5c0.4,0,0.7-0.5,0.9-0.9c0.1,0.3,0.5,1.2,0.8,1.2c0.3,0,0.7-0.8,0.8-1.2
		c0.2,0.5,0.5,0.9,0.9,0.9c0.3,0,0.7-0.2,0.8-0.5c-1.2-0.3-1.7-2-1.7-4.3c0-1,0.1-1.4,0.1-1.8c0.6,0.7,0.8,1.8,0.8,2.1
		c0.2-0.2,0.3-0.4,0.4-0.6c0.4,0.5,1,1.3,1.1,1.6c-0.4,0-0.9-0.1-1.1-0.1c-0.4,0-0.5,0.2-0.5,0.5c0,0.3,0.3,0.6,0.6,0.8
		c0.2-0.4,1-0.4,1-0.4c0.2,0,0.2,0,0.5,0c0,0.1,0,0.3,0,0.4c0,0.2,0,0.3,0,0.5c0,0.5,0,0.8-0.4,1.2c0.1,0,0.3,0.2,0.6,0.2
		c0.6,0,0.7-0.4,0.7-1.4c0-0.1,0-0.1,0-0.2c0.3,0.3,0.6,0.8,0.6,1.2c0,0.1,0,0.2,0,0.3c0.5,0,0.8-0.5,0.8-0.8c0-0.5-0.7-1.1-1-1.4
		c0,0,0.1,0,0.1,0c0.8,0,1,0.3,1.1,0.5c0.2-0.2,0.4-0.5,0.4-0.9c0-0.2,0-0.5-0.5-0.5c-0.4,0-1.1,0.1-1.5,0.1c-0.3-0.5-1-1.4-1.3-2.1
		c0.1,0,0.3,0,0.6,0c0.1,0,0.3,0,0.4-0.1c-1.4-1.2-2.5-2.7-2.5-4.4c0-0.3,0.1-0.6,0.2-0.8c0,0,0.1,0,0.1,0L17,16
		c1,1.6,1.8,1.6,3,1.6c-1-0.8-1.7-1.8-2-2.2l-3.2-5.1c0.2-0.1,0.3-0.1,0.5-0.2l2.8,4.5c1,1.6,1.8,1.6,3,1.6c-1-0.8-1.7-1.7-2-2.2
		l-2.8-4.4c0.2-0.1,0.3-0.2,0.5-0.3l2.3,3.6c1,1.6,1.8,1.6,3,1.6c-1-0.8-1.7-1.7-2-2.2l-2.3-3.7c0.1-0.1,0.3-0.2,0.4-0.4l1.6,2.6
		c1,1.6,1.8,1.6,3,1.6c-1-0.8-1.7-1.7-2-2.3L19.1,7c0.1-0.2,0.2-0.4,0.3-0.6L20.3,7.9z M5,4.4c0-1.1,0.8-2,1.1-2.3
		c0.1,0,0.1,0,0.2,0C6,2.6,5.5,3.2,5.5,4c0,1.7,1.8,3.1,3.8,3.1c0,0.1,0,0.3,0,0.4c0,0.2,0,0.5,0,0.7C7,8.3,5,6.4,5,4.4z M8.1,18.1
		L8.1,18.1L8.1,18.1c0.7,0,1,0,1.2,0c0.1,0,0.2,0,0.3,0c0.2,0,0.3,0,0.3,0.2c0,0.1-0.2,0.4-0.3,0.5c-0.2-0.2-0.6-0.3-1-0.3
		c-0.2,0-0.5,0-0.7,0.1l0,0l0,0l0,0.1c0,0.1,0,0.3,0,0.5l0,0.2l0,0.3c0,0.5,0.1,0.9,0.3,1.1c0,0-0.1,0-0.2,0c-0.3,0-0.4-0.1-0.4-1.1
		c0-0.2,0-0.4,0-0.5l0-0.2l0,0c-0.5,0.4-1,1.1-1.1,1.6C6.2,20.4,6,20.2,6,20c0-0.3,0.4-0.7,0.9-1.2l0.3-0.3l0,0l-0.1,0
		c-0.1,0-0.3-0.1-0.5-0.1c-0.5,0-0.9,0.1-1.1,0.3c-0.1-0.1-0.1-0.4-0.1-0.5c0-0.1,0-0.2,0.1-0.2c0,0,0.1,0,0.2,0h0
		c0.6,0,1.3,0.1,1.6,0.2l0,0l0,0c0-0.1,1.2-1.6,1.5-2.4c0.1,0,0.1,0,0.2,0c0.2,0,0.3,0.2,0.4,0.4C8.7,17,8.3,17.6,8.1,18.1z
		 M14.3,15.7c0.1,0,0.2,0,0.2,0c0.3,0.8,1.4,2.3,1.5,2.4l0,0l0,0c0.3,0,1-0.2,1.6-0.2h0c0.1,0,0.1,0,0.2,0c0,0,0.1,0.1,0.1,0.2
		c0,0.1-0.1,0.4-0.1,0.5c-0.2-0.2-0.6-0.3-1.1-0.3c-0.2,0-0.4,0-0.5,0.1l0,0l0,0l0.3,0.3c0.5,0.5,0.9,0.9,0.9,1.2
		c0,0.2-0.2,0.4-0.3,0.5c0-0.5-0.5-1.2-1.1-1.6l0,0l0,0.2c0,0.1,0,0.3,0,0.5c0,1-0.1,1.1-0.4,1.1c-0.1,0-0.1,0-0.2,0
		c0.2-0.2,0.3-0.5,0.3-1.1l0-0.3l0-0.2c0-0.2,0-0.4,0-0.5l0-0.1l-0.1,0c-0.2,0-0.5-0.1-0.7-0.1c-0.5,0-0.8,0-1,0.3
		c-0.2-0.1-0.3-0.3-0.3-0.5c0-0.2,0.1-0.2,0.3-0.2c0.1,0,0.2,0,0.3,0c0.2,0,0.5,0.1,1.2,0.1h0l0,0c-0.2-0.5-0.6-1.1-1.3-2
		C14,15.9,14.1,15.7,14.3,15.7z M11.6,2.4c-0.1-0.3-0.2-0.6-0.4-0.8c-0.2-0.2-0.5-0.5-0.9-0.5c-0.2,0-0.5,0.1-0.7,0.2
		C9.6,1.2,9.5,0.9,9.5,0.7c0-0.1,0.2-0.3,0.7-0.3c1,0,1.6,0.5,1.6,1.2C11.8,1.9,11.7,2.2,11.6,2.4z M12.1,1.4c0-0.2-0.1-0.4-0.2-0.6
		c0-0.2,0.1-0.4,0.4-0.2c-0.2,0.2,0,0.5,0,0.5s0.4-0.2,0.3-0.4C13,0.8,12.7,1.5,12.1,1.4z M14.1,8.3c0-0.2,0-0.5,0-0.7
		c0-0.1,0-0.3,0-0.4c2,0,3.7-1.5,3.7-3.1c0-0.8-0.5-1.5-0.9-1.9c0.1,0,0.1,0,0.2,0c0.3,0.3,1.1,1.2,1.1,2.3
		C18.3,6.4,16.4,8.3,14.1,8.3z"/>
</g>
<g>
	<path d="M40.2,9V1h4v0.9h-3v2.6H44v0.9h-2.8V9H40.2z"/>
	<path d="M46,6.5c0,0.7,0.1,1.2,0.3,1.5c0.2,0.3,0.5,0.4,0.9,0.4c0.3,0,0.5-0.1,0.7-0.3c0.2-0.2,0.3-0.5,0.3-0.8h1
		c0,0.6-0.2,1-0.5,1.4c-0.3,0.3-0.8,0.5-1.4,0.5c-0.9,0-1.5-0.3-1.7-0.8C45.2,7.8,45,7.1,45,6.2c0-1.1,0.2-1.9,0.5-2.4
		c0.3-0.4,0.9-0.7,1.7-0.7c0.7,0,1.2,0.2,1.5,0.6c0.3,0.4,0.4,1.1,0.4,2v0.6H46z M46,5.8h2.2c0-0.8-0.1-1.3-0.3-1.6
		c-0.1-0.2-0.4-0.3-0.7-0.3c-0.4,0-0.7,0.1-0.9,0.4C46.1,4.6,46,5.1,46,5.8z"/>
	<path d="M53.7,4V1h0.9v8h-0.9V8.3c-0.3,0.5-0.7,0.8-1.3,0.8c-0.7,0-1.1-0.2-1.4-0.7c-0.3-0.5-0.4-1.2-0.4-2.3
		c0-1.1,0.2-1.9,0.5-2.3c0.3-0.4,0.8-0.6,1.4-0.6C53,3.2,53.4,3.5,53.7,4z M51.5,6.3c0,0.8,0.1,1.3,0.3,1.6c0.2,0.3,0.5,0.5,0.9,0.5
		c0.3,0,0.6-0.1,0.8-0.4c0.2-0.3,0.3-0.9,0.3-1.7c0-0.6,0-1.1-0.1-1.4c-0.1-0.2-0.2-0.4-0.3-0.6C53.1,4,52.9,4,52.6,4
		c-0.4,0-0.7,0.2-0.9,0.5C51.6,4.8,51.5,5.4,51.5,6.3z"/>
	<path d="M57.2,6.5c0,0.7,0.1,1.2,0.3,1.5c0.2,0.3,0.5,0.4,0.9,0.4c0.3,0,0.5-0.1,0.7-0.3c0.2-0.2,0.3-0.5,0.3-0.8h1
		c0,0.6-0.2,1-0.5,1.4C59.5,9,59,9.1,58.4,9.1c-0.9,0-1.5-0.3-1.7-0.8c-0.3-0.5-0.4-1.2-0.4-2.1c0-1.1,0.2-1.9,0.5-2.4
		c0.3-0.4,0.9-0.7,1.7-0.7c0.7,0,1.2,0.2,1.5,0.6c0.3,0.4,0.4,1.1,0.4,2v0.6H57.2z M57.2,5.8h2.2c0-0.8-0.1-1.3-0.3-1.6
		c-0.1-0.2-0.4-0.3-0.7-0.3c-0.4,0-0.7,0.1-0.9,0.4C57.3,4.6,57.2,5.1,57.2,5.8z"/>
	<path d="M62,9V3.3h0.9v0.9c0.2-0.7,0.8-1,1.6-1h0.2v1c-0.2,0-0.3-0.1-0.5-0.1c-0.8,0-1.3,0.5-1.3,1.6V9H62z"/>
	<path d="M65.7,4.9c0-1.1,0.7-1.7,1.9-1.7s1.9,0.6,1.9,1.7v2.8c0,0.5,0,0.9,0.1,1.3h-1V8.2c-0.3,0.6-0.7,1-1.4,1
		c-1.1,0-1.6-0.6-1.6-1.9c0-0.6,0.2-1,0.6-1.3c0.4-0.3,0.9-0.5,1.7-0.5h0.7V5c0-0.7-0.3-1.1-1-1.1c-0.3,0-0.5,0.1-0.6,0.2
		c-0.2,0.2-0.3,0.4-0.3,0.7H65.7z M68.3,6.2c-0.7,0-1.2,0.1-1.4,0.3c-0.3,0.2-0.4,0.5-0.4,0.9c0,0.3,0.1,0.6,0.2,0.8
		c0.2,0.2,0.4,0.3,0.6,0.3c0.4,0,0.7-0.1,0.9-0.4c0.2-0.3,0.3-0.9,0.3-1.8H68.3z"/>
	<path d="M71.2,9V1h0.9v8H71.2z"/>
	<path d="M76.3,1H78l2.1,6.8L82.2,1h1.7v8h-1.1V1.9L80.5,9h-1l-2.3-7.2V9h-1V1z"/>
	<path d="M85.5,0.8h1v1h-1V0.8z M85.5,3.3h0.9V9h-0.9V3.3z"/>
	<path d="M89,9H88V4.3c0-0.3,0-0.6,0-1h1l0,0.8c0.2-0.3,0.4-0.6,0.6-0.7c0.3-0.1,0.6-0.2,0.9-0.2c0.5,0,0.9,0.1,1.1,0.4
		C91.9,3.9,92,4.4,92,5v4h-0.9v-4c0-0.7-0.3-1.1-1-1.1C89.3,4,89,4.5,89,5.6V9z"/>
	<path d="M93.6,0.8h1v1h-1V0.8z M93.6,3.3h0.9V9h-0.9V3.3z"/>
	<path d="M96.9,7.3c0,0.7,0.3,1.1,0.9,1.1c0.3,0,0.6-0.1,0.7-0.2c0.2-0.1,0.3-0.4,0.3-0.6c0-0.2-0.1-0.4-0.3-0.5
		c-0.2-0.1-0.5-0.3-0.9-0.5c-0.5-0.2-0.9-0.5-1.2-0.8c-0.3-0.3-0.4-0.6-0.4-1c0-0.5,0.2-0.9,0.5-1.2c0.3-0.3,0.8-0.4,1.4-0.4
		c0.6,0,1,0.1,1.3,0.4c0.3,0.2,0.5,0.5,0.5,0.9v0.3h-1.1c0-0.6-0.3-0.9-0.8-0.9c-0.3,0-0.5,0.1-0.6,0.2C97.1,4.2,97,4.4,97,4.7
		c0,0.2,0.1,0.4,0.4,0.6c0.3,0.2,0.6,0.3,0.9,0.4c0.5,0.2,0.9,0.5,1.1,0.7c0.3,0.3,0.4,0.6,0.4,1c0,1.2-0.7,1.8-2,1.8
		c-1.3,0-2-0.6-2-1.8H96.9z"/>
	<path d="M100.3,4V3.3h0.9V2.2l0.9-0.4v1.5h1.2V4h-1.2v3.6c0,0.2,0.1,0.4,0.2,0.5c0.1,0.1,0.3,0.2,0.6,0.2c0.1,0,0.2,0,0.4,0V9
		c-0.2,0.1-0.5,0.1-0.9,0.1c-0.8,0-1.3-0.3-1.3-1V4H100.3z"/>
	<path d="M104.2,9V3.3h0.9v0.9c0.2-0.7,0.8-1,1.6-1h0.2v1c-0.2,0-0.3-0.1-0.5-0.1c-0.8,0-1.3,0.5-1.3,1.6V9H104.2z"/>
	<path d="M107.2,3.3h1.1l1.4,4.6l1.4-4.6h1l-2.6,7.8h-0.9l0.6-2.1L107.2,3.3z"/>
	<path d="M114.7,3.3h0.9v-1c0-0.5,0.1-0.8,0.4-1.1c0.3-0.2,0.7-0.3,1.3-0.3c0.1,0,0.3,0,0.4,0v0.7c0,0-0.1,0-0.2,0
		c-0.6,0-0.9,0.2-0.9,0.7v0.9h1.1V4h-1.1v5h-0.9V4h-0.9V3.3z"/>
	<path d="M118.3,6.2c0-1.2,0.2-2,0.5-2.4c0.3-0.4,0.9-0.6,1.7-0.6c0.8,0,1.4,0.2,1.7,0.7c0.3,0.5,0.5,1.2,0.5,2.2
		c0,1.1-0.2,1.9-0.5,2.3c-0.3,0.4-0.9,0.7-1.7,0.7c-0.8,0-1.3-0.2-1.7-0.6C118.5,8.1,118.3,7.3,118.3,6.2z M119.3,5.9
		c0,0.9,0.1,1.6,0.2,2c0.2,0.4,0.5,0.5,1,0.5c0.4,0,0.8-0.2,0.9-0.6c0.2-0.4,0.2-1,0.2-2c0-0.7-0.1-1.3-0.3-1.5
		c-0.2-0.3-0.5-0.4-0.9-0.4c-0.4,0-0.7,0.1-0.9,0.4C119.4,4.7,119.3,5.2,119.3,5.9z"/>
	<path d="M124.1,9V3.3h0.9v0.9c0.2-0.7,0.8-1,1.6-1h0.2v1c-0.2,0-0.3-0.1-0.5-0.1c-0.8,0-1.3,0.5-1.3,1.6V9H124.1z"/>
	<path d="M129.5,4V3.3h0.9V2.2l0.9-0.4v1.5h1.2V4h-1.2v3.6c0,0.2,0.1,0.4,0.2,0.5c0.1,0.1,0.3,0.2,0.6,0.2c0.1,0,0.2,0,0.4,0V9
		c-0.2,0.1-0.5,0.1-0.9,0.1c-0.8,0-1.3-0.3-1.3-1V4H129.5z"/>
	<path d="M133.4,1h0.9v3.1c0.3-0.6,0.8-0.9,1.6-0.9c0.5,0,0.9,0.1,1.1,0.4c0.2,0.3,0.4,0.8,0.4,1.4v4h-0.9v-4c0-0.7-0.3-1.1-1-1.1
		c-0.8,0-1.2,0.5-1.2,1.6V9h-0.9V1z"/>
	<path d="M139.9,6.5c0,0.7,0.1,1.2,0.3,1.5c0.2,0.3,0.5,0.4,0.9,0.4c0.3,0,0.5-0.1,0.7-0.3c0.2-0.2,0.3-0.5,0.3-0.8h1
		c0,0.6-0.2,1-0.5,1.4c-0.3,0.3-0.8,0.5-1.4,0.5c-0.9,0-1.5-0.3-1.7-0.8c-0.3-0.5-0.4-1.2-0.4-2.1c0-1.1,0.2-1.9,0.5-2.4
		c0.3-0.4,0.9-0.7,1.7-0.7c0.7,0,1.2,0.2,1.5,0.6c0.3,0.4,0.4,1.1,0.4,2v0.6H139.9z M139.9,5.8h2.2c0-0.8-0.1-1.3-0.3-1.6
		c-0.1-0.2-0.4-0.3-0.7-0.3c-0.4,0-0.7,0.1-0.9,0.4C140,4.6,139.9,5.1,139.9,5.8z"/>
	<path d="M40.2,21v-8h4.2v0.9h-3.1v2.6h2.9v0.9h-2.9v2.8h3.2V21H40.2z"/>
	<path d="M46.7,21h-0.9v-4.7c0-0.3,0-0.6,0-1h1l0,0.8c0.2-0.3,0.4-0.6,0.6-0.7c0.3-0.1,0.6-0.2,0.9-0.2c0.5,0,0.9,0.1,1.1,0.4
		c0.2,0.3,0.4,0.7,0.4,1.4v4h-0.9v-4c0-0.7-0.3-1.1-1-1.1c-0.8,0-1.2,0.5-1.2,1.6V21z"/>
	<path d="M53,20.2l1.4-4.8h1L53.6,21h-1.2l-1.7-5.7h1L53,20.2z"/>
	<path d="M56.2,12.8h1v1h-1V12.8z M56.3,15.3h0.9V21h-0.9V15.3z"/>
	<path d="M58.8,21v-5.7h0.9v0.9c0.2-0.7,0.8-1,1.6-1h0.2v1c-0.2,0-0.3-0.1-0.5-0.1c-0.8,0-1.3,0.5-1.3,1.6V21H58.8z"/>
	<path d="M62.4,18.2c0-1.2,0.2-2,0.5-2.4c0.3-0.4,0.9-0.6,1.7-0.6c0.8,0,1.4,0.2,1.7,0.7c0.3,0.5,0.5,1.2,0.5,2.2
		c0,1.1-0.2,1.9-0.5,2.3c-0.3,0.4-0.9,0.7-1.7,0.7c-0.8,0-1.3-0.2-1.7-0.6C62.5,20.1,62.4,19.3,62.4,18.2z M63.4,17.9
		c0,0.9,0.1,1.6,0.2,2c0.2,0.4,0.5,0.5,1,0.5c0.4,0,0.8-0.2,0.9-0.6c0.2-0.4,0.2-1,0.2-2c0-0.7-0.1-1.3-0.3-1.5
		c-0.2-0.3-0.5-0.4-0.9-0.4c-0.4,0-0.7,0.1-0.9,0.4C63.4,16.7,63.4,17.2,63.4,17.9z"/>
	<path d="M69,21h-0.9v-4.7c0-0.3,0-0.6,0-1h1l0,0.8c0.2-0.3,0.4-0.6,0.6-0.7c0.3-0.1,0.6-0.2,0.9-0.2c0.5,0,0.9,0.1,1.1,0.4
		c0.2,0.3,0.4,0.7,0.4,1.4v4h-0.9v-4c0-0.7-0.3-1.1-1-1.1c-0.8,0-1.2,0.5-1.2,1.6V21z"/>
	<path d="M74.6,21h-0.9v-4.6c0-0.3,0-0.7,0-1.1h0.9v0.8c0.2-0.6,0.7-0.9,1.4-0.9c0.7,0,1.1,0.2,1.3,0.7c0.3-0.5,0.7-0.7,1.3-0.7
		c1,0,1.5,0.5,1.5,1.5V21h-0.9v-4c0-0.7-0.3-1.1-0.9-1.1c-0.7,0-1,0.4-1,1.2V21h-0.9v-4c0-0.7-0.3-1.1-0.9-1.1c-0.7,0-1,0.4-1,1.2
		V21z"/>
	<path d="M82.7,18.5c0,0.7,0.1,1.2,0.3,1.5c0.2,0.3,0.5,0.4,0.9,0.4c0.3,0,0.5-0.1,0.7-0.3c0.2-0.2,0.3-0.5,0.3-0.8h1
		c0,0.6-0.2,1-0.5,1.4c-0.3,0.3-0.8,0.5-1.4,0.5c-0.9,0-1.5-0.3-1.7-0.8c-0.3-0.5-0.4-1.2-0.4-2.1c0-1.1,0.2-1.9,0.5-2.4
		c0.3-0.4,0.9-0.7,1.7-0.7c0.7,0,1.2,0.2,1.5,0.6c0.3,0.4,0.4,1.1,0.4,2v0.6H82.7z M82.7,17.8h2.2c0-0.8-0.1-1.3-0.3-1.6
		c-0.1-0.2-0.4-0.3-0.7-0.3c-0.4,0-0.7,0.1-0.9,0.4C82.8,16.6,82.7,17.1,82.7,17.8z"/>
	<path d="M88.3,21h-0.9v-4.7c0-0.3,0-0.6,0-1h1l0,0.8c0.2-0.3,0.4-0.6,0.6-0.7c0.3-0.1,0.6-0.2,0.9-0.2c0.5,0,0.9,0.1,1.1,0.4
		c0.2,0.3,0.4,0.7,0.4,1.4v4h-0.9v-4c0-0.7-0.3-1.1-1-1.1c-0.8,0-1.2,0.5-1.2,1.6V21z"/>
	<path d="M92.2,16v-0.7h0.9v-1.1l0.9-0.4v1.5h1.2V16H94v3.6c0,0.2,0.1,0.4,0.2,0.5c0.1,0.1,0.3,0.2,0.6,0.2c0.1,0,0.2,0,0.4,0V21
		c-0.2,0.1-0.5,0.1-0.9,0.1c-0.8,0-1.3-0.3-1.3-1V16H92.2z"/>
	<path d="M95.7,22.4l0.6-2.6h1.1l-1,2.6H95.7z"/>
	<path d="M101.3,13h1.5l3.2,7v-7h0.9v8h-1.4l-3.2-7v7h-0.9V13z"/>
	<path d="M108.6,16.9c0-1.1,0.7-1.7,1.9-1.7s1.9,0.6,1.9,1.7v2.8c0,0.5,0,0.9,0.1,1.3h-1v-0.8c-0.3,0.6-0.7,1-1.4,1
		c-1.1,0-1.6-0.6-1.6-1.9c0-0.6,0.2-1,0.6-1.3c0.4-0.3,0.9-0.5,1.7-0.5h0.7V17c0-0.7-0.3-1.1-1-1.1c-0.3,0-0.5,0.1-0.6,0.2
		c-0.2,0.2-0.3,0.4-0.3,0.7H108.6z M111.3,18.2c-0.7,0-1.2,0.1-1.4,0.3c-0.3,0.2-0.4,0.5-0.4,0.9c0,0.3,0.1,0.6,0.2,0.8
		c0.2,0.2,0.4,0.3,0.6,0.3c0.4,0,0.7-0.1,0.9-0.4c0.2-0.3,0.3-0.9,0.3-1.8H111.3z"/>
	<path d="M113.3,16v-0.7h0.9v-1.1l0.9-0.4v1.5h1.2V16h-1.2v3.6c0,0.2,0.1,0.4,0.2,0.5c0.1,0.1,0.3,0.2,0.6,0.2c0.1,0,0.2,0,0.4,0V21
		c-0.2,0.1-0.5,0.1-0.9,0.1c-0.8,0-1.3-0.3-1.3-1V16H113.3z"/>
	<path d="M117.3,15.3h0.9v4c0,0.8,0.3,1.2,0.9,1.2c0.4,0,0.6-0.1,0.8-0.4c0.2-0.3,0.3-0.6,0.3-0.9v-3.8h0.9V20c0,0.3,0,0.6,0,1h-0.9
		v-0.8c-0.3,0.6-0.8,0.9-1.5,0.9c-0.5,0-0.8-0.1-1.1-0.4c-0.3-0.2-0.4-0.6-0.4-1.1V15.3z"/>
	<path d="M122.9,21v-5.7h0.9v0.9c0.2-0.7,0.8-1,1.6-1h0.2v1c-0.2,0-0.3-0.1-0.5-0.1c-0.8,0-1.3,0.5-1.3,1.6V21H122.9z"/>
	<path d="M127.5,18.5c0,0.7,0.1,1.2,0.3,1.5c0.2,0.3,0.5,0.4,0.9,0.4c0.3,0,0.5-0.1,0.7-0.3c0.2-0.2,0.3-0.5,0.3-0.8h1
		c0,0.6-0.2,1-0.5,1.4c-0.3,0.3-0.8,0.5-1.4,0.5c-0.9,0-1.5-0.3-1.7-0.8c-0.3-0.5-0.4-1.2-0.4-2.1c0-1.1,0.2-1.9,0.5-2.4
		c0.3-0.4,0.9-0.7,1.7-0.7c0.7,0,1.2,0.2,1.5,0.6c0.3,0.4,0.4,1.1,0.4,2v0.6H127.5z M127.5,17.8h2.2c0-0.8-0.1-1.3-0.3-1.6
		c-0.1-0.2-0.4-0.3-0.7-0.3c-0.4,0-0.7,0.1-0.9,0.4C127.6,16.6,127.5,17.1,127.5,17.8z"/>
	<path d="M138.5,18.6h1.1c0,0.9-0.2,1.5-0.6,1.9c-0.4,0.4-1,0.6-1.8,0.6c-0.8,0-1.4-0.2-1.8-0.7c-0.4-0.4-0.6-1.3-0.6-2.5v-2.4
		c0-1.9,0.8-2.9,2.5-2.9c1.5,0,2.2,0.6,2.2,1.9v0.5h-1.1v-0.3c0-0.8-0.4-1.2-1.2-1.2c-0.4,0-0.8,0.1-1,0.4c-0.3,0.3-0.4,0.9-0.4,1.8
		v2.3c0,0.7,0.1,1.2,0.3,1.6c0.2,0.3,0.6,0.5,1.1,0.5c0.4,0,0.7-0.1,0.9-0.4C138.4,19.6,138.5,19.2,138.5,18.6z"/>
	<path d="M140.8,18.2c0-1.2,0.2-2,0.5-2.4c0.3-0.4,0.9-0.6,1.7-0.6c0.8,0,1.4,0.2,1.7,0.7c0.3,0.5,0.5,1.2,0.5,2.2
		c0,1.1-0.2,1.9-0.5,2.3c-0.3,0.4-0.9,0.7-1.7,0.7c-0.8,0-1.3-0.2-1.7-0.6C140.9,20.1,140.8,19.3,140.8,18.2z M141.8,17.9
		c0,0.9,0.1,1.6,0.2,2c0.2,0.4,0.5,0.5,1,0.5c0.4,0,0.8-0.2,0.9-0.6c0.2-0.4,0.2-1,0.2-2c0-0.7-0.1-1.3-0.3-1.5
		c-0.2-0.3-0.5-0.4-0.9-0.4c-0.4,0-0.7,0.1-0.9,0.4C141.8,16.7,141.8,17.2,141.8,17.9z"/>
	<path d="M147.5,21h-0.9v-4.7c0-0.3,0-0.6,0-1h1l0,0.8c0.2-0.3,0.4-0.6,0.6-0.7c0.3-0.1,0.6-0.2,0.9-0.2c0.5,0,0.9,0.1,1.1,0.4
		c0.2,0.3,0.4,0.7,0.4,1.4v4h-0.9v-4c0-0.7-0.3-1.1-1-1.1c-0.8,0-1.2,0.5-1.2,1.6V21z"/>
	<path d="M152.9,19.3c0,0.7,0.3,1.1,0.9,1.1c0.3,0,0.6-0.1,0.7-0.2c0.2-0.1,0.3-0.4,0.3-0.6c0-0.2-0.1-0.4-0.3-0.5
		c-0.2-0.1-0.5-0.3-0.9-0.5c-0.5-0.2-0.9-0.5-1.2-0.8c-0.3-0.3-0.4-0.6-0.4-1c0-0.5,0.2-0.9,0.5-1.2c0.3-0.3,0.8-0.4,1.4-0.4
		c0.6,0,1,0.1,1.3,0.4c0.3,0.2,0.5,0.5,0.5,0.9v0.3h-1.1c0-0.6-0.3-0.9-0.8-0.9c-0.3,0-0.5,0.1-0.6,0.2c-0.2,0.1-0.2,0.3-0.2,0.6
		c0,0.2,0.1,0.4,0.4,0.6c0.3,0.2,0.6,0.3,0.9,0.4c0.5,0.2,0.9,0.5,1.1,0.7c0.3,0.3,0.4,0.6,0.4,1c0,1.2-0.7,1.8-2,1.8
		c-1.3,0-2-0.6-2-1.8H152.9z"/>
	<path d="M158,18.5c0,0.7,0.1,1.2,0.3,1.5c0.2,0.3,0.5,0.4,0.9,0.4c0.3,0,0.5-0.1,0.7-0.3c0.2-0.2,0.3-0.5,0.3-0.8h1
		c0,0.6-0.2,1-0.5,1.4c-0.3,0.3-0.8,0.5-1.4,0.5c-0.9,0-1.5-0.3-1.7-0.8c-0.3-0.5-0.4-1.2-0.4-2.1c0-1.1,0.2-1.9,0.5-2.4
		c0.3-0.4,0.9-0.7,1.7-0.7c0.7,0,1.2,0.2,1.5,0.6c0.3,0.4,0.4,1.1,0.4,2v0.6H158z M158,17.8h2.2c0-0.8-0.1-1.3-0.3-1.6
		c-0.1-0.2-0.4-0.3-0.7-0.3c-0.4,0-0.7,0.1-0.9,0.4C158.1,16.6,158,17.1,158,17.8z"/>
	<path d="M162.7,21v-5.7h0.9v0.9c0.2-0.7,0.8-1,1.6-1h0.2v1c-0.2,0-0.3-0.1-0.5-0.1c-0.8,0-1.3,0.5-1.3,1.6V21H162.7z"/>
	<path d="M168.1,20.2l1.4-4.8h1l-1.8,5.7h-1.2l-1.7-5.7h1L168.1,20.2z"/>
	<path d="M171.5,16.9c0-1.1,0.7-1.7,1.9-1.7c1.2,0,1.9,0.6,1.9,1.7v2.8c0,0.5,0,0.9,0.1,1.3h-1v-0.8c-0.3,0.6-0.7,1-1.4,1
		c-1.1,0-1.6-0.6-1.6-1.9c0-0.6,0.2-1,0.6-1.3c0.4-0.3,0.9-0.5,1.7-0.5h0.7V17c0-0.7-0.3-1.1-1-1.1c-0.3,0-0.5,0.1-0.6,0.2
		c-0.2,0.2-0.3,0.4-0.3,0.7H171.5z M174.1,18.2c-0.7,0-1.2,0.1-1.4,0.3c-0.3,0.2-0.4,0.5-0.4,0.9c0,0.3,0.1,0.6,0.2,0.8
		c0.2,0.2,0.4,0.3,0.6,0.3c0.4,0,0.7-0.1,0.9-0.4c0.2-0.3,0.3-0.9,0.3-1.8H174.1z"/>
	<path d="M176.2,16v-0.7h0.9v-1.1l0.9-0.4v1.5h1.2V16H178v3.6c0,0.2,0.1,0.4,0.2,0.5c0.1,0.1,0.3,0.2,0.6,0.2c0.1,0,0.2,0,0.4,0V21
		c-0.2,0.1-0.5,0.1-0.9,0.1c-0.8,0-1.3-0.3-1.3-1V16H176.2z"/>
	<path d="M180,12.8h1v1h-1V12.8z M180.1,15.3h0.9V21h-0.9V15.3z"/>
	<path d="M182.4,18.2c0-1.2,0.2-2,0.5-2.4c0.3-0.4,0.9-0.6,1.7-0.6c0.8,0,1.4,0.2,1.7,0.7c0.3,0.5,0.5,1.2,0.5,2.2
		c0,1.1-0.2,1.9-0.5,2.3c-0.3,0.4-0.9,0.7-1.7,0.7c-0.8,0-1.3-0.2-1.7-0.6C182.6,20.1,182.4,19.3,182.4,18.2z M183.4,17.9
		c0,0.9,0.1,1.6,0.2,2c0.2,0.4,0.5,0.5,1,0.5c0.4,0,0.8-0.2,0.9-0.6c0.2-0.4,0.2-1,0.2-2c0-0.7-0.1-1.3-0.3-1.5
		c-0.2-0.3-0.5-0.4-0.9-0.4c-0.4,0-0.7,0.1-0.9,0.4C183.5,16.7,183.4,17.2,183.4,17.9z"/>
	<path d="M189.1,21h-0.9v-4.7c0-0.3,0-0.6,0-1h1l0,0.8c0.2-0.3,0.4-0.6,0.6-0.7c0.3-0.1,0.6-0.2,0.9-0.2c0.5,0,0.9,0.1,1.1,0.4
		c0.2,0.3,0.4,0.7,0.4,1.4v4h-0.9v-4c0-0.7-0.3-1.1-1-1.1c-0.8,0-1.2,0.5-1.2,1.6V21z"/>
	<path d="M193.3,22.4l0.6-2.6h1.1l-1,2.6H193.3z"/>
	<path d="M40.3,33v-8H43c0.7,0,1.2,0.2,1.6,0.5c0.4,0.3,0.6,0.8,0.6,1.4c0,1.1-0.5,1.7-1.5,1.9c1.2,0.1,1.8,0.8,1.8,2
		c0,0.8-0.2,1.3-0.6,1.7c-0.4,0.4-1,0.6-1.7,0.6H40.3z M41.4,28.3h1.5c0.8,0,1.2-0.4,1.2-1.3c0-0.4-0.1-0.7-0.3-0.9
		c-0.2-0.2-0.5-0.3-0.9-0.3h-1.5V28.3z M41.4,32.1h1.5c0.4,0,0.8-0.1,1.1-0.4c0.3-0.3,0.4-0.6,0.4-1c0-0.5-0.1-0.9-0.4-1.1
		c-0.3-0.2-0.7-0.4-1.4-0.4h-1.2V32.1z"/>
	<path d="M47,27.3h0.9v4c0,0.8,0.3,1.2,0.9,1.2c0.4,0,0.6-0.1,0.8-0.4c0.2-0.3,0.3-0.6,0.3-0.9v-3.8h0.9V32c0,0.3,0,0.6,0,1H50v-0.8
		c-0.3,0.6-0.8,0.9-1.5,0.9c-0.5,0-0.8-0.1-1.1-0.4c-0.3-0.2-0.4-0.6-0.4-1.1V27.3z"/>
	<path d="M52.5,24.8h1v1h-1V24.8z M52.6,27.3h0.9V33h-0.9V27.3z"/>
	<path d="M55.1,33v-8H56v8H55.1z"/>
	<path d="M60.6,28v-3h0.9v8h-0.9v-0.7c-0.3,0.5-0.7,0.8-1.3,0.8c-0.7,0-1.1-0.2-1.4-0.7c-0.3-0.5-0.4-1.2-0.4-2.3
		c0-1.1,0.2-1.9,0.5-2.3c0.3-0.4,0.8-0.6,1.4-0.6C59.9,27.2,60.3,27.5,60.6,28z M58.4,30.3c0,0.8,0.1,1.3,0.3,1.6
		c0.2,0.3,0.5,0.5,0.9,0.5c0.3,0,0.6-0.1,0.8-0.4c0.2-0.3,0.3-0.9,0.3-1.7c0-0.6,0-1.1-0.1-1.4c-0.1-0.2-0.2-0.4-0.3-0.6
		C60,28,59.8,28,59.5,28c-0.4,0-0.7,0.2-0.9,0.5C58.5,28.8,58.4,29.4,58.4,30.3z"/>
	<path d="M63.1,24.8h1v1h-1V24.8z M63.1,27.3h0.9V33h-0.9V27.3z"/>
	<path d="M66.6,33h-0.9v-4.7c0-0.3,0-0.6,0-1h1l0,0.8c0.2-0.3,0.4-0.6,0.6-0.7c0.3-0.1,0.6-0.2,0.9-0.2c0.5,0,0.9,0.1,1.1,0.4
		c0.2,0.3,0.4,0.7,0.4,1.4v4h-0.9v-4c0-0.7-0.3-1.1-1-1.1c-0.8,0-1.2,0.5-1.2,1.6V33z"/>
	<path d="M71.4,33.6h1.1c0,0.3,0.1,0.5,0.3,0.6c0.2,0.1,0.4,0.2,0.6,0.2c0.6,0,1-0.3,1-1v-1.2C74,32.8,73.6,33,73,33
		c-0.7,0-1.3-0.3-1.5-1c-0.2-0.5-0.3-1.1-0.3-2c0-1.9,0.6-2.8,1.8-2.8c0.6,0,1.1,0.3,1.3,0.9v-0.8h0.9v6.2c0,1-0.7,1.5-2,1.5
		c-0.6,0-1.1-0.1-1.4-0.4c-0.3-0.3-0.5-0.6-0.5-0.9V33.6z M72.1,30c0,0.8,0.1,1.4,0.3,1.7c0.2,0.3,0.5,0.5,0.8,0.5
		c0.3,0,0.6-0.1,0.8-0.4c0.2-0.3,0.3-0.8,0.3-1.7c0-0.9-0.1-1.4-0.3-1.7c-0.2-0.3-0.4-0.4-0.8-0.4c-0.4,0-0.7,0.2-0.9,0.5
		C72.2,28.8,72.1,29.3,72.1,30z"/>
	<path d="M79.4,28.9c0-1.1,0.7-1.7,1.9-1.7c1.2,0,1.9,0.6,1.9,1.7v2.8c0,0.5,0,0.9,0.1,1.3h-1v-0.8c-0.3,0.6-0.7,1-1.4,1
		c-1.1,0-1.6-0.6-1.6-1.9c0-0.6,0.2-1,0.6-1.3c0.4-0.3,0.9-0.5,1.7-0.5h0.7V29c0-0.7-0.3-1.1-1-1.1c-0.3,0-0.5,0.1-0.6,0.2
		c-0.2,0.2-0.3,0.4-0.3,0.7H79.4z M82,30.2c-0.7,0-1.2,0.1-1.4,0.3c-0.3,0.2-0.4,0.5-0.4,0.9c0,0.3,0.1,0.6,0.2,0.8
		c0.2,0.2,0.4,0.3,0.6,0.3c0.4,0,0.7-0.1,0.9-0.4c0.2-0.3,0.3-0.9,0.3-1.8H82z"/>
	<path d="M85.9,33h-0.9v-4.7c0-0.3,0-0.6,0-1h1l0,0.8c0.2-0.3,0.4-0.6,0.6-0.7c0.3-0.1,0.6-0.2,0.9-0.2c0.5,0,0.9,0.1,1.1,0.4
		c0.2,0.3,0.4,0.7,0.4,1.4v4H88v-4c0-0.7-0.3-1.1-1-1.1c-0.8,0-1.2,0.5-1.2,1.6V33z"/>
	<path d="M93.5,28v-3h0.9v8h-0.9v-0.7c-0.3,0.5-0.7,0.8-1.3,0.8c-0.7,0-1.1-0.2-1.4-0.7c-0.3-0.5-0.4-1.2-0.4-2.3
		c0-1.1,0.2-1.9,0.5-2.3c0.3-0.4,0.8-0.6,1.4-0.6C92.8,27.2,93.3,27.5,93.5,28z M91.4,30.3c0,0.8,0.1,1.3,0.3,1.6
		c0.2,0.3,0.5,0.5,0.9,0.5c0.3,0,0.6-0.1,0.8-0.4c0.2-0.3,0.3-0.9,0.3-1.7c0-0.6,0-1.1-0.1-1.4c-0.1-0.2-0.2-0.4-0.3-0.6
		C93,28,92.7,28,92.5,28c-0.4,0-0.7,0.2-0.9,0.5C91.4,28.8,91.4,29.4,91.4,30.3z"/>
	<path d="M98.8,25h1.5l3.2,7v-7h0.9v8h-1.4l-3.2-7v7h-0.9V25z"/>
	<path d="M106.1,27.3h0.9v4c0,0.8,0.3,1.2,0.9,1.2c0.4,0,0.6-0.1,0.8-0.4c0.2-0.3,0.3-0.6,0.3-0.9v-3.8h0.9V32c0,0.3,0,0.6,0,1h-0.9
		v-0.8c-0.3,0.6-0.8,0.9-1.5,0.9c-0.5,0-0.8-0.1-1.1-0.4c-0.3-0.2-0.4-0.6-0.4-1.1V27.3z"/>
	<path d="M114.7,31.1h1c0,0.6-0.2,1.1-0.5,1.5c-0.3,0.4-0.8,0.5-1.3,0.5c-0.8,0-1.4-0.2-1.7-0.7c-0.3-0.5-0.4-1.2-0.4-2.2
		c0-1.1,0.2-1.9,0.5-2.3c0.3-0.5,0.9-0.7,1.7-0.7c0.5,0,1,0.1,1.3,0.4c0.3,0.3,0.5,0.8,0.5,1.5h-1c0-0.4-0.1-0.7-0.2-0.9
		c-0.1-0.2-0.3-0.3-0.6-0.3c-0.4,0-0.7,0.1-0.9,0.4c-0.2,0.3-0.3,0.8-0.3,1.5c0,1,0.1,1.7,0.2,2c0.2,0.3,0.5,0.5,0.9,0.5
		C114.4,32.4,114.7,32,114.7,31.1z"/>
	<path d="M117.3,33v-8h0.9v8H117.3z"/>
	<path d="M120.7,30.5c0,0.7,0.1,1.2,0.3,1.5c0.2,0.3,0.5,0.4,0.9,0.4c0.3,0,0.5-0.1,0.7-0.3c0.2-0.2,0.3-0.5,0.3-0.8h1
		c0,0.6-0.2,1-0.5,1.4c-0.3,0.3-0.8,0.5-1.4,0.5c-0.9,0-1.5-0.3-1.7-0.8c-0.3-0.5-0.4-1.2-0.4-2.1c0-1.1,0.2-1.9,0.5-2.4
		c0.3-0.4,0.9-0.7,1.7-0.7c0.7,0,1.2,0.2,1.5,0.6c0.3,0.4,0.4,1.1,0.4,2v0.6H120.7z M120.7,29.8h2.2c0-0.8-0.1-1.3-0.3-1.6
		c-0.1-0.2-0.4-0.3-0.7-0.3c-0.4,0-0.7,0.1-0.9,0.4C120.8,28.6,120.7,29.1,120.7,29.8z"/>
	<path d="M125.4,28.9c0-1.1,0.7-1.7,1.9-1.7c1.2,0,1.9,0.6,1.9,1.7v2.8c0,0.5,0,0.9,0.1,1.3h-1v-0.8c-0.3,0.6-0.7,1-1.4,1
		c-1.1,0-1.6-0.6-1.6-1.9c0-0.6,0.2-1,0.6-1.3c0.4-0.3,0.9-0.5,1.7-0.5h0.7V29c0-0.7-0.3-1.1-1-1.1c-0.3,0-0.5,0.1-0.6,0.2
		c-0.2,0.2-0.3,0.4-0.3,0.7H125.4z M128.1,30.2c-0.7,0-1.2,0.1-1.4,0.3c-0.3,0.2-0.4,0.5-0.4,0.9c0,0.3,0.1,0.6,0.2,0.8
		c0.2,0.2,0.4,0.3,0.6,0.3c0.4,0,0.7-0.1,0.9-0.4c0.2-0.3,0.3-0.9,0.3-1.8H128.1z"/>
	<path d="M131,33v-5.7h0.9v0.9c0.2-0.7,0.8-1,1.6-1h0.2v1c-0.2,0-0.3-0.1-0.5-0.1c-0.8,0-1.3,0.5-1.3,1.6V33H131z"/>
	<path d="M137.1,30.6h1.1v0.3c0,0.4,0.1,0.7,0.4,1c0.2,0.2,0.6,0.4,1.1,0.4c0.4,0,0.7-0.1,1-0.3c0.3-0.2,0.4-0.5,0.4-1
		c0-0.3-0.1-0.6-0.4-0.9c-0.2-0.2-0.7-0.5-1.3-0.8c-0.8-0.4-1.3-0.8-1.6-1.1c-0.3-0.3-0.4-0.8-0.4-1.2c0-0.7,0.2-1.2,0.6-1.6
		c0.4-0.4,1-0.6,1.8-0.6c0.7,0,1.3,0.2,1.7,0.5c0.4,0.4,0.6,0.9,0.6,1.5v0.3h-1.1c0-1-0.4-1.5-1.3-1.5c-0.4,0-0.7,0.1-0.9,0.3
		c-0.2,0.2-0.3,0.5-0.3,0.9c0,0.4,0.2,0.7,0.5,1c0.2,0.2,0.6,0.4,1.3,0.8c0.6,0.3,1.1,0.6,1.4,1c0.3,0.4,0.5,0.9,0.5,1.4
		c0,1.5-0.9,2.2-2.6,2.2c-0.7,0-1.3-0.2-1.7-0.6c-0.4-0.4-0.6-0.9-0.6-1.7V30.6z"/>
	<path d="M143.5,28.9c0-1.1,0.7-1.7,1.9-1.7c1.2,0,1.9,0.6,1.9,1.7v2.8c0,0.5,0,0.9,0.1,1.3h-1v-0.8c-0.3,0.6-0.7,1-1.4,1
		c-1.1,0-1.6-0.6-1.6-1.9c0-0.6,0.2-1,0.6-1.3c0.4-0.3,0.9-0.5,1.7-0.5h0.7V29c0-0.7-0.3-1.1-1-1.1c-0.3,0-0.5,0.1-0.6,0.2
		c-0.2,0.2-0.3,0.4-0.3,0.7H143.5z M146.1,30.2c-0.7,0-1.2,0.1-1.4,0.3c-0.3,0.2-0.4,0.5-0.4,0.9c0,0.3,0.1,0.6,0.2,0.8
		c0.2,0.2,0.4,0.3,0.6,0.3c0.4,0,0.7-0.1,0.9-0.4c0.2-0.3,0.3-0.9,0.3-1.8H146.1z"/>
	<path d="M148.3,27.3h0.9v-1c0-0.5,0.1-0.8,0.4-1.1c0.3-0.2,0.7-0.3,1.3-0.3c0.1,0,0.3,0,0.4,0v0.7c0,0-0.1,0-0.2,0
		c-0.6,0-0.9,0.2-0.9,0.7v0.9h1.1V28h-1.1v5h-0.9v-5h-0.9V27.3z"/>
	<path d="M153,30.5c0,0.7,0.1,1.2,0.3,1.5c0.2,0.3,0.5,0.4,0.9,0.4c0.3,0,0.5-0.1,0.7-0.3c0.2-0.2,0.3-0.5,0.3-0.8h1
		c0,0.6-0.2,1-0.5,1.4c-0.3,0.3-0.8,0.5-1.4,0.5c-0.9,0-1.5-0.3-1.7-0.8c-0.3-0.5-0.4-1.2-0.4-2.1c0-1.1,0.2-1.9,0.5-2.4
		c0.3-0.4,0.9-0.7,1.7-0.7c0.7,0,1.2,0.2,1.5,0.6c0.3,0.4,0.4,1.1,0.4,2v0.6H153z M153,29.8h2.2c0-0.8-0.1-1.3-0.3-1.6
		c-0.1-0.2-0.4-0.3-0.7-0.3c-0.4,0-0.7,0.1-0.9,0.4C153.1,28.6,153,29.1,153,29.8z"/>
	<path d="M156.9,28v-0.7h0.9v-1.1l0.9-0.4v1.5h1.2V28h-1.2v3.6c0,0.2,0.1,0.4,0.2,0.5c0.1,0.1,0.3,0.2,0.6,0.2c0.1,0,0.2,0,0.4,0V33
		c-0.2,0.1-0.5,0.1-0.9,0.1c-0.8,0-1.3-0.3-1.3-1V28H156.9z"/>
	<path d="M160.1,27.3h1.1l1.4,4.6l1.4-4.6h1l-2.6,7.8h-0.9L162,33L160.1,27.3z"/>
</g>
<path d="M2.4,83.9L2.4,83.9c0.3-0.3,0.8-0.7,1.6-0.7c1,0,2,0.7,2,2.6c0,2.1-1.4,3-2.9,3c-1,0-1.6-0.3-1.9-0.4v-7l-0.8-0.1
	c0,0,0-0.1,0-0.1c0-0.2,0.1-0.3,0.4-0.3l1.5-0.1V83.9z M2.4,87.8c0.2,0.1,0.5,0.3,1,0.3c1,0,1.6-0.6,1.6-2.1c0-1.5-0.7-1.9-1.4-1.9
	c-0.5,0-0.9,0.2-1.1,0.5V87.8z"/>
<path d="M11.1,87.4c0,0.4,0.2,0.6,0.4,0.6c0.3,0,0.4-0.1,0.4-0.2c0.1,0.1,0.1,0.2,0.1,0.3c0,0.1-0.3,0.6-1,0.6
	c-0.5,0-0.8-0.2-0.9-0.8h0c-0.1,0.2-0.5,0.8-1.4,0.8c-0.8,0-1.4-0.6-1.4-1.4c0-1.2,1.3-1.6,2.5-1.6h0.3v-0.5c0-1-0.3-1.4-0.9-1.4
	c-0.3,0-0.5,0.1-0.6,0.1c-0.1,0.2-0.2,0.6-0.2,1c0,0-0.2,0-0.3,0c-0.4,0-0.6-0.2-0.6-0.5c0-0.7,0.9-1.2,1.9-1.2
	c1.2,0,1.8,0.7,1.8,1.9V87.4z M9.7,86.2c-0.9,0-1.4,0.4-1.4,0.9c0,0.5,0.3,0.8,0.7,0.8c0.5,0,0.8-0.3,0.9-0.5v-1.3L9.7,86.2z"/>
<path d="M15.2,84c-0.1-0.1-0.4-0.2-0.7-0.2c-0.4,0-0.7,0.2-0.7,0.6c0,0.5,0.5,0.8,1,1.1c0.7,0.4,1.4,0.8,1.4,1.7
	c0,0.9-0.7,1.6-2,1.6c-0.6,0-1.2-0.2-1.4-0.3c0-0.3-0.1-0.6-0.1-0.8c0-0.4,0.1-0.6,0.5-0.6c0.1,0,0.1,0,0.1,0l0.2,0.9
	c0.1,0.1,0.4,0.2,0.7,0.2c0.5,0,0.9-0.2,0.9-0.7c0-0.5-0.5-0.7-1-1c-0.7-0.4-1.3-0.9-1.3-1.8c0-0.9,0.7-1.4,1.8-1.4
	c0.6,0,1.1,0.2,1.3,0.4c0,0.2,0,0.4,0,0.6c0,0.4-0.1,0.6-0.5,0.6c-0.1,0-0.1,0-0.1,0L15.2,84z"/>
<path d="M18.4,86c0,1.4,0.7,2,1.6,2c0.7,0,1.1-0.3,1.4-0.5c0.1,0.1,0.2,0.3,0.2,0.4c0,0.3-0.7,0.9-1.9,0.9c-1.4,0-2.4-0.8-2.4-2.7
	c0-1.9,1.2-2.9,2.4-2.9c1.2,0,1.9,0.8,1.9,1.9c0,0.3-0.1,0.7-0.1,0.9H18.4z M20.3,85.4c0-0.1,0.1-0.3,0.1-0.5c0-0.6-0.2-1.1-0.9-1.1
	c-0.6,0-1,0.5-1.1,1.6H20.3z"/>
<path d="M27.4,88l0.8,0.1c0,0,0,0,0,0.1c0,0.2-0.1,0.3-0.4,0.4l-1.5,0.1v-0.7h0c-0.2,0.3-0.7,0.8-1.6,0.8c-1.1,0-2.1-0.7-2.1-2.6
	c0-2,1.4-3,2.8-3c0.3,0,0.6,0.1,0.8,0.1v-1.9l-0.8-0.1c0,0,0-0.1,0-0.1c0-0.2,0.1-0.3,0.4-0.3l1.5-0.1V88z M26.2,84.1
	c-0.2-0.2-0.5-0.3-0.9-0.3c-0.9,0-1.6,0.6-1.6,2.1c0,1.4,0.6,2,1.4,2c0.6,0,1-0.3,1.1-0.5V84.1z"/>
<path d="M36.7,85.9c0,1.9-1.3,2.8-2.7,2.8c-1.4,0-2.5-0.9-2.5-2.7c0-1.9,1.3-2.8,2.7-2.8C35.6,83.1,36.7,84,36.7,85.9z M32.7,85.9
	c0,1.5,0.6,2.1,1.4,2.1c0.8,0,1.4-0.6,1.4-2.1c0-1.5-0.6-2.2-1.4-2.2C33.3,83.8,32.7,84.4,32.7,85.9z"/>
<path d="M43,88l0.6,0.1c0.1,0,0.2,0.1,0.2,0.1c0,0.1-0.1,0.3-0.1,0.3h-2.5c0,0,0-0.1,0-0.1c0-0.2,0.1-0.3,0.3-0.4l0.4-0.1v-2.8
	c0-0.9-0.5-1.2-1.1-1.2c-0.6,0-1,0.3-1.3,0.5V88l0.6,0.1c0.1,0,0.2,0.1,0.2,0.1c0,0.1-0.1,0.3-0.1,0.3h-2.5c0,0,0-0.1,0-0.1
	c0-0.2,0.1-0.3,0.3-0.4l0.4-0.1v-4.1l-0.8-0.1c0,0,0-0.1,0-0.1c0-0.2,0.1-0.3,0.4-0.3l1.5-0.1L39.5,84h0c0.3-0.3,0.8-0.8,1.8-0.8
	c1.1,0,1.7,0.7,1.7,1.9V88z"/>
<path d="M50.9,87.4c0,0.4,0.2,0.6,0.4,0.6c0.3,0,0.4-0.1,0.4-0.2c0.1,0.1,0.1,0.2,0.1,0.3c0,0.1-0.3,0.6-1,0.6
	c-0.5,0-0.8-0.2-0.9-0.8h0c-0.1,0.2-0.5,0.8-1.4,0.8c-0.8,0-1.4-0.6-1.4-1.4c0-1.2,1.3-1.6,2.5-1.6h0.3v-0.5c0-1-0.3-1.4-0.9-1.4
	c-0.3,0-0.5,0.1-0.6,0.1c-0.1,0.2-0.2,0.6-0.2,1c0,0-0.2,0-0.3,0c-0.4,0-0.6-0.2-0.6-0.5c0-0.7,0.9-1.2,1.9-1.2
	c1.2,0,1.8,0.7,1.8,1.9V87.4z M49.6,86.2c-0.9,0-1.4,0.4-1.4,0.9c0,0.5,0.3,0.8,0.7,0.8c0.5,0,0.8-0.3,0.9-0.5v-1.3L49.6,86.2z"/>
<path d="M59.7,88l0.8,0.1c0,0,0,0,0,0.1c0,0.2-0.1,0.3-0.4,0.4l-1.5,0.1v-0.7h0c-0.2,0.3-0.7,0.8-1.6,0.8C56,88.7,55,88,55,86.1
	c0-2,1.4-3,2.8-3c0.3,0,0.6,0.1,0.8,0.1v-1.9l-0.8-0.1c0,0,0-0.1,0-0.1c0-0.2,0.1-0.3,0.4-0.3l1.5-0.1V88z M58.6,84.1
	c-0.2-0.2-0.5-0.3-0.9-0.3c-0.9,0-1.6,0.6-1.6,2.1c0,1.4,0.6,2,1.4,2c0.6,0,1-0.3,1.1-0.5V84.1z"/>
<path d="M62.6,86c0,1.4,0.7,2,1.6,2c0.7,0,1.1-0.3,1.4-0.5c0.1,0.1,0.2,0.3,0.2,0.4c0,0.3-0.7,0.9-1.9,0.9c-1.4,0-2.4-0.8-2.4-2.7
	c0-1.9,1.2-2.9,2.4-2.9c1.2,0,1.9,0.8,1.9,1.9c0,0.3-0.1,0.7-0.1,0.9H62.6z M64.5,85.4c0-0.1,0.1-0.3,0.1-0.5c0-0.6-0.2-1.1-0.9-1.1
	c-0.6,0-1,0.5-1.1,1.6H64.5z"/>
<path d="M69.4,83.8c-0.7,0-1.4,0.5-1.4,2c0,1.4,0.5,2.2,1.6,2.2c0.7,0,1.1-0.4,1.3-0.5c0.1,0.1,0.2,0.3,0.2,0.4
	c0,0.3-0.6,0.9-1.8,0.9c-1.4,0-2.4-0.9-2.4-2.7c0-1.9,1.2-2.9,2.7-2.9c1.2,0,1.5,0.6,1.5,0.9c0,0.3-0.1,0.6-0.6,0.7
	C70.4,84.3,70.1,83.8,69.4,83.8z"/>
<path d="M73.8,88l0.6,0.1c0.1,0,0.2,0.1,0.2,0.1c0,0.1-0.1,0.3-0.1,0.3h-2.5c0,0,0-0.1,0-0.1c0-0.2,0.1-0.3,0.3-0.4l0.4-0.1v-4.1
	l-0.8-0.1c0,0,0-0.1,0-0.1c0-0.2,0.1-0.3,0.4-0.3l1.5-0.1V88z M73.2,82.1c-0.4,0-0.7-0.3-0.7-0.7c0-0.4,0.3-0.7,0.7-0.7
	c0.4,0,0.7,0.3,0.7,0.7C73.9,81.8,73.6,82.1,73.2,82.1z"/>
<path d="M78,84c-0.1-0.1-0.4-0.2-0.7-0.2c-0.4,0-0.7,0.2-0.7,0.6c0,0.5,0.5,0.8,1,1.1c0.7,0.4,1.4,0.8,1.4,1.7c0,0.9-0.7,1.6-2,1.6
	c-0.6,0-1.2-0.2-1.4-0.3c0-0.3-0.1-0.6-0.1-0.8c0-0.4,0.1-0.6,0.5-0.6c0.1,0,0.1,0,0.1,0l0.2,0.9c0.1,0.1,0.4,0.2,0.7,0.2
	c0.5,0,0.9-0.2,0.9-0.7c0-0.5-0.5-0.7-1-1c-0.7-0.4-1.3-0.9-1.3-1.8c0-0.9,0.7-1.4,1.8-1.4c0.6,0,1.1,0.2,1.3,0.4c0,0.2,0,0.4,0,0.6
	c0,0.4-0.1,0.6-0.5,0.6c-0.1,0-0.1,0-0.1,0L78,84z"/>
<path d="M81.7,88l0.6,0.1c0.1,0,0.2,0.1,0.2,0.1c0,0.1-0.1,0.3-0.1,0.3h-2.5c0,0,0-0.1,0-0.1c0-0.2,0.1-0.3,0.3-0.4l0.4-0.1v-4.1
	l-0.8-0.1c0,0,0-0.1,0-0.1c0-0.2,0.1-0.3,0.4-0.3l1.5-0.1V88z M81.2,82.1c-0.4,0-0.7-0.3-0.7-0.7c0-0.4,0.3-0.7,0.7-0.7
	c0.4,0,0.7,0.3,0.7,0.7C81.9,81.8,81.6,82.1,81.2,82.1z"/>
<path d="M88.5,85.9c0,1.9-1.3,2.8-2.7,2.8c-1.4,0-2.5-0.9-2.5-2.7c0-1.9,1.3-2.8,2.7-2.8C87.4,83.1,88.5,84,88.5,85.9z M84.5,85.9
	c0,1.5,0.6,2.1,1.4,2.1c0.8,0,1.4-0.6,1.4-2.1c0-1.5-0.6-2.2-1.4-2.2C85.1,83.8,84.5,84.4,84.5,85.9z"/>
<path d="M94.8,88l0.6,0.1c0.1,0,0.2,0.1,0.2,0.1c0,0.1-0.1,0.3-0.1,0.3H93c0,0,0-0.1,0-0.1c0-0.2,0.1-0.3,0.3-0.4l0.4-0.1v-2.8
	c0-0.9-0.5-1.2-1.1-1.2c-0.6,0-1,0.3-1.3,0.5V88l0.6,0.1c0.1,0,0.2,0.1,0.2,0.1c0,0.1-0.1,0.3-0.1,0.3h-2.5c0,0,0-0.1,0-0.1
	c0-0.2,0.1-0.3,0.3-0.4l0.4-0.1v-4.1l-0.8-0.1c0,0,0-0.1,0-0.1c0-0.2,0.1-0.3,0.4-0.3l1.5-0.1L91.3,84h0c0.3-0.3,0.8-0.8,1.8-0.8
	c1.1,0,1.7,0.7,1.7,1.9V88z"/>
<path d="M104.1,85.9c0,1.9-1.3,2.8-2.7,2.8c-1.4,0-2.5-0.9-2.5-2.7c0-1.9,1.3-2.8,2.7-2.8C103,83.1,104.1,84,104.1,85.9z
	 M100.1,85.9c0,1.5,0.6,2.1,1.4,2.1c0.8,0,1.4-0.6,1.4-2.1c0-1.5-0.6-2.2-1.4-2.2C100.7,83.8,100.1,84.4,100.1,85.9z"/>
<path d="M108.3,83.9h-1.3V88l0.7,0.1c0.1,0,0.2,0.1,0.2,0.1c0,0.1-0.1,0.3-0.1,0.3h-2.6c0,0,0-0.1,0-0.1c0-0.2,0.1-0.3,0.3-0.4
	l0.4-0.1v-4.1H105c0,0,0-0.1,0-0.1c0-0.2,0.1-0.3,0.3-0.4l0.5-0.1v-0.1c0-1.8,1.1-2.6,2-2.6c0.5,0,0.8,0.2,0.8,0.6
	c0,0.3-0.2,0.4-0.3,0.5c-0.1-0.1-0.4-0.3-0.7-0.3c-0.5,0-0.6,0.3-0.6,0.9c0,0.3,0,1,0,1h1.5L108.3,83.9z"/>
<path d="M114.8,83.9h-1.5v3.2c0,0.5,0.2,0.9,0.7,0.9c0.4,0,0.8-0.2,0.9-0.3c0.1,0.1,0.1,0.3,0.1,0.4c0,0.1-0.4,0.6-1.4,0.6
	c-1,0-1.4-0.6-1.4-1.4v-3.4h-0.8c0,0,0-0.1,0-0.1c0-0.2,0.1-0.3,0.3-0.4l0.5-0.1l0.3-1.5h0.8v1.5h1.6L114.8,83.9z"/>
<path d="M117.4,83.9L117.4,83.9c0.2-0.3,0.8-0.8,1.7-0.8c1.1,0,1.7,0.6,1.7,1.9V88l0.6,0.1c0.1,0,0.2,0.1,0.2,0.1
	c0,0.1-0.1,0.3-0.1,0.3H119c0,0,0-0.1,0-0.1c0-0.2,0.1-0.3,0.3-0.4l0.4-0.1v-2.8c0-0.9-0.5-1.2-1.1-1.2c-0.7,0-1,0.3-1.3,0.5V88
	l0.6,0.1c0.1,0,0.2,0.1,0.2,0.1c0,0.1-0.1,0.3-0.1,0.3h-2.5c0,0,0-0.1,0-0.1c0-0.2,0.1-0.3,0.3-0.4l0.4-0.1v-6.7l-0.8-0.1
	c0,0,0-0.1,0-0.1c0-0.2,0.1-0.3,0.4-0.3l1.5-0.1V83.9z"/>
<path d="M123.6,86c0,1.4,0.7,2,1.6,2c0.7,0,1.1-0.3,1.4-0.5c0.1,0.1,0.2,0.3,0.2,0.4c0,0.3-0.7,0.9-1.9,0.9c-1.4,0-2.4-0.8-2.4-2.7
	c0-1.9,1.2-2.9,2.4-2.9c1.2,0,1.9,0.8,1.9,1.9c0,0.3-0.1,0.7-0.1,0.9H123.6z M125.5,85.4c0-0.1,0.1-0.3,0.1-0.5
	c0-0.6-0.2-1.1-0.9-1.1c-0.6,0-1,0.5-1.1,1.6H125.5z"/>
<path d="M135.7,81.9c-0.2-0.2-0.7-0.3-1.3-0.3c-1.3,0-2.7,0.9-2.7,3.2c0,2.2,1,3.3,2.5,3.3c0.5,0,0.9-0.1,1.3-0.2v-2.2l-0.7-0.2
	c-0.1,0-0.2-0.1-0.2-0.1c0-0.1,0.1-0.2,0.1-0.3h2.5c0,0,0,0.1,0,0.1c0,0.2-0.1,0.3-0.4,0.4l-0.3,0.1v2.3c-0.3,0.3-1.1,0.9-2.7,0.9
	c-1.9,0-3.5-1.2-3.5-3.9c0-2.9,2.1-4,3.9-4c1.2,0,1.7,0.3,2.1,0.5c0,0.3,0.1,1,0.1,1.1c0,0.3-0.1,0.6-0.4,0.6c-0.1,0-0.2,0-0.3,0
	L135.7,81.9z"/>
<path d="M139.3,86c0,1.4,0.7,2,1.6,2c0.7,0,1.1-0.3,1.4-0.5c0.1,0.1,0.2,0.3,0.2,0.4c0,0.3-0.7,0.9-1.9,0.9c-1.4,0-2.4-0.8-2.4-2.7
	c0-1.9,1.2-2.9,2.4-2.9c1.2,0,1.9,0.8,1.9,1.9c0,0.3-0.1,0.7-0.1,0.9H139.3z M141.2,85.4c0-0.1,0.1-0.3,0.1-0.5
	c0-0.6-0.2-1.1-0.9-1.1c-0.6,0-1,0.5-1.1,1.6H141.2z"/>
<path d="M145.2,84.2L145.2,84.2c0.3-0.4,0.7-1,1.4-1c0.5,0,0.8,0.2,0.8,0.6c0,0.2-0.1,0.5-0.2,0.6c-0.1,0-0.4-0.2-0.7-0.2
	c-0.6,0-0.9,0.2-1.1,0.6V88l0.8,0.1c0.1,0,0.2,0.1,0.2,0.1c0,0.1-0.1,0.3-0.1,0.3h-2.7c0,0,0-0.1,0-0.1c0-0.2,0.1-0.3,0.3-0.4
	l0.4-0.1v-4.1l-0.8-0.1c0,0,0-0.1,0-0.1c0-0.2,0.1-0.3,0.4-0.3l1.5-0.1L145.2,84.2z"/>
<path d="M156.6,88l0.6,0.1c0.1,0,0.2,0.1,0.2,0.1c0,0.1-0.1,0.3-0.1,0.3h-2.5c0,0,0-0.1,0-0.1c0-0.2,0.1-0.3,0.3-0.4l0.4-0.1v-2.8
	c0-1-0.5-1.2-1-1.2c-0.7,0-1,0.3-1.3,0.5c0,0.2,0.1,0.4,0.1,0.6V88l0.6,0.1c0.1,0,0.2,0.1,0.2,0.1c0,0.1-0.1,0.3-0.1,0.3h-2.5
	c0,0,0-0.1,0-0.1c0-0.2,0.1-0.3,0.3-0.4l0.4-0.1v-2.8c0-1-0.5-1.2-1-1.2c-0.6,0-1,0.3-1.2,0.5V88l0.6,0.1c0.1,0,0.2,0.1,0.2,0.1
	c0,0.1-0.1,0.3-0.1,0.3h-2.5c0,0,0-0.1,0-0.1c0-0.2,0.1-0.3,0.3-0.4l0.4-0.1v-4.1l-0.8-0.1c0,0,0-0.1,0-0.1c0-0.2,0.1-0.3,0.4-0.3
	l1.5-0.1l-0.1,0.7h0c0.2-0.3,0.8-0.8,1.7-0.8c0.7,0,1.2,0.3,1.4,0.9c0.3-0.3,0.9-0.9,1.9-0.9c1.1,0,1.7,0.7,1.7,1.9V88z"/>
<path d="M162,87.4c0,0.4,0.2,0.6,0.4,0.6c0.3,0,0.4-0.1,0.4-0.2c0.1,0.1,0.1,0.2,0.1,0.3c0,0.1-0.3,0.6-1,0.6
	c-0.5,0-0.8-0.2-0.9-0.8h0c-0.1,0.2-0.5,0.8-1.4,0.8c-0.8,0-1.4-0.6-1.4-1.4c0-1.2,1.3-1.6,2.5-1.6h0.3v-0.5c0-1-0.3-1.4-0.9-1.4
	c-0.3,0-0.5,0.1-0.6,0.1c-0.1,0.2-0.2,0.6-0.2,1c0,0-0.2,0-0.3,0c-0.4,0-0.6-0.2-0.6-0.5c0-0.7,0.9-1.2,1.9-1.2
	c1.2,0,1.8,0.7,1.8,1.9V87.4z M160.6,86.2c-0.9,0-1.4,0.4-1.4,0.9c0,0.5,0.3,0.8,0.7,0.8s0.8-0.3,0.9-0.5v-1.3L160.6,86.2z"/>
<path d="M168.8,88l0.6,0.1c0.1,0,0.2,0.1,0.2,0.1c0,0.1-0.1,0.3-0.1,0.3H167c0,0,0-0.1,0-0.1c0-0.2,0.1-0.3,0.3-0.4l0.4-0.1v-2.8
	c0-0.9-0.5-1.2-1.1-1.2c-0.6,0-1,0.3-1.3,0.5V88l0.6,0.1c0.1,0,0.2,0.1,0.2,0.1c0,0.1-0.1,0.3-0.1,0.3h-2.5c0,0,0-0.1,0-0.1
	c0-0.2,0.1-0.3,0.3-0.4l0.4-0.1v-4.1l-0.8-0.1c0,0,0-0.1,0-0.1c0-0.2,0.1-0.3,0.4-0.3l1.5-0.1l-0.1,0.8h0c0.3-0.3,0.8-0.8,1.8-0.8
	c1.1,0,1.7,0.7,1.7,1.9V88z"/>
<path d="M176.9,84.7L176.9,84.7c1.1,0.2,1.8,0.8,1.8,1.8c0,1.2-1,2.1-3,2.1h-2.8c0,0,0-0.1,0-0.1c0-0.2,0.1-0.3,0.4-0.4l0.5-0.1
	v-6.4l-0.7-0.2c-0.1,0-0.2-0.1-0.2-0.1c0-0.1,0.1-0.2,0.1-0.3h2.6c2,0,2.9,0.7,2.9,1.9C178.5,84,177.9,84.5,176.9,84.7z M175.5,81.7
	h-0.6v2.8h0.6c1.3,0,1.8-0.6,1.8-1.4C177.3,82.1,176.7,81.7,175.5,81.7z M175.6,85.1h-0.7v2.8h0.7c1.3,0,1.9-0.6,1.9-1.5
	C177.4,85.6,176.8,85.1,175.6,85.1z"/>
<path d="M184.8,88l0.8,0.1c0,0,0,0,0,0.1c0,0.2-0.1,0.3-0.4,0.4l-1.5,0.1v-0.7h0c-0.2,0.2-0.7,0.8-1.6,0.8c-1.2,0-1.7-0.7-1.7-2
	v-2.8l-0.8-0.1c0,0,0-0.1,0-0.1c0-0.2,0.1-0.3,0.4-0.3l1.5-0.1v3.5c0,1,0.5,1.2,1,1.2c0.6,0,0.9-0.2,1.2-0.5v-3.5l-0.8-0.1
	c0,0,0-0.1,0-0.1c0-0.2,0.1-0.3,0.4-0.3l1.5-0.1V88z"/>
<path d="M191.7,88l0.6,0.1c0.1,0,0.2,0.1,0.2,0.1c0,0.1-0.1,0.3-0.1,0.3h-2.5c0,0,0-0.1,0-0.1c0-0.2,0.1-0.3,0.3-0.4l0.4-0.1v-2.8
	c0-0.9-0.5-1.2-1.1-1.2c-0.6,0-1,0.3-1.3,0.5V88l0.6,0.1c0.1,0,0.2,0.1,0.2,0.1c0,0.1-0.1,0.3-0.1,0.3h-2.5c0,0,0-0.1,0-0.1
	c0-0.2,0.1-0.3,0.3-0.4l0.4-0.1v-4.1l-0.8-0.1c0,0,0-0.1,0-0.1c0-0.2,0.1-0.3,0.4-0.3l1.5-0.1l-0.1,0.8h0c0.3-0.3,0.8-0.8,1.8-0.8
	c1.1,0,1.7,0.7,1.7,1.9V88z"/>
<path d="M198,88l0.8,0.1c0,0,0,0,0,0.1c0,0.2-0.1,0.3-0.4,0.4l-1.5,0.1v-0.7h0c-0.2,0.3-0.7,0.8-1.6,0.8c-1.1,0-2.1-0.7-2.1-2.6
	c0-2,1.4-3,2.8-3c0.3,0,0.6,0.1,0.8,0.1v-1.9l-0.8-0.1c0,0,0-0.1,0-0.1c0-0.2,0.1-0.3,0.4-0.3l1.5-0.1V88z M196.9,84.1
	c-0.2-0.2-0.5-0.3-0.9-0.3c-0.9,0-1.6,0.6-1.6,2.1c0,1.4,0.6,2,1.4,2c0.6,0,1-0.3,1.1-0.5V84.1z"/>
<path d="M200.8,86c0,1.4,0.7,2,1.6,2c0.7,0,1.1-0.3,1.4-0.5c0.1,0.1,0.2,0.3,0.2,0.4c0,0.3-0.7,0.9-1.9,0.9c-1.4,0-2.4-0.8-2.4-2.7
	c0-1.9,1.2-2.9,2.4-2.9c1.2,0,1.9,0.8,1.9,1.9c0,0.3-0.1,0.7-0.1,0.9H200.8z M202.7,85.4c0-0.1,0.1-0.3,0.1-0.5
	c0-0.6-0.2-1.1-0.9-1.1c-0.6,0-1,0.5-1.1,1.6H202.7z"/>
<path d="M207.6,84c-0.1-0.1-0.4-0.2-0.7-0.2c-0.4,0-0.7,0.2-0.7,0.6c0,0.5,0.5,0.8,1,1.1c0.7,0.4,1.4,0.8,1.4,1.7
	c0,0.9-0.7,1.6-2,1.6c-0.6,0-1.2-0.2-1.4-0.3c0-0.3-0.1-0.6-0.1-0.8c0-0.4,0.1-0.6,0.5-0.6c0.1,0,0.1,0,0.1,0l0.2,0.9
	c0.1,0.1,0.4,0.2,0.7,0.2c0.5,0,0.9-0.2,0.9-0.7c0-0.5-0.5-0.7-1-1c-0.7-0.4-1.3-0.9-1.3-1.8c0-0.9,0.7-1.4,1.8-1.4
	c0.6,0,1.1,0.2,1.3,0.4c0,0.2,0,0.4,0,0.6c0,0.4-0.1,0.6-0.5,0.6c-0.1,0-0.1,0-0.1,0L207.6,84z"/>
<path d="M212.8,83.9h-1.5v3.2c0,0.5,0.2,0.9,0.7,0.9c0.4,0,0.8-0.2,0.9-0.3c0.1,0.1,0.1,0.3,0.1,0.4c0,0.1-0.4,0.6-1.4,0.6
	c-1,0-1.4-0.6-1.4-1.4v-3.4h-0.8c0,0,0-0.1,0-0.1c0-0.2,0.1-0.3,0.3-0.4l0.5-0.1l0.3-1.5h0.8v1.5h1.6L212.8,83.9z"/>
<path d="M217.5,87.4c0,0.4,0.2,0.6,0.4,0.6c0.3,0,0.4-0.1,0.4-0.2c0.1,0.1,0.1,0.2,0.1,0.3c0,0.1-0.3,0.6-1,0.6
	c-0.5,0-0.8-0.2-0.9-0.8h0c-0.1,0.2-0.5,0.8-1.4,0.8c-0.8,0-1.4-0.6-1.4-1.4c0-1.2,1.3-1.6,2.5-1.6h0.3v-0.5c0-1-0.3-1.4-0.9-1.4
	c-0.3,0-0.5,0.1-0.6,0.1c-0.1,0.2-0.2,0.6-0.2,1c0,0-0.2,0-0.3,0c-0.4,0-0.6-0.2-0.6-0.5c0-0.7,0.9-1.2,1.9-1.2
	c1.2,0,1.8,0.7,1.8,1.9V87.4z M216.2,86.2c-0.9,0-1.4,0.4-1.4,0.9c0,0.5,0.3,0.8,0.7,0.8c0.5,0,0.8-0.3,0.9-0.5v-1.3L216.2,86.2z"/>
<path d="M224,83.9h-0.9c0.2,0.3,0.3,0.6,0.3,1c0,1.2-1,1.8-2.2,1.8c-0.2,0-0.4,0-0.5-0.1c-0.2,0.1-0.3,0.2-0.3,0.5
	c0,0.3,0.2,0.4,0.5,0.4h1.3c1,0,1.6,0.5,1.6,1.3c0,1.1-1.1,2.1-2.9,2.1c-1.4,0-2-0.5-2-1.3c0-0.8,0.6-1.1,1-1.3v0
	c-0.3-0.2-0.5-0.4-0.5-0.8c0-0.6,0.6-0.9,0.8-1v0c-0.6-0.3-1-0.8-1-1.6c0-1.2,1-1.8,2.1-1.8c0.3,0,0.6,0,0.9,0.1h1.9L224,83.9z
	 M220.8,88.5c-0.2,0-0.3,0-0.4,0c-0.3,0.2-0.5,0.4-0.5,0.8c0,0.6,0.4,0.9,1.2,0.9c1.1,0,1.7-0.5,1.7-1.1c0-0.5-0.3-0.6-0.8-0.6
	H220.8z M220.3,84.9c0,0.9,0.4,1.2,1,1.2c0.6,0,1-0.3,1-1.2c0-0.8-0.4-1.2-1-1.2C220.8,83.7,220.3,84.1,220.3,84.9z"/>
</svg>
