<?xml version="1.0" encoding="utf-8"?>
<!-- Generator: Adobe Illustrator 18.1.1, SVG Export Plug-In . SVG Version: 6.00 Build 0)  -->
<svg version="1.1" id="Layer_1" xmlns="http://www.w3.org/2000/svg" xmlns:xlink="http://www.w3.org/1999/xlink" x="0px" y="0px"
	 viewBox="0 0 224.1 117.7" enable-background="new 0 0 224.1 117.7" xml:space="preserve">
<polygon fill="#F5CE00" points="31.4,67.8 32.9,67.8 32.9,87.8 29.4,87.8 29.4,67.8 "/>
<polygon fill="#ED1C24" points="31.4,47.7 32.9,47.7 32.9,67.8 29.4,67.8 29.4,47.7 "/>
<polygon fill="#231F20" points="32.9,27.8 32.9,47.8 31.4,47.8 29.4,47.8 29.4,27.8 "/>
<g>
	<path fill="#231F20" d="M20.3,34.7c1,1.6,1.8,1.6,3,1.6c-1-0.8-1.7-1.8-2-2.3l-1.9-3c-0.2-0.9-0.7-1.8-1.4-2.4
		c0.2-0.1,0.4-0.2,0.6-0.3c-1.2,0-2.4-0.6-3.1-0.6c-0.4,0-0.7,0.3-0.7,0.6c0,0.4,0.4,0.8,1.1,0.8c0.2,0,0.4,0,0.6-0.1
		c0.4,0.5,0.7,1,0.7,1.7c0,1.3-1.6,2.3-3.1,2.3c-0.1,0-0.2,0-0.3,0c-0.1-0.3-0.6-0.9-0.6-1.5c0-1,0.7-1.9,0.7-2.9
		c0-0.6-0.3-1-0.4-1.2c0.2-0.2,0.4-0.4,0.5-0.6c-0.1,0-0.2,0.1-0.4,0.1c-0.8,0-1.4-0.2-2-0.2c-0.3,0-0.4,0.1-0.4,0.2
		c0,0,0,0.1,0,0.1C11,27,10.9,27,10.8,27c-0.2,0-0.4-0.1-0.6-0.1c-0.7,0-1,0.3-1,0.6c0,0.2,0.2,0.6,0.4,0.9c0.3-0.1,0.6-0.2,0.8-0.2
		c0.4,0,0.7,0.4,0.9,0.8c-0.3,0-0.3,0-0.6,0c-0.7,0-1.2-0.3-1.3-0.3c0,0,0,0,0,0c0,0.1,0.2,0.4,0.6,0.5c0.5,0.2,1.3,0.3,1.4,0.3
		c0,0-0.1,0.3-0.3,0.3c0,0-0.1,0-0.1,0c-0.5-0.1-0.7-0.2-1.4-0.4c0,0,0,0,0,0c0,0.3,0.7,0.9,1.3,1.1c-0.5,0.7-1.2,1.4-1.5,2.4
		c-0.1,0-0.2,0-0.3,0c-1.6,0-3.1-1-3.1-2.3c0-0.7,0.3-1.2,0.7-1.7c0.2,0,0.4,0.1,0.6,0.1c0.7,0,1.1-0.4,1.1-0.8
		c0-0.3-0.3-0.6-0.7-0.6c-0.7,0-1.9,0.6-3.1,0.6c0.1,0.1,0.3,0.2,0.6,0.3c-0.7,0.6-1.2,1.5-1.4,2.4l-1.9,3c-0.3,0.5-1,1.5-2,2.3
		c1.2,0,2,0,3-1.6l1-1.5c0.1,0.2,0.2,0.4,0.3,0.6l-1.9,3.1c-0.3,0.5-1,1.5-2,2.3c1.2,0,2,0,3-1.6L5,34.9c0.1,0.1,0.3,0.3,0.4,0.4
		L3.1,39c-0.3,0.5-1,1.5-2,2.2c1.2,0,2,0,3-1.6L6.4,36c0.1,0.1,0.3,0.2,0.5,0.3l-2.8,4.4c-0.3,0.5-1,1.5-2,2.2c1.2,0,2,0,3-1.6
		L8,36.8c0.2,0.1,0.3,0.1,0.5,0.2l-3.2,5.1c-0.3,0.5-1,1.5-2,2.2c1.2,0,2,0,3-1.6l3.4-5.5c0,0,0.1,0,0.1,0c0.1,0.3,0.2,0.6,0.2,0.8
		c0,1.7-1.1,3.2-2.5,4.4c0.1,0,0.2,0.1,0.4,0.1c0.3,0,0.5,0,0.6,0c-0.3,0.7-1,1.6-1.3,2.1c-0.4-0.1-1.1-0.1-1.5-0.1
		c-0.4,0-0.5,0.3-0.5,0.5c0,0.4,0.2,0.7,0.4,0.9c0.1-0.2,0.2-0.5,1.1-0.5c0,0,0,0,0.1,0c-0.2,0.3-1,0.9-1,1.4c0,0.3,0.4,0.8,0.8,0.8
		c0-0.1,0-0.2,0-0.3c0-0.4,0.3-0.9,0.6-1.2c0,0.1,0,0.1,0,0.2c0,0.9,0.1,1.4,0.7,1.4c0.3,0,0.5-0.2,0.6-0.2
		c-0.4-0.4-0.4-0.6-0.4-1.2c0-0.1,0-0.3,0-0.5c0-0.1,0-0.3,0-0.4c0.2,0,0.3,0,0.5,0c0,0,0.8-0.1,1,0.4c0.2-0.2,0.6-0.5,0.6-0.8
		c0-0.2-0.1-0.5-0.5-0.5c-0.2,0-0.7,0.1-1.1,0.1c0.1-0.3,0.6-1,1.1-1.6c0.1,0.2,0.2,0.4,0.4,0.6c0-0.4,0.2-1.5,0.8-2.1
		c0.1,0.4,0.2,0.9,0.2,1.8c0,2.3-0.6,4-1.7,4.3c0.2,0.3,0.5,0.5,0.8,0.5c0.4,0,0.7-0.5,0.9-0.9c0.1,0.3,0.5,1.2,0.8,1.2
		c0.3,0,0.7-0.8,0.8-1.2c0.2,0.5,0.5,0.9,0.9,0.9c0.3,0,0.7-0.2,0.8-0.5c-1.2-0.3-1.7-2-1.7-4.3c0-1,0.1-1.4,0.1-1.8
		c0.6,0.7,0.8,1.8,0.8,2.1c0.2-0.2,0.3-0.4,0.4-0.6c0.4,0.5,1,1.3,1.1,1.6c-0.4,0-0.9-0.1-1.1-0.1c-0.4,0-0.5,0.2-0.5,0.5
		c0,0.3,0.3,0.6,0.6,0.8c0.2-0.4,1-0.4,1-0.4c0.2,0,0.2,0,0.5,0c0,0.1,0,0.3,0,0.4c0,0.2,0,0.3,0,0.5c0,0.5,0,0.8-0.4,1.2
		c0.1,0,0.3,0.2,0.6,0.2c0.6,0,0.7-0.4,0.7-1.4c0-0.1,0-0.1,0-0.2c0.3,0.3,0.6,0.8,0.6,1.2c0,0.1,0,0.2,0,0.3c0.5,0,0.8-0.5,0.8-0.8
		c0-0.5-0.7-1.1-1-1.4c0,0,0.1,0,0.1,0c0.8,0,1,0.3,1.1,0.5c0.2-0.2,0.4-0.5,0.4-0.9c0-0.2,0-0.5-0.5-0.5c-0.4,0-1.1,0.1-1.5,0.1
		c-0.3-0.5-1-1.4-1.3-2.1c0.1,0,0.3,0,0.6,0c0.1,0,0.3,0,0.4-0.1c-1.4-1.2-2.5-2.7-2.5-4.4c0-0.3,0.1-0.6,0.2-0.8c0,0,0.1,0,0.1,0
		l3.4,5.5c1,1.6,1.8,1.6,3,1.6c-1-0.8-1.7-1.8-2-2.2L14.8,37c0.2-0.1,0.3-0.1,0.5-0.2l2.8,4.5c1,1.6,1.8,1.6,3,1.6
		c-1-0.8-1.7-1.7-2-2.2l-2.8-4.4c0.2-0.1,0.3-0.2,0.5-0.3l2.3,3.6c1,1.6,1.8,1.6,3,1.6c-1-0.8-1.7-1.7-2-2.2l-2.3-3.7
		c0.1-0.1,0.3-0.2,0.4-0.4l1.6,2.6c1,1.6,1.8,1.6,3,1.6c-1-0.8-1.7-1.7-2-2.3l-1.9-3.1c0.1-0.2,0.2-0.4,0.3-0.6L20.3,34.7z M5,31.2
		c0-1.1,0.8-2,1.1-2.3c0.1,0,0.1,0,0.2,0c-0.3,0.4-0.9,1-0.9,1.9c0,1.7,1.8,3.1,3.8,3.1c0,0.1,0,0.3,0,0.4c0,0.2,0,0.5,0,0.7
		C7,35.1,5,33.2,5,31.2z M8.1,44.9L8.1,44.9L8.1,44.9c0.7,0,1,0,1.2,0c0.1,0,0.2,0,0.3,0c0.2,0,0.3,0,0.3,0.2c0,0.1-0.2,0.4-0.3,0.5
		c-0.2-0.2-0.6-0.3-1-0.3c-0.2,0-0.5,0-0.7,0.1l0,0l0,0l0,0.1c0,0.1,0,0.3,0,0.5l0,0.2l0,0.3c0,0.5,0.1,0.9,0.3,1.1c0,0-0.1,0-0.2,0
		c-0.3,0-0.4-0.1-0.4-1.1c0-0.2,0-0.4,0-0.5l0-0.2l0,0c-0.5,0.4-1,1.1-1.1,1.6C6.2,47.2,6,47,6,46.8c0-0.3,0.4-0.7,0.9-1.2l0.3-0.3
		l0,0l-0.1,0c-0.1,0-0.3-0.1-0.5-0.1c-0.5,0-0.9,0.1-1.1,0.3c-0.1-0.1-0.1-0.4-0.1-0.5c0-0.1,0-0.2,0.1-0.2c0,0,0.1,0,0.2,0h0
		c0.6,0,1.3,0.1,1.6,0.2l0,0l0,0c0-0.1,1.2-1.6,1.5-2.4c0.1,0,0.1,0,0.2,0c0.2,0,0.3,0.2,0.4,0.4C8.7,43.8,8.3,44.4,8.1,44.9z
		 M14.3,42.5c0.1,0,0.2,0,0.2,0c0.3,0.8,1.4,2.3,1.5,2.4l0,0l0,0c0.3,0,1-0.2,1.6-0.2h0c0.1,0,0.1,0,0.2,0c0,0,0.1,0.1,0.1,0.2
		c0,0.1-0.1,0.4-0.1,0.5c-0.2-0.2-0.6-0.3-1.1-0.3c-0.2,0-0.4,0-0.5,0.1l0,0l0,0l0.3,0.3c0.5,0.5,0.9,0.9,0.9,1.2
		c0,0.2-0.2,0.4-0.3,0.5c0-0.5-0.5-1.2-1.1-1.6l0,0l0,0.2c0,0.1,0,0.3,0,0.5c0,1-0.1,1.1-0.4,1.1c-0.1,0-0.1,0-0.2,0
		c0.2-0.2,0.3-0.5,0.3-1.1l0-0.3l0-0.2c0-0.2,0-0.4,0-0.5l0-0.1l-0.1,0c-0.2,0-0.5-0.1-0.7-0.1c-0.5,0-0.8,0-1,0.3
		c-0.2-0.1-0.3-0.3-0.3-0.5c0-0.2,0.1-0.2,0.3-0.2c0.1,0,0.2,0,0.3,0c0.2,0,0.5,0.1,1.2,0.1h0l0,0c-0.2-0.5-0.6-1.1-1.3-2
		C14,42.7,14.1,42.5,14.3,42.5z M11.6,29.2c-0.1-0.3-0.2-0.6-0.4-0.8c-0.2-0.2-0.5-0.5-0.9-0.5c-0.2,0-0.5,0.1-0.7,0.2
		c-0.1-0.1-0.2-0.4-0.2-0.6c0-0.1,0.2-0.3,0.7-0.3c1,0,1.6,0.5,1.6,1.2C11.8,28.7,11.7,29,11.6,29.2z M12.1,28.2
		c0-0.2-0.1-0.4-0.2-0.6c0-0.2,0.1-0.4,0.4-0.2c-0.2,0.2,0,0.5,0,0.5s0.4-0.2,0.3-0.4C13,27.6,12.7,28.3,12.1,28.2z M14.1,35.1
		c0-0.2,0-0.5,0-0.7c0-0.1,0-0.3,0-0.4c2,0,3.7-1.5,3.7-3.1c0-0.8-0.5-1.5-0.9-1.9c0.1,0,0.1,0,0.2,0c0.3,0.3,1.1,1.2,1.1,2.3
		C18.3,33.2,16.4,35,14.1,35.1z"/>
</g>
<g>
	<path fill="#231F20" d="M40.2,35.8v-8h4v0.9h-3v2.6H44v0.9h-2.8v3.7H40.2z"/>
	<path fill="#231F20" d="M46,33.3c0,0.7,0.1,1.2,0.3,1.5c0.2,0.3,0.5,0.4,0.9,0.4c0.3,0,0.5-0.1,0.7-0.3c0.2-0.2,0.3-0.5,0.3-0.8h1
		c0,0.6-0.2,1-0.5,1.4c-0.3,0.3-0.8,0.5-1.4,0.5c-0.9,0-1.5-0.3-1.7-0.8C45.2,34.6,45,33.9,45,33c0-1.1,0.2-1.9,0.5-2.4
		c0.3-0.4,0.9-0.7,1.7-0.7c0.7,0,1.2,0.2,1.5,0.6c0.3,0.4,0.4,1.1,0.4,2v0.6H46z M46,32.6h2.2c0-0.8-0.1-1.3-0.3-1.6
		c-0.1-0.2-0.4-0.3-0.7-0.3c-0.4,0-0.7,0.1-0.9,0.4C46.1,31.4,46,31.9,46,32.6z"/>
	<path fill="#231F20" d="M53.7,30.8v-3h0.9v8h-0.9v-0.7c-0.3,0.5-0.7,0.8-1.3,0.8c-0.7,0-1.1-0.2-1.4-0.7c-0.3-0.5-0.4-1.2-0.4-2.3
		c0-1.1,0.2-1.9,0.5-2.3c0.3-0.4,0.8-0.6,1.4-0.6C53,30,53.4,30.3,53.7,30.8z M51.5,33.1c0,0.8,0.1,1.3,0.3,1.6
		c0.2,0.3,0.5,0.5,0.9,0.5c0.3,0,0.6-0.1,0.8-0.4c0.2-0.3,0.3-0.9,0.3-1.7c0-0.6,0-1.1-0.1-1.4c-0.1-0.2-0.2-0.4-0.3-0.6
		c-0.2-0.2-0.4-0.3-0.7-0.3c-0.4,0-0.7,0.2-0.9,0.5C51.6,31.6,51.5,32.2,51.5,33.1z"/>
	<path fill="#231F20" d="M57.2,33.3c0,0.7,0.1,1.2,0.3,1.5c0.2,0.3,0.5,0.4,0.9,0.4c0.3,0,0.5-0.1,0.7-0.3c0.2-0.2,0.3-0.5,0.3-0.8
		h1c0,0.6-0.2,1-0.5,1.4c-0.3,0.3-0.8,0.5-1.4,0.5c-0.9,0-1.5-0.3-1.7-0.8c-0.3-0.5-0.4-1.2-0.4-2.1c0-1.1,0.2-1.9,0.5-2.4
		c0.3-0.4,0.9-0.7,1.7-0.7c0.7,0,1.2,0.2,1.5,0.6c0.3,0.4,0.4,1.1,0.4,2v0.6H57.2z M57.2,32.6h2.2c0-0.8-0.1-1.3-0.3-1.6
		c-0.1-0.2-0.4-0.3-0.7-0.3c-0.4,0-0.7,0.1-0.9,0.4C57.3,31.4,57.2,31.9,57.2,32.6z"/>
	<path fill="#231F20" d="M62,35.8v-5.7h0.9V31c0.2-0.7,0.8-1,1.6-1h0.2v1c-0.2,0-0.3-0.1-0.5-0.1c-0.8,0-1.3,0.5-1.3,1.6v3.4H62z"/>
	<path fill="#231F20" d="M65.7,31.7c0-1.1,0.7-1.7,1.9-1.7s1.9,0.6,1.9,1.7v2.8c0,0.5,0,0.9,0.1,1.3h-1V35c-0.3,0.6-0.7,1-1.4,1
		c-1.1,0-1.6-0.6-1.6-1.9c0-0.6,0.2-1,0.6-1.3c0.4-0.3,0.9-0.5,1.7-0.5h0.7v-0.5c0-0.7-0.3-1.1-1-1.1c-0.3,0-0.5,0.1-0.6,0.2
		c-0.2,0.2-0.3,0.4-0.3,0.7H65.7z M68.3,33c-0.7,0-1.2,0.1-1.4,0.3c-0.3,0.2-0.4,0.5-0.4,0.9c0,0.3,0.1,0.6,0.2,0.8
		c0.2,0.2,0.4,0.3,0.6,0.3c0.4,0,0.7-0.1,0.9-0.4c0.2-0.3,0.3-0.9,0.3-1.8H68.3z"/>
	<path fill="#231F20" d="M71.2,35.8v-8h0.9v8H71.2z"/>
	<path fill="#231F20" d="M76.3,27.8H78l2.1,6.8l2.1-6.8h1.7v8h-1.1v-7.1l-2.3,7.1h-1l-2.3-7.2v7.2h-1V27.8z"/>
	<path fill="#231F20" d="M85.5,27.6h1v1h-1V27.6z M85.5,30.1h0.9v5.7h-0.9V30.1z"/>
	<path fill="#231F20" d="M89,35.8H88v-4.7c0-0.3,0-0.6,0-1h1l0,0.8c0.2-0.3,0.4-0.6,0.6-0.7c0.3-0.1,0.6-0.2,0.9-0.2
		c0.5,0,0.9,0.1,1.1,0.4c0.2,0.3,0.4,0.7,0.4,1.4v4h-0.9v-4c0-0.7-0.3-1.1-1-1.1c-0.8,0-1.2,0.5-1.2,1.6V35.8z"/>
	<path fill="#231F20" d="M93.6,27.6h1v1h-1V27.6z M93.6,30.1h0.9v5.7h-0.9V30.1z"/>
	<path fill="#231F20" d="M96.9,34.1c0,0.7,0.3,1.1,0.9,1.1c0.3,0,0.6-0.1,0.7-0.2c0.2-0.1,0.3-0.4,0.3-0.6c0-0.2-0.1-0.4-0.3-0.5
		c-0.2-0.1-0.5-0.3-0.9-0.5c-0.5-0.2-0.9-0.5-1.2-0.8c-0.3-0.3-0.4-0.6-0.4-1c0-0.5,0.2-0.9,0.5-1.2c0.3-0.3,0.8-0.4,1.4-0.4
		c0.6,0,1,0.1,1.3,0.4c0.3,0.2,0.5,0.5,0.5,0.9v0.3h-1.1c0-0.6-0.3-0.9-0.8-0.9c-0.3,0-0.5,0.1-0.6,0.2C97.1,31,97,31.2,97,31.5
		c0,0.2,0.1,0.4,0.4,0.6c0.3,0.2,0.6,0.3,0.9,0.4c0.5,0.2,0.9,0.5,1.1,0.7c0.3,0.3,0.4,0.6,0.4,1c0,1.2-0.7,1.8-2,1.8
		c-1.3,0-2-0.6-2-1.8H96.9z"/>
	<path fill="#231F20" d="M100.3,30.8v-0.7h0.9V29l0.9-0.4v1.5h1.2v0.7h-1.2v3.6c0,0.2,0.1,0.4,0.2,0.5c0.1,0.1,0.3,0.2,0.6,0.2
		c0.1,0,0.2,0,0.4,0v0.7c-0.2,0.1-0.5,0.1-0.9,0.1c-0.8,0-1.3-0.3-1.3-1v-4.1H100.3z"/>
	<path fill="#231F20" d="M104.2,35.8v-5.7h0.9V31c0.2-0.7,0.8-1,1.6-1h0.2v1c-0.2,0-0.3-0.1-0.5-0.1c-0.8,0-1.3,0.5-1.3,1.6v3.4
		H104.2z"/>
	<path fill="#231F20" d="M107.2,30.1h1.1l1.4,4.6l1.4-4.6h1l-2.6,7.8h-0.9l0.6-2.1L107.2,30.1z"/>
	<path fill="#231F20" d="M114.7,30.1h0.9v-1c0-0.5,0.1-0.8,0.4-1.1c0.3-0.2,0.7-0.3,1.3-0.3c0.1,0,0.3,0,0.4,0v0.7c0,0-0.1,0-0.2,0
		c-0.6,0-0.9,0.2-0.9,0.7v0.9h1.1v0.7h-1.1v5h-0.9v-5h-0.9V30.1z"/>
	<path fill="#231F20" d="M118.3,33c0-1.2,0.2-2,0.5-2.4c0.3-0.4,0.9-0.6,1.7-0.6c0.8,0,1.4,0.2,1.7,0.7c0.3,0.5,0.5,1.2,0.5,2.2
		c0,1.1-0.2,1.9-0.5,2.3c-0.3,0.4-0.9,0.7-1.7,0.7c-0.8,0-1.3-0.2-1.7-0.6C118.5,34.9,118.3,34.1,118.3,33z M119.3,32.7
		c0,0.9,0.1,1.6,0.2,2c0.2,0.4,0.5,0.5,1,0.5c0.4,0,0.8-0.2,0.9-0.6c0.2-0.4,0.2-1,0.2-2c0-0.7-0.1-1.3-0.3-1.5
		c-0.2-0.3-0.5-0.4-0.9-0.4c-0.4,0-0.7,0.1-0.9,0.4C119.4,31.5,119.3,32,119.3,32.7z"/>
	<path fill="#231F20" d="M124.1,35.8v-5.7h0.9V31c0.2-0.7,0.8-1,1.6-1h0.2v1c-0.2,0-0.3-0.1-0.5-0.1c-0.8,0-1.3,0.5-1.3,1.6v3.4
		H124.1z"/>
	<path fill="#231F20" d="M129.5,30.8v-0.7h0.9V29l0.9-0.4v1.5h1.2v0.7h-1.2v3.6c0,0.2,0.1,0.4,0.2,0.5c0.1,0.1,0.3,0.2,0.6,0.2
		c0.1,0,0.2,0,0.4,0v0.7c-0.2,0.1-0.5,0.1-0.9,0.1c-0.8,0-1.3-0.3-1.3-1v-4.1H129.5z"/>
	<path fill="#231F20" d="M133.4,27.8h0.9v3.1c0.3-0.6,0.8-0.9,1.6-0.9c0.5,0,0.9,0.1,1.1,0.4c0.2,0.3,0.4,0.8,0.4,1.4v4h-0.9v-4
		c0-0.7-0.3-1.1-1-1.1c-0.8,0-1.2,0.5-1.2,1.6v3.5h-0.9V27.8z"/>
	<path fill="#231F20" d="M139.9,33.3c0,0.7,0.1,1.2,0.3,1.5c0.2,0.3,0.5,0.4,0.9,0.4c0.3,0,0.5-0.1,0.7-0.3c0.2-0.2,0.3-0.5,0.3-0.8
		h1c0,0.6-0.2,1-0.5,1.4c-0.3,0.3-0.8,0.5-1.4,0.5c-0.9,0-1.5-0.3-1.7-0.8c-0.3-0.5-0.4-1.2-0.4-2.1c0-1.1,0.2-1.9,0.5-2.4
		c0.3-0.4,0.9-0.7,1.7-0.7c0.7,0,1.2,0.2,1.5,0.6c0.3,0.4,0.4,1.1,0.4,2v0.6H139.9z M139.9,32.6h2.2c0-0.8-0.1-1.3-0.3-1.6
		c-0.1-0.2-0.4-0.3-0.7-0.3c-0.4,0-0.7,0.1-0.9,0.4C140,31.4,139.9,31.9,139.9,32.6z"/>
	<path fill="#231F20" d="M40.2,47.8v-8h4.2v0.9h-3.1v2.6h2.9v0.9h-2.9v2.8h3.2v0.9H40.2z"/>
	<path fill="#231F20" d="M46.7,47.8h-0.9v-4.7c0-0.3,0-0.6,0-1h1l0,0.8c0.2-0.3,0.4-0.6,0.6-0.7c0.3-0.1,0.6-0.2,0.9-0.2
		c0.5,0,0.9,0.1,1.1,0.4c0.2,0.3,0.4,0.7,0.4,1.4v4h-0.9v-4c0-0.7-0.3-1.1-1-1.1c-0.8,0-1.2,0.5-1.2,1.6V47.8z"/>
	<path fill="#231F20" d="M53,47l1.4-4.8h1l-1.8,5.7h-1.2l-1.7-5.7h1L53,47z"/>
	<path fill="#231F20" d="M56.2,39.6h1v1h-1V39.6z M56.3,42.1h0.9v5.7h-0.9V42.1z"/>
	<path fill="#231F20" d="M58.8,47.8v-5.7h0.9V43c0.2-0.7,0.8-1,1.6-1h0.2v1c-0.2,0-0.3-0.1-0.5-0.1c-0.8,0-1.3,0.5-1.3,1.6v3.4H58.8
		z"/>
	<path fill="#231F20" d="M62.4,45c0-1.2,0.2-2,0.5-2.4c0.3-0.4,0.9-0.6,1.7-0.6c0.8,0,1.4,0.2,1.7,0.7c0.3,0.5,0.5,1.2,0.5,2.2
		c0,1.1-0.2,1.9-0.5,2.3c-0.3,0.4-0.9,0.7-1.7,0.7c-0.8,0-1.3-0.2-1.7-0.6C62.5,46.9,62.4,46.1,62.4,45z M63.4,44.7
		c0,0.9,0.1,1.6,0.2,2c0.2,0.4,0.5,0.5,1,0.5c0.4,0,0.8-0.2,0.9-0.6c0.2-0.4,0.2-1,0.2-2c0-0.7-0.1-1.3-0.3-1.5
		c-0.2-0.3-0.5-0.4-0.9-0.4c-0.4,0-0.7,0.1-0.9,0.4C63.4,43.5,63.4,44,63.4,44.7z"/>
	<path fill="#231F20" d="M69,47.8h-0.9v-4.7c0-0.3,0-0.6,0-1h1l0,0.8c0.2-0.3,0.4-0.6,0.6-0.7c0.3-0.1,0.6-0.2,0.9-0.2
		c0.5,0,0.9,0.1,1.1,0.4c0.2,0.3,0.4,0.7,0.4,1.4v4h-0.9v-4c0-0.7-0.3-1.1-1-1.1c-0.8,0-1.2,0.5-1.2,1.6V47.8z"/>
	<path fill="#231F20" d="M74.6,47.8h-0.9v-4.6c0-0.3,0-0.7,0-1.1h0.9v0.8c0.2-0.6,0.7-0.9,1.4-0.9c0.7,0,1.1,0.2,1.3,0.7
		c0.3-0.5,0.7-0.7,1.3-0.7c1,0,1.5,0.5,1.5,1.5v4.3h-0.9v-4c0-0.7-0.3-1.1-0.9-1.1c-0.7,0-1,0.4-1,1.2v3.9h-0.9v-4
		c0-0.7-0.3-1.1-0.9-1.1c-0.7,0-1,0.4-1,1.2V47.8z"/>
	<path fill="#231F20" d="M82.7,45.3c0,0.7,0.1,1.2,0.3,1.5c0.2,0.3,0.5,0.4,0.9,0.4c0.3,0,0.5-0.1,0.7-0.3c0.2-0.2,0.3-0.5,0.3-0.8
		h1c0,0.6-0.2,1-0.5,1.4c-0.3,0.3-0.8,0.5-1.4,0.5c-0.9,0-1.5-0.3-1.7-0.8c-0.3-0.5-0.4-1.2-0.4-2.1c0-1.1,0.2-1.9,0.5-2.4
		c0.3-0.4,0.9-0.7,1.7-0.7c0.7,0,1.2,0.2,1.5,0.6c0.3,0.4,0.4,1.1,0.4,2v0.6H82.7z M82.7,44.6h2.2c0-0.8-0.1-1.3-0.3-1.6
		c-0.1-0.2-0.4-0.3-0.7-0.3c-0.4,0-0.7,0.1-0.9,0.4C82.8,43.4,82.7,43.9,82.7,44.6z"/>
	<path fill="#231F20" d="M88.3,47.8h-0.9v-4.7c0-0.3,0-0.6,0-1h1l0,0.8c0.2-0.3,0.4-0.6,0.6-0.7c0.3-0.1,0.6-0.2,0.9-0.2
		c0.5,0,0.9,0.1,1.1,0.4c0.2,0.3,0.4,0.7,0.4,1.4v4h-0.9v-4c0-0.7-0.3-1.1-1-1.1c-0.8,0-1.2,0.5-1.2,1.6V47.8z"/>
	<path fill="#231F20" d="M92.2,42.8v-0.7h0.9V41l0.9-0.4v1.5h1.2v0.7H94v3.6c0,0.2,0.1,0.4,0.2,0.5c0.1,0.1,0.3,0.2,0.6,0.2
		c0.1,0,0.2,0,0.4,0v0.7c-0.2,0.1-0.5,0.1-0.9,0.1c-0.8,0-1.3-0.3-1.3-1v-4.1H92.2z"/>
	<path fill="#231F20" d="M95.7,49.2l0.6-2.6h1.1l-1,2.6H95.7z"/>
	<path fill="#231F20" d="M101.3,39.8h1.5l3.2,7v-7h0.9v8h-1.4l-3.2-7v7h-0.9V39.8z"/>
	<path fill="#231F20" d="M108.6,43.7c0-1.1,0.7-1.7,1.9-1.7s1.9,0.6,1.9,1.7v2.8c0,0.5,0,0.9,0.1,1.3h-1V47c-0.3,0.6-0.7,1-1.4,1
		c-1.1,0-1.6-0.6-1.6-1.9c0-0.6,0.2-1,0.6-1.3c0.4-0.3,0.9-0.5,1.7-0.5h0.7v-0.5c0-0.7-0.3-1.1-1-1.1c-0.3,0-0.5,0.1-0.6,0.2
		c-0.2,0.2-0.3,0.4-0.3,0.7H108.6z M111.3,45c-0.7,0-1.2,0.1-1.4,0.3c-0.3,0.2-0.4,0.5-0.4,0.9c0,0.3,0.1,0.6,0.2,0.8
		c0.2,0.2,0.4,0.3,0.6,0.3c0.4,0,0.7-0.1,0.9-0.4c0.2-0.3,0.3-0.9,0.3-1.8H111.3z"/>
	<path fill="#231F20" d="M113.3,42.8v-0.7h0.9V41l0.9-0.4v1.5h1.2v0.7h-1.2v3.6c0,0.2,0.1,0.4,0.2,0.5c0.1,0.1,0.3,0.2,0.6,0.2
		c0.1,0,0.2,0,0.4,0v0.7c-0.2,0.1-0.5,0.1-0.9,0.1c-0.8,0-1.3-0.3-1.3-1v-4.1H113.3z"/>
	<path fill="#231F20" d="M117.3,42.1h0.9v4c0,0.8,0.3,1.2,0.9,1.2c0.4,0,0.6-0.1,0.8-0.4c0.2-0.3,0.3-0.6,0.3-0.9v-3.8h0.9v4.7
		c0,0.3,0,0.6,0,1h-0.9V47c-0.3,0.6-0.8,0.9-1.5,0.9c-0.5,0-0.8-0.1-1.1-0.4c-0.3-0.2-0.4-0.6-0.4-1.1V42.1z"/>
	<path fill="#231F20" d="M122.9,47.8v-5.7h0.9V43c0.2-0.7,0.8-1,1.6-1h0.2v1c-0.2,0-0.3-0.1-0.5-0.1c-0.8,0-1.3,0.5-1.3,1.6v3.4
		H122.9z"/>
	<path fill="#231F20" d="M127.5,45.3c0,0.7,0.1,1.2,0.3,1.5c0.2,0.3,0.5,0.4,0.9,0.4c0.3,0,0.5-0.1,0.7-0.3c0.2-0.2,0.3-0.5,0.3-0.8
		h1c0,0.6-0.2,1-0.5,1.4c-0.3,0.3-0.8,0.5-1.4,0.5c-0.9,0-1.5-0.3-1.7-0.8c-0.3-0.5-0.4-1.2-0.4-2.1c0-1.1,0.2-1.9,0.5-2.4
		c0.3-0.4,0.9-0.7,1.7-0.7c0.7,0,1.2,0.2,1.5,0.6c0.3,0.4,0.4,1.1,0.4,2v0.6H127.5z M127.5,44.6h2.2c0-0.8-0.1-1.3-0.3-1.6
		c-0.1-0.2-0.4-0.3-0.7-0.3c-0.4,0-0.7,0.1-0.9,0.4C127.6,43.4,127.5,43.9,127.5,44.6z"/>
	<path fill="#231F20" d="M138.5,45.4h1.1c0,0.9-0.2,1.5-0.6,1.9c-0.4,0.4-1,0.6-1.8,0.6c-0.8,0-1.4-0.2-1.8-0.7
		c-0.4-0.4-0.6-1.3-0.6-2.5v-2.4c0-1.9,0.8-2.9,2.5-2.9c1.5,0,2.2,0.6,2.2,1.9v0.5h-1.1v-0.3c0-0.8-0.4-1.2-1.2-1.2
		c-0.4,0-0.8,0.1-1,0.4c-0.3,0.3-0.4,0.9-0.4,1.8V45c0,0.7,0.1,1.2,0.3,1.6c0.2,0.3,0.6,0.5,1.1,0.5c0.4,0,0.7-0.1,0.9-0.4
		C138.4,46.4,138.5,46,138.5,45.4z"/>
	<path fill="#231F20" d="M140.8,45c0-1.2,0.2-2,0.5-2.4c0.3-0.4,0.9-0.6,1.7-0.6c0.8,0,1.4,0.2,1.7,0.7c0.3,0.5,0.5,1.2,0.5,2.2
		c0,1.1-0.2,1.9-0.5,2.3c-0.3,0.4-0.9,0.7-1.7,0.7c-0.8,0-1.3-0.2-1.7-0.6C140.9,46.9,140.8,46.1,140.8,45z M141.8,44.7
		c0,0.9,0.1,1.6,0.2,2c0.2,0.4,0.5,0.5,1,0.5c0.4,0,0.8-0.2,0.9-0.6c0.2-0.4,0.2-1,0.2-2c0-0.7-0.1-1.3-0.3-1.5
		c-0.2-0.3-0.5-0.4-0.9-0.4c-0.4,0-0.7,0.1-0.9,0.4C141.8,43.5,141.8,44,141.8,44.7z"/>
	<path fill="#231F20" d="M147.5,47.8h-0.9v-4.7c0-0.3,0-0.6,0-1h1l0,0.8c0.2-0.3,0.4-0.6,0.6-0.7c0.3-0.1,0.6-0.2,0.9-0.2
		c0.5,0,0.9,0.1,1.1,0.4c0.2,0.3,0.4,0.7,0.4,1.4v4h-0.9v-4c0-0.7-0.3-1.1-1-1.1c-0.8,0-1.2,0.5-1.2,1.6V47.8z"/>
	<path fill="#231F20" d="M152.9,46.1c0,0.7,0.3,1.1,0.9,1.1c0.3,0,0.6-0.1,0.7-0.2c0.2-0.1,0.3-0.4,0.3-0.6c0-0.2-0.1-0.4-0.3-0.5
		c-0.2-0.1-0.5-0.3-0.9-0.5c-0.5-0.2-0.9-0.5-1.2-0.8c-0.3-0.3-0.4-0.6-0.4-1c0-0.5,0.2-0.9,0.5-1.2c0.3-0.3,0.8-0.4,1.4-0.4
		c0.6,0,1,0.1,1.3,0.4c0.3,0.2,0.5,0.5,0.5,0.9v0.3h-1.1c0-0.6-0.3-0.9-0.8-0.9c-0.3,0-0.5,0.1-0.6,0.2c-0.2,0.1-0.2,0.3-0.2,0.6
		c0,0.2,0.1,0.4,0.4,0.6c0.3,0.2,0.6,0.3,0.9,0.4c0.5,0.2,0.9,0.5,1.1,0.7c0.3,0.3,0.4,0.6,0.4,1c0,1.2-0.7,1.8-2,1.8
		c-1.3,0-2-0.6-2-1.8H152.9z"/>
	<path fill="#231F20" d="M158,45.3c0,0.7,0.1,1.2,0.3,1.5c0.2,0.3,0.5,0.4,0.9,0.4c0.3,0,0.5-0.1,0.7-0.3c0.2-0.2,0.3-0.5,0.3-0.8h1
		c0,0.6-0.2,1-0.5,1.4c-0.3,0.3-0.8,0.5-1.4,0.5c-0.9,0-1.5-0.3-1.7-0.8c-0.3-0.5-0.4-1.2-0.4-2.1c0-1.1,0.2-1.9,0.5-2.4
		c0.3-0.4,0.9-0.7,1.7-0.7c0.7,0,1.2,0.2,1.5,0.6c0.3,0.4,0.4,1.1,0.4,2v0.6H158z M158,44.6h2.2c0-0.8-0.1-1.3-0.3-1.6
		c-0.1-0.2-0.4-0.3-0.7-0.3c-0.4,0-0.7,0.1-0.9,0.4C158.1,43.4,158,43.9,158,44.6z"/>
	<path fill="#231F20" d="M162.7,47.8v-5.7h0.9V43c0.2-0.7,0.8-1,1.6-1h0.2v1c-0.2,0-0.3-0.1-0.5-0.1c-0.8,0-1.3,0.5-1.3,1.6v3.4
		H162.7z"/>
	<path fill="#231F20" d="M168.1,47l1.4-4.8h1l-1.8,5.7h-1.2l-1.7-5.7h1L168.1,47z"/>
	<path fill="#231F20" d="M171.5,43.7c0-1.1,0.7-1.7,1.9-1.7c1.2,0,1.9,0.6,1.9,1.7v2.8c0,0.5,0,0.9,0.1,1.3h-1V47
		c-0.3,0.6-0.7,1-1.4,1c-1.1,0-1.6-0.6-1.6-1.9c0-0.6,0.2-1,0.6-1.3c0.4-0.3,0.9-0.5,1.7-0.5h0.7v-0.5c0-0.7-0.3-1.1-1-1.1
		c-0.3,0-0.5,0.1-0.6,0.2c-0.2,0.2-0.3,0.4-0.3,0.7H171.5z M174.1,45c-0.7,0-1.2,0.1-1.4,0.3c-0.3,0.2-0.4,0.5-0.4,0.9
		c0,0.3,0.1,0.6,0.2,0.8c0.2,0.2,0.4,0.3,0.6,0.3c0.4,0,0.7-0.1,0.9-0.4c0.2-0.3,0.3-0.9,0.3-1.8H174.1z"/>
	<path fill="#231F20" d="M176.2,42.8v-0.7h0.9V41l0.9-0.4v1.5h1.2v0.7H178v3.6c0,0.2,0.1,0.4,0.2,0.5c0.1,0.1,0.3,0.2,0.6,0.2
		c0.1,0,0.2,0,0.4,0v0.7c-0.2,0.1-0.5,0.1-0.9,0.1c-0.8,0-1.3-0.3-1.3-1v-4.1H176.2z"/>
	<path fill="#231F20" d="M180,39.6h1v1h-1V39.6z M180.1,42.1h0.9v5.7h-0.9V42.1z"/>
	<path fill="#231F20" d="M182.4,45c0-1.2,0.2-2,0.5-2.4c0.3-0.4,0.9-0.6,1.7-0.6c0.8,0,1.4,0.2,1.7,0.7c0.3,0.5,0.5,1.2,0.5,2.2
		c0,1.1-0.2,1.9-0.5,2.3c-0.3,0.4-0.9,0.7-1.7,0.7c-0.8,0-1.3-0.2-1.7-0.6C182.6,46.9,182.4,46.1,182.4,45z M183.4,44.7
		c0,0.9,0.1,1.6,0.2,2c0.2,0.4,0.5,0.5,1,0.5c0.4,0,0.8-0.2,0.9-0.6c0.2-0.4,0.2-1,0.2-2c0-0.7-0.1-1.3-0.3-1.5
		c-0.2-0.3-0.5-0.4-0.9-0.4c-0.4,0-0.7,0.1-0.9,0.4C183.5,43.5,183.4,44,183.4,44.7z"/>
	<path fill="#231F20" d="M189.1,47.8h-0.9v-4.7c0-0.3,0-0.6,0-1h1l0,0.8c0.2-0.3,0.4-0.6,0.6-0.7c0.3-0.1,0.6-0.2,0.9-0.2
		c0.5,0,0.9,0.1,1.1,0.4c0.2,0.3,0.4,0.7,0.4,1.4v4h-0.9v-4c0-0.7-0.3-1.1-1-1.1c-0.8,0-1.2,0.5-1.2,1.6V47.8z"/>
	<path fill="#231F20" d="M193.3,49.2l0.6-2.6h1.1l-1,2.6H193.3z"/>
	<path fill="#231F20" d="M40.3,59.8v-8H43c0.7,0,1.2,0.2,1.6,0.5c0.4,0.3,0.6,0.8,0.6,1.4c0,1.1-0.5,1.7-1.5,1.9
		c1.2,0.1,1.8,0.8,1.8,2c0,0.8-0.2,1.3-0.6,1.7c-0.4,0.4-1,0.6-1.7,0.6H40.3z M41.4,55.1h1.5c0.8,0,1.2-0.4,1.2-1.3
		c0-0.4-0.1-0.7-0.3-0.9c-0.2-0.2-0.5-0.3-0.9-0.3h-1.5V55.1z M41.4,58.9h1.5c0.4,0,0.8-0.1,1.1-0.4c0.3-0.3,0.4-0.6,0.4-1
		c0-0.5-0.1-0.9-0.4-1.1c-0.3-0.2-0.7-0.4-1.4-0.4h-1.2V58.9z"/>
	<path fill="#231F20" d="M47,54.1h0.9v4c0,0.8,0.3,1.2,0.9,1.2c0.4,0,0.6-0.1,0.8-0.4c0.2-0.3,0.3-0.6,0.3-0.9v-3.8h0.9v4.7
		c0,0.3,0,0.6,0,1H50V59c-0.3,0.6-0.8,0.9-1.5,0.9c-0.5,0-0.8-0.1-1.1-0.4C47.2,59.3,47,59,47,58.5V54.1z"/>
	<path fill="#231F20" d="M52.5,51.6h1v1h-1V51.6z M52.6,54.1h0.9v5.7h-0.9V54.1z"/>
	<path fill="#231F20" d="M55.1,59.8v-8H56v8H55.1z"/>
	<path fill="#231F20" d="M60.6,54.8v-3h0.9v8h-0.9v-0.7c-0.3,0.5-0.7,0.8-1.3,0.8c-0.7,0-1.1-0.2-1.4-0.7c-0.3-0.5-0.4-1.2-0.4-2.3
		c0-1.1,0.2-1.9,0.5-2.3c0.3-0.4,0.8-0.6,1.4-0.6C59.9,54,60.3,54.3,60.6,54.8z M58.4,57.1c0,0.8,0.1,1.3,0.3,1.6
		c0.2,0.3,0.5,0.5,0.9,0.5c0.3,0,0.6-0.1,0.8-0.4c0.2-0.3,0.3-0.9,0.3-1.7c0-0.6,0-1.1-0.1-1.4c-0.1-0.2-0.2-0.4-0.3-0.6
		c-0.2-0.2-0.4-0.3-0.7-0.3c-0.4,0-0.7,0.2-0.9,0.5C58.5,55.6,58.4,56.2,58.4,57.1z"/>
	<path fill="#231F20" d="M63.1,51.6h1v1h-1V51.6z M63.1,54.1h0.9v5.7h-0.9V54.1z"/>
	<path fill="#231F20" d="M66.6,59.8h-0.9v-4.7c0-0.3,0-0.6,0-1h1l0,0.8c0.2-0.3,0.4-0.6,0.6-0.7c0.3-0.1,0.6-0.2,0.9-0.2
		c0.5,0,0.9,0.1,1.1,0.4c0.2,0.3,0.4,0.7,0.4,1.4v4h-0.9v-4c0-0.7-0.3-1.1-1-1.1c-0.8,0-1.2,0.5-1.2,1.6V59.8z"/>
	<path fill="#231F20" d="M71.4,60.4h1.1c0,0.3,0.1,0.5,0.3,0.6c0.2,0.1,0.4,0.2,0.6,0.2c0.6,0,1-0.3,1-1v-1.2
		c-0.3,0.5-0.7,0.7-1.3,0.7c-0.7,0-1.3-0.3-1.5-1c-0.2-0.5-0.3-1.1-0.3-2c0-1.9,0.6-2.8,1.8-2.8c0.6,0,1.1,0.3,1.3,0.9v-0.8h0.9v6.2
		c0,1-0.7,1.5-2,1.5c-0.6,0-1.1-0.1-1.4-0.4c-0.3-0.3-0.5-0.6-0.5-0.9V60.4z M72.1,56.8c0,0.8,0.1,1.4,0.3,1.7
		c0.2,0.3,0.5,0.5,0.8,0.5c0.3,0,0.6-0.1,0.8-0.4c0.2-0.3,0.3-0.8,0.3-1.7c0-0.9-0.1-1.4-0.3-1.7c-0.2-0.3-0.4-0.4-0.8-0.4
		c-0.4,0-0.7,0.2-0.9,0.5C72.2,55.6,72.1,56.1,72.1,56.8z"/>
	<path fill="#231F20" d="M79.4,55.7c0-1.1,0.7-1.7,1.9-1.7c1.2,0,1.9,0.6,1.9,1.7v2.8c0,0.5,0,0.9,0.1,1.3h-1V59
		c-0.3,0.6-0.7,1-1.4,1c-1.1,0-1.6-0.6-1.6-1.9c0-0.6,0.2-1,0.6-1.3c0.4-0.3,0.9-0.5,1.7-0.5h0.7v-0.5c0-0.7-0.3-1.1-1-1.1
		c-0.3,0-0.5,0.1-0.6,0.2c-0.2,0.2-0.3,0.4-0.3,0.7H79.4z M82,57c-0.7,0-1.2,0.1-1.4,0.3c-0.3,0.2-0.4,0.5-0.4,0.9
		c0,0.3,0.1,0.6,0.2,0.8c0.2,0.2,0.4,0.3,0.6,0.3c0.4,0,0.7-0.1,0.9-0.4c0.2-0.3,0.3-0.9,0.3-1.8H82z"/>
	<path fill="#231F20" d="M85.9,59.8h-0.9v-4.7c0-0.3,0-0.6,0-1h1l0,0.8c0.2-0.3,0.4-0.6,0.6-0.7c0.3-0.1,0.6-0.2,0.9-0.2
		c0.5,0,0.9,0.1,1.1,0.4c0.2,0.3,0.4,0.7,0.4,1.4v4H88v-4c0-0.7-0.3-1.1-1-1.1c-0.8,0-1.2,0.5-1.2,1.6V59.8z"/>
	<path fill="#231F20" d="M93.5,54.8v-3h0.9v8h-0.9v-0.7c-0.3,0.5-0.7,0.8-1.3,0.8c-0.7,0-1.1-0.2-1.4-0.7c-0.3-0.5-0.4-1.2-0.4-2.3
		c0-1.1,0.2-1.9,0.5-2.3c0.3-0.4,0.8-0.6,1.4-0.6C92.8,54,93.3,54.3,93.5,54.8z M91.4,57.1c0,0.8,0.1,1.3,0.3,1.6
		c0.2,0.3,0.5,0.5,0.9,0.5c0.3,0,0.6-0.1,0.8-0.4c0.2-0.3,0.3-0.9,0.3-1.7c0-0.6,0-1.1-0.1-1.4c-0.1-0.2-0.2-0.4-0.3-0.6
		c-0.2-0.2-0.4-0.3-0.7-0.3c-0.4,0-0.7,0.2-0.9,0.5C91.4,55.6,91.4,56.2,91.4,57.1z"/>
	<path fill="#231F20" d="M98.8,51.8h1.5l3.2,7v-7h0.9v8h-1.4l-3.2-7v7h-0.9V51.8z"/>
	<path fill="#231F20" d="M106.1,54.1h0.9v4c0,0.8,0.3,1.2,0.9,1.2c0.4,0,0.6-0.1,0.8-0.4c0.2-0.3,0.3-0.6,0.3-0.9v-3.8h0.9v4.7
		c0,0.3,0,0.6,0,1h-0.9V59c-0.3,0.6-0.8,0.9-1.5,0.9c-0.5,0-0.8-0.1-1.1-0.4c-0.3-0.2-0.4-0.6-0.4-1.1V54.1z"/>
	<path fill="#231F20" d="M114.7,57.9h1c0,0.6-0.2,1.1-0.5,1.5c-0.3,0.4-0.8,0.5-1.3,0.5c-0.8,0-1.4-0.2-1.7-0.7s-0.4-1.2-0.4-2.2
		c0-1.1,0.2-1.9,0.5-2.3c0.3-0.5,0.9-0.7,1.7-0.7c0.5,0,1,0.1,1.3,0.4c0.3,0.3,0.5,0.8,0.5,1.5h-1c0-0.4-0.1-0.7-0.2-0.9
		c-0.1-0.2-0.3-0.3-0.6-0.3c-0.4,0-0.7,0.1-0.9,0.4c-0.2,0.3-0.3,0.8-0.3,1.5c0,1,0.1,1.7,0.2,2c0.2,0.3,0.5,0.5,0.9,0.5
		C114.4,59.2,114.7,58.8,114.7,57.9z"/>
	<path fill="#231F20" d="M117.3,59.8v-8h0.9v8H117.3z"/>
	<path fill="#231F20" d="M120.7,57.3c0,0.7,0.1,1.2,0.3,1.5c0.2,0.3,0.5,0.4,0.9,0.4c0.3,0,0.5-0.1,0.7-0.3c0.2-0.2,0.3-0.5,0.3-0.8
		h1c0,0.6-0.2,1-0.5,1.4c-0.3,0.3-0.8,0.5-1.4,0.5c-0.9,0-1.5-0.3-1.7-0.8c-0.3-0.5-0.4-1.2-0.4-2.1c0-1.1,0.2-1.9,0.5-2.4
		c0.3-0.4,0.9-0.7,1.7-0.7c0.7,0,1.2,0.2,1.5,0.6c0.3,0.4,0.4,1.1,0.4,2v0.6H120.7z M120.7,56.6h2.2c0-0.8-0.1-1.3-0.3-1.6
		c-0.1-0.2-0.4-0.3-0.7-0.3c-0.4,0-0.7,0.1-0.9,0.4C120.8,55.4,120.7,55.9,120.7,56.6z"/>
	<path fill="#231F20" d="M125.4,55.7c0-1.1,0.7-1.7,1.9-1.7c1.2,0,1.9,0.6,1.9,1.7v2.8c0,0.5,0,0.9,0.1,1.3h-1V59
		c-0.3,0.6-0.7,1-1.4,1c-1.1,0-1.6-0.6-1.6-1.9c0-0.6,0.2-1,0.6-1.3c0.4-0.3,0.9-0.5,1.7-0.5h0.7v-0.5c0-0.7-0.3-1.1-1-1.1
		c-0.3,0-0.5,0.1-0.6,0.2c-0.2,0.2-0.3,0.4-0.3,0.7H125.4z M128.1,57c-0.7,0-1.2,0.1-1.4,0.3c-0.3,0.2-0.4,0.5-0.4,0.9
		c0,0.3,0.1,0.6,0.2,0.8c0.2,0.2,0.4,0.3,0.6,0.3c0.4,0,0.7-0.1,0.9-0.4c0.2-0.3,0.3-0.9,0.3-1.8H128.1z"/>
	<path fill="#231F20" d="M131,59.8v-5.7h0.9V55c0.2-0.7,0.8-1,1.6-1h0.2v1c-0.2,0-0.3-0.1-0.5-0.1c-0.8,0-1.3,0.5-1.3,1.6v3.4H131z"
		/>
	<path fill="#231F20" d="M137.1,57.4h1.1v0.3c0,0.4,0.1,0.7,0.4,1c0.2,0.2,0.6,0.4,1.1,0.4c0.4,0,0.7-0.1,1-0.3
		c0.3-0.2,0.4-0.5,0.4-1c0-0.3-0.1-0.6-0.4-0.9c-0.2-0.2-0.7-0.5-1.3-0.8c-0.8-0.4-1.3-0.8-1.6-1.1c-0.3-0.3-0.4-0.8-0.4-1.2
		c0-0.7,0.2-1.2,0.6-1.6c0.4-0.4,1-0.6,1.8-0.6c0.7,0,1.3,0.2,1.7,0.5c0.4,0.4,0.6,0.9,0.6,1.5v0.3h-1.1c0-1-0.4-1.5-1.3-1.5
		c-0.4,0-0.7,0.1-0.9,0.3c-0.2,0.2-0.3,0.5-0.3,0.9c0,0.4,0.2,0.7,0.5,1c0.2,0.2,0.6,0.4,1.3,0.8c0.6,0.3,1.1,0.6,1.4,1
		c0.3,0.4,0.5,0.9,0.5,1.4c0,1.5-0.9,2.2-2.6,2.2c-0.7,0-1.3-0.2-1.7-0.6c-0.4-0.4-0.6-0.9-0.6-1.7V57.4z"/>
	<path fill="#231F20" d="M143.5,55.7c0-1.1,0.7-1.7,1.9-1.7c1.2,0,1.9,0.6,1.9,1.7v2.8c0,0.5,0,0.9,0.1,1.3h-1V59
		c-0.3,0.6-0.7,1-1.4,1c-1.1,0-1.6-0.6-1.6-1.9c0-0.6,0.2-1,0.6-1.3c0.4-0.3,0.9-0.5,1.7-0.5h0.7v-0.5c0-0.7-0.3-1.1-1-1.1
		c-0.3,0-0.5,0.1-0.6,0.2c-0.2,0.2-0.3,0.4-0.3,0.7H143.5z M146.1,57c-0.7,0-1.2,0.1-1.4,0.3c-0.3,0.2-0.4,0.5-0.4,0.9
		c0,0.3,0.1,0.6,0.2,0.8c0.2,0.2,0.4,0.3,0.6,0.3c0.4,0,0.7-0.1,0.9-0.4c0.2-0.3,0.3-0.9,0.3-1.8H146.1z"/>
	<path fill="#231F20" d="M148.3,54.1h0.9v-1c0-0.5,0.1-0.8,0.4-1.1c0.3-0.2,0.7-0.3,1.3-0.3c0.1,0,0.3,0,0.4,0v0.7c0,0-0.1,0-0.2,0
		c-0.6,0-0.9,0.2-0.9,0.7v0.9h1.1v0.7h-1.1v5h-0.9v-5h-0.9V54.1z"/>
	<path fill="#231F20" d="M153,57.3c0,0.7,0.1,1.2,0.3,1.5c0.2,0.3,0.5,0.4,0.9,0.4c0.3,0,0.5-0.1,0.7-0.3c0.2-0.2,0.3-0.5,0.3-0.8h1
		c0,0.6-0.2,1-0.5,1.4c-0.3,0.3-0.8,0.5-1.4,0.5c-0.9,0-1.5-0.3-1.7-0.8c-0.3-0.5-0.4-1.2-0.4-2.1c0-1.1,0.2-1.9,0.5-2.4
		c0.3-0.4,0.9-0.7,1.7-0.7c0.7,0,1.2,0.2,1.5,0.6c0.3,0.4,0.4,1.1,0.4,2v0.6H153z M153,56.6h2.2c0-0.8-0.1-1.3-0.3-1.6
		c-0.1-0.2-0.4-0.3-0.7-0.3c-0.4,0-0.7,0.1-0.9,0.4C153.1,55.4,153,55.9,153,56.6z"/>
	<path fill="#231F20" d="M156.9,54.8v-0.7h0.9V53l0.9-0.4v1.5h1.2v0.7h-1.2v3.6c0,0.2,0.1,0.4,0.2,0.5c0.1,0.1,0.3,0.2,0.6,0.2
		c0.1,0,0.2,0,0.4,0v0.7c-0.2,0.1-0.5,0.1-0.9,0.1c-0.8,0-1.3-0.3-1.3-1v-4.1H156.9z"/>
	<path fill="#231F20" d="M160.1,54.1h1.1l1.4,4.6l1.4-4.6h1l-2.6,7.8h-0.9l0.6-2.1L160.1,54.1z"/>
</g>
<g>
	<path fill="#231F20" d="M4.6,1.3C4.3,1.1,3.9,0.9,3.5,0.9c-0.8,0-1.3,0.4-1.3,1.1c0,0.7,0.5,0.9,0.9,1.2l1,0.6c1,0.5,1.6,1,1.6,2.1
		c0,1.3-0.9,2.2-2.5,2.2c-1,0-1.8-0.4-1.9-0.5c0-0.3-0.1-1.1-0.1-1.2c0-0.4,0.1-0.6,0.4-0.6c0.1,0,0.2,0,0.3,0.1l0.3,1.2
		c0.2,0.2,0.7,0.4,1.2,0.4c0.9,0,1.4-0.5,1.4-1.2c0-0.7-0.5-1-1.4-1.5L2.5,4.3c-0.7-0.4-1.4-0.9-1.4-2c0-1.3,1-2,2.4-2
		c1,0,1.5,0.3,1.8,0.4c0,0,0,1,0,1.1c0,0.3-0.1,0.6-0.4,0.6c-0.1,0-0.2,0-0.2,0L4.6,1.3z"/>
	<path fill="#231F20" d="M11.7,7.4l0.8,0.1c0,0,0,0,0,0.1c0,0.2-0.1,0.3-0.4,0.4l-1.5,0.1V7.3h0C10.5,7.6,10,8.1,9,8.1
		c-1.2,0-1.7-0.7-1.7-2V3.3L6.5,3.2c0,0,0-0.1,0-0.1c0-0.2,0.1-0.3,0.4-0.3l1.5-0.1v3.5c0,1,0.5,1.2,1,1.2c0.6,0,0.9-0.2,1.2-0.5
		V3.3L9.8,3.2c0,0,0-0.1,0-0.1c0-0.2,0.1-0.3,0.4-0.3l1.5-0.1V7.4z"/>
	<path fill="#231F20" d="M15,3.3L15,3.3c0.3-0.3,0.7-0.8,1.6-0.8c1.2,0,2,0.9,2,2.5c0,2.1-1.2,3-2.8,3c-0.3,0-0.6,0-0.8-0.1v1.6
		l0.6,0.1c0.1,0,0.2,0.1,0.2,0.1c0,0.1-0.1,0.3-0.1,0.3h-2.5c0,0,0-0.1,0-0.1c0-0.2,0.1-0.3,0.3-0.4L14,9.6V3.3l-0.8-0.1
		c0,0,0-0.1,0-0.1c0-0.2,0.1-0.3,0.4-0.3l1.5-0.1L15,3.3z M15.1,7.1c0.2,0.1,0.5,0.3,0.9,0.3c1,0,1.6-0.6,1.6-2.2
		c0-1.3-0.6-1.8-1.4-1.8c-0.5,0-0.9,0.2-1.1,0.4V7.1z"/>
	<path fill="#231F20" d="M21.4,3.3L21.4,3.3C21.7,3,22.1,2.5,23,2.5c1.2,0,2,0.9,2,2.5c0,2.1-1.2,3-2.8,3c-0.3,0-0.6,0-0.8-0.1v1.6
		l0.6,0.1c0.1,0,0.2,0.1,0.2,0.1c0,0.1-0.1,0.3-0.1,0.3h-2.5c0,0,0-0.1,0-0.1c0-0.2,0.1-0.3,0.3-0.4l0.4-0.1V3.3l-0.8-0.1
		c0,0,0-0.1,0-0.1c0-0.2,0.1-0.3,0.4-0.3l1.5-0.1L21.4,3.3z M21.4,7.1c0.2,0.1,0.5,0.3,0.9,0.3c1,0,1.6-0.6,1.6-2.2
		c0-1.3-0.6-1.8-1.4-1.8c-0.5,0-0.9,0.2-1.1,0.4V7.1z"/>
	<path fill="#231F20" d="M31.3,5.3c0,1.9-1.3,2.8-2.7,2.8c-1.4,0-2.5-0.9-2.5-2.7c0-1.9,1.3-2.8,2.7-2.8C30.2,2.5,31.3,3.4,31.3,5.3
		z M27.3,5.3c0,1.5,0.6,2.1,1.4,2.1c0.8,0,1.4-0.6,1.4-2.1c0-1.5-0.6-2.2-1.4-2.2C27.9,3.2,27.3,3.8,27.3,5.3z"/>
	<path fill="#231F20" d="M34.1,3.6L34.1,3.6c0.3-0.4,0.7-1,1.4-1c0.5,0,0.8,0.2,0.8,0.6c0,0.2-0.1,0.5-0.2,0.6
		c-0.1,0-0.4-0.2-0.7-0.2c-0.6,0-0.9,0.2-1.1,0.6v3.3L35,7.5c0.1,0,0.2,0.1,0.2,0.1C35.1,7.8,35,8,35,8h-2.7c0,0,0-0.1,0-0.1
		c0-0.2,0.1-0.3,0.3-0.4L33,7.4V3.3l-0.8-0.1c0,0,0-0.1,0-0.1c0-0.2,0.1-0.3,0.4-0.3l1.5-0.1L34.1,3.6z"/>
	<path fill="#231F20" d="M40.2,3.3h-1.5v3.2c0,0.5,0.2,0.9,0.7,0.9c0.4,0,0.8-0.2,0.9-0.3c0.1,0.1,0.1,0.3,0.1,0.4
		c0,0.1-0.4,0.6-1.4,0.6c-1,0-1.4-0.6-1.4-1.4V3.3h-0.8c0,0,0-0.1,0-0.1c0-0.2,0.1-0.3,0.3-0.4l0.5-0.1l0.3-1.5h0.8v1.5h1.6
		L40.2,3.3z"/>
	<path fill="#231F20" d="M42.2,5.3c0,1.4,0.7,2,1.6,2c0.7,0,1.1-0.3,1.4-0.5c0.1,0.1,0.2,0.3,0.2,0.4c0,0.3-0.7,0.9-1.9,0.9
		c-1.4,0-2.4-0.8-2.4-2.7c0-1.9,1.2-2.9,2.4-2.9c1.2,0,1.9,0.8,1.9,1.9c0,0.3-0.1,0.7-0.1,0.9H42.2z M44.2,4.8
		c0-0.1,0.1-0.3,0.1-0.5c0-0.6-0.2-1.1-0.9-1.1c-0.6,0-1,0.5-1.1,1.6H44.2z"/>
	<path fill="#231F20" d="M51.2,7.4L52,7.5c0,0,0,0,0,0.1c0,0.2-0.1,0.3-0.4,0.4l-1.5,0.1V7.3h0c-0.2,0.3-0.7,0.8-1.6,0.8
		c-1.1,0-2.1-0.7-2.1-2.6c0-2,1.4-3,2.8-3c0.3,0,0.6,0.1,0.8,0.1V0.7l-0.8-0.1c0,0,0-0.1,0-0.1c0-0.2,0.1-0.3,0.4-0.3L51.2,0V7.4z
		 M50.1,3.5c-0.2-0.2-0.5-0.3-0.9-0.3c-0.9,0-1.6,0.6-1.6,2.1c0,1.4,0.6,2,1.4,2c0.6,0,1-0.3,1.1-0.5V3.5z"/>
	<path fill="#231F20" d="M56.8,3.3L56.8,3.3c0.3-0.3,0.8-0.7,1.6-0.7c1,0,2,0.7,2,2.6c0,2.1-1.4,3-2.9,3c-1,0-1.6-0.3-1.9-0.4v-7
		l-0.8-0.1c0,0,0-0.1,0-0.1c0-0.2,0.1-0.3,0.4-0.3L56.8,0V3.3z M56.8,7.2c0.2,0.1,0.5,0.3,1,0.3c1,0,1.6-0.6,1.6-2.1
		c0-1.5-0.7-1.9-1.4-1.9c-0.5,0-0.9,0.2-1.1,0.5V7.2z"/>
	<path fill="#231F20" d="M66.3,3.2L64.5,8c-0.6,1.7-1.4,2.3-2.3,2.3c-0.5,0-0.7-0.2-0.7-0.6c0-0.2,0.1-0.4,0.2-0.5
		c0.1,0.1,0.3,0.1,0.5,0.1c0.7,0,1.3-0.3,1.6-1.2l-2.1-5L61.1,3c0,0,0-0.1,0-0.1c0-0.2,0.1-0.3,0.3-0.3h2.1c0.1,0,0.1,0,0.1,0.1
		c0,0.1-0.1,0.2-0.1,0.3l-0.6,0.2l1.3,3.6h0l1.3-3.6L64.6,3c0,0,0-0.1,0-0.1c0-0.2,0.1-0.3,0.3-0.3h1.8c0.1,0,0.1,0,0.1,0.1
		c0,0.1-0.1,0.2-0.1,0.3L66.3,3.2z"/>
	<path fill="#231F20" d="M68.3,3.9c-0.4,0-0.7-0.3-0.7-0.7c0-0.4,0.3-0.7,0.7-0.7c0.4,0,0.7,0.3,0.7,0.7C69,3.6,68.7,3.9,68.3,3.9z
		 M68.3,8.1c-0.4,0-0.7-0.3-0.7-0.7c0-0.4,0.3-0.7,0.7-0.7C68.7,6.8,69,7,69,7.5C69,7.9,68.7,8.1,68.3,8.1z"/>
	<path fill="#231F20" d="M2.4,110.7L2.4,110.7c0.3-0.3,0.8-0.7,1.6-0.7c1,0,2,0.7,2,2.6c0,2.1-1.4,3-2.9,3c-1,0-1.6-0.3-1.9-0.4v-7
		L0.5,108c0,0,0-0.1,0-0.1c0-0.2,0.1-0.3,0.4-0.3l1.5-0.1V110.7z M2.4,114.6c0.2,0.1,0.5,0.3,1,0.3c1,0,1.6-0.6,1.6-2.1
		c0-1.5-0.7-1.9-1.4-1.9c-0.5,0-0.9,0.2-1.1,0.5V114.6z"/>
	<path fill="#231F20" d="M11.1,114.2c0,0.4,0.2,0.6,0.4,0.6c0.3,0,0.4-0.1,0.4-0.2c0.1,0.1,0.1,0.2,0.1,0.3c0,0.1-0.3,0.6-1,0.6
		c-0.5,0-0.8-0.2-0.9-0.8h0c-0.1,0.2-0.5,0.8-1.4,0.8c-0.8,0-1.4-0.6-1.4-1.4c0-1.2,1.3-1.6,2.5-1.6h0.3V112c0-1-0.3-1.4-0.9-1.4
		c-0.3,0-0.5,0.1-0.6,0.1c-0.1,0.2-0.2,0.6-0.2,1c0,0-0.2,0-0.3,0c-0.4,0-0.6-0.2-0.6-0.5c0-0.7,0.9-1.2,1.9-1.2
		c1.2,0,1.8,0.7,1.8,1.9V114.2z M9.7,113c-0.9,0-1.4,0.4-1.4,0.9c0,0.5,0.3,0.8,0.7,0.8c0.5,0,0.8-0.3,0.9-0.5V113L9.7,113z"/>
	<path fill="#231F20" d="M15.2,110.8c-0.1-0.1-0.4-0.2-0.7-0.2c-0.4,0-0.7,0.2-0.7,0.6c0,0.5,0.5,0.8,1,1.1c0.7,0.4,1.4,0.8,1.4,1.7
		c0,0.9-0.7,1.6-2,1.6c-0.6,0-1.2-0.2-1.4-0.3c0-0.3-0.1-0.6-0.1-0.8c0-0.4,0.1-0.6,0.5-0.6c0.1,0,0.1,0,0.1,0l0.2,0.9
		c0.1,0.1,0.4,0.2,0.7,0.2c0.5,0,0.9-0.2,0.9-0.7c0-0.5-0.5-0.7-1-1c-0.7-0.4-1.3-0.9-1.3-1.8c0-0.9,0.7-1.4,1.8-1.4
		c0.6,0,1.1,0.2,1.3,0.4c0,0.2,0,0.4,0,0.6c0,0.4-0.1,0.6-0.5,0.6c-0.1,0-0.1,0-0.1,0L15.2,110.8z"/>
	<path fill="#231F20" d="M18.4,112.7c0,1.4,0.7,2,1.6,2c0.7,0,1.1-0.3,1.4-0.5c0.1,0.1,0.2,0.3,0.2,0.4c0,0.3-0.7,0.9-1.9,0.9
		c-1.4,0-2.4-0.8-2.4-2.7c0-1.9,1.2-2.9,2.4-2.9c1.2,0,1.9,0.8,1.9,1.9c0,0.3-0.1,0.7-0.1,0.9H18.4z M20.3,112.2
		c0-0.1,0.1-0.3,0.1-0.5c0-0.6-0.2-1.1-0.9-1.1c-0.6,0-1,0.5-1.1,1.6H20.3z"/>
	<path fill="#231F20" d="M27.4,114.8l0.8,0.1c0,0,0,0,0,0.1c0,0.2-0.1,0.3-0.4,0.4l-1.5,0.1v-0.7h0c-0.2,0.3-0.7,0.8-1.6,0.8
		c-1.1,0-2.1-0.7-2.1-2.6c0-2,1.4-3,2.8-3c0.3,0,0.6,0.1,0.8,0.1v-1.9l-0.8-0.1c0,0,0-0.1,0-0.1c0-0.2,0.1-0.3,0.4-0.3l1.5-0.1
		V114.8z M26.2,110.9c-0.2-0.2-0.5-0.3-0.9-0.3c-0.9,0-1.6,0.6-1.6,2.1c0,1.4,0.6,2,1.4,2c0.6,0,1-0.3,1.1-0.5V110.9z"/>
	<path fill="#231F20" d="M36.7,112.7c0,1.9-1.3,2.8-2.7,2.8c-1.4,0-2.5-0.9-2.5-2.7c0-1.9,1.3-2.8,2.7-2.8
		C35.6,109.9,36.7,110.8,36.7,112.7z M32.7,112.7c0,1.5,0.6,2.1,1.4,2.1c0.8,0,1.4-0.6,1.4-2.1c0-1.5-0.6-2.2-1.4-2.2
		C33.3,110.6,32.7,111.2,32.7,112.7z"/>
	<path fill="#231F20" d="M43,114.8l0.6,0.1c0.1,0,0.2,0.1,0.2,0.1c0,0.1-0.1,0.3-0.1,0.3h-2.5c0,0,0-0.1,0-0.1
		c0-0.2,0.1-0.3,0.3-0.4l0.4-0.1V112c0-0.9-0.5-1.2-1.1-1.2c-0.6,0-1,0.3-1.3,0.5v3.5l0.6,0.1c0.1,0,0.2,0.1,0.2,0.1
		c0,0.1-0.1,0.3-0.1,0.3h-2.5c0,0,0-0.1,0-0.1c0-0.2,0.1-0.3,0.3-0.4l0.4-0.1v-4.1l-0.8-0.1c0,0,0-0.1,0-0.1c0-0.2,0.1-0.3,0.4-0.3
		l1.5-0.1l-0.1,0.8h0c0.3-0.3,0.8-0.8,1.8-0.8c1.1,0,1.7,0.7,1.7,1.9V114.8z"/>
	<path fill="#231F20" d="M50.9,114.2c0,0.4,0.2,0.6,0.4,0.6c0.3,0,0.4-0.1,0.4-0.2c0.1,0.1,0.1,0.2,0.1,0.3c0,0.1-0.3,0.6-1,0.6
		c-0.5,0-0.8-0.2-0.9-0.8h0c-0.1,0.2-0.5,0.8-1.4,0.8c-0.8,0-1.4-0.6-1.4-1.4c0-1.2,1.3-1.6,2.5-1.6h0.3V112c0-1-0.3-1.4-0.9-1.4
		c-0.3,0-0.5,0.1-0.6,0.1c-0.1,0.2-0.2,0.6-0.2,1c0,0-0.2,0-0.3,0c-0.4,0-0.6-0.2-0.6-0.5c0-0.7,0.9-1.2,1.9-1.2
		c1.2,0,1.8,0.7,1.8,1.9V114.2z M49.6,113c-0.9,0-1.4,0.4-1.4,0.9c0,0.5,0.3,0.8,0.7,0.8c0.5,0,0.8-0.3,0.9-0.5V113L49.6,113z"/>
	<path fill="#231F20" d="M59.7,114.8l0.8,0.1c0,0,0,0,0,0.1c0,0.2-0.1,0.3-0.4,0.4l-1.5,0.1v-0.7h0c-0.2,0.3-0.7,0.8-1.6,0.8
		c-1.1,0-2.1-0.7-2.1-2.6c0-2,1.4-3,2.8-3c0.3,0,0.6,0.1,0.8,0.1v-1.9l-0.8-0.1c0,0,0-0.1,0-0.1c0-0.2,0.1-0.3,0.4-0.3l1.5-0.1
		V114.8z M58.6,110.9c-0.2-0.2-0.5-0.3-0.9-0.3c-0.9,0-1.6,0.6-1.6,2.1c0,1.4,0.6,2,1.4,2c0.6,0,1-0.3,1.1-0.5V110.9z"/>
	<path fill="#231F20" d="M62.6,112.7c0,1.4,0.7,2,1.6,2c0.7,0,1.1-0.3,1.4-0.5c0.1,0.1,0.2,0.3,0.2,0.4c0,0.3-0.7,0.9-1.9,0.9
		c-1.4,0-2.4-0.8-2.4-2.7c0-1.9,1.2-2.9,2.4-2.9c1.2,0,1.9,0.8,1.9,1.9c0,0.3-0.1,0.7-0.1,0.9H62.6z M64.5,112.2
		c0-0.1,0.1-0.3,0.1-0.5c0-0.6-0.2-1.1-0.9-1.1c-0.6,0-1,0.5-1.1,1.6H64.5z"/>
	<path fill="#231F20" d="M69.4,110.6c-0.7,0-1.4,0.5-1.4,2c0,1.4,0.5,2.2,1.6,2.2c0.7,0,1.1-0.4,1.3-0.5c0.1,0.1,0.2,0.3,0.2,0.4
		c0,0.3-0.6,0.9-1.8,0.9c-1.4,0-2.4-0.9-2.4-2.7c0-1.9,1.2-2.9,2.7-2.9c1.2,0,1.5,0.6,1.5,0.9c0,0.3-0.1,0.6-0.6,0.7
		C70.4,111.1,70.1,110.6,69.4,110.6z"/>
	<path fill="#231F20" d="M73.8,114.8l0.6,0.1c0.1,0,0.2,0.1,0.2,0.1c0,0.1-0.1,0.3-0.1,0.3h-2.5c0,0,0-0.1,0-0.1
		c0-0.2,0.1-0.3,0.3-0.4l0.4-0.1v-4.1l-0.8-0.1c0,0,0-0.1,0-0.1c0-0.2,0.1-0.3,0.4-0.3l1.5-0.1V114.8z M73.2,108.9
		c-0.4,0-0.7-0.3-0.7-0.7c0-0.4,0.3-0.7,0.7-0.7c0.4,0,0.7,0.3,0.7,0.7C73.9,108.6,73.6,108.9,73.2,108.9z"/>
	<path fill="#231F20" d="M78,110.8c-0.1-0.1-0.4-0.2-0.7-0.2c-0.4,0-0.7,0.2-0.7,0.6c0,0.5,0.5,0.8,1,1.1c0.7,0.4,1.4,0.8,1.4,1.7
		c0,0.9-0.7,1.6-2,1.6c-0.6,0-1.2-0.2-1.4-0.3c0-0.3-0.1-0.6-0.1-0.8c0-0.4,0.1-0.6,0.5-0.6c0.1,0,0.1,0,0.1,0l0.2,0.9
		c0.1,0.1,0.4,0.2,0.7,0.2c0.5,0,0.9-0.2,0.9-0.7c0-0.5-0.5-0.7-1-1c-0.7-0.4-1.3-0.9-1.3-1.8c0-0.9,0.7-1.4,1.8-1.4
		c0.6,0,1.1,0.2,1.3,0.4c0,0.2,0,0.4,0,0.6c0,0.4-0.1,0.6-0.5,0.6c-0.1,0-0.1,0-0.1,0L78,110.8z"/>
	<path fill="#231F20" d="M81.7,114.8l0.6,0.1c0.1,0,0.2,0.1,0.2,0.1c0,0.1-0.1,0.3-0.1,0.3h-2.5c0,0,0-0.1,0-0.1
		c0-0.2,0.1-0.3,0.3-0.4l0.4-0.1v-4.1l-0.8-0.1c0,0,0-0.1,0-0.1c0-0.2,0.1-0.3,0.4-0.3l1.5-0.1V114.8z M81.2,108.9
		c-0.4,0-0.7-0.3-0.7-0.7c0-0.4,0.3-0.7,0.7-0.7c0.4,0,0.7,0.3,0.7,0.7C81.9,108.6,81.6,108.9,81.2,108.9z"/>
	<path fill="#231F20" d="M88.5,112.7c0,1.9-1.3,2.8-2.7,2.8c-1.4,0-2.5-0.9-2.5-2.7c0-1.9,1.3-2.8,2.7-2.8
		C87.4,109.9,88.5,110.8,88.5,112.7z M84.5,112.7c0,1.5,0.6,2.1,1.4,2.1c0.8,0,1.4-0.6,1.4-2.1c0-1.5-0.6-2.2-1.4-2.2
		C85.1,110.6,84.5,111.2,84.5,112.7z"/>
	<path fill="#231F20" d="M94.8,114.8l0.6,0.1c0.1,0,0.2,0.1,0.2,0.1c0,0.1-0.1,0.3-0.1,0.3H93c0,0,0-0.1,0-0.1
		c0-0.2,0.1-0.3,0.3-0.4l0.4-0.1V112c0-0.9-0.5-1.2-1.1-1.2c-0.6,0-1,0.3-1.3,0.5v3.5l0.6,0.1c0.1,0,0.2,0.1,0.2,0.1
		c0,0.1-0.1,0.3-0.1,0.3h-2.5c0,0,0-0.1,0-0.1c0-0.2,0.1-0.3,0.3-0.4l0.4-0.1v-4.1l-0.8-0.1c0,0,0-0.1,0-0.1c0-0.2,0.1-0.3,0.4-0.3
		l1.5-0.1l-0.1,0.8h0c0.3-0.3,0.8-0.8,1.8-0.8c1.1,0,1.7,0.7,1.7,1.9V114.8z"/>
	<path fill="#231F20" d="M104.1,112.7c0,1.9-1.3,2.8-2.7,2.8c-1.4,0-2.5-0.9-2.5-2.7c0-1.9,1.3-2.8,2.7-2.8
		C103,109.9,104.1,110.8,104.1,112.7z M100.1,112.7c0,1.5,0.6,2.1,1.4,2.1c0.8,0,1.4-0.6,1.4-2.1c0-1.5-0.6-2.2-1.4-2.2
		C100.7,110.6,100.1,111.2,100.1,112.7z"/>
	<path fill="#231F20" d="M108.3,110.7h-1.3v4.1l0.7,0.1c0.1,0,0.2,0.1,0.2,0.1c0,0.1-0.1,0.3-0.1,0.3h-2.6c0,0,0-0.1,0-0.1
		c0-0.2,0.1-0.3,0.3-0.4l0.4-0.1v-4.1H105c0,0,0-0.1,0-0.1c0-0.2,0.1-0.3,0.3-0.4l0.5-0.1V110c0-1.8,1.1-2.6,2-2.6
		c0.5,0,0.8,0.2,0.8,0.6c0,0.3-0.2,0.4-0.3,0.5c-0.1-0.1-0.4-0.3-0.7-0.3c-0.5,0-0.6,0.3-0.6,0.9c0,0.3,0,1,0,1h1.5L108.3,110.7z"/>
	<path fill="#231F20" d="M114.8,110.7h-1.5v3.2c0,0.5,0.2,0.9,0.7,0.9c0.4,0,0.8-0.2,0.9-0.3c0.1,0.1,0.1,0.3,0.1,0.4
		c0,0.1-0.4,0.6-1.4,0.6c-1,0-1.4-0.6-1.4-1.4v-3.4h-0.8c0,0,0-0.1,0-0.1c0-0.2,0.1-0.3,0.3-0.4l0.5-0.1l0.3-1.5h0.8v1.5h1.6
		L114.8,110.7z"/>
	<path fill="#231F20" d="M117.4,110.7L117.4,110.7c0.2-0.3,0.8-0.8,1.7-0.8c1.1,0,1.7,0.6,1.7,1.9v2.9l0.6,0.1
		c0.1,0,0.2,0.1,0.2,0.1c0,0.1-0.1,0.3-0.1,0.3H119c0,0,0-0.1,0-0.1c0-0.2,0.1-0.3,0.3-0.4l0.4-0.1V112c0-0.9-0.5-1.2-1.1-1.2
		c-0.7,0-1,0.3-1.3,0.5v3.5l0.6,0.1c0.1,0,0.2,0.1,0.2,0.1c0,0.1-0.1,0.3-0.1,0.3h-2.5c0,0,0-0.1,0-0.1c0-0.2,0.1-0.3,0.3-0.4
		l0.4-0.1v-6.7l-0.8-0.1c0,0,0-0.1,0-0.1c0-0.2,0.1-0.3,0.4-0.3l1.5-0.1V110.7z"/>
	<path fill="#231F20" d="M123.6,112.7c0,1.4,0.7,2,1.6,2c0.7,0,1.1-0.3,1.4-0.5c0.1,0.1,0.2,0.3,0.2,0.4c0,0.3-0.7,0.9-1.9,0.9
		c-1.4,0-2.4-0.8-2.4-2.7c0-1.9,1.2-2.9,2.4-2.9c1.2,0,1.9,0.8,1.9,1.9c0,0.3-0.1,0.7-0.1,0.9H123.6z M125.5,112.2
		c0-0.1,0.1-0.3,0.1-0.5c0-0.6-0.2-1.1-0.9-1.1c-0.6,0-1,0.5-1.1,1.6H125.5z"/>
	<path fill="#231F20" d="M135.7,108.7c-0.2-0.2-0.7-0.3-1.3-0.3c-1.3,0-2.7,0.9-2.7,3.2c0,2.2,1,3.3,2.5,3.3c0.5,0,0.9-0.1,1.3-0.2
		v-2.2l-0.7-0.2c-0.1,0-0.2-0.1-0.2-0.1c0-0.1,0.1-0.2,0.1-0.3h2.5c0,0,0,0.1,0,0.1c0,0.2-0.1,0.3-0.4,0.4l-0.3,0.1v2.3
		c-0.3,0.3-1.1,0.9-2.7,0.9c-1.9,0-3.5-1.2-3.5-3.9c0-2.9,2.1-4,3.9-4c1.2,0,1.7,0.3,2.1,0.5c0,0.3,0.1,1,0.1,1.1
		c0,0.3-0.1,0.6-0.4,0.6c-0.1,0-0.2,0-0.3,0L135.7,108.7z"/>
	<path fill="#231F20" d="M139.3,112.7c0,1.4,0.7,2,1.6,2c0.7,0,1.1-0.3,1.4-0.5c0.1,0.1,0.2,0.3,0.2,0.4c0,0.3-0.7,0.9-1.9,0.9
		c-1.4,0-2.4-0.8-2.4-2.7c0-1.9,1.2-2.9,2.4-2.9c1.2,0,1.9,0.8,1.9,1.9c0,0.3-0.1,0.7-0.1,0.9H139.3z M141.2,112.2
		c0-0.1,0.1-0.3,0.1-0.5c0-0.6-0.2-1.1-0.9-1.1c-0.6,0-1,0.5-1.1,1.6H141.2z"/>
	<path fill="#231F20" d="M145.2,111L145.2,111c0.3-0.4,0.7-1,1.4-1c0.5,0,0.8,0.2,0.8,0.6c0,0.2-0.1,0.5-0.2,0.6
		c-0.1,0-0.4-0.2-0.7-0.2c-0.6,0-0.9,0.2-1.1,0.6v3.3l0.8,0.1c0.1,0,0.2,0.1,0.2,0.1c0,0.1-0.1,0.3-0.1,0.3h-2.7c0,0,0-0.1,0-0.1
		c0-0.2,0.1-0.3,0.3-0.4l0.4-0.1v-4.1l-0.8-0.1c0,0,0-0.1,0-0.1c0-0.2,0.1-0.3,0.4-0.3l1.5-0.1L145.2,111z"/>
	<path fill="#231F20" d="M156.6,114.8l0.6,0.1c0.1,0,0.2,0.1,0.2,0.1c0,0.1-0.1,0.3-0.1,0.3h-2.5c0,0,0-0.1,0-0.1
		c0-0.2,0.1-0.3,0.3-0.4l0.4-0.1V112c0-1-0.5-1.2-1-1.2c-0.7,0-1,0.3-1.3,0.5c0,0.2,0.1,0.4,0.1,0.6v2.9l0.6,0.1
		c0.1,0,0.2,0.1,0.2,0.1c0,0.1-0.1,0.3-0.1,0.3h-2.5c0,0,0-0.1,0-0.1c0-0.2,0.1-0.3,0.3-0.4l0.4-0.1V112c0-1-0.5-1.2-1-1.2
		c-0.6,0-1,0.3-1.2,0.5v3.5l0.6,0.1c0.1,0,0.2,0.1,0.2,0.1c0,0.1-0.1,0.3-0.1,0.3h-2.5c0,0,0-0.1,0-0.1c0-0.2,0.1-0.3,0.3-0.4
		l0.4-0.1v-4.1l-0.8-0.1c0,0,0-0.1,0-0.1c0-0.2,0.1-0.3,0.4-0.3l1.5-0.1l-0.1,0.7h0c0.2-0.3,0.8-0.8,1.7-0.8c0.7,0,1.2,0.3,1.4,0.9
		c0.3-0.3,0.9-0.9,1.9-0.9c1.1,0,1.7,0.7,1.7,1.9V114.8z"/>
	<path fill="#231F20" d="M162,114.2c0,0.4,0.2,0.6,0.4,0.6c0.3,0,0.4-0.1,0.4-0.2c0.1,0.1,0.1,0.2,0.1,0.3c0,0.1-0.3,0.6-1,0.6
		c-0.5,0-0.8-0.2-0.9-0.8h0c-0.1,0.2-0.5,0.8-1.4,0.8c-0.8,0-1.4-0.6-1.4-1.4c0-1.2,1.3-1.6,2.5-1.6h0.3V112c0-1-0.3-1.4-0.9-1.4
		c-0.3,0-0.5,0.1-0.6,0.1c-0.1,0.2-0.2,0.6-0.2,1c0,0-0.2,0-0.3,0c-0.4,0-0.6-0.2-0.6-0.5c0-0.7,0.9-1.2,1.9-1.2
		c1.2,0,1.8,0.7,1.8,1.9V114.2z M160.6,113c-0.9,0-1.4,0.4-1.4,0.9c0,0.5,0.3,0.8,0.7,0.8s0.8-0.3,0.9-0.5V113L160.6,113z"/>
	<path fill="#231F20" d="M168.8,114.8l0.6,0.1c0.1,0,0.2,0.1,0.2,0.1c0,0.1-0.1,0.3-0.1,0.3H167c0,0,0-0.1,0-0.1
		c0-0.2,0.1-0.3,0.3-0.4l0.4-0.1V112c0-0.9-0.5-1.2-1.1-1.2c-0.6,0-1,0.3-1.3,0.5v3.5l0.6,0.1c0.1,0,0.2,0.1,0.2,0.1
		c0,0.1-0.1,0.3-0.1,0.3h-2.5c0,0,0-0.1,0-0.1c0-0.2,0.1-0.3,0.3-0.4l0.4-0.1v-4.1l-0.8-0.1c0,0,0-0.1,0-0.1c0-0.2,0.1-0.3,0.4-0.3
		l1.5-0.1l-0.1,0.8h0c0.3-0.3,0.8-0.8,1.8-0.8c1.1,0,1.7,0.7,1.7,1.9V114.8z"/>
	<path fill="#231F20" d="M176.9,111.5L176.9,111.5c1.1,0.2,1.8,0.8,1.8,1.8c0,1.2-1,2.1-3,2.1h-2.8c0,0,0-0.1,0-0.1
		c0-0.2,0.1-0.3,0.4-0.4l0.5-0.1v-6.4l-0.7-0.2c-0.1,0-0.2-0.1-0.2-0.1c0-0.1,0.1-0.2,0.1-0.3h2.6c2,0,2.9,0.7,2.9,1.9
		C178.5,110.8,177.9,111.3,176.9,111.5z M175.5,108.5h-0.6v2.8h0.6c1.3,0,1.8-0.6,1.8-1.4C177.3,108.9,176.7,108.5,175.5,108.5z
		 M175.6,111.9h-0.7v2.8h0.7c1.3,0,1.9-0.6,1.9-1.5C177.4,112.4,176.8,111.9,175.6,111.9z"/>
	<path fill="#231F20" d="M184.8,114.8l0.8,0.1c0,0,0,0,0,0.1c0,0.2-0.1,0.3-0.4,0.4l-1.5,0.1v-0.7h0c-0.2,0.2-0.7,0.8-1.6,0.8
		c-1.2,0-1.7-0.7-1.7-2v-2.8l-0.8-0.1c0,0,0-0.1,0-0.1c0-0.2,0.1-0.3,0.4-0.3l1.5-0.1v3.5c0,1,0.5,1.2,1,1.2c0.6,0,0.9-0.2,1.2-0.5
		v-3.5l-0.8-0.1c0,0,0-0.1,0-0.1c0-0.2,0.1-0.3,0.4-0.3l1.5-0.1V114.8z"/>
	<path fill="#231F20" d="M191.7,114.8l0.6,0.1c0.1,0,0.2,0.1,0.2,0.1c0,0.1-0.1,0.3-0.1,0.3h-2.5c0,0,0-0.1,0-0.1
		c0-0.2,0.1-0.3,0.3-0.4l0.4-0.1V112c0-0.9-0.5-1.2-1.1-1.2c-0.6,0-1,0.3-1.3,0.5v3.5l0.6,0.1c0.1,0,0.2,0.1,0.2,0.1
		c0,0.1-0.1,0.3-0.1,0.3h-2.5c0,0,0-0.1,0-0.1c0-0.2,0.1-0.3,0.3-0.4l0.4-0.1v-4.1l-0.8-0.1c0,0,0-0.1,0-0.1c0-0.2,0.1-0.3,0.4-0.3
		l1.5-0.1l-0.1,0.8h0c0.3-0.3,0.8-0.8,1.8-0.8c1.1,0,1.7,0.7,1.7,1.9V114.8z"/>
	<path fill="#231F20" d="M198,114.8l0.8,0.1c0,0,0,0,0,0.1c0,0.2-0.1,0.3-0.4,0.4l-1.5,0.1v-0.7h0c-0.2,0.3-0.7,0.8-1.6,0.8
		c-1.1,0-2.1-0.7-2.1-2.6c0-2,1.4-3,2.8-3c0.3,0,0.6,0.1,0.8,0.1v-1.9l-0.8-0.1c0,0,0-0.1,0-0.1c0-0.2,0.1-0.3,0.4-0.3l1.5-0.1
		V114.8z M196.9,110.9c-0.2-0.2-0.5-0.3-0.9-0.3c-0.9,0-1.6,0.6-1.6,2.1c0,1.4,0.6,2,1.4,2c0.6,0,1-0.3,1.1-0.5V110.9z"/>
	<path fill="#231F20" d="M200.8,112.7c0,1.4,0.7,2,1.6,2c0.7,0,1.1-0.3,1.4-0.5c0.1,0.1,0.2,0.3,0.2,0.4c0,0.3-0.7,0.9-1.9,0.9
		c-1.4,0-2.4-0.8-2.4-2.7c0-1.9,1.2-2.9,2.4-2.9c1.2,0,1.9,0.8,1.9,1.9c0,0.3-0.1,0.7-0.1,0.9H200.8z M202.7,112.2
		c0-0.1,0.1-0.3,0.1-0.5c0-0.6-0.2-1.1-0.9-1.1c-0.6,0-1,0.5-1.1,1.6H202.7z"/>
	<path fill="#231F20" d="M207.6,110.8c-0.1-0.1-0.4-0.2-0.7-0.2c-0.4,0-0.7,0.2-0.7,0.6c0,0.5,0.5,0.8,1,1.1
		c0.7,0.4,1.4,0.8,1.4,1.7c0,0.9-0.7,1.6-2,1.6c-0.6,0-1.2-0.2-1.4-0.3c0-0.3-0.1-0.6-0.1-0.8c0-0.4,0.1-0.6,0.5-0.6
		c0.1,0,0.1,0,0.1,0l0.2,0.9c0.1,0.1,0.4,0.2,0.7,0.2c0.5,0,0.9-0.2,0.9-0.7c0-0.5-0.5-0.7-1-1c-0.7-0.4-1.3-0.9-1.3-1.8
		c0-0.9,0.7-1.4,1.8-1.4c0.6,0,1.1,0.2,1.3,0.4c0,0.2,0,0.4,0,0.6c0,0.4-0.1,0.6-0.5,0.6c-0.1,0-0.1,0-0.1,0L207.6,110.8z"/>
	<path fill="#231F20" d="M212.8,110.7h-1.5v3.2c0,0.5,0.2,0.9,0.7,0.9c0.4,0,0.8-0.2,0.9-0.3c0.1,0.1,0.1,0.3,0.1,0.4
		c0,0.1-0.4,0.6-1.4,0.6c-1,0-1.4-0.6-1.4-1.4v-3.4h-0.8c0,0,0-0.1,0-0.1c0-0.2,0.1-0.3,0.3-0.4l0.5-0.1l0.3-1.5h0.8v1.5h1.6
		L212.8,110.7z"/>
	<path fill="#231F20" d="M217.5,114.2c0,0.4,0.2,0.6,0.4,0.6c0.3,0,0.4-0.1,0.4-0.2c0.1,0.1,0.1,0.2,0.1,0.3c0,0.1-0.3,0.6-1,0.6
		c-0.5,0-0.8-0.2-0.9-0.8h0c-0.1,0.2-0.5,0.8-1.4,0.8c-0.8,0-1.4-0.6-1.4-1.4c0-1.2,1.3-1.6,2.5-1.6h0.3V112c0-1-0.3-1.4-0.9-1.4
		c-0.3,0-0.5,0.1-0.6,0.1c-0.1,0.2-0.2,0.6-0.2,1c0,0-0.2,0-0.3,0c-0.4,0-0.6-0.2-0.6-0.5c0-0.7,0.9-1.2,1.9-1.2
		c1.2,0,1.8,0.7,1.8,1.9V114.2z M216.2,113c-0.9,0-1.4,0.4-1.4,0.9c0,0.5,0.3,0.8,0.7,0.8c0.5,0,0.8-0.3,0.9-0.5V113L216.2,113z"/>
	<path fill="#231F20" d="M224,110.7h-0.9c0.2,0.3,0.3,0.6,0.3,1c0,1.2-1,1.8-2.2,1.8c-0.2,0-0.4,0-0.5-0.1c-0.2,0.1-0.3,0.2-0.3,0.5
		c0,0.3,0.2,0.4,0.5,0.4h1.3c1,0,1.6,0.5,1.6,1.3c0,1.1-1.1,2.1-2.9,2.1c-1.4,0-2-0.5-2-1.3c0-0.8,0.6-1.1,1-1.3v0
		c-0.3-0.2-0.5-0.4-0.5-0.8c0-0.6,0.6-0.9,0.8-1v0c-0.6-0.3-1-0.8-1-1.6c0-1.2,1-1.8,2.1-1.8c0.3,0,0.6,0,0.9,0.1h1.9L224,110.7z
		 M220.8,115.3c-0.2,0-0.3,0-0.4,0c-0.3,0.2-0.5,0.4-0.5,0.8c0,0.6,0.4,0.9,1.2,0.9c1.1,0,1.7-0.5,1.7-1.1c0-0.5-0.3-0.6-0.8-0.6
		H220.8z M220.3,111.7c0,0.9,0.4,1.2,1,1.2c0.6,0,1-0.3,1-1.2c0-0.8-0.4-1.2-1-1.2C220.8,110.5,220.3,110.9,220.3,111.7z"/>
</g>
</svg>
